<?xml version="1.0" encoding="UTF-8"?><svg id="Layer_2" xmlns="http://www.w3.org/2000/svg" viewBox="0 0 1920 1080"><defs><style>.cls-1{fill:none;}.cls-1,.cls-2,.cls-3{stroke-width:0px;}.cls-2{fill:#000;}.cls-3{fill:#fff;}</style></defs><g id="Independent_Women"><path class="cls-1" d="M624.27,214.01c.67.82,1.36,1.63,2.09,2.4,9.63,10.22,23.51,15.63,40.13,15.63,34.73,0,59.65-24.11,83.35-48.65,1.27,1.16,2.54,2.3,3.81,3.44,24.96,23.17,50.73,45.21,77.83,45.21,16.34,0,29.87-5.25,39.13-15.18,8.14-8.73,12.62-20.73,12.62-33.78,0-16.82-7.74-34.33-22.48-44.45-8.74-10.45-21.88-17.63-39.08-17.63-31.7,0-54.55,23.74-78.74,48.87-.93.97-1.86,1.94-2.8,2.91-2.85-2.63-5.7-5.25-8.57-7.81-24.26-22.53-49.27-43.96-74.89-43.96-35.01,0-53.33,26.11-53.33,51.91,0,13.24,4.69,25.51,13.2,34.55,2.33,2.47,4.91,4.65,7.71,6.55Z"/><path class="cls-2" d="M414.84,222.94c-13.96,2.72-26.84,9.43-37.25,19.55l-.41.4-.8-.83.41-.4c10.42-10.13,23.28-16.88,37.22-19.72-22.05-25.51-54.49-41.79-90.75-42.24v42.44h-1.15v-42.46c-.14,0-.27,0-.41,0-36.09,0-68.51,15.68-90.84,40.59,14.13,2.78,27.17,9.58,37.72,19.83l.41.4-.8.83-.41-.4c-10.55-10.26-23.64-17-37.81-19.65-18.81,21.46-30.22,49.57-30.22,80.35,0,.22,0,.44,0,.66h42.2v1.15h-42.19c.44,30.45,12.04,58.19,30.9,79.32,13.9-2.74,26.73-9.43,37.11-19.52l.41-.4.8.83-.41.4c-10.37,10.09-23.17,16.82-37.03,19.68,22.3,24.47,54.43,39.83,90.15,39.83.14,0,.27,0,.41,0v-39.98h1.15v39.97c34.64-.44,65.79-15.31,87.73-38.88-12.77-3.16-24.53-9.65-34.19-19.05l-.41-.4.8-.83.41.4c9.67,9.41,21.48,15.85,34.3,18.9,19.35-21.25,31.28-49.37,31.73-80.26h-40.21v-1.15h40.23c0-.22,0-.44,0-.66,0-29.99-10.84-57.45-28.8-78.69ZM369.19,248.84v-19h1.15v19h18.43v1.15h-19.58v-1.15ZM353.64,262.65h43.39v.77h-43.39v-.77ZM353.64,268.41h43.39v.77h-43.39v-.77ZM353.64,274.17h43.39v.77h-43.39v-.77ZM353.64,279.93h43.39v.77h-43.39v-.77ZM353.64,285.69h43.39v.77h-43.39v-.77ZM329.45,309.5v-.77h43.39v.77h-43.39ZM372.84,314.49v.77h-43.39v-.77h43.39ZM329.45,303.74v-.77h43.39v.77h-43.39ZM329.45,297.98v-.77h43.39v.77h-43.39ZM329.45,292.22v-.77h43.39v.77h-43.39ZM309.44,217.01l13.44,13.44,13.03-13.03.81.81-13.03,13.03-.81.81-14.25-14.25.81-.81ZM302.96,262.65h43.39v.77h-43.39v-.77ZM302.96,268.41h43.39v.77h-43.39v-.77ZM302.96,274.17h43.39v.77h-43.39v-.77ZM302.96,279.93h43.39v.77h-43.39v-.77ZM302.96,285.69h43.39v.77h-43.39v-.77ZM277.62,309.5v-.77h43.39v.77h-43.39ZM321.01,314.49v.77h-43.39v-.77h43.39ZM277.62,303.74v-.77h43.39v.77h-43.39ZM277.62,297.98v-.77h43.39v.77h-43.39ZM277.62,292.22v-.77h43.39v.77h-43.39ZM254.39,245.76h19v-18.43h1.15v19.58h-20.16v-1.15ZM251.13,262.65h43.39v.77h-43.39v-.77ZM251.13,268.41h43.39v.77h-43.39v-.77ZM251.13,274.17h43.39v.77h-43.39v-.77ZM251.13,279.93h43.39v.77h-43.39v-.77ZM251.13,285.69h43.39v.77h-43.39v-.77ZM251.06,303.49l-13.44,13.44-.81-.81,13.44-13.44-13.03-13.03.81-.81,13.03,13.03.81.81-.81.81ZM276.16,356.92v19h-1.15v-19h-18.43v-1.15h19.58v1.15ZM295.67,345.21h-43.39v-.77h43.39v.77ZM295.67,339.45h-43.39v-.77h43.39v.77ZM295.67,333.69h-43.39v-.77h43.39v.77ZM295.67,327.93h-43.39v-.77h43.39v.77ZM295.67,322.17h-43.39v-.77h43.39v.77ZM335.91,388.75l-13.44-13.44-13.03,13.03-.81-.81,13.03-13.03.81-.81.81.81,13.44,13.44-.81.81ZM347.5,345.21h-43.39v-.77h43.39v.77ZM347.5,339.45h-43.39v-.77h43.39v.77ZM347.5,333.69h-43.39v-.77h43.39v.77ZM347.5,327.93h-43.39v-.77h43.39v.77ZM347.5,322.17h-43.39v-.77h43.39v.77ZM390.96,359.99h-19v18.43h-1.15v-19.58h20.16v1.15ZM398.18,345.21h-43.39v-.77h43.39v.77ZM398.18,339.45h-43.39v-.77h43.39v.77ZM398.18,333.69h-43.39v-.77h43.39v.77ZM398.18,327.93h-43.39v-.77h43.39v.77ZM398.18,322.17h-43.39v-.77h43.39v.77ZM395.1,303.08l13.03,13.03-.81.81-13.03-13.03-.81-.81.81-.81,13.44-13.44.81.81-13.44,13.44Z"/><path class="cls-2" d="M860.03,207.17c7.96-8.53,12.34-20.27,12.34-33.05s-4.22-24.93-12.34-34.69c-7.64-5.21-17.18-8.4-28.53-8.4-31.25,0-53.94,23.58-77.96,48.54-.96,1-1.92,2-2.88,2.99,1.23,1.15,2.47,2.31,3.71,3.46,21.74,19.45,44.12,35.99,67.33,35.99,16.03,0,29.29-5.13,38.34-14.84Z"/><path class="cls-2" d="M749.87,181.83c.97-1,1.93-2,2.89-3,24.19-25.13,47.03-48.87,78.74-48.87,10.07,0,18.73,2.47,25.95,6.6-8.49-8.71-20.49-14.48-35.76-14.48-31.25,0-53.94,23.58-77.96,48.54-.93.96-1.85,1.93-2.78,2.89,2.29,2.12,4.57,4.26,6.85,6.39.69.64,1.38,1.29,2.07,1.94Z"/><path class="cls-2" d="M869.84,216.12c7.95-8.53,12.33-20.27,12.33-33.05,0-15.24-6.49-31.05-18.87-41.19,6.69,9.45,10.14,20.99,10.14,32.23,0,13.05-4.48,25.05-12.62,33.78-9.26,9.93-22.79,15.18-39.13,15.18s-31.24-7.54-46.28-18.43c18.2,14.95,36.86,26.31,56.08,26.31,16.03,0,29.29-5.13,38.34-14.84Z"/><path class="cls-2" d="M666.5,129.95c14.78,0,29.35,7.13,43.7,17.49-17.55-14.44-35.42-25.37-53.5-25.37-25.97,0-52.26,17.46-52.26,50.83,0,12.97,4.58,24.98,12.91,33.81,1.44,1.53,2.98,2.93,4.61,4.23-5.7-8.25-8.79-18.35-8.79-29.09,0-25.79,18.32-51.91,53.33-51.91Z"/><path class="cls-2" d="M656.69,223.08c-11.13,0-21.03-2.44-29.24-7.11,9.41,9.8,22.9,14.99,39.05,14.99,34.27,0,59.01-23.93,82.56-48.3-3-2.74-5.98-5.51-8.96-8.29-23.72,24.56-48.65,48.71-83.41,48.71Z"/><path class="cls-2" d="M614.24,181.86c0,11.8,3.81,22.81,10.77,31.35,8.59,5.78,19.36,8.79,31.68,8.79,34.3,0,59.06-23.97,82.62-48.36-.69-.64-1.37-1.28-2.06-1.92-2.12-1.98-4.25-3.97-6.39-5.96-21.02-18.79-42.55-34.73-64.37-34.73-25.97,0-52.26,17.46-52.26,50.83Z"/><path class="cls-3" d="M740.06,172.87s.06-.07.09-.1c-2.85-2.63-5.7-5.25-8.57-7.81,2.14,1.99,4.27,3.98,6.4,5.97.69.65,1.38,1.29,2.07,1.94Z"/><path class="cls-3" d="M749.85,183.39c1.27,1.16,2.54,2.3,3.81,3.44-1.25-1.16-2.51-2.33-3.76-3.5-.02.02-.04.04-.06.06Z"/><path class="cls-3" d="M627.15,215.67c-.75-.79-1.45-1.62-2.14-2.46-1.06-.71-2.07-1.47-3.06-2.26.73,1.05,1.51,2.07,2.32,3.06,1.03.7,2.09,1.35,3.18,1.97-.1-.1-.2-.2-.3-.3Z"/><rect class="cls-1" x="385.87" y="628.96" width="1" height="51.38" transform="translate(-272.79 276.02) rotate(-29.58)"/><rect class="cls-1" x="403.12" y="626.54" width="1" height="51.38" transform="translate(-269.35 284.22) rotate(-29.58)"/><polygon class="cls-1" points="375.61 575 371.66 587.14 358.89 587.14 369.22 594.65 365.28 606.79 375.61 599.29 385.94 606.79 381.99 594.65 392.32 587.14 379.55 587.14 375.61 575"/><rect class="cls-1" x="367.63" y="631.33" width="1" height="51.38" transform="translate(-276.33 267.31) rotate(-29.58)"/><rect class="cls-1" x="365.77" y="663.25" width="1" height="51.38" transform="translate(-292.33 270.57) rotate(-29.58)"/><path class="cls-1" d="M444.79,301.64c0-29.19-10.1-56.82-28.62-78.92,4.24-.75,8.57-1.15,12.96-1.15.16,0,.32,0,.48,0,19.56.12,37.95,7.81,51.79,21.64l.41.41.81-.81-.41-.41c-14.05-14.05-32.73-21.86-52.59-21.98-.16,0-.32,0-.49,0-4.68,0-9.3.44-13.82,1.28-2.09-2.44-4.28-4.81-6.57-7.1-22.88-22.88-53.19-35.64-85.48-36.04v-68.13h-1.15v68.12c-.14,0-.27,0-.41,0-32.88,0-63.8,12.8-87.05,36.06-1.77,1.77-3.48,3.6-5.13,5.46-4.34-.77-8.78-1.19-13.28-1.19-.16,0-.32,0-.49,0-19.87.12-38.54,7.93-52.59,21.98l-.41.41.81.81.41-.41c13.83-13.83,32.22-21.52,51.78-21.64.16,0,.32,0,.48,0,4.19,0,8.33.37,12.38,1.05-19.42,22.37-30.03,50.66-30.03,80.57,0,.22,0,.44,0,.66h-68.37v1.15h68.38c.42,29.6,11.24,57.52,30.71,79.56-4.28.76-8.66,1.17-13.09,1.17-.16,0-.32,0-.48,0-19.56-.12-37.95-7.81-51.78-21.64l-.41-.41-.81.81.41.41c14.05,14.05,32.73,21.86,52.59,21.98.16,0,.32,0,.48,0,4.74,0,9.42-.45,13.99-1.31,1.43,1.58,2.9,3.14,4.42,4.66,23.25,23.25,54.16,36.06,87.05,36.06.14,0,.27,0,.41,0v70.59h1.15v-70.61c32.3-.4,62.6-13.16,85.48-36.04,1.21-1.21,2.39-2.45,3.54-3.7,5.47,1.25,11.1,1.91,16.84,1.91.16,0,.33,0,.49,0,19.87-.12,38.54-7.93,52.59-21.98l.41-.41-.81-.81-.41.41c-13.83,13.83-32.22,21.52-51.79,21.64-.16,0-.32,0-.48,0-5.42,0-10.76-.6-15.94-1.74,20.03-22.19,31.16-50.5,31.59-80.55h70.36v-1.15h-70.35c0-.22,0-.44,0-.66Z"/><rect class="cls-1" x="398.2" y="684.2" width="1" height="51.38" transform="translate(-298.44 289.29) rotate(-29.58)"/><rect class="cls-1" x="417.67" y="684.2" width="1" height="51.38" transform="translate(-295.9 298.9) rotate(-29.58)"/><rect class="cls-1" x="435.92" y="684.2" width="1" height="51.38" transform="translate(-293.53 307.92) rotate(-29.58)"/><rect class="cls-1" x="347.53" y="665.62" width="1" height="51.38" transform="translate(-295.87 261.86) rotate(-29.58)"/><path class="cls-1" d="M624.27,214.01c.67.82,1.36,1.63,2.09,2.4,9.63,10.22,23.51,15.63,40.13,15.63,34.73,0,59.65-24.11,83.35-48.65,1.27,1.16,2.54,2.3,3.81,3.44,24.96,23.17,50.73,45.21,77.83,45.21,16.34,0,29.87-5.25,39.13-15.18,8.14-8.73,12.62-20.73,12.62-33.78,0-16.82-7.74-34.33-22.48-44.45-8.74-10.45-21.88-17.63-39.08-17.63-31.7,0-54.55,23.74-78.74,48.87-.93.97-1.86,1.94-2.8,2.91-2.85-2.63-5.7-5.25-8.57-7.81-24.26-22.53-49.27-43.96-74.89-43.96-35.01,0-53.33,26.11-53.33,51.91,0,13.24,4.69,25.51,13.2,34.55,2.33,2.47,4.91,4.65,7.71,6.55Z"/><polygon class="cls-1" points="334.23 607.27 330.29 595.13 326.34 607.27 313.57 607.27 323.9 614.78 319.96 626.92 330.29 619.42 340.62 626.92 336.67 614.78 347 607.27 334.23 607.27"/><path class="cls-1" d="M333.49,751.96l-2.81-10.21-7.2-.21-1.82,15.33-19.65,32.33-19.84,14.09-.46-35.37-.47-.04c10.66-9.23,17.41-22.85,17.41-38.05,0-7.17-1.51-13.99-4.22-20.17l.67.37v-22.23l-10.86,6.79c-9.13-9.3-21.84-15.08-35.91-15.08-27.79,0-50.32,22.53-50.32,50.32,0,16.39,7.84,30.94,19.96,40.13l-75.62,116.76h140.91l-.74-56.81,33.93-28.21,19.64-38.37,21.6.64-.26-10.91-23.92-1.1Z"/><rect class="cls-1" x="328.06" y="665.85" width="1" height="51.38" transform="translate(-298.52 252.28) rotate(-29.58)"/><path class="cls-2" d="M1558.37,729.7l-21.45,13.24-7.04-25.94-12.42-5.68-15.11,4.45-5.57,17.97,26.4,35.29,16.07,7.02,31.28-17.41,4.32-11.75-1.32-10.5-15.16-6.69ZM1562.48,753.77l-21.34,13.41-15.56-5.58-19.08-24.58,4.02-14.08,4.16-2.94,10.63,4.92,8.52,25.23,21.91-12.1,11.55,5.25-4.79,10.48Z"/><path class="cls-2" d="M1399.1,363.6h200.51v-206.06h-200.51v206.06ZM1497.02,230.45v-34.8l-15.03,15.41-3.58-3.49,20.29-20.82.26.25.28-.29,21.34,21.01-3.51,3.56-15.06-14.83v34.02c23.47,1.41,42.14,21.26,42.14,45.46s-20.1,45.55-44.82,45.55-44.82-20.43-44.82-45.55,18.85-44.26,42.49-45.49Z"/><path class="cls-2" d="M1499.35,316.5c21.96,0,39.82-18.19,39.82-40.55s-17.86-40.55-39.82-40.55-39.82,18.19-39.82,40.55,17.86,40.55,39.82,40.55Z"/><path class="cls-2" d="M1745.28,283.05c22.23,0,40.32-18.42,40.32-41.05s-18.08-41.05-40.32-41.05-40.32,18.42-40.32,41.05,18.09,41.05,40.32,41.05Z"/><path class="cls-2" d="M0,0v1080h1920V0H0ZM1835.3,108.54l.04.04.08-.08,5.18,5.27-.71.7-4.03-4.1v31.14h-1v-31.1l-4.03,4.1-.71-.7,5.18-5.27ZM1822.44,98.54l.04.04.08-.08,5.18,5.27-.71.7-4.03-4.1v32.94h-1v-32.9l-4.03,4.1-.71-.7,5.18-5.27ZM1809.57,108.54l.04.04.08-.08,5.18,5.27-.71.7-4.03-4.1v31.14h-1v-31.1l-4.03,4.1-.71-.7,5.18-5.27ZM1796.71,98.54l.04.04.08-.08,5.18,5.27-.71.7-4.03-4.1v32.94h-1v-32.9l-4.03,4.1-.71-.7,5.18-5.27ZM1783.85,108.54l.04.04.08-.08,5.18,5.27-.71.7-4.03-4.1v31.14h-1v-31.1l-4.03,4.1-.71-.7,5.18-5.27ZM1770.99,98.54l.04.04.08-.08,5.18,5.27-.71.7-4.03-4.1v32.94h-1v-32.9l-4.03,4.1-.71-.7,5.18-5.27ZM1758.12,108.54l.04.04.08-.08,5.18,5.27-.71.7-4.03-4.1v31.14h-1v-31.1l-4.03,4.1-.71-.7,5.18-5.27ZM1745.26,98.54l.04.04.08-.08,5.18,5.27-.71.7-4.03-4.1v32.94h-1v-32.9l-4.03,4.1-.71-.7,5.18-5.27ZM1732.4,108.54l.04.04.08-.08,5.18,5.27-.71.7-4.03-4.1v31.14h-1v-31.1l-4.03,4.1-.71-.7,5.18-5.27ZM1719.54,98.54l.04.04.08-.08,5.18,5.27-.71.7-4.03-4.1v32.94h-1v-32.9l-4.03,4.1-.71-.7,5.18-5.27ZM1706.67,108.54l.04.04.08-.08,5.18,5.27-.71.7-4.03-4.1v31.14h-1v-31.1l-4.03,4.1-.71-.7,5.18-5.27ZM1693.81,98.54l.04.04.08-.08,5.18,5.27-.71.7-4.03-4.1v32.94h-1v-32.9l-4.03,4.1-.71-.7,5.18-5.27ZM1680.95,108.54l.04.04.08-.08,5.18,5.27-.71.7-4.03-4.1v31.14h-1v-31.1l-4.03,4.1-.71-.7,5.18-5.27ZM1668.09,98.54l.04.04.08-.08,5.18,5.27-.71.7-4.03-4.1v32.94h-1v-32.9l-4.03,4.1-.71-.7,5.18-5.27ZM1655.23,108.54l.04.04.08-.08,5.18,5.27-.71.7-4.03-4.1v31.14h-1v-31.1l-4.03,4.1-.71-.7,5.18-5.27ZM1642.36,98.54l.04.04.08-.08,5.18,5.27-.71.7-4.03-4.1v32.94h-1v-32.9l-4.03,4.1-.71-.7,5.18-5.27ZM1622.14,546.84l17.15-8.06.83.36,6.2-2.91,1.33.48,10.36,22.06-.48,1.33-9.8,4.6-1.33-.48-4.67-9.95-.3.49-.43.39-7.35,3.45-1.04-.12-1.89-1.49-3.12,1.46-1.33-.48-4.6-9.8.48-1.33ZM1719.7,554.77c-5.97,5.68-11.31,7.48-15.59,8.92-2.39.81-4.46,1.5-5.94,2.71-1.59,1.3-1.58,3.46-1.58,6.45.01,3.86.03,8.67-3.58,13.81-3.35,4.77-16.51,9.45-17.07,9.65l-1.24-.52-16.69-35.54.48-1.33,62.49-29.35,1.33.48c.07.16,1.8,3.88,2.38,8.77.78,6.58-.95,12.1-4.99,15.94ZM1730.37,713.32c.12.25.01.55-.24.67-.07.03-.14.05-.21.05-.19,0-.37-.11-.45-.29l-52.38-111.51c-.12-.25-.01-.55.24-.67.25-.12.55,0,.67.24l52.38,111.51ZM1582.71,125.54l4.03,4.1v-31.14h1v31.1l4.03-4.1.71.7-5.18,5.27-.04-.04-.08.08-5.18-5.27.71-.7ZM1569.84,135.54l4.03,4.1v-32.94h1v32.9l4.03-4.1.71.7-5.18,5.27-.04-.04-.08.08-5.18-5.27.71-.7ZM1556.98,125.54l4.03,4.1v-31.14h1v31.1l4.03-4.1.71.7-5.18,5.27-.04-.04-.08.08-5.18-5.27.71-.7ZM1544.12,135.54l4.03,4.1v-32.94h1v32.9l4.03-4.1.71.7-5.18,5.27-.04-.04-.08.08-5.18-5.27.71-.7ZM1531.26,125.54l4.03,4.1v-31.14h1v31.1l4.03-4.1.71.7-5.18,5.27-.04-.04-.08.08-5.18-5.27.71-.7ZM1518.39,135.54l4.03,4.1v-32.94h1v32.9l4.03-4.1.71.7-5.18,5.27-.04-.04-.08.08-5.18-5.27.71-.7ZM1505.53,125.54l4.03,4.1v-31.14h1v31.1l4.03-4.1.71.7-5.18,5.27-.04-.04-.08.08-5.18-5.27.71-.7ZM1492.67,135.54l4.03,4.1v-32.94h1v32.9l4.03-4.1.71.7-5.18,5.27-.04-.04-.08.08-5.18-5.27.71-.7ZM1479.81,125.54l4.03,4.1v-31.14h1v31.1l4.03-4.1.71.7-5.18,5.27-.04-.04-.08.08-5.18-5.27.71-.7ZM1466.94,135.54l4.03,4.1v-32.94h1v32.9l4.03-4.1.71.7-5.18,5.27-.04-.04-.08.08-5.18-5.27.71-.7ZM1454.08,125.54l4.03,4.1v-31.14h1v31.1l4.03-4.1.71.7-5.18,5.27-.04-.04-.08.08-5.18-5.27.71-.7ZM1441.22,135.54l4.03,4.1v-32.94h1v32.9l4.03-4.1.71.7-5.18,5.27-.04-.04-.08.08-5.18-5.27.71-.7ZM1428.36,125.54l4.03,4.1v-31.14h1v31.1l4.03-4.1.71.7-5.18,5.27-.04-.04-.08.08-5.18-5.27.71-.7ZM1415.49,135.54l4.03,4.1v-32.94h1v32.9l4.03-4.1.71.7-5.18,5.27-.04-.04-.08.08-5.18-5.27.71-.7ZM1402.63,125.54l4.03,4.1v-31.14h1v31.1l4.03-4.1.71.7-5.18,5.27-.04-.04-.08.08-5.18-5.27.71-.7ZM656.69,121c25.63,0,50.63,21.44,74.89,43.96,2.87,2.56,5.72,5.17,8.57,7.81.93-.97,1.87-1.94,2.8-2.91,24.19-25.13,47.03-48.87,78.74-48.87,17.2,0,30.34,7.18,39.08,17.63,14.74,10.12,22.48,27.63,22.48,44.45,0,13.05-4.48,25.05-12.62,33.78-9.26,9.93-22.79,15.18-39.13,15.18-27.1,0-52.88-22.04-77.83-45.21-1.27-1.14-2.54-2.28-3.81-3.44-23.71,24.54-48.62,48.65-83.35,48.65-16.62,0-30.5-5.4-40.13-15.63-.73-.77-1.42-1.58-2.09-2.4-2.8-1.9-5.38-4.08-7.71-6.55-8.51-9.04-13.2-21.3-13.2-34.55,0-25.79,18.32-51.91,53.33-51.91ZM336.07,763.33l-19.64,38.37-33.93,28.21.74,56.81h-140.91l75.62-116.76c-12.13-9.19-19.96-23.74-19.96-40.13,0-27.79,22.53-50.32,50.32-50.32,14.06,0,26.78,5.78,35.91,15.08l10.86-6.79v22.23l-.67-.37c2.71,6.18,4.22,13,4.22,20.17,0,15.21-6.75,28.82-17.41,38.05l.47.04.46,35.37,19.84-14.09,19.65-32.33,1.82-15.33,7.2.21,2.81,10.21,23.92,1.1.26,10.91-21.6-.64ZM340.62,626.92l-10.33-7.5-10.33,7.5,3.95-12.14-10.33-7.5h12.77l3.95-12.14,3.95,12.14h12.77l-10.33,7.5,3.95,12.14ZM341.67,713.63l-.87.49-25.36-44.68.87-.49,25.36,44.68ZM360.27,713.9l-25.36-44.68.87-.49,25.36,44.68-.87.49ZM378.52,711.53l-25.36-44.68.87-.49,25.36,44.68-.87.49ZM380.38,679.61l-25.36-44.68.87-.49,25.36,44.68-.87.49ZM390.5,630.13l.87-.49,25.36,44.68-.87.49-25.36-44.68ZM399.49,676.75l-.87.49-25.36-44.68.87-.49,25.36,44.68ZM381.99,594.65l3.95,12.14-10.33-7.5-10.33,7.5,3.95-12.14-10.33-7.5h12.77l3.95-12.14,3.95,12.14h12.77l-10.33,7.5ZM410.95,732.48l-25.36-44.68.87-.49,25.36,44.68-.87.49ZM430.42,732.48l-25.36-44.68.87-.49,25.36,44.68-.87.49ZM448.66,732.48l-25.36-44.68.87-.49,25.36,44.68-.87.49ZM515.13,303.45h-70.36c-.43,30.05-11.56,58.35-31.59,80.55,5.18,1.14,10.52,1.74,15.94,1.74.16,0,.32,0,.48,0,19.56-.12,37.95-7.81,51.79-21.64l.41-.41.81.81-.41.41c-14.05,14.05-32.73,21.86-52.59,21.98-.16,0-.33,0-.49,0-5.74,0-11.38-.66-16.84-1.91-1.15,1.25-2.33,2.49-3.54,3.7-22.88,22.88-53.19,35.64-85.48,36.04v70.61h-1.15v-70.59c-.14,0-.27,0-.41,0-32.88,0-63.8-12.8-87.05-36.06-1.52-1.52-2.99-3.07-4.42-4.66-4.57.86-9.25,1.31-13.99,1.31-.16,0-.32,0-.48,0-19.87-.12-38.54-7.93-52.59-21.98l-.41-.41.81-.81.41.41c13.83,13.83,32.22,21.52,51.78,21.64.16,0,.32,0,.48,0,4.44,0,8.81-.41,13.09-1.17-19.47-22.04-30.29-49.96-30.71-79.56h-68.38v-1.15h68.37c0-.22,0-.44,0-.66,0-29.92,10.6-58.2,30.03-80.57-4.06-.68-8.19-1.05-12.38-1.05-.16,0-.32,0-.48,0-19.56.12-37.95,7.81-51.78,21.64l-.41.41-.81-.81.41-.41c14.05-14.05,32.73-21.86,52.59-21.98.16,0,.32,0,.49,0,4.5,0,8.94.41,13.28,1.19,1.65-1.86,3.36-3.68,5.13-5.46,23.25-23.25,54.16-36.06,87.05-36.06.14,0,.27,0,.41,0v-68.12h1.15v68.13c32.3.4,62.6,13.16,85.48,36.04,2.29,2.29,4.48,4.67,6.57,7.1,4.51-.84,9.13-1.28,13.82-1.28.16,0,.32,0,.49,0,19.87.12,38.54,7.93,52.59,21.98l.41.41-.81.81-.41-.41c-13.83-13.83-32.22-21.52-51.79-21.64-.16,0-.32,0-.48,0-4.39,0-8.72.4-12.96,1.15,18.53,22.1,28.62,49.73,28.62,78.92,0,.22,0,.44,0,.66h70.35v1.15ZM1300.24,703.05c-47.17,27.37-91.42-11.32-152.18,29.63-61.95,41.75-17.51,102.35-98.31,122.55-81.09,20.27-94.57-47.01-168.34-67.34-84.24-23.22-126.59,49.83-188.54,20.2-45.1-21.57-15.47-89.01-30.64-125.78-15.62-37.86-73.96-19.3-81.14-69.5-6.73-47.14,64.64-56.56,71.38-98.31,7.17-44.44-14.09-65.51-25.59-90.23-26.94-57.91,11.32-112.72,65.99-123.9,59.26-12.12,75.64,33.12,162.96,52.52,24.24,5.39,75.42,6.73,99.66-35.02,40.36-69.51,50.34-136.14,156.82-117.8,45.83,7.89,76.19,44.76,80.3,90.69,4.83,54.06-27.66,97.48-10.87,160.44,10.77,40.4,45.79,60.6,106.39,79.46,60.54,18.83,95.02,124.28,12.12,172.38ZM1581.31,765.94l-48.21,21.19-15.52-5.71-35.02-48.47,10.45-28.41,25.49-7.31,22.1,10.35,2.28,21.97,17.44-13.6,20.08,7.39,8.12,23-7.21,19.59ZM1600.6,364.1l-.5.5h-201.51l-.5-.5v-207.06l.5-.5h201.51l.5.5v207.06ZM1600.16,141.47l-.04-.04-.08.08-5.18-5.27.71-.7,4.03,4.1v-32.94h1v32.9l4.03-4.1.71.7-5.18,5.27ZM1657.45,590.8s-1.56-1.59-3.63-1.59c-.62,0-1.25.14-1.85.43l-19.61,9.21-1.19-.26-10.01-11.75.34-1.55,28.18-13.24,1.33.48,8.06,17.15-1.63,1.12ZM1719.11,719.17c-.07.03-.14.05-.21.05-.19,0-.37-.11-.45-.29l-58.13-123.76c-.12-.25-.01-.55.24-.67.25-.12.55-.01.67.24l58.13,123.76c.12.25.01.55-.24.67ZM1722.52,730.39l-2.3-4.9.48-1.33,13.48-6.33,1.33.48,2.3,4.9-.48,1.33-13.48,6.33-1.33-.48ZM1731.98,750.53l-2.3-4.9.48-1.33,13.48-6.33,1.33.48,2.3,4.9-.48,1.33-13.48,6.33-1.33-.48ZM1747.71,747.06l50.07,106.61c.12.25.01.55-.24.67-.07.03-.14.05-.21.05-.19,0-.37-.11-.45-.29l-50.07-106.61c-.12-.25-.01-.55.24-.67.25-.12.55,0,.67.24ZM1735.37,753.8c.25-.12.55,0,.67.24l49.5,105.38c.12.25.01.55-.24.67-.07.03-.14.05-.21.05-.19,0-.37-.11-.45-.29l-49.5-105.38c-.12-.25-.01-.55.24-.67ZM1811.09,899.85c-2.87-6.1-11.65-22.12-17.81-23.04-.61-.09-1.16-.1-1.69-.1-1.82-.02-3.54-.05-6.2-3.01-.67-.74-.98-1.66-.92-2.66.18-2.72,3.14-5.31,3.48-5.6l.22-.14,11.03-5.18.17-.06s1.23-.32,2.72-.32c2.83,0,4.83,1.06,5.78,3.08,1.29,2.74.24,4.2-.77,5.61-.36.5-.73,1.02-1.05,1.64-2.24,4.43,4.2,22.42,6.87,28.98l-1.83.8ZM1842.5,365l-.5.5h-201.51l-.5-.5v-207.06l.5-.5h201.51l.5.5v207.06Z"/><path class="cls-1" d="M1700.96,242c0,.77.02,1.53.06,2.28-.04-.76-.06-1.52-.06-2.28h0Z"/><path class="cls-1" d="M1701.19,246.54c-.05-.51-.08-1.02-.11-1.53.03.51.06,1.02.11,1.53Z"/><path class="cls-2" d="M1640.99,158.44v206.06h200.51v-206.06h-200.51ZM1776.09,274.33c-.19.19-.38.37-.57.56-.32.3-.64.6-.97.89-.19.17-.39.34-.58.51-.34.29-.68.58-1.03.86-.19.16-.39.31-.59.47-.36.28-.72.56-1.09.83-.19.14-.39.28-.59.42-.38.27-.76.54-1.15.79-.19.13-.39.25-.58.38-.4.26-.8.51-1.21.75-.19.11-.38.23-.58.34-.42.24-.84.48-1.27.71-.19.1-.38.2-.57.3-.44.23-.88.45-1.33.66-.18.09-.37.17-.55.25-.46.21-.93.42-1.4.62-.18.07-.35.14-.53.21-.48.19-.97.38-1.46.56-.17.06-.34.12-.5.17-.51.18-1.02.35-1.53.51-.15.05-.31.09-.46.13-.53.16-1.07.31-1.61.44-.14.04-.28.07-.42.1-.56.14-1.12.26-1.69.38-.12.02-.25.04-.37.07-.59.11-1.18.22-1.78.31-.1.01-.19.02-.29.04-.63.09-1.26.17-1.89.23-.06,0-.12,0-.18.01-.67.06-1.35.11-2.04.14h0v16.04h16.14v4h0s-16.13,0-16.13,0v22.08h0s-4,0-4,0h0v-22.09h-17.2v-4h0s17.2,0,17.2,0v-16.04h0c-.68-.03-1.36-.08-2.03-.14-.06,0-.12,0-.18-.01-.63-.06-1.26-.14-1.89-.23-.1-.01-.2-.02-.29-.04-.6-.09-1.19-.19-1.78-.31-.12-.02-.25-.04-.38-.07-.56-.11-1.12-.24-1.68-.38-.14-.03-.29-.07-.43-.1-.54-.14-1.07-.29-1.6-.44-.16-.05-.32-.09-.48-.14-.51-.16-1.02-.33-1.52-.5-.17-.06-.35-.12-.52-.18-.49-.18-.97-.36-1.45-.56-.18-.07-.36-.14-.55-.22-.46-.19-.92-.4-1.38-.61-.19-.09-.38-.17-.57-.26-.44-.21-.88-.43-1.31-.65-.2-.1-.39-.2-.59-.31-.42-.23-.83-.46-1.25-.7-.2-.12-.4-.23-.6-.35-.4-.24-.79-.49-1.18-.74-.2-.13-.41-.26-.61-.4-.38-.25-.75-.51-1.12-.77-.21-.15-.41-.29-.62-.45-.36-.26-.71-.53-1.06-.81-.21-.16-.41-.33-.62-.49-.34-.27-.67-.55-1-.84-.21-.18-.41-.36-.62-.54-.32-.28-.63-.57-.94-.86-.21-.2-.41-.39-.61-.59-.3-.29-.59-.59-.88-.89-.2-.21-.4-.43-.6-.64-.28-.3-.55-.6-.81-.91-.2-.23-.4-.46-.59-.69-.26-.3-.51-.61-.76-.92-.2-.25-.39-.49-.58-.74-.24-.31-.47-.62-.7-.94-.19-.26-.37-.53-.55-.79-.22-.32-.43-.63-.64-.95-.18-.28-.36-.56-.53-.84-.2-.32-.4-.64-.59-.96-.17-.29-.34-.59-.51-.89-.18-.32-.36-.64-.53-.97-.16-.31-.32-.63-.48-.94-.16-.32-.32-.65-.48-.97-.15-.33-.3-.66-.44-.99-.14-.33-.29-.65-.42-.98-.14-.34-.27-.69-.4-1.04-.12-.33-.25-.65-.37-.98-.13-.36-.24-.72-.36-1.08-.11-.33-.22-.65-.32-.98-.11-.38-.21-.76-.32-1.14-.09-.32-.18-.65-.26-.97-.1-.4-.18-.8-.27-1.2-.07-.32-.15-.63-.21-.95-.08-.42-.15-.84-.22-1.26-.05-.31-.11-.62-.16-.93-.07-.45-.12-.9-.17-1.36-.03-.29-.08-.58-.11-.87-.05-.51-.08-1.02-.11-1.53-.02-.24-.04-.48-.05-.72-.04-.76-.06-1.52-.06-2.28h0c0-24.84,19.88-45.05,44.32-45.05s44.32,20.21,44.32,45.05c0,.47-.02.93-.04,1.4,0,.29,0,.58-.02.86-.02.41-.06.81-.09,1.22-.03.35-.04.7-.08,1.04-.04.39-.09.78-.14,1.17-.04.35-.08.7-.13,1.05-.06.39-.13.77-.2,1.15-.06.35-.11.7-.18,1.04-.08.38-.17.75-.25,1.13-.08.34-.15.68-.23,1.02-.09.38-.2.75-.3,1.12-.09.33-.18.66-.28.99-.11.37-.24.74-.36,1.11-.11.32-.21.64-.32.96-.13.37-.27.73-.41,1.09-.12.31-.23.62-.36.93-.15.36-.31.72-.46,1.07-.13.3-.26.6-.4.89-.17.36-.34.71-.52,1.06-.14.29-.28.57-.43.86-.19.35-.38.7-.57,1.04-.15.27-.3.55-.46.82-.2.35-.42.69-.63,1.03-.16.26-.32.52-.49.78-.22.34-.45.68-.68,1.01-.17.25-.34.49-.51.73-.24.33-.49.66-.74.99-.18.23-.35.46-.54.69-.26.33-.53.65-.79.97-.18.22-.37.44-.55.65-.28.32-.56.63-.85.95-.19.2-.38.4-.57.6-.3.31-.6.62-.91.92Z"/><path class="cls-3" d="M1701.07,245c-.02-.24-.04-.48-.05-.72.01.24.04.48.05.72Z"/></g></svg>