<?xml version="1.0" encoding="UTF-8"?><svg id="Layer_2" xmlns="http://www.w3.org/2000/svg" xmlns:xlink="http://www.w3.org/1999/xlink" viewBox="0 0 57.25 107.64"><defs><style>.cls-1{fill:#3e170e;}.cls-1,.cls-2,.cls-3,.cls-4,.cls-5,.cls-6,.cls-7,.cls-8,.cls-9,.cls-10,.cls-11,.cls-12,.cls-13,.cls-14,.cls-15,.cls-16,.cls-17,.cls-18,.cls-19,.cls-20,.cls-21,.cls-22,.cls-23,.cls-24,.cls-25,.cls-26,.cls-27,.cls-28,.cls-29,.cls-30,.cls-31,.cls-32,.cls-33,.cls-34,.cls-35,.cls-36,.cls-37,.cls-38,.cls-39,.cls-40,.cls-41,.cls-42,.cls-43,.cls-44,.cls-45,.cls-46,.cls-47,.cls-48,.cls-49,.cls-50,.cls-51,.cls-52,.cls-53,.cls-54,.cls-55,.cls-56,.cls-57,.cls-58,.cls-59,.cls-60,.cls-61,.cls-62,.cls-63,.cls-64,.cls-65,.cls-66,.cls-67,.cls-68,.cls-69,.cls-70,.cls-71,.cls-72,.cls-73,.cls-74,.cls-75,.cls-76,.cls-77,.cls-78,.cls-79,.cls-80,.cls-81,.cls-82,.cls-83,.cls-84,.cls-85,.cls-86,.cls-87,.cls-88,.cls-89,.cls-90,.cls-91,.cls-92,.cls-93,.cls-94,.cls-95{stroke-width:0px;}.cls-2{fill:#f8dcd8;}.cls-3{fill:#fee1ba;}.cls-4{fill:#f5ded9;}.cls-5{fill:#af8a83;}.cls-6{fill:#34160f;}.cls-7{fill:#fed8af;}.cls-8{fill:#34140c;}.cls-9{fill:#43170d;}.cls-10{fill:#592d1f;}.cls-11{fill:#511d16;}.cls-12{fill:#5d221c;}.cls-13{fill:#2f120b;}.cls-96{clip-path:url(#clippath);}.cls-14{fill:#ca7f79;}.cls-15{fill:none;}.cls-16{fill:#37140c;}.cls-17{fill:#7d4835;}.cls-18{fill:#feede9;}.cls-19{fill:#7e5751;}.cls-20{fill:#fee6c0;}.cls-21{fill:#1c0d09;}.cls-22{fill:#29110a;}.cls-23{fill:#663426;}.cls-24{fill:url(#linear-gradient);}.cls-25{fill:#38140c;}.cls-26{fill:#3f160d;}.cls-27{fill:#e8cec7;}.cls-28{fill:#2e120b;}.cls-29{fill:#9f7973;}.cls-30{fill:#230f0a;}.cls-31{fill:#feebcd;}.cls-32{fill:#d4b2ae;}.cls-33{fill:#a73c32;}.cls-34{fill:#802e28;}.cls-35{fill:#feeed8;}.cls-36{fill:#9b3a30;}.cls-37{fill:#fef0e2;}.cls-38{fill:#47180e;}.cls-39{fill:#a8453d;}.cls-40{fill:#fee8c3;}.cls-41{fill:#210e09;}.cls-42{fill:#fedab3;}.cls-43{fill:#39150c;}.cls-44{fill:#b4483b;}.cls-45{fill:#97362e;}.cls-46{fill:#4a2923;}.cls-47{fill:#a13931;}.cls-48{fill:#bc9691;}.cls-49{fill:#96362f;}.cls-50{fill:#feecce;}.cls-51{fill:#fed3ab;}.cls-52{fill:#fedab2;}.cls-53{fill:#59362c;}.cls-54{fill:#cc776c;}.cls-55{fill:#402019;}.cls-56{fill:#947069;}.cls-57{fill:#250f0a;}.cls-58{fill:#533029;}.cls-59{fill:#762a24;}.cls-60{fill:#3d150d;}.cls-61{fill:#e9b18d;}.cls-62{fill:#2b110b;}.cls-63{fill:#693425;}.cls-64{fill:#7f5542;}.cls-65{fill:#de9f98;}.cls-66{fill:#804f3c;}.cls-67{fill:#ab4036;}.cls-68{fill:#b04338;}.cls-69{fill:#8d543f;}.cls-70{fill:#b67e64;}.cls-71{fill:#782b24;}.cls-72{fill:#33130c;}.cls-73{fill:#65403a;}.cls-74{fill:#45180e;}.cls-75{fill:#fefefe;}.cls-76{fill:#dca684;}.cls-77{fill:#491b11;}.cls-78{fill:#3b150d;}.cls-79{fill:#8f332b;}.cls-80{fill:#2a110b;}.cls-81{fill:#42170d;}.cls-82{fill:#44170e;}.cls-83{fill:#1f0e0a;}.cls-84{fill:#2f130d;}.cls-85{fill:#3e160d;}.cls-86{fill:#fce7e3;}.cls-87{fill:#6f2823;}.cls-88{fill:#fef1ec;}.cls-89{fill:#b6574e;}.cls-90{fill:#ebbdb6;}.cls-91{fill:#9b372f;}.cls-92{fill:#713b2b;}.cls-93{fill:#3c150c;}.cls-94{fill:#feddb6;}.cls-95{fill:#774130;}</style><clipPath id="clippath"><polygon class="cls-15" points="7.94 20.95 30.25 7.72 49.68 22.19 48.85 86.66 27.36 99.88 7.94 84.11 7.94 20.95"/></clipPath><linearGradient id="linear-gradient" x1="28.62" y1="46.74" x2="28.62" y2="103.99" gradientUnits="userSpaceOnUse"><stop offset=".01" stop-color="#000"/><stop offset="1" stop-color="#f96b0d"/></linearGradient></defs><g id="Independent_Women"><g class="cls-96"><path class="cls-41" d="M-233.73-45.2v-64.36c.93-.44,1.91-.21,2.86-.21,103.96-.02,207.91,0,311.86-.02.3,0,.69.02.79.3.75,2.2,2.46,2.52,4.46,2.37,1.96-.15,2.97,1.05,3.59,2.66.92,0,.89-.77,1.19-1.22,1.39-2.04,4.44-1.98,5.42.29.68,1.57,1.75,1.88,3.17,1.81,2-.09,3.72.22,4.39,2.51.24.82,1.05,1.01,1.83,1.03,2.61.08,5.21.07,7.82,0,1.07-.03,1.82-.47,2.19-1.55.64-1.88,2.14-2.12,3.81-1.81,1.68.31,2.03,1.62,1.99,3.04-.05,1.96.08,3.71,2.41,4.41.99.3.98,1.61,1.84,2.36.97-.73.97-2.39,2.44-2.65,1.26-.22,2.53-.12,3.79-.18,1.87-.08,3.4.36,4.02,2.39.22.71.86.99,1.49,1.25.79.32,1.49.79,1.74,1.62.49,1.6,1.68,1.92,3.14,1.89,1.12-.03,2.24.03,3.35-.04.96-.06,1.74-.38,2.09-1.37.51-1.44,1.48-2.24,3.06-1.97,1.48.25,2.41,1.15,2.69,2.62.29,1.57-.49,2.55-1.92,3.1-.27.1-.56.23-.56.81,1.2.73,2.65.34,3.99.5,1.62.2,1.97,1.62,2.69,2.66.92-.22.87-1.05,1.26-1.55,1.27-1.64,4.17-1.59,5.12.25.58,1.12,1.18,2.02,2.43,2.4,1.19.36,1.22,1.78,2.26,2.65,1.21-3.81,4.27-2.91,6.92-2.87,4.54.06,2.21,4.23,3.49,6.21.8-.06.79-.71,1.05-1.12,1.33-2.1,4.3-2.11,5.44.08.51.98,1.05,1.75,2.13,2.11.66.22,1.23.68,1.41,1.35.51,1.86,1.89,2.1,3.49,2.04,1.84-.07,3.44.25,4.06,2.32.21.71.81,1.03,1.45,1.29.79.31,1.52.74,1.77,1.58.47,1.58,1.6,2.05,3.08,1.95,2.2-.15,3.99.39,4.67,2.66.77.05.85-.48,1-.86.54-1.28,1.53-1.74,2.85-1.73,1.31,0,2.35.45,2.82,1.75.33.9.86,1.54,1.79,1.84.28.09.69.2.77.42.88,2.51,3.91,3.09,4.89,5.49.14.35.36.71.71.83,1.53.55,2.62,1.58,3.2,3.66,1.13-2.26,2.22-3.7,4.49-3.21,1.05.23,1.74.75,2.01,1.83.56,2.3-.71,3.58-2.97,4.61,1.68.84,3.12.54,4.46.69,1.63.19,1.98,1.63,2.68,2.63.79-.11.79-.74,1.05-1.15,1.33-2.1,4.31-2.1,5.44.09.51.98,1.05,1.76,2.13,2.11.58.19,1.1.57,1.31,1.15.46,1.28,1.27,2.13,2.57,2.58.66.23,1.04.84,1.27,1.49.32.9.87,1.53,1.8,1.83.82.27,1.48.8,1.72,1.63.48,1.64,1.7,1.83,3.14,1.87,3.71.12,4.02.45,4.19,4.15.12,2.61.38,2.92,3.05,2.96,1.9.03,3.56.24,4.27,2.4.37,1.13,1.46,1.16,2.43,1.18,2.61.06,5.22,0,7.82.03,1.57.02,3.27-.09,3.72,1.99.42,1.95-.26,3.35-2.19,4.06-.15.05-.25.17-.43.63,2.58.59,2.71,3.96,5.38,4.62,1.05,2.96,3.52,3.17,6.12,3.15.29,0,.72.09.81.31.96,2.27,3.56,3,4.71,5.05.42.75.81,1.4,1.66,1.67.98.32,1.65.99,1.97,1.98.27.86.88,1.34,1.7,1.64.72.26,1.42.66,1.63,1.42.51,1.83,1.84,2.07,3.45,2.1,3.44.07,3.88.51,3.96,3.89.04,1.58.17,2.98,2.04,3.49.75.21,1.17.88,1.46,1.6.29.7.61,1.39,1.41,1.63,1.96.6,2.33,2.11,2.26,3.87-.07,1.68.18,3.15,2.12,3.66.14.04.33.12.37.23.88,2.49,3.91,3.08,4.86,5.51.2.51.61.86,1.13,1.02,1.94.61,2.23,2.11,2.29,3.88.07,2.02-.41,4.1.54,6.4.97-1.3.63-2.52.74-3.62.2-2.11.96-2.9,2.88-2.91,1.92,0,2.79.81,2.94,2.85.11,1.41.08,2.83.03,4.24-.06,1.74.09,3.29,2.12,3.9.36.11.53.5.55.91,0,53.92,0,107.83-.01,161.75,0,.88.22,1.79-.21,2.64h-60.38c-.81-.84-.72-1.92-.72-2.95-.02-6.18,0-12.36-.02-18.54,0-1.81.21-3.35,2.16-4.23,1.18-.53,1.15-1.65,0-2.21-2.16-1.03-2.73-3.66-4.98-4.63-.8-.35-.71-1.57-.72-2.46-.06-2.53.01-5.06-.04-7.59-.03-1.56-.34-2.93-2.02-3.62-1.53-.63-1.52-2.07-1.52-3.42-.02-5.51,0-11.02-.01-16.53,0-2.17.15-4.34-2.51-5.4-1.17-.47-1.04-1.88-1.06-2.99-.03-1.75-.42-3.2-2.26-3.96-1.22-.5-1.3-1.73-1.31-2.87-.03-1.88-.41-3.35-2.35-4.39-2.04-1.1-1.71-6.09.28-7.44,1.97-1.34,1.91-1.63-.05-3.07-1.71-1.25-2.64-3.28-4.51-4.45-.84-.53-.51-1.94-.57-2.97-.09-1.41-.43-2.63-1.93-3.21-1.32-.51-1.59-1.67-1.6-2.93,0-1.95-.27-3.66-2.44-4.53-1.2-.48-1.13-1.83-1.15-2.95-.03-1.82-.52-3.11-2.29-4.19-1.69-1.02-2.74-2.95-4.32-4.3-1.02-.87-.41-2.36.93-3.13.69-.39,1.65-.65,1.4-1.74-.26-1.11-1.29-1.08-2.15-1.22-.59-.1-1.19-.09-1.78-.11-1.63-.06-2.46-.9-2.49-2.52-.03-2.07-.14-4.02-2.56-4.94-1-.38-.97-1.58-1.05-2.55-.31-3.84-.43-4-4.17-4.25-1.45-.1-2.63-.47-3.21-1.93-.14-.34-.3-.78-.63-.9-2.66-.94-2.8-3.15-2.87-5.45-.02-.83-.33-1.66-1.17-2.03-1.3-.57-1.84-2.01-2.81-2.69-1.97-1.38-3.01-3.62-5.04-4.84-.73-.44-1.32-.96-1.67-1.74-.34-.78-.85-1.39-1.65-1.72-.94-.39-1.6-1.07-2.01-2-.15-.34-.3-.77-.61-.92-1.66-.82-2.56-2.37-3.79-3.63-1.06-1.08-2.12-2.42-3.26-3.16-2.51-1.62-3.08-3.74-3.16-6.36-.02-.58-.31-1.27-.92-1.44-2.49-.72-2.74-4.7-6.14-4.13-1.08.18-2.23-.01-3.35.02-1.75.05-3.22-.28-4.02-2.12-.6-1.39-2.01-1.4-3.28-1.43-3.58-.08-7.15-.04-10.73-.03-1.66,0-3.13-.23-3.82-2.03-.23-.59-.67-.98-1.39-.88-.72.11-.92.69-1.1,1.26-.28.94-.19,1.92-.31,2.88-.11.93-.34,1.8-1.4,2.05-1.04.25-1.86-.06-2.52-.96-1.67-2.28-1.59-2.17-3.42.06-1.23,1.51-3.02,2.47-4.18,4.16-.72,1.05-2.36.44-3.3-.95-1.27-1.88-1.78-1.95-2.92-.05-.84,1.39-2.05,1.59-3.42,1.61-1.75.02-3.21.41-3.97,2.24-.46,1.12-1.58,1.3-2.65,1.3-1.97,0-3.65.37-4.6,2.43-.54,1.17-1.83,1.16-2.95,1.17-1.82.02-3.39.37-4.15,2.33-.33.84-1.17,1.09-2.02,1.19-.89.1-1.8.25-2.67.17-4.57-.42-7.01,2.71-9.46,5.68-1.16,1.41-2.64,1.58-4.17,1.73-1.36.13-2.41.48-3.03,1.83-.74,1.59-2.24,1.85-3.79,1.81-1.53-.04-2.79.26-3.44,1.85-.3.73-1.01,1.07-1.72,1.33-.83.29-1.3.88-1.64,1.69-.99,2.37-1.62,2.61-4.32,1.83-1.03-2.07-.68-3.28,1.02-4.57,2.15-1.63,3.97-3.64,5.7-5.68.89-1.05,1.86-1.39,3.08-1.43,1.88-.05,3.21-.62,4.41-2.38,1.15-1.68,3.04-2.89,4.42-4.53.73-.87,2.08-.7,3.19-.68,1.31.02,2.08-.52,2.88-1.63,1.31-1.82,3.31-3.05,4.71-4.86.68-.88,2.08-.66,3.19-.66,1.2,0,2.22-.23,2.61-1.58.1-.35.28-.81.59-.92,2.42-.89,3.6-3.23,5.31-4.85,1.69-1.61,3.83-2.98,4.94-5.2.35-.69.86-1.28,1.59-1.49,1.45-.43,1.67-1.49,1.68-2.78,0-1.23-.29-2.19-1.62-2.57-.58-.17-1.2-.52-1.36-1.09-.69-2.37-2.5-2.39-4.43-2.27-.82.05-1.64.01-2.46.02-1.05,0-1.88.28-2.27,1.4-.59,1.65-1.92,2.15-3.55,2.16-.97,0-1.94.04-2.91,0-2.04-.06-3.96-.15-4.99,2.29-.53,1.26-2.09,1.3-3.38,1.27-1.51-.03-2.86.14-3.3,1.91-.05.21-.19.48-.37.55-2.39.9-3.55,3.24-5.31,4.84-1.73,1.56-3.75,3.03-4.95,5.16-.15.26-.24.64-.48.74-2.37.95-3.46,3.31-5.35,4.82-1.66,1.33-3.23,2.95-4.61,4.61-1,1.2-1.88,1.99-3.45,1.99-1.88,0-3.06.83-4.43,2.31-1.65,1.77-3.1,3.91-5.29,5.18-.32.19-.77.3-.89.64-.83,2.34-2.73,2.65-4.85,2.68-1.34.02-2.42.58-3.02,1.92-.3.67-.73,1.39-1.71.87-.49-1.99.25-3.32,1.89-4.55,1.92-1.43,3.34-3.45,5.11-5.08.21-.19.26-.66.49-.73,2.52-.7,3.57-2.94,5.09-4.71,1.71-1.99,3.7-3.72,5.53-5.59.36-.37.64-.92,1.14-1.03,1.6-.37,2.47-1.33,3.02-2.88.39-1.1,1.67-1.07,2.71-1.22,3.2-.44,3.22-.48,3.49-3.7.23-2.73,1.15-3.72,3.93-3.81,1.68-.06,2.56-.84,3.8-1.97,1.93-1.75,2.96-4.42,5.55-5.46.6-.24.82-.83,1.06-1.38.27-.63.57-1.37,1.23-1.51,2.25-.48,2.36-2.1,2.33-3.92-.03-1.59.4-3.02,2.19-3.44,1.71-.4,2.87.39,3.59,1.93.15.32.28.7.9.79.78-1.31,1.7-2.58,3.29-3.27.93-.4.67-1.56.72-2.43.2-3.68.89-4.36,4.61-4.41.45,0,.89,0,1.34,0,4.24,0,4.26,0,4.85-4.23.17-1.2.64-2.21,1.79-2.62,1.37-.5,1.78-1.45,1.71-2.77-.11-2.16.37-3.87,2.65-4.87,1.49-.66,1.27-3.78-.32-4.45-1.96-.83-2.41-2.26-2.33-4.1.07-1.6-.33-2.74-2.01-3.54-2.22-1.05-2.04-4.22.14-5.38.39-.21.86-.26,1.17-.61.04-.05.03-.14.08-.37-.94-.68-2.08-.42-3.14-.46-1.53-.05-2.78-.42-3.38-2.02-.44-1.18-.99-1.28-1.9-.28-2.01,2.22-2.8,2.17-4.75-.12-.29-.34-.53-.81-.97-.88-1.87-.29-2.92-1.56-3.65-3.1-.87.2-.89.91-1.21,1.37-.77,1.11-1.82,1.52-3.11,1.26-1.34-.27-1.98-1.2-2.22-2.49-.25-1.29.32-2.83-.72-3.86-1.04-1.02-2.56-.5-3.87-.65-1.22-.14-2.16-.65-2.56-1.83-.47-1.4-1.53-1.67-2.81-1.69-1.94-.02-3.88.1-5.81-.07-2.01-.17-4.03-.34-5.29-2.34-.7-1.11-1.33-.65-1.73.32-1.24,2.96-3.85,1.92-6.02,2.02-1.77.09-2.58-1.05-3.55-2.49-1.58-2.35-3.22-5.05-6.85-4.63-1.18.14-2.38,0-3.57.02-1.76.03-3.24-.32-3.93-2.23-.35-.96-.9-.98-1.65-.21-2.37,2.4-2.73,2.4-4.87-.01-.87-.99-1.48-.95-2.33.03-2.1,2.4-2.81,2.39-4.84-.07-.78-.95-1.74-1.09-2.79-1.06-2.21.06-4.15-.22-5.06-2.7-.42-1.13-1.64-.78-2.56-.89-4.83-.61-9.66-.27-14.49,0-1.99.11-3.72-.22-4.46-2.45-.34-1.03-1.37-1.11-2.26-1.08-6.17.21-12.33-1.14-18.52-.13-1.82.3-3.39-.12-4.15-2.14-.45-1.2-1.07-.86-1.78-.07-2.01,2.22-2.81,2.21-4.72-.12-.64-.78-1.38-1.09-2.31-1.12-1.64-.05-3.28-.04-4.92,0-1.05.02-1.86.4-2.41,1.33-.76,1.29-1.96,1.74-3.4,1.76-1.49.02-2.98,0-4.47.02-1.67.03-3.1-.4-3.97-1.97-.4-.71-1.06-1-1.83-1.13-2.28-.41-4.59-.7-6.89-.35-2.82.44-5.65.3-8.48.31-1.43,0-2.48.39-3.42,1.63-1.88,2.48-6.34,2.04-7.98-.64-.96-1.57-1.41-1.56-2.4.04-1.58,2.55-3.18,2.51-4.79-.12-1.19-1.94-4.74-1.88-5.92.09-1.67,2.78-6.44,3.04-8.12.44-1.32-2.04-4.64-2.33-6.07-.32-1.16,1.63-2.6,2.03-4.41,2.03-6.78-.01-13.57,0-20.35-.02-1.86,0-3.4.13-4.45,2.14-.9,1.73-2.65,1.55-4.02-.09q-1.49-1.78-3.01.05c-1.46,1.77-3.03,1.64-4.28-.35-1.19-1.9-1.41-1.95-2.62-.03-.98,1.56-2.39,1.9-4.02,1.85-1.51-.04-2.71.21-3.36,1.89-.6,1.54-2.14,1.68-3.61,1.68-4.1.03-8.2-.04-12.3.03-2.3.04-4.6.03-6.01,2.5-.64,1.12-2.07,1.06-3.27,1.04-4.92-.05-9.83.06-14.74.44-1.26.1-2.31.24-2.97,1.51-.61,1.17-1.73,1.55-3,1.61-1.41.06-2.84-.05-4.24.17-1.19.19-2.21.48-2.93,1.7-1.56,2.64-3.64,2.64-5.36.14-.24-.35-.34-.84-1.05-.98-.78.8-.74,1.95-.93,3-.22,1.23-.57,2.38-1.91,2.77-1.39.41-2.26-.4-2.92-1.49-.83-1.37-1.7-1.35-2.49,0-.81,1.38-2.09,1.81-3.56,1.96-1.67.17-3.19.53-4.09,2.23-.48.91-1.54,1.07-2.51,1.27-2.73.55-5.49.47-8.25.43-1.42-.02-2.54.24-3.38,1.61-.88,1.44-2.25,1.92-3.81.8Z"/><path class="cls-30" d="M-233.73-45.2c1.67.04,3.36.21,3.69-2.16.15-1.07,1.17-.96,1.99-.97,3.34-.02,6.69.14,10.01-.43.78-.13,1.76-.23,1.86-.95.37-2.89,2.78-2.27,4.45-2.55,1.6-.27,2.91-.34,3.18-2.32.13-.93,1.05-.9,1.81-.9.83,0,1.47.26,1.61,1.18.18,1.18.77,2.04,2.04,1.86,1.4-.2,1.55-1.34,1.59-2.55.03-.95.3-1.9.44-2.85.1-.67.45-1.11,1.14-1.18.76-.07,1.35.23,1.47,1.03.2,1.42.82,2.47,2.38,2.43,1.43-.04,2.02-1.04,2.19-2.37.1-.8.71-.97,1.42-1.16,2.05-.54,4.13-.44,6.21-.42,1.22.01,2.34-.21,2.55-1.59.22-1.42,1.1-1.47,2.23-1.57,5.57-.49,11.14-.45,16.72-.41,1.35,0,2.37-.34,2.58-1.84.15-1.05.86-1.18,1.75-1.32,5.56-.87,11.15-.26,16.72-.4,1.68-.04,2.98-.27,3.03-2.34.03-.92.69-1.25,1.54-1.25.97,0,1.94-.04,2.91,0,1.44.06,2.46-.34,2.72-1.96.17-1.1.95-1.63,2.08-1.6,1.21.03,1.41.81,1.49,1.8.08,1.01.69,1.66,1.72,1.71.95.04,1.6-.55,1.74-1.43.18-1.18.73-1.66,1.92-1.67,1.26,0,1.64.66,1.85,1.76.14.77.75,1.3,1.59,1.34.95.04,1.66-.51,1.78-1.37.27-2.04,1.61-2.18,3.24-2.17,7.45.03,14.91,0,22.36.02,1.5,0,2.88-.02,3.18-1.96.12-.78.83-1.01,1.5-1.12,1.09-.19,2.19-.35,3.3-.47,1.21-.13,2.26-.02,2.32,1.61.05,1.38.93,1.94,2.24,1.93,1.04,0,2.09.02,3.13-.03.83-.04,1.41-.54,1.66-1.29.26-.8-.08-2.04,1.13-2.15,1.84-.17,3.72-.39,5.53.17.64.2.54.97.63,1.56.14,1,.71,1.68,1.75,1.68,1.04,0,1.7-.66,1.75-1.66.06-1.3.57-1.89,1.91-1.87,1.25.02,1.69.63,1.74,1.8.05,1.02.72,1.82,1.7,1.72,2.04-.21,4.84,1.36,5.65-2.24.16-.7,1.17-.84,1.94-.82,4.24.12,8.47-.2,12.7-.41,1.68-.08,3.39.26,5.08.47.67.08,1.36.35,1.48,1.14.28,1.78,1.52,1.97,2.98,1.93,1.42-.04,2.83-.04,4.25,0,1.71.05,3.29.1,3.72-2.18.17-.88,1.24-.94,2.08-.95,1.79-.01,3.58.02,5.37-.01,1.56-.03,3-.02,3.35,2.03.11.64.79,1.07,1.55,1.06.86,0,1.49-.5,1.66-1.25.25-1.09.7-1.9,1.88-1.71,1.01.16,1.37,1.02,1.4,2.01.03,1.2.83,1.49,1.83,1.42,1.55-.12,3.09-.34,4.64-.43,5.43-.29,10.83.74,16.27.45,1.3-.07,2.19.52,2.26,1.9.06,1.25.7,1.73,1.86,1.66,2.22-.13,4.43.08,6.67-.3,3.91-.66,7.84.57,11.78.37.79-.04,1.13.62,1.16,1.37.07,1.79,1.2,2.2,2.74,2.14.89-.04,1.79-.02,2.68,0,1.11.03,2.04.27,2.27,1.63.15.88.79,1.45,1.74,1.44.94-.02,1.56-.6,1.7-1.48.19-1.11.87-1.54,1.85-1.54.98,0,1.67.43,1.85,1.54.15.88.76,1.47,1.7,1.49.95.02,1.57-.55,1.74-1.43.2-1.06.78-1.66,1.81-1.52.9.13,1.38.86,1.38,1.78,0,1.44.88,1.7,2.07,1.68,2.24-.03,4.47-.02,6.71,0,1.17,0,1.83.42,2.57,1.57,1.12,1.73,3.01,2.79,3.83,5.02.48,1.3,2.88.36,4.4.55,1.71.21,2.94-.15,2.93-2.27,0-.57.58-1.05,1.2-1.19.64-.15,1.41.12,1.53.64.74,3.21,3.41,2.56,5.54,2.78,1.99.2,4.02.07,6.03.03,1.48-.03,2.49.45,2.56,2.09.05,1.17.76,1.52,1.79,1.49.22,0,.45,0,.67,0,4.51.07,4.53.07,4.68,4.65.04,1.36.39,2.36,1.93,2.49,1.48.12,2.48-.41,2.56-2.05.04-.73.26-1.41,1.1-1.41.84,0,1.48.62,1.49,1.4.03,1.69.86,2.17,2.4,2.13.84-.02,1.57.37,1.74,1.4.16.98.76,1.64,1.82,1.63.94-.02,1.54-.62,1.68-1.5.17-.99.75-1.51,1.65-1.47.93.04,1.5.75,1.5,1.65,0,1.74,1.08,1.87,2.4,1.82,1.12-.03,2.24-.02,3.35.01.87.02,1.42.45,1.39,1.38-.02.81-.51,1.26-1.28,1.25-1.38-.02-2.27.3-2.28,1.97,0,1.56.24,2.57,2.12,2.63.99.03,1.47.91,1.48,1.93.01,1.12.02,2.23,0,3.35-.01,1.05.36,1.71,1.52,1.77,1.99.1,2.17,1.51,2.05,3.02-.1,1.34.67,3.17-1.83,3.28-1.25.06-1.75.98-1.74,2.18,0,1.04-.01,2.09,0,3.13.01,1.03-.32,1.74-1.49,1.79-1.64.07-2.07,1.08-2.11,2.55-.12,4.6-.15,4.6-4.71,4.6h-.22c-5.37,0-5.38,0-5.77,5.35-.07,1.02-.31,1.75-1.49,1.8-1.34.05-2.05.74-2.11,2.09-.03.86-.39,1.44-1.33,1.44-.94,0-1.3-.58-1.34-1.44-.08-1.63-1.05-2.19-2.55-2.07-1.53.12-1.97,1.1-1.93,2.47.02.82-.04,1.64.01,2.46.09,1.44-.36,2.31-1.99,2.22-.97-.05-1.56.41-1.59,1.44-.05,1.33-.72,2.04-2.07,2.14-.35.02-1.01.25-1,.31.47,3.3-4.33,2.82-4.21,5.88.02.67-.68.91-1.33.93-.75.02-1.49.01-2.24.02-2.82.02-3.46.62-3.47,3.37,0,3.61.36,3.69-4.27,4.18-1.57.17-2.64.35-2.46,2.23.11,1.09-.49,1.46-1.5,1.4-1.37-.08-1.8.91-2.65,1.78-1.6,1.64-3.16,3.37-4.9,4.85-.82.7-1.77,1.09-1.66,2.29.14,1.57-.66,1.95-2.01,1.81-1.23-.12-2.04.32-2.09,1.68,0,.07-.01.19-.06.21-2.29,1.04-3.01,3.9-5.24,4.8-2.08.83-1.48,2.72-2.25,4.03-1.97,1.26-4.02.94-6.08.29-1.47-2.36-.75-3.14,1.23-4.75,1.8-1.46,3.57-3.21,5.08-5.08.1-.13,5.47-5.44,5.64-5.46,1.26-.19,1.69-.98,1.78-2.18.24-3.32.87-4.23,4.09-4.76,1.96-.32,2.81-1.12,3.06-3.04.18-1.42,1.12-2.5,2.17-3.54,1.61-1.58,2.74-3.55,4.58-5.02,1.13-.9.92-2.91.93-4.47.02-2.16.06-4.16,2.64-5.06,1.16-.41.94-1.76.95-2.78,0-1.81.25-3.44,2.23-4.19.65-.25.85-.86.83-1.46-.14-4.46.65-8.91.19-13.36-.27-2.55-.54-2.74-3.1-2.77-2.03-.02-3.69-.39-4.4-2.59-.23-.72-.96-.88-1.63-1-1.62-.29-3.23-.56-4.88-.25-1.18.22-2.37.23-3.56.03-2.66-.44-3.2-1-3.79-3.63-.27-1.21.11-3.02-1.78-3.15-1.97-.14-4.15-.94-5.66,1.37-1.01,1.53-1.9,1.49-2.88-.1-.8-1.29-1.8-1.92-3.28-1.88-1.82.05-3.27-.42-4.31-2.16-.8-1.35-2.46-1.15-3.54.16-1.65,2-1.9,2.05-3.41.01-.81-1.09-1.86-1.14-2.97-1.13-2.11.03-3.96-.15-4.89-2.57-.46-1.18-1.69-1.08-2.46,0-.21.3-.32.67-.5,1-.42.78-1.01,1.29-1.95,1.23-.94-.06-1.56-.65-1.74-1.5-.43-2.09-1.8-2.22-3.54-1.97-2.52.35-5.05.37-7.57-.09-1.22-.22-2.18-.75-2.9-1.86-1.43-2.22-5.81-2.3-7.48-.19-.5.64-.87,1.51-1.86,1.33-1.06-.19-1.26-1.15-1.49-2.03-.19-.72-.28-1.46-.42-2.19-.15-.74-.29-1.51-1.23-1.65-.88-.13-1.39.35-1.7,1.12-.08.21-.17.42-.29.6-1.07,1.71-2.79,1.82-3.59,0-.76-1.75-1.98-1.96-3.56-1.99-6.55-.13-13.12.37-19.66-.36-.74-.08-1.48.11-2.22.2-1.55.19-2.71-.23-3.47-1.76-.98-1.98-1.97-1.94-3.08-.06-1.67,2.84-6.02,2.8-7.67-.07-1.27-2.22-5.35-2.17-6.65.08-1.32,2.26-2.83,2.31-4.02-.03-.62-1.22-1.49-1.54-2.68-1.56-2.24-.04-4.47-.02-6.71-.02-12.22,0-24.45,0-36.67-.01-1.73,0-3.11.19-3.94,2.12-.72,1.68-2.45,1.54-3.49-.06-1.91-2.93-5.25-2.92-7.14.07-.64,1-1.53,1.35-2.63,1.41-1.71.1-3.43.03-5.14.05-1.29.02-2.17.39-2.83,1.69-1.35,2.65-5.93,2.65-7.44.11-1.5-2.54-5.46-2.6-6.82-.03-.86,1.63-2.23,1.79-3.77,1.8-5.66.02-11.33.03-16.99,0-2-.01-3.84-.05-4.7,2.35-.39,1.09-1.63,1.17-2.7,1.22-1.71.07-3.43,0-5.14.05-1.13.04-1.89.43-2.46,1.53-1.21,2.36-2.7,2.34-4.01.08-1.12-1.93-2.05-1.98-3.08-.03-.72,1.38-1.78,1.91-3.23,1.94-1.19.03-2.39.04-3.58.02-1.83-.02-3.46-.01-4.36,2.19-.65,1.57-2.37,1.43-3.37-.02-1.82-2.64-1.84-2.65-3.71.1-.67.99-1.63,1.23-2.7,1.28-1.71.08-3.43,0-5.14.06-1.09.04-2.08.23-2.5,1.46-.55,1.58-1.8,2.05-3.34,2.07-2.61.04-5.22.01-7.83.02-1.49,0-2.83.18-3.37,1.9-.21.65-.72,1.27-1.4,1.34-3.15.33-6.33.96-9.41-.4v-24.58Z"/><path class="cls-80" d="M-233.73,35.7V1.73c1.2-1.06,2.68-.7,4.07-.75,1.36-.05,2.46-.3,2.97-1.81.48-1.41,1.73-1.72,3.08-1.75,2.61-.05,5.22-.03,7.82-.02,1.54,0,2.76-.37,3.42-1.93.54-1.26,1.7-1.56,2.96-1.61,1.41-.05,2.83-.06,4.24-.25,1.58-.21,3.03-.42,3.84-2.14.53-1.13,1.83-1.23,2.96-1.18,3.88.15,7.73-.42,11.6-.48,1.35-.02,2.46-.26,3.12-1.64.53-1.12,1.68-1.36,2.8-1.59,2.66-.53,5.35-.3,8.03-.35,1.34-.02,2.33-.29,3.08-1.67,1.22-2.23,3.05-2.14,4.49,0,1.23,1.84,1.47,1.87,2.6-.06.78-1.32,1.91-1.8,3.34-1.83,2.68-.06,5.37-.02,8.05-.03,1.35,0,2.4-.27,3-1.74.71-1.73,2.38-1.82,3.99-1.83,7.23-.02,14.46,0,21.69,0,2.01,0,4.03-.04,6.04.01,1.86.05,3.52-.02,4.35-2.17.4-1.04,1.57-1.32,2.65-1.36,3.05-.1,6.11-.09,9.16,0,1.57.04,2.63.83,3.32,2.24.68,1.39,1.52,1.39,2.18,0,.81-1.74,2.21-2.27,3.99-2.28,14.61-.02,29.21-.01,43.82,0,1.8,0,3.12.51,3.84,2.38.49,1.29,1.31,1.23,1.92-.09.54-1.16,1.14-2.09,2.57-2.11,1.43-.01,2.14.85,2.56,2.07.18.51.41.99,1.05.98.64,0,.87-.51,1.02-1.02.69-2.25,2.53-2.2,4.36-2.22,1.86-.01,3.65.07,4.32,2.29.4,1.34,1.53,1.25,2.56,1.26,4.69.04,9.39,0,14.09.03,3.87.03,4.52.65,4.83,4.47.04.45.05.89.17,1.33.12.46.38.85.9.82.53-.03.73-.45.83-.92.17-.81.12-1.63.18-2.45.18-2.43.87-3.12,3.34-3.24,2.35-.11,4.67-.23,5.6,2.76.3.98,1.53.76,2.39.76,2.03,0,3.81.17,4.64,2.55.45,1.28,1.37.96,1.84-.18.48-1.17,1.08-2.13,2.52-2.17,1.55-.04,2.26.93,2.68,2.23.32.99,1.14,1.08,1.97,1.12,1.79.1,3.58-.03,5.36.07,2.46.13,3.14.82,3.31,3.26.02.22,0,.45.03.67.13.92-.31,2.2.79,2.59,1.21.43,1.2-1.02,1.68-1.66,1.24-1.63,3.49-1.61,4.36.3.79,1.73,2.02,1.96,3.59,1.96,3.65,0,7.3-.01,10.96,0,1.69,0,3.14.39,3.67,2.24.35,1.22,1.32,1.3,2.31,1.3,2.25-.02,4.41.04,5.11,2.83.14.56.76.66,1.24.85.56.22,1.26.42,1.44.98.8,2.45,2.72,2.53,4.82,2.6,2.08.06,2.82.84,2.91,2.91.14,3.2.12,6.4,0,9.6-.05,1.18-.47,2.28-1.57,2.79-1.65.75-2,2.05-1.95,3.64.06,1.85-.37,3.39-2.37,4.08-1.14.4-1.18,1.47-1.17,2.43.02,2.09-1.07,3.33-2.44,4.88-1.63,1.83-3.94,3.06-5.06,5.35-.31.63-.82,1.08-1.46,1.32-.97.36-1.62.98-1.97,1.97-.26.73-.77,1.35-1.53,1.52-1.71.39-1.89,1.6-1.9,3.04-.01,1.31.27,2.71-.75,3.84-1.25.66-2.49.7-3.7-.1-1.28-3.5-.64-7.09-.43-10.65.07-.26.2-.5.37-.72.45-.43,1.03-.59,1.62-.69,1.01-.17,1.34-.82,1.36-1.74.06-4.17.04-8.34,0-12.51-.02-1.89-1.73-1.51-2.67-2.17-.11-.09-.28-.19-.3-.31-.27-2-1.53-3-3.41-3.38-.15-.16-.35-.32-.36-.53-.16-2.15-1.45-2.75-3.38-2.52-1.13.1-2.25.17-3.29-.43-.11-.09-.28-.19-.3-.31-.25-2.03-1.56-2.98-3.42-3.37-.15-.16-.35-.34-.37-.55-.12-2.15-1.43-2.71-3.33-2.49-1.09.11-2.17.11-3.25,0-2.65-.66-3.04,1.46-3.82,3.11-1.03.63-2.16.57-3.29.47-2.65-.67-3.1,1.41-3.87,3.1-1.03.64-2.16.58-3.29.48-2.68-.7-3.08,1.46-3.9,3.11-.75.43-1.49.42-2.22-.03-.34-.3-.56-.7-.73-1.11-.97-2.38-2.77-3.34-5.29-3.25-1.93.07-3.87,0-5.81,0-1.53,0-2.67-.49-3.51-1.89-1.07-1.78-2.83-1.72-4.08-.03-1.89,2.59-4.87,2.67-6.55.06-.87-1.35-2.09-1.58-3.43-1.66-1.53-.09-2.9-.42-4.1-1.49-1.16-1.03-2.44-.92-3.65.06-2.7,2.2-5.77,1.38-8.77,1.04-.61-.07-1.07-.59-1.31-1.14-.71-1.64-2.1-1.97-3.65-2.05-1.56-.08-3.13-.08-4.69,0-1.47.09-2.77.45-3.47,1.97-.53,1.15-1.61,1.48-2.79,1.51-3.73.07-7.45.05-11.18.01-1.49-.02-2.43-.75-3.24-1.99-1.39-2.11-6.14-2.2-7.43-.07-1.07,1.77-2.52,2.09-4.33,2.09-8.57-.01-17.14,0-25.71,0-5.37,0-10.73-.02-16.1.01-1.83.01-3.54.17-4.52,2.16-.55,1.12-1.43,1.08-2.28.07-2.17-2.59-2.7-2.58-4.94.16-.87,1.07-2.03,1.15-3.23,1.16-4.4.04-8.79,0-13.19.02-2.06,0-4.01.11-5.1,2.36-.55,1.13-1.83,1.16-2.96,1.18-3.2.06-6.41.02-9.61.02-1.95,0-3.68.38-4.87,2.14-.84,1.26-2.2,1.41-3.58,1.42-3.28.02-6.56,0-9.84.02-1.98.01-3.84.14-4.89,2.31-.64,1.32-2.11,1.22-3.38,1.25-3.71.08-7.46-.33-11.09.85-.28.09-.64.04-.86.21-2.36,1.78-5,2.76-7.94,3-.43.03-.85.35-1.03.79-.92,2.23-2.81,2.39-4.84,2.33-1.56-.04-3.13.02-4.69-.01-2.12-.05-3.95.39-5.25,2.29-.75,1.1-1.87,1.47-3.09.54Z"/><path class="cls-57" d="M52.53,51.34c0-1.71,0-3.43,0-5.14,0-.67-.04-1.73.64-1.72,2.26.02,3.01-1.29,3.43-3.16.06-.26.57-.6.88-.6,1.57,0,2.37-.67,2.28-2.28,0-.07.03-.18.07-.2,2.2-.93,3.12-3.39,4.86-4.5,1.62-1.02,2.27-1.81,2.16-3.53-.04-.67,0-1.34,0-2.01,0-.74.38-1.57.99-1.6,3.31-.19,2.58-2.57,2.56-4.53,0-1.46.16-2.67,1.95-2.95,1.24-.19,1.65-1.1,1.64-2.29-.02-3.35-.04-6.7,0-10.05.02-1.48-.68-2-2.06-1.93-.89.05-1.79-.01-2.68.01-1.39.03-2.34-.48-2.41-1.99-.05-1.13-.62-1.63-1.7-1.58-1.31.06-1.95-.52-1.89-1.85.06-1.41-.78-1.78-2-1.73-.82.03-1.64-.04-2.46.01-1.59.1-2.83-.08-2.74-2.18.06-1.36-1.04-1.41-2.06-1.41-4.25,0-8.5-.03-12.75.02-1.66.02-3-.19-3.07-2.28-.03-1.07-.8-1.3-1.72-1.31-1.02-.01-1.76.26-1.82,1.45-.06,1.3-.66,2.23-2.06,2.03-1.26-.17-1.49-1.21-1.54-2.36-.18-4.7-.2-4.7-4.84-4.7-1.12,0-2.24-.05-3.35.01-1.54.09-2.67-.18-2.56-2.12.07-1.17-.76-1.47-1.78-1.47-1.05,0-1.76.37-1.75,1.52.01,1.18-.24,2.03-1.7,2.06-1.51.04-1.95-.72-1.92-2.07.03-1.16-.71-1.53-1.75-1.51-.89.01-1.79-.04-2.68,0-1.57.09-2.89-.06-2.73-2.17.05-.65-.28-1.28-.95-1.31-1.71-.08-3.43-.11-5.13,0-.93.06-1.04.92-1.04,1.71,0,1.12.02,2.24-.02,3.35-.04,1.11-.59,1.9-1.74,1.92-1.16.02-1.71-.75-1.81-1.86-.03-.3,0-.6-.01-.89q-.08-4.33-4.33-4.33c-4.92,0-9.84-.03-14.76.02-1.48.01-2.5-.26-2.4-2.05.06-1.15-.67-1.55-1.72-1.54-1.19.01-2.39.02-3.58,0-1.17-.03-1.87.43-1.82,1.69.05,1.3-.49,1.92-1.85,1.9-1.23-.02-1.78-.58-1.74-1.78.04-1.18-.45-1.79-1.71-1.81-1.33-.03-1.93.55-1.88,1.87.05,1.23-.59,1.72-1.79,1.72-1.21,0-1.84-.5-1.78-1.73.07-1.52-.79-1.86-2.12-1.86-15.13.02-30.26.02-45.4,0-1.46,0-2.51.4-2.59,2.06-.05,1.15-.69,1.53-1.75,1.53-1.02,0-1.77-.27-1.82-1.46-.07-1.8-1.22-2.15-2.75-2.13-2.91.04-5.81.05-8.72,0-1.62-.03-2.78.32-2.89,2.24-.09,1.54-1.33,1.34-2.35,1.34-8.2,0-16.4,0-24.6,0-1.71,0-3.43.04-5.14,0-1.89-.05-3.65-.11-3.76,2.55-.04,1.07-1.1,1.03-1.93,1.03-3.13,0-6.26.03-9.39-.01-1.6-.02-2.83.27-2.91,2.21-.05,1.21-.9,1.39-1.88,1.37-.95-.01-1.61-.33-1.65-1.38-.05-1.18-.51-2.11-1.79-2.13-1.28-.02-1.77.9-1.83,2.08-.07,1.37-1.04,1.4-2.07,1.43-3.34.09-6.69-.26-10.02.4-1,.2-1.67.41-1.8,1.54-.14,1.28-.95,1.68-2.19,1.64-4.54-.14-9.04.76-13.59.43-1.2-.09-2,.26-2.15,1.64-.09.88-.59,1.49-1.63,1.49-2.23,0-4.41.7-6.66.45-1.32-.15-2.27.13-2.5,1.77-.19,1.4-1.37,1.81-2.69,1.8-3.06-.01-6.11.02-9.17-.02-1.34-.02-2.33.15-2.39,1.86-.05,1.25-.98,1.74-2.18,1.73-1.79,0-3.58,0-5.37,0v-22.35c2.68,0,5.37-.02,8.05,0,1.24.01,2.2-.13,2.27-1.72.07-1.53,1.17-1.88,2.52-1.87,3.13.03,6.26-.01,9.39.02,1.31.01,2.35-.08,2.42-1.82.06-1.39,1.1-1.79,2.37-1.77,2.09.02,4.17-.02,6.26.01,1.2.02,2.02-.26,2.08-1.68.06-1.37.95-1.91,2.26-1.9,1.34.02,2.1.64,2.18,2,.05.83.31,1.49,1.26,1.53,1.07.04,1.38-.64,1.44-1.58.1-1.52,1.07-1.97,2.45-1.96,2.01.02,4.02-.02,6.04.01,1.24.02,2.21-.13,2.27-1.72.05-1.38.99-1.88,2.3-1.86,1.22.02,2,.57,2.12,1.82.08.88.22,1.68,1.32,1.71,1.09.03,1.33-.69,1.41-1.61.12-1.53,1.12-1.94,2.49-1.92,2.01.03,4.02-.02,6.04.02,1.27.02,2.15-.2,2.24-1.77.1-1.69,1.41-1.83,2.78-1.83,6.48.02,12.97,0,19.45.02,1.51,0,2.93.06,2.85-2.08,0-.26.17-.61.38-.77,1.86-1.45,4.01-.61,6.03-.64,1.1-.01,1.55.98,1.59,2.08.03,1.04.69,1.4,1.64,1.4.89,0,1.79-.02,2.68,0,1.12.03,1.87-.3,1.93-1.59.07-1.51,1.02-2.01,2.41-1.99,2.09.02,4.17-.02,6.26.01,1.2.02,2.02-.26,2.08-1.69.06-1.38.97-1.91,2.27-1.9,1.12.01,2.24.02,3.35,0,1.4-.03,2.31.51,2.4,2.01.05.83.32,1.48,1.27,1.52,1.08.04,1.37-.65,1.43-1.59.1-1.52,1.09-1.95,2.46-1.95,15.35.01,30.7.01,46.05,0,1.51,0,2.42.57,2.48,2.18.03.89.49,1.39,1.41,1.36.81-.03,1.21-.53,1.23-1.3.05-1.93,1.27-2.31,2.88-2.23.97.04,1.94.02,2.91,0,1.3-.01,2.21.52,2.26,1.9.06,1.43.88,1.71,2.08,1.68,1.98-.05,4.25.62,4.53-2.61.08-.92,1.32-1.05,2.27-.96,1.13.1,1.81.72,1.85,1.85.05,1.22.67,2,1.8,1.66,2.69-.81,5.31.08,7.95.06,5.29-.04,10.58.01,15.87-.02,1.66-.01,3.01.21,3.06,2.29.02.78.48,1.24,1.28,1.25.93.01,1.32-.54,1.36-1.41.07-1.62,1.02-2.21,2.52-2.1,1.52.11,1.97,1.07,1.97,2.44,0,.58.1,1.19.29,1.74.28.78-.25,2.09.94,2.26,1.2.17.8-1.18,1.19-1.8.08-.13.16-.25.26-.36,1.69-1.99,7.58-1.16,8.49,1.23.28.73.66,1.05,1.41,1.19,2.95.55,5.88.7,8.84.1,2.45-.5,3.17,0,3.61,2.48.15.86.47,1.41,1.39,1.39.81-.02,1.24-.49,1.27-1.27.05-1.42.68-2.22,2.17-2.26,1.59-.04,2.29.77,2.36,2.31.04.92.68,1.25,1.53,1.26,1.04,0,2.09.04,3.13,0,1.47-.05,2.71.16,2.93,1.96.06.47.26.91.76.97.67.08.9-.44.97-.98.21-1.64,1.29-1.95,2.72-1.96,1.44,0,2.48.35,2.72,1.97.18,1.21,1.15,1.2,2.07,1.17,2.34-.07,4.79-.35,5.27,2.94.03.18.44.42.69.43.53.02.78-.41.83-.88.21-1.93,1.55-2.12,3.09-2.04.37.02.75,0,1.12,0q3.73,0,4.44,3.64c.54,2.81,2.7,4.21,6.03,3.37,2.31-.58,4.42.15,6.62.21.9.03,1.52.74,1.53,1.65.02,1.5.81,1.93,2.15,1.85,6.07-.33,5.03.4,5.32,5.8.2,3.78-.21,7.7-.27,11.55-.01,1-.23,1.83-1.43,1.84-1.6.02-1.76,1.03-1.71,2.27.03.82-.01,1.64,0,2.46.04,1.38-.45,2.36-1.97,2.43-1.28.06-1.6.77-1.63,1.91-.03,1.48.07,2.95-.19,4.44-.35,1.95-.38,3.93-3.07,4.12-.56.04-.66.71-.77,1.24-.25,1.22-.88,2.05-2.07,2.69-1.56.84-1.92,2.58-1.9,4.2.03,1.62-.61,2.2-2.1,1.96-1.53-.25-2.68.76-3.99,1.17-.86.27-.99,1.25-.82,2.28.45,2.68-.02,3.28-2.71,3.7-1.02.16-1.23.73-1.14,1.54.16,1.52-.39,2.25-2,2.06-1.12-.14-1.72.36-1.59,1.53.18,1.53-.42,2.24-2.01,2.04-1.35-.17-1.64.62-1.6,1.77.03.7.17,1.84-.87,1.71-3.27-.41-2.69,1.8-2.69,3.66-.09.09-.18.19-.27.28-1.15.5-2.28.64-3.31-.28Z"/><path class="cls-13" d="M72.21,72.79c.97,0,1.94-.06,2.9.01,1.9.15,3.43-.03,3.45-2.52,0-.93.89-1.07,1.68-1.07,1.04,0,2.09-.01,3.13,0,.7,0,1.51-.06,1.7-.79.53-2.06,2.04-1.93,3.65-1.91,3.72.05,7.45.02,11.18.01.93,0,1.77-.05,1.87,1.29.14,1.94,1.5,2.3,3.17,2.31,3.89.03,3.93.06,3.94,3.86,0,1.77.38,3.13,2.46,3.27.71.05,1.11.34,1.13,1.08,0,.22-.04.56.09.65,2.08,1.53,3.35,4.01,5.55,5.25,1.09.62,1.64.95,1.53,2.14-.03.3,0,.6,0,.89,0,3.98.31,4.41,4.33,4.24,2.25-.1,3.06.51,2.87,2.83-.21,2.66-.06,5.36-.04,8.04,0,.59-.16,1.52.14,1.72,2.15,1.47,3.34,4.04,5.6,5.2,1.09.56,1.44.95,1.42,2.02-.03,2.01,0,4.02-.01,6.03-.01,1.55.58,2.67,2.24,2.78,1.3.08,1.33.85,1.36,1.81.03,1.33-.15,2.66.2,3.99.74,2.82,2.7,4.26,5.38,4.9.72.17,1.55.05,1.56,1.15,0,.84-.06,1.52-.98,2.03-1.71.96-1.71,1.73.02,2.7,1.03.58.96,1.39.97,2.27,0,3.42.03,6.85,0,10.27-.02,1.71.49,2.95,2.42,3.07.86.05.97.55,1.22,1.26.65,1.8.76,3.96,2.98,4.87.71.29.54,1.16.54,1.82,0,2.23,0,4.47,0,6.7,0,1.27.08,2.36-1.52,3.05-1.19.51-1.04,1.8.25,2.33,1.05.43,1.01,1.2,1.32,2.04,1.31,3.56,1.42,7.22,1.31,10.92,0,.28.07.75.24.82,3.2,1.36,1.65,4.17,1.95,6.38.15,1.1.01,2.23.03,3.35.02,1.14.07,2.21-1.41,2.64-1,.28-.82,1.29-.83,2.1,0,3.87,0,7.74,0,11.61h-41.6c-1.16-1.44-.67-3.14-.7-4.74-.03-1.74-.13-3.26-2.27-3.73-1.03-.23-1.23-1.22-1.27-2.14-.11-2.38-.07-4.76-.02-7.14.03-1.33.54-2.31,1.92-2.65,1.53-.38,1.61-1.59,1.59-2.81-.02-1.1.1-2.39-1.33-2.75-1.98-.49-2.21-1.92-2.21-3.59,0-6.85,0-13.69,0-20.54,0-2-.08-3.89-2.37-4.81-.92-.37-1.11-1.34-1.17-2.26-.09-1.34-.06-2.68-.05-4.02.02-1.89-.38-3.4-2.28-4.44-1.76-.96-1.65-3.46-.03-4.69q2.47-1.89.28-4.11c-.37-.37-.66-.85-1.12-1.09-1.55-.81-2.63-1.69-1.01-3.43.23-.25.25-.77,0-1.06-1.29-1.48-1.55-3.33-2-5.13-.23-.92-.86-1.56-1.87-1.68-1.59-.19-2.66-.85-2.66-2.66,0-1.83.42-3.39,2.24-4.26.65-.31,1.48-.25,2.09-1.04-.92-.89-2.06-.54-3.08-.6-2.74-.16-3.53-.78-3.47-3.5.06-2.81-.39-5.26-2.61-7.26-1.12-1-1.04-2.58-1-4,.04-1.58-.11-2.97-1.95-3.54-.57-.17-.95-.7-1.25-1.23-.19-.32-.26-.87-.52-.96-2.41-.88-3.08-3.62-5.17-4.79-1.54-.87-1.86-2.22-1.84-3.78.02-1.56-.09-2.95-1.95-3.55-1.12-.36-1.39-1.66-1.98-2.47-.65-.08-.73.34-.89.65-1.13,2.2-2.54,2.79-4.68,1.62-1.31-.72-2.35-.62-3.75-.25-2.41.63-4.96,1.04-7.34-.34-.59-1.19-.61-2.37.05-3.53,1-.86,2.2-.74,3.38-.67q2.92-.03,3.68-2.78c.13-.2.3-.36.51-.48,1.27-.52,2.62-.37,3.93-.33,1.79.05,3.41-.03,4-2.17.1-.35.52-.51.82-.71Z"/><path class="cls-28" d="M-233.73,35.7c1.32.08,2.33-.03,2.96-1.62.63-1.59,2.34-1.93,3.97-1.95,2.61-.03,5.22-.02,7.82,0,.85,0,1.85.03,1.99-.98.36-2.65,2.42-2.45,4.18-2.56,1.52-.09,2.61-.33,3.85-1.56,1.81-1.81,4.63-1.77,7.09-2,2.66-.25,5.36-.06,8.04-.05.77,0,1.69.03,1.84-.87.5-2.92,2.76-2.65,4.77-2.69,3.72-.07,7.45-.04,11.18,0,1.13,0,1.88-.19,2.4-1.44.76-1.8,2.53-2.14,4.32-2.15,3.73-.01,7.45,0,11.18,0,.85,0,1.84.03,1.99-.98.4-2.78,2.58-2.52,4.4-2.56,4.92-.11,9.83-.06,14.75-.02,1.33.01,2.4-.15,2.56-1.75.18-1.75,1.72-1.61,2.73-1.6,1.01,0,2.53-.11,2.68,1.67.05.56.17,1.36.88,1.35.69-.01.8-.81.86-1.38.11-1.02.72-1.29,1.61-1.51,1.1-.28,2.18-.38,3.31-.38,14.08,0,28.16,0,42.25.02,1.54,0,2.87-.02,3-2.02.04-.69.57-.95,1.2-1.12,1.75-.48,3.5-.64,5.29-.27,1.25.26,2.46.47,2.56,2.21.05.94.9,1.22,1.83,1.21,4.02-.03,8.05-.03,12.07,0,.92,0,1.79-.21,1.86-1.17.13-1.68,1.24-2.09,2.54-2.21,2.88-.28,5.77-.49,8.64.21.69.17,1.39.31,1.45,1.12.14,1.97,1.41,2.15,2.98,2.06,1.34-.08,2.68-.03,4.02-.01.87.01,1.49-.22,2.09-.97,1.48-1.87,3.77-1.89,5.21.02.8,1.07,1.76.89,2.77.95,2.02.13,4.16-.16,4.8,2.71.32,1.44,1.89.72,2.93.86.89.11,1.82-.11,1.9-1.09.16-1.94,1.52-2.3,2.94-2.27,1.29.03,2.67.26,2.79,2.16.07,1.09,1.07,1.23,2.05,1.22,2.46-.04,4.92-.02,7.38,0,3.13.02,4.92,1.72,5.18,4.88-.6,1.3-.74,2.66-.64,4.07.14,3.4.17,6.79-.01,10.19.07,1.12.2,2.25-.49,3.25-2.14.89-2.98.72-3.97-1.24-.61-1.21-1.46-1.57-2.66-1.59-1.34-.02-2.68-.04-4.02-.01-1.81.04-3.33-.32-4.35-2.08-.72-1.25-1.72-1.18-2.67,0-1.93,2.37-2.5,2.36-4.36.07-1.02-1.25-1.77-1.24-2.83.05-1.87,2.28-2.87,2.27-4.27-.19-.51-.89-1.13-1.31-2.1-1.36-.82-.05-1.64-.07-2.46-.05-7.88.22-15.77-.12-23.65.04-5.2.11-10.42.49-15.58.27-7.21-.3-14.43-.09-21.62-.07-10.41.02-20.84,0-31.26.21-1.19.02-2.03.34-2.69,1.52-1.33,2.38-3.11,2.34-4.6.08-1.16-1.75-1.44-1.8-2.5-.02-.93,1.57-2.32,1.96-3.96,1.97-4.62.03-9.24.03-13.85,0-1.71-.01-3.17.11-4.01,2.02-.65,1.48-2.25,1.55-3.7,1.55-5.66.03-11.32.03-16.98,0-1.85,0-3.5.01-4.42,2.12-.56,1.29-1.99,1.42-3.3,1.45-2.53.05-5.07.04-7.6.01-1.44-.01-2.59.23-3.2,1.79-.44,1.12-1.49,1.6-2.69,1.72-1.12.1-2.23.1-3.35.07-2.06-.06-3.97-.05-5.05,2.29-.54,1.17-1.94,1.25-3.16,1.28-2.53.05-5.06.02-7.6.02-1.34,0-2.46.22-3.09,1.64-.6,1.37-1.85,1.85-3.29,1.9-1.19.04-2.38.04-3.57.03-1.74-.02-3.24,0-4.22,2.04-.92,1.93-4.68,2.13-7.3.77v-19.22Z"/><path class="cls-72" d="M56.11,83.52c1.86,0,3.85.41,5.56-.1,2.35-.71,4.29-1.28,6.54.43.89.67,2.75.35,2.67-1.77-.04-.92.28-1.65,1.36-1.64.94,0,1.27.62,1.31,1.47.05,1.22.66,1.99,1.91,2.03,1.44.05,1.72.89,1.68,2.08-.03.89.01,1.79,0,2.68-.03,1.39.5,2.33,2.01,2.4,1.13.05,1.62.64,1.57,1.71-.06,1.32.54,1.94,1.87,1.88,1.24-.06,1.7.6,1.75,1.78.04,1.02.68,1.73,1.69,1.74,1.71.02,1.9,1.03,1.87,2.37-.06,2.51-.34,4.96,2.34,6.72,1.35.89,1.28,2.87,1.25,4.56-.06,4.59-.43,4.29,4.14,4.28.45,0,.89,0,1.34,0,.94,0,1.63.33,1.6,1.4-.03.95-.67,1.26-1.51,1.26-2.04,0-3.2.93-3.36,3.04-.13,1.74-.05,3,2.38,2.85,2.08-.13,2.31,1.83,2.5,3.33.17,1.38.31,2.54,1.58,3.47,1.17.86.67,2.39-1,3.67,2.51.36,3.45,2.77,5.07,4.23.49.45-.02,2.32-1.53,2.7-1.16.3-1.92.76-1.89,2.25.03,1.39.73,1.81,1.81,2.09,1.72.44,1.72,1.92,1.8,3.2.12,1.85.05,3.72.03,5.58-.01.82.13,1.49,1.07,1.67,2.3.45,2.52,2.2,2.52,4.07,0,7.3.01,14.6-.01,21.9,0,1.41-.15,2.73,1.96,2.6.89-.05,1.52.68,1.58,1.59.08,1.26.11,2.54,0,3.79-.1,1.13-.89,1.7-2.01,1.67-1.19-.03-1.55.52-1.53,1.63.05,2.53.04,5.06,0,7.6-.01,1,.31,1.53,1.4,1.52,1.79,0,2.22,1.12,2.19,2.67-.04,2.08-.01,4.17-.01,6.26h-26.84c-1.6-3.12-.95-6.1,1.72-7.92,1.54-1.05,1.64-4.77,0-5.56-2.02-.98-2.49-2.53-2.48-4.54.03-5.58,0-11.16.01-16.74,0-1.82-.11-3.33-2.1-4.45-2.37-1.33-1.97-6.1.38-7.73,1.82-1.26,1.83-1.44-.06-2.67-.71-.46-1.27-1.02-1.64-1.78-.26-.53-.45-1.13-1.08-1.36-2.43-.89-2.73-2.86-2.68-5.08.05-2.3.02-4.61,0-6.92-.01-1.21-.34-2.15-1.58-2.67-1.39-.59-1.91-1.78-1.96-3.24-.04-1.19-.06-2.38-.02-3.57.07-1.85-.03-3.47-2.18-4.32-1.32-.52-1.42-2.01-1.38-3.31.06-1.68-.22-3.01-2.04-3.73-1.22-.49-1.48-1.77-1.53-3.02-.07-1.71,0-3.42-.05-5.13-.03-.95-.23-1.75-1.25-2.13-1.81-.69-2.35-2.15-2.29-3.93.06-1.6-.29-2.85-1.96-3.6-1.49-.67-1.64-2.2-1.62-3.65.02-1.51-.28-2.72-1.87-3.44-1.59-.72-1.66-2.3-1.73-3.83-.12-2.73-.26-2.86-3-2.89-2.61-.04-5.21.03-7.82-.03-3.24-.07-3.94-1.11-2.97-4.22.25-.15-.13-.09.15-.15,2.04-.41,3.14-1.74,3.65-3.67,1-.68,2.11-.61,3.23-.53q2.85-.05,3.65-2.81c.14-.21.33-.37.55-.48,1.17-.39,2.3-.47,3.31.39Z"/><path class="cls-72" d="M-233.73,54.92c1.34,0,2.69-.05,4.02.01,1.76.08,3.12-.2,3.19-2.41.04-1.07.95-1.18,1.82-1.18,2.16,0,4.32-.02,6.48,0,1.29.01,2.19-.46,2.36-1.83.19-1.58,1.2-1.8,2.55-1.77,2.98.06,5.96-.01,8.94.03,1.51.02,2.61-.28,2.89-2.03.2-1.24,1.18-1.58,2.35-1.56,1.86.03,3.73-.03,5.59.02,1.54.04,2.66-.35,2.74-2.14.06-1.36,1.01-1.45,2.05-1.45,3.2,0,6.41-.02,9.61.01,1.45.02,2.47-.38,2.67-2.01.18-1.47,1.22-1.6,2.46-1.6,6.41.03,12.82,0,19.23.03,1.78.01,3.27-.07,3.4-2.44.07-1.36,1.34-1.14,2.28-1.14,5.37-.01,10.73-.03,16.1,0,1.68.01,2.98-.24,3.05-2.31.03-1.07.83-1.28,1.74-1.27.9,0,1.69.18,1.76,1.26.08,1.25.48,2.29,1.9,2.25,1.28-.04,1.65-1.01,1.75-2.18.13-1.54,1.35-1.32,2.37-1.32,8.5,0,17,.23,25.49-.1,4.9-.19,9.79.42,14.65.01,5.29-.44,10.52.37,15.77.06,7.02-.42,14.06-.59,21.08-.38,6.08.18,12.15-.24,18.23-.07,1.66.05,3,.22,3.05,2.31.02.78.49,1.23,1.29,1.24.8.01,1.24-.42,1.35-1.2.21-1.49,1.16-1.88,2.53-1.91,1.38-.02,1.81.75,1.97,1.91.11.77.54,1.21,1.35,1.2.81-.01,1.21-.47,1.31-1.24.15-1.18.64-1.9,2.01-1.87,1.26.03,2.25.37,2.45,1.73.19,1.32,1.07,1.43,2.11,1.42,2.09-.02,4.17.02,6.26-.01,1.07-.01,2.22.3,2.24,1.37.06,2.43,1.6,2.28,3.22,2.21,1.39,1.5.7,3.35.85,5.05.07.8.03,1.62-.1,2.42.05,1.12.2,2.25-.47,3.26-2.99,1.49-5.76,1.01-7.88-1.44-.68-.79-1.52-.89-2.41-.91-2.38-.06-4.77,0-7.15-.03-1.82-.02-3.63-.08-4.5,2.04-.2.48-.73.77-1.26.85-2.59.37-5.19.43-7.77-.04-.69-.13-1.24-.62-1.49-1.26-.76-1.9-2.32-2.17-4.04-2.01-6.84.64-13.68-.38-20.52-.03-1.87.1-3.42-.3-4.58-2.09-1.08-1.67-5.04-1.38-6.31.25-1.6,2.07-2.62,2.14-4.11.04-.71-1-1.56-1.31-2.65-1.3-10.05.14-20.11-.41-30.16.31-.82.06-1.64.08-2.45-.07-1.62-.3-2.9-.21-3.47,1.75-.35,1.23-1.59,1.51-2.75,1.5-3.24-.03-6.61.53-9.34-1.98-.58-.53-1.13-.22-1.48.36-.97,1.58-2.51,1.67-4.12,1.67-3.87,0-7.75-.01-11.62,0-2.48.01-4.82.14-6.55,2.48-1.06,1.43-3.03,1.33-4.32-.09-1.1-1.21-1.79-1.17-2.75.05-.75.94-1.91,1.07-3.06,1.1-1.42.04-2.83.05-4.25.01-1.59-.04-2.89.14-3.45,2.03-.39,1.33-1.74,1.49-2.97,1.53-2.46.07-4.92.08-7.38.02-2.77-.07-5.49.53-8.25.52-.87,0-1.59.33-2.08,1.09-1,1.54-2.49,2.05-4.24,1.97-2.62-.13-5.19.46-7.8.5-1.04.02-1.85.42-2.44,1.3-.86,1.29-2.14,1.79-3.65,1.77-1.94-.03-3.86.28-5.79.37-2.2.11-4.26.11-5.67,2.26-.64.98-1.97.93-3.1.95-1.49.03-2.98-.03-4.45.32-.89.21-1.72.48-2.24,1.31-.98,1.57-2.49,2-4.24,1.96-1.19-.02-2.38,0-3.57.16-1.39.19-2.47.77-3.36,1.93-1.13,1.47-2.62,1.91-4.3.73v-14.3Z"/><path class="cls-25" d="M41.79,90.74c0,.37.05.75,0,1.12-.25,1.8.39,2.52,2.32,2.43,3.2-.15,6.41.04,9.61-.07,1.9-.07,2.58.69,2.41,2.5-.08.81,0,1.64-.01,2.46,0,1.2.49,2.1,1.74,2.18,1.54.1,1.8,1.07,1.83,2.28.03.97,0,1.94.02,2.9.01,1.02.5,1.86,1.5,1.92,1.91.11,2.07,1.3,2.08,2.76.02,2.08-.64,4.53,2.8,4.69.85.04.77,1.14.77,1.88,0,2.08.02,4.17,0,6.25-.01,1.28.42,2.28,1.81,2.34,1.55.07,1.84.94,1.78,2.22-.04.89,0,1.79,0,2.68-.01,1.3.52,2.21,1.9,2.27,1.43.06,1.71.87,1.69,2.07-.03,2.08,0,4.17-.01,6.25-.01,1.27.38,2.28,1.77,2.38,1.71.13,1.8,1.28,1.81,2.52.02,2.98.04,5.96,0,8.93-.02,1.59.59,2.24,2.12,3.06,1.89,1.01,2.92,3.36,4.85,4.72.64.45.13,2.08-1.27,2.23-2.66.28-2.04,2.27-2.11,3.89-.06,1.52-.16,3.08,2,3.3,1.72.18,1.55,1.55,1.56,2.71.02,6.33.03,12.66,0,18.99-.01,1.79.08,3.34,2.45,3.37.67,0,1.09.52,1.1,1.19.03,1.56.04,3.13,0,4.69-.03.8-.58,1.17-1.35,1.2-1.77.06-2.23,1.14-2.18,2.7.05,1.49,0,2.98,0,4.47h-21.47c-.86-.91-.73-2.07-.73-3.17-.02-4.84-.01-9.67,0-14.51,0-1.48-.2-2.63-1.77-3.46-1.96-1.04-1.84-2.95,0-4.28,2.01-1.45,2.03-1.53.04-2.73-1.13-.68-1.7-1.62-1.79-2.9-.08-1.19-.05-2.38-.05-3.57,0-1.86.24-3.74-2.1-4.63-.86-.33-1.21-1.43-1.02-2.31.56-2.63-.13-5.16-.38-7.73-.27-2.74-.09-5.5-.07-8.25,0-1.37-.3-2.4-1.71-3.04-1.69-.76-1.82-2.42-1.85-4.01-.03-1.62-.22-2.98-1.82-4-1.25-.79-1.31-2.44-1.61-3.81-.25-1.11-.46-2.14-1.58-2.78-.92-.52-1.18-1.48-1.24-2.49-.08-1.34-.08-2.68-.03-4.02.06-1.98-.24-3.68-2.38-4.55-1.03-.42-1.13-1.49-1.18-2.48-.08-1.64,0-3.27-.06-4.91-.05-1.16-.25-2.31-1.45-2.8-1.76-.72-2.19-2.09-2.1-3.77.09-1.58-.33-2.75-2.11-3.1-.98-.19-1.73-.83-2.19-1.76-.27-.54-.54-1.11-1.16-1.29-2.35-.7-2.77-2.44-2.52-4.56-.09-1.16-.19-2.32.42-3.39.09-.11.19-.29.31-.3,2.01-.28,3.01-1.54,3.39-3.43,2-.45,3.24-1.66,3.68-3.68,1.1-.69,2.22-.72,3.36-.11.08.1.17.21.25.31Z"/><path class="cls-26" d="M-233.73,111.67v-9.39c.84-.8,1.91-.74,2.95-.75,2.53-.03,5.07,0,7.6-.02,1.59-.01,2.94-.43,3.76-1.93.7-1.28,1.88-1.62,3.21-1.62,1.76,0,3.2-.52,4.1-2.17.71-1.3,2.01-1.44,3.31-1.4,2.99.09,5.95-.1,8.85-.92.65-.18,1.37-.19,1.75-.84,1.03-1.77,2.72-1.88,4.48-1.84,1.04.02,2.09,0,3.13-.03,1.35-.05,2.52-.45,3.2-1.69.84-1.53,2.19-1.84,3.77-1.86,4.01-.03,8.05.28,11.99-.87.7-.21,1.56-.09,2-.81,1.1-1.83,2.86-1.91,4.7-1.9,3.43.02,6.86,0,10.29,0,1.61,0,2.89-.33,3.53-2.07.58-1.58,2.1-1.48,3.43-1.49,5.96-.05,11.92-.02,17.89-.02,2.61,0,5.18-.1,7.77-.65,2.47-.53,5.01-.27,7.54.18,3.62.65,7.2.57,10.15-2.21.96-.91,1.84-.61,2.71.27,1.85,1.88,2.31,1.9,4.1.08,1.16-1.18,2.16-1.13,3.19.09.43.51.82,1.14,1.56,1.17,2.68.1,5.41,1.02,7.96.66,4.48-.63,8.92-.42,13.38-.48,11.61-.17,23.17,1.48,34.8.9,1.56-.08,2.61.56,3.34,2.06.91,1.85,2.48,1.79,3.54.04,1.46-2.41,2.17-2.43,3.55.04.67,1.19,1.67,1.37,2.81,1.39,2.68.06,5.37.01,8.05.03,1.61,0,2.98.34,3.44,2.16.24.93,1,1.22,1.8,1.47,1.39.44,2.01,1.45,2.07,2.86.07,1.79.08,3.57,0,5.36-.05,1.01-.43,1.82-1.23,2.51-1.99,1.72-1.93,5.09-.01,6.78,1.31,1.16,2.32,2.65,4.28,2.97.94.15,1.3,1.19,1.45,2.09.23,1.5,1.19,1.91,2.54,1.93,2.53.03,5.07,0,7.6.02,1.42,0,2.83.13,4.22.45.91.21,1.81.56,2.05,1.52.48,1.91,1.88,2.01,3.45,2.07,3.45.12,3.85.53,3.89,3.92.04,3.57,0,7.15.01,10.72,0,1.52.31,2.78,1.97,3.36,1.37.47,1.56,1.71,1.58,2.93.02,1.76.53,3.21,2.16,4.11.68.37,1.24.99,1.24,1.76-.03,3.11,1.51,6.11.66,9.28-.33,1.23.08,2.24,1.17,2.86,1.59.89,1.97,2.29,1.95,3.96-.02,1.41-.02,2.83.04,4.24.08,1.77.93,2.77,2.75,2.85.3.01.6.03.89.05,1.42.09,2.89.01,3.33,1.9.53,2.3-.02,3.99-1.74,5-1.88,1.1-2.08,2.5-.25,3.48,1.86,1,2.14,2.46,2.13,4.27-.02,6.85,0,13.7-.02,20.55,0,1.95.07,3.67,2.36,4.49,1.11.4,1.31,1.9.31,2.29-2.12.84-2.55,2.71-3.42,4.36h-3.13c-.75-.77-.72-1.76-.73-2.73-.02-2.6,0-5.21-.01-7.81,0-1.26-.29-2.19-1.53-2.94-2.16-1.3-2.13-3.78.03-5.25,1.37-.93,1.41-1.53.01-2.36-1.31-.77-1.61-2.05-1.63-3.46-.04-2.6.02-5.21-.03-7.81-.02-.97-.01-1.97-.95-2.61-2.7-1.85-3.05-4.72-2.83-7.54.24-3.01-.43-5.93-.32-8.9.02-.52-.15-1.02-.59-1.39-2.61-2.23-2.89-5.22-2.64-8.34.1-1.24-.09-2.18-1.38-2.7-1.41-.57-1.94-1.75-1.99-3.21-.04-1.19.02-2.38-.1-3.57-.16-1.59-.39-3.05-2.26-3.7-1.25-.44-1.6-1.67-1.66-2.93-.08-1.86-.02-3.72-.05-5.58-.02-1.11-.57-1.82-1.28-2.67-1.76-2.13-3.93-3.27-6.58-3.72-.75-.13-1.49-.52-1.81-1.2-.93-1.97-2.69-2.13-4.51-2.23-.89-.05-1.8-.17-2.67-.08-1.99.19-3.29-.62-4.08-2.38-.68-.77-1.62-.72-2.49-.68-3.36.15-5.85-.95-8.43-3.46-2.75-2.68-3.62-5.4-3.47-8.88.06-1.26,0-2.53,0-3.79,0-1.18-.57-1.98-1.29-2.91-2.07-2.69-5.07-2.84-7.94-3.25-1.74-.25-3.37-.28-4.38-2.06-.45-.8-1.44-.67-2.24-.68-2.16-.05-4.31.04-6.47-.04-2.08-.07-3.89-.7-5.34-2.34-1.44-1.64-2.4-1.47-3.14.54-.46,1.26-1.28,1.73-2.51,1.79-.82.04-1.63-.05-2.45-.11-1.13-.21-2.28-.51-2.82-1.59-.76-1.53-2.02-1.72-3.52-1.79-3.64-.17-7.27-.12-10.92-.01-6.55.2-13.1-.06-19.64-.4-3.8-.2-7.58.22-11.37.39-4.61.2-9.21-.68-13.83-.4-5.5.33-11,.55-16.51.48-.96-.01-2.01,0-2.54,1.04-.88,1.72-2.39,2.07-4.13,2.05-8.19-.11-16.36.76-24.56.45-1.71-.06-3.23.12-4.14,1.91-.47.92-1.54,1.11-2.53,1.17-1.34.09-2.67.11-4.01.28-1.73.21-3.32.45-4.43,2.12-.81,1.23-2.31,1.19-3.67,1.22-3.72.1-7.45-.25-11.15.43-.89.16-1.8.23-2.27,1.17-.8,1.6-2.27,2.03-3.87,2.26-1.26.18-2.53.19-3.79.17-1.49-.02-2.73.29-3.64,1.67-.89,1.35-2.43,1.63-3.93,1.81-1.33.16-2.68.06-4.02.13-.82.04-1.68.06-2.18.88-1.33,2.22-3.49,2.59-5.8,2.65-.89.02-1.79.03-2.68.03-1.13,0-1.95.35-2.56,1.41-.86,1.51-2.12,2.06-3.71.93Z"/><path class="cls-16" d="M-233.73,83.52v-9.83c.98-.91,2.22-.73,3.39-.79,1.57-.07,2.91-.5,3.74-1.99.55-.99,1.47-1.48,2.58-1.51,1.66-.03,3.23-.52,4.84-.78,1.5-.25,2.86-.48,3.83-1.89.64-.93,1.82-1,2.86-.94,3.01.17,5.93-.44,8.86-.96.67-.12,1.35-.18,1.76-.81,1.08-1.67,2.73-1.89,4.51-1.85,1.04.03,2.09.03,3.13-.05,1.4-.11,2.61-.53,3.32-1.88.85-1.61,2.22-1.98,3.96-1.78,4.11.46,8.17.07,12.2-.8.69-.15,1.28-.38,1.68-.97.95-1.41,2.37-1.66,3.92-1.66,3.28,0,6.56.01,9.83-.01,1.79-.01,3.38-.37,4.38-2.1.72-1.25,2.01-1.43,3.32-1.45,3.2-.04,6.41-.02,9.61-.02,2.83,0,5.66.12,8.43-.7.78-.23,1.64-.28,2.44-.14,2.17.39,4.02.33,5.41-1.86.72-1.14,2.29-.87,3.55-.87,9.31-.02,18.64.35,27.93-.12,8.17-.41,16.32-.83,24.51-.81,8.77.03,17.49,1.24,26.26.96.74-.02,1.61.02,2.1.59,2.55,2.98,6.14,2.65,9.45,2.87,4.08.27,8.19.08,12.29.06,1.78,0,3.34.22,4.54,1.81.89,1.19,2,.94,3.03-.1,1.79-1.82,2.14-1.79,3.94-.02,1.23,1.21,2.19,1.26,3.35-.12.97-1.15,2.12-1.63,3.53-1.53,2.49.17,5.06-.63,7.45.67,1.02,2.01.56,4.15.51,6.24.07,1.26.26,2.54-.49,3.7-2.2.94-4.55,1.77-6.88,1.39-5.63-.93-11.29-.35-16.93-.64-1.86-.1-3.73-.04-5.52-.68-1.04-.37-2.05-.19-3.07.13-1.89.59-3.42.22-4.23-1.74-.41-.99-1.16-1.26-2.12-1.29-1.27-.03-2.53-.03-3.8-.02-1.9.02-3.74-.09-5.14-1.63-.47-.52-1.01-.68-1.53-.1-1.58,1.75-3.67,1.76-5.78,1.74-2.74-.03-5.58.36-7.61-2.19-.33-.41-.95-.26-1.48-.11-5.09,1.39-10.2,2.38-15.54,2.34-14.01-.12-28.01-.04-42.02-.04-1.65,0-3.28-.05-4.61,1.22-.72.69-1.45.36-2.21-.13-2.22-1.44-2.56-1.4-3.75.78-.83,1.52-2.14,1.69-3.6,1.69-6.71.02-13.41,0-20.12,0-2.08,0-4.15-.25-5.18,2.36-.46,1.17-1.98,1.17-3.19,1.19-3.65.06-7.3.03-10.95.02-1.51,0-2.73.29-3.47,1.84-.7,1.46-2.15,1.7-3.63,1.72-3.58.04-7.15,0-10.73.02-1.48,0-2.77.17-3.42,1.84-.53,1.35-1.85,1.61-3.17,1.69-1.71.09-3.43.04-5.14.05-1.14,0-1.99.29-2.43,1.49-.53,1.42-1.72,1.97-3.18,2.04-1.19.06-2.38.06-3.58.03-1.78-.04-3.35.04-4.19,2.11-.53,1.31-2,1.41-3.3,1.44-2.53.07-5.07.04-7.6.02-1.45,0-2.46.38-3.23,1.81-1.12,2.07-4.85,2.45-7.65,1Z"/><path class="cls-9" d="M-233.73,111.67c1.62.09,3.17.2,3.37-2.12.09-1.01,1.11-.99,1.96-1.02,2.22-.08,4.46.28,6.66-.39.77-.23,1.56-.49,1.71-1.24.39-2.06,1.84-1.95,3.39-1.95,1.63,0,3.26.2,4.89-.2,1.28-.31,2.37-.63,2.79-2.14.3-1.07,1.34-1.23,2.39-1.22,2.22.02,4.45.13,6.66-.41.81-.2,1.39-.42,1.52-1.32.21-1.5,1.26-1.69,2.57-1.88,4.22-.61,8.46-.33,12.69-.4.75-.01,1.76.13,2.03-.61,1.32-3.69,4.67-2.26,7.16-2.95.62-.17,1.33-.05,2-.02,1.14.04,2.04-.12,2.23-1.55.15-1.11.99-1.59,2.1-1.58,1.04,0,2.09-.04,3.13,0,8.26.32,16.5-.69,24.75-.45,1.15.03,2.02-.15,2.23-1.56.18-1.24,1.16-1.62,2.33-1.57,8.04.32,16.06-.94,24.08-.36,4.54.33,9.02.06,13.53-.05,8.62-.22,17.25.87,25.87.35,3.71-.23,7.38.17,11.07.06,1.02-.03,2.29.05,2.41,1.11.21,1.97,1.72,1.96,2.95,2.47.21.21.06-.13.17.13,1.16,2.7,3.32,2.48,5.8,2.48,3.26,0,6.54.17,9.82.24,1.14.03,2.44.1,2.86,1.33,1.02,3.04,3.58,2.96,5.85,2.73,5.18-.52,5.47-.35,4.68,4.99-.15,1.03-.14,2.01,1,2.43,1.86.68,2.38,2.09,2.32,3.88-.05,1.65.2,3.04,2.07,3.74,1.39.52,1.43,1.94,1.5,3.23.2,3.45.3,3.55,3.82,3.57,1.04,0,2.09.03,3.13,0,1.79-.04,2.72,1.01,4.01,2.17,2.22,2,3.86,5.11,7.61,5.07,2.12-.02,2.8.85,2.85,3.17.05,1.96.63,3.15,2.36,4.51,2.39,1.88,5.23,3.81,5.06,7.83-.1,2.37.78,4.81.75,7.29,0,.59.03,1.29.54,1.65,1.73,1.2,2.15,2.92,2.16,4.87,0,1.15.68,1.98,1.58,2.55,1.51.95,1.96,2.34,1.92,4.01-.02.97.02,1.94,0,2.9-.03,1.9-.06,3.65,2.28,4.51,1.45.54,1.28,2.21,1.29,3.55.03,6.85.03,13.7,0,20.55,0,1.93-.04,3.74,2.3,4.49.73.24,1.09,1.03,1.15,1.81.24,3.57.23,7.14,0,10.7-.03.46-.32.83-.61,1.17h-6.26c-.96-1.05-.79-2.36-.79-3.61-.02-6.92-.01-13.84,0-20.76,0-1.68,0-3.16-2.08-3.89-1.6-.56-1.51-2.21-1.29-3.67.49-3.01.65-5.92-2.18-8.05-.78-.59-.92-1.45-.84-2.41.36-4.31.37-8.61-.75-12.84-.17-.66-.3-1.35-.89-1.75-1.48-.99-1.84-2.43-1.79-4.08.05-1.52-.39-2.79-1.92-3.46-1.49-.66-1.66-2-1.64-3.38.03-1.78-.46-3.18-2.24-3.97-1.28-.57-1.85-1.87-1.9-3.11-.13-3.14-2.51-4.82-4.35-6.71-1.8-1.86-3.74-3.82-6.72-3.9-.86-.02-1.77-.51-2.28-1.28-.99-1.5-2.39-1.79-4.05-1.8-4.2-.04-6.69-1.98-7.94-6.04-.18-.58-.39-1.17-.88-1.52-2.36-1.67-2.71-4.13-2.74-6.73,0-.67-.02-1.34-.05-2.01-.06-1.52-.8-2.4-2.34-2.39-1.92,0-3.48-.45-4.35-2.41-.49-1.09-1.66-1.2-2.71-1.19-1.89.01-3.48-.3-4.39-2.31-.66-1.45-2.23-1.29-3.56-1.29-6.7-.03-13.41-.02-20.11,0-2.07,0-3.98,0-5.03-2.37-.64-1.43-2.27-1.2-3.6-1.21-7.9-.02-15.79-.02-23.69,0-11.37.01-22.74.04-34.11-.05-3.9-.03-7.64,1.28-11.54,1.04-.7-.04-1.34.29-1.72.89-.93,1.48-2.34,1.61-3.9,1.61-2.29,0-4.63-.35-6.82.69-2.36.46-4.75.21-7.12.24-1.52.02-2.77.25-3.29,1.98-.31,1.03-1.22,1.44-2.26,1.54-1.04.1-2.09.13-3.12.06-3.37-.24-6.5.33-9.28,2.42-1.1.83-2.52.85-3.84,1.03-1.33.18-2.66.32-3.92.83-.7.29-1.43.31-2.19.14-3.08-.67-3.08-.66-4.33,2.1-1.37.62-2.57,1.34-3.12,2.91-.36,1.02-1.43,1.21-2.43,1.26-1.34.07-2.67.04-4.01.03-2.22-.02-4.39-.26-5.88,2.13-.73,1.17-2.41,1.36-3.86,1.41-3.39.12-6.57.56-9.26,3.08-1.23,1.16-3.1,1.6-4.5,2.75-.83.68-1.98.52-2.88-.26v-10.28Z"/><path class="cls-85" d="M37.32,212.23c0-2.09-.39-4.4,2.81-4.52.53-.02.75-.44.7-.95-.05-.55-.45-.73-.93-.76-2.37-.13-2.6-1.72-2.59-3.61.03-7.52,0-15.04.03-22.56,0-1.34.03-2.42-1.74-2.73-1.32-.23-1.85-1.43-1.82-2.74.03-1.4.85-2.07,2.21-2.37,2.62-.56,1-2.66,1.28-4.02.3-1.48-1-1.32-1.96-1.33-.75-.01-1.49.03-2.23-.02-1.86-.13-2.84-1.17-2.89-3.02-.04-1.34-.01-2.68-.01-4.02,0-1.81.44-3.68-2.14-4.44-1.06-.31-1.76-1.64-1.13-3,.81-1.75.64-3.45-.06-5.18-.21-.53-.25-1.16-.24-1.75.04-1.86.28-3.57-2.2-4.42-1.53-.52-1.49-2.42-1.39-3.95.09-1.37,0-2.38-1.84-2.55-1.53-.14-1.76-1.57-1.75-2.93.02-4.1-.09-8.19.05-12.28.06-1.93-.45-2.79-2.48-2.52-.95.12-1.94.04-2.89-.07-.68-.08-1.44-.47-1.5-1.17-.28-3.1-2.8-2.56-4.61-2.69-3.11-.23-6.26-.12-9.38-.04-1.92.05-3.03-.58-2.89-2.67.09-1.36-.62-1.89-1.91-1.81-1.36.08-2.32-.37-2.59-1.85-.05-.26-.26-.63-.46-.68-.97-.26-2.01-.54-2.1-1.69-.14-1.77-.26-3.56.1-5.33.05-.26.34-.47.52-.71.52-.67,1.97-.16,1.96-1.48-.01-2.53-.08-5.05-.12-7.58-2.72-.32-3.27-3.62-5.42-4.24-2.13-.62-4.58-.14-6.89-.14-1.12,0-2.24,0-3.35,0-1.37-.02-2.25-.68-2.49-2.07-.11-.64.04-1.46-.98-1.42-.85.03-.78.73-.86,1.31-.21,1.51-1.13,2.17-2.61,2.19-1.46.02-2.58-.56-2.67-2.08-.1-1.59-1.06-1.5-2.15-1.5-6.48.01-13.06.68-19.43-.16-8.12-1.07-16.18-.35-24.26-.72-.3-.01-.62-.08-.89.01-3.72,1.31-7.44-.25-11.15,0-1.4.09-2.53-.17-2.94-1.71-.15-.54-.38-.97-1.05-.93-.69.04-.8.59-.95,1.07-.41,1.29-1.33,1.58-2.59,1.59-1.31.01-2.14-.42-2.53-1.67-.16-.51-.33-1-1.01-.99-.68,0-.84.51-1,1.01-.4,1.26-1.27,1.84-2.55,1.6-1.8-.34-3.23.96-4.99.95-2.61-.02-5-1.4-7.67-.95-9.82,1.66-19.73.64-29.6.9-.94.02-1.54.19-1.62,1.31-.13,1.79-1.35,2.29-2.97,2.28-4.17-.03-8.35.02-12.52-.03-1.27-.01-2.37,0-2.73,1.56-.16.69-.72,1.05-1.49,1.14-3.96.45-7.89,1.26-11.92.92-2.04-.17-4.11-.4-5.01,2.29-.32.96-1.58,1.27-2.69,1.26-1.34,0-2.68.02-4.02,0-1.56-.04-3.17-.26-3.66,1.86-.12.53-.67.75-1.23.81-3.37.4-6.69,1.33-10.13.91-1.4-.17-2.32.19-2.89,1.68-.65,1.7-2.25,2-3.92,1.9-1.46-.09-2.7-.09-3.29,1.76-.48,1.49-1.98,1.84-3.51,1.83-3.73-.03-7.45-.01-11.18,0v-1.79c1.16-.79,2.42-1.4,3.41-2.46.8-.86,2-.92,3.13-.96,1.49-.05,2.99.06,4.46-.25.88-.19,1.73-.39,2.24-1.28.92-1.63,2.46-2.08,4.19-2.04,2.84.06,5.47-.3,7.5-2.64.76-.88,2-.9,3.14-.94,1.41-.05,2.84.05,4.24-.23.95-.19,1.88-.39,2.44-1.36.88-1.53,2.34-1.96,4-1.99,1.49-.03,2.98-.03,4.47-.02,2.45.01,4.72-.36,6.46-2.38.88-1.03,2.21-1.15,3.5-1.18,2.68-.05,5.37-.02,8.05-.02,1.29,0,2.27-.29,2.86-1.62.75-1.67,2.34-1.92,3.97-1.94,4.02-.05,8.05,0,12.07-.02,2.13-.01,4.15-.11,5.4-2.34.71-1.27,2.16-1.12,3.43-1.13,8.27-.09,16.54-.13,24.81-.08,1.88.01,3.33-.14,4.35-2.17,1.05-2.08,6.16-1.96,7.69.09.99,1.32,1.59,1.29,2.41-.02.65-1.04,1.69-1.38,2.88-1.38,5.66,0,11.33,0,16.99,0,1.31,0,2.31.49,2.97,1.62.72,1.22,1.38,1.13,2.1-.01.79-1.27,2.06-1.63,3.46-1.68,1.49-.05,2.98-.02,4.47-.03,1.79-.01,3.41.3,4.45,1.99.53.86,1.02.8,1.71,0,2.24-2.59,3.55-2.58,5.62.1.97,1.25,2.32,1.46,3.59,1.37,4.91-.35,9.83.59,14.72-.22.81-.13,1.64-.16,2.45-.1,6.76.49,13.53.42,20.3.41,2.23,0,4.18.34,5.11,2.71.08.21.21.46.39.53,2.32.86,3.11,2.81,3.66,4.97.29,1.15,1.18,1.61,2.3,1.82,1.55.28,3.12.19,4.68.3,1.59.11,2.99.6,3.37,2.37.34,1.61-.44,2.76-1.88,3.41-.95.44-1.3,1.14-1.32,2.11-.05,2.61-.01,5.21-.02,7.82,0,1.54.76,2.15,2.21,2.1,2.2-.07,4.16.25,5.08,2.7.39,1.03,1.49.87,2.35.88,1.97.03,3.41.72,4.82,2.26,1.34,1.46,3.42,2.22,4.46,4.14.21.38.97.31,1.49.31,1.9-.03,3.66.67,5.47,1.06,1.78.38,2.62,1.56,2.69,3.35.06,1.49-.07,2.97-.23,4.45-.28,2.55-.41,5.04,2.2,6.75,1.05.69,1.1,2.06,1.26,3.24.2,1.43.56,2.69,1.93,3.56,1.5.95,1.57,2.61,1.56,4.2-.01,1.49.14,2.75,1.82,3.42,1.31.52,1.65,1.84,1.73,3.16.1,1.64.03,3.28.06,4.91.02,1.02.2,1.9,1.3,2.35,1.68.69,2.2,2.11,2.24,3.78,0,.3.04.6.02.89-.2,3-.38,5.98,3.15,7.4.47,1.11.49,2.32.74,3.47.19.88.44,1.65,1.19,2.3,2.29,1.98,2.43,5.66.38,7.87-2.16,2.34-1.99,4.4.58,6.39,1.03.8,1.48,1.86,1.51,3.09.12,6.83.07,13.66.03,20.49,0,.76-.18,1.47-.73,2.05h-8.5Z"/><path class="cls-38" d="M-233.73,121.95c1.55.04,3.15.27,3.86-1.7.19-.52.85-.52,1.38-.54.78-.02,1.56-.27,2.01-.84,2.43-3.05,5.87-3.02,9.27-3.19,1.89-.09,3.7-.37,4.45-2.52.37-1.05,1.31-1.05,2.23-1.05,2.45.01,4.91-.03,7.36.02,1.03.02,1.89-.28,1.97-1.33.16-2.2,1.52-2.44,3.25-2.26.84-.8,1.91-.78,2.95-.75,3.8.11,7.59-.19,11.38-.46,1.2-.08,2.13-.36,2.75-1.51.63-1.15,1.77-1.57,3.03-1.58,2.24-.01,4.46-.3,6.68-.44,2.02-.12,3.96.05,5.18-2.18.6-1.1,2.09-.99,3.28-1,3.73-.04,7.45-.02,11.18-.01,1.44,0,2.61-.22,3.13-1.86.42-1.33,1.62-1.63,2.88-1.68,2.09-.08,4.17-.04,6.26-.04,9.09,0,18.18.14,27.27-.04,8.34-.17,16.67.26,25,.04,1.97-.05,3.69.29,4.78,2.2.64,1.13,1.91,1.07,2.98,1.21,2.67.34,5.36.14,8.04.16,3.28.03,6.56,0,9.84.01,1.66,0,3.12.39,3.99,1.94.51.91,1.32,1.13,2.26,1.15,1.57.02,3.11.33,4.67.43,1.66.11,3.04.61,3.92,2.13.75,1.31,2.17,1.18,3.37,1.37,1.57.25,2.9.7,3.4,2.41.06.21.13.55.29.59,2.54.67,3,3.51,5.01,4.73.38.23.78.51.94.93.55,1.48,2.09,2.09,2.89,3.13,1.58,2.05,4.57,2.6,5.37,5.34.16.55.71.72,1.2.91.63.24,1.42.49,1.6,1.13.7,2.5,2.64,2.45,4.63,2.46,1.07,0,2.22.23,2.64,1.32.53,1.36,2.13,1.84,2.61,2.73,1.25,2.36,4.22,2.98,5.06,5.55.21.65.68.95,1.28,1.12,1.75.5,2.21,1.81,2.24,3.43.02,1.41,0,2.83.23,4.23.2,1.21.51,2.28,1.7,2.95,1.22.69,1.57,1.91,1.66,3.24.11,1.68.44,3.2,2.15,4.12,1.06.57,1.32,1.74,1.39,2.9.08,1.34.01,2.68.08,4.02.09,1.56.47,2.88,2.07,3.65,1.44.69,1.87,2.05,1.77,3.57-.08,1.19-.29,2.36-.29,3.56,0,1.73-.17,3.48,2.16,4.04.83.2,1.16,1.11,1.32,1.94.28,1.46.6,2.94.51,4.43-.44,7.73.26,15.46.02,23.19-.03,1.04.04,2.1-.76,2.95h-5.81c-.96-1.06-.73-2.38-.71-3.62.07-5.36-.05-10.71,0-16.06.01-1.5-.19-2.73-1.74-3.51-1.31-.65-1.75-1.96-1.78-3.39-.03-1.19-.04-2.38,0-3.57.05-1.65-.3-2.94-1.93-3.88-1.64-.95-1.79-2.99-1.46-5.22.51-3.37.81-6.8-2.45-9.27-1.16-.88-1.35-2.25-1.33-3.64.02-1.35-.35-2.42-1.69-3.1-1.31-.66-1.82-1.92-1.87-3.34-.05-1.26-.03-2.53-.02-3.79.02-1.55-.6-2.56-1.75-3.77-1.72-1.79-3.87-3.19-5.24-5.32-.08-.13-.13-.3-.24-.37-2.62-1.51-3.87-3.71-3.71-6.78.05-.98-.94-1.01-1.68-1.05-1.56-.07-3.13-.03-4.69-.09-.99-.04-2.1-.09-2.69-.86-1.27-1.66-2.96-2.87-4.32-4.4-.88-.99-1.69-1.63-2.96-2.09-2.31-.83-4.05-2.53-4.81-4.91-.37-1.13-.84-1.93-1.83-2.62-2.41-1.68-4.23-2.54-7.23-3.06-.22-.04-.51-.01-.64-.15-2.39-2.38-5.98-3.11-8.11-5.8-.65-.81-1.37-1.06-2.29-1.08-2.16-.04-4.32-.08-6.48,0-2.56.09-5.05-.06-7.32-1.41-1.08-.34-2.21-.33-3.3-.54-1.51-.29-2.66-.12-3.58,1.41-.9,1.51-2.02,1.5-3.24.09-.82-.95-1.73-1.27-2.91-1.31-5.35-.21-10.7-.62-16.06-.47-2.15.06-4.31.12-6.43-.47-.71-.2-1.49-.15-2.22-.06-8.6,1.12-17.24.29-25.86.53-1.75.05-3.41-.03-4.28,1.99-.43.99-1.56,1.02-2.55,1.03-2.31.02-4.62.11-6.92-.01-5.37-.3-10.67.77-16.03.62-1.1-.03-2.04.3-2.61,1.36-.62,1.16-1.71,1.39-2.94,1.67-4.04.92-8.18.11-12.22.88-1.13.22-2.16.44-2.9,1.43-.67.89-1.66,1.2-2.73,1.32-1.85.21-3.66.67-5.51.9-.59.07-1.29.06-1.66.55-2.07,2.73-5.14,2.32-7.97,2.54-1.55.12-2.93.25-3.74,1.85-.48.94-1.47,1.18-2.47,1.29-1.18.13-2.35.44-3.55.41-2.09-.05-3.94.15-5.09,2.33-.6,1.12-1.97,1.26-3.18,1.27-1.49,0-2.7.34-3.57,1.76-.81,1.32-2.06,1.65-3.43.63v-7.15Z"/><path class="cls-43" d="M-233.73,83.52c1.34,0,2.68-.02,4.02,0,1.64.03,3.12.04,3.29-2.27.08-1.07,1.22-1.33,2.29-1.32,3.05.03,6.11,0,9.16,0,1.42,0,2.65-.09,2.8-2.03.09-1.25,1.17-1.57,2.33-1.56,1.94.03,3.87-.02,5.81.01,1.5.02,2.5-.51,2.49-2.14-.01-1.26.67-1.46,1.71-1.45,2.16.03,4.32.01,6.48,0,1.35,0,2.49-.14,2.63-1.95.11-1.38,1.26-1.64,2.49-1.64,4.17.02,8.34-.02,12.52.02,1.51.02,2.59-.31,2.88-2.05.23-1.38,1.37-1.56,2.58-1.55,4.02.02,8.05,0,12.07.01,1.62,0,3.09.09,3.32-2.23.13-1.35,1.53-1.36,2.7-1.35,7.52.02,15.05-.04,22.57.04,1.79.02,2.93-.26,3.26-2.31.24-1.49,2.92-1.81,4.21-.61.42.39.44,1.13,1.26,1.36.8-1.98,2.48-2.08,4.36-2.08,15.5.04,30.99.01,46.49.04,1.96,0,3.86-.08,5.63-1.03.97-.53,2.04-.28,3.08-.32,1.03-.04,1.92-.02,2.85-.85.97-.87,2.42-1.04,3.12.55.59,1.34,1.64,1.61,2.88,1.63,2.01.02,4.02.03,6.03,0,1.25-.02,2.23-.35,2.86-1.67.67-1.42,1.82-1.38,2.55.08.64,1.31,1.67,1.58,2.91,1.59,2.16.02,4.32.03,6.48,0,1.1-.02,1.81.13,1.88,1.52.09,1.87,1.24,2.51,2.92,1.7,1.66-.8,3.21-.86,4.83.03.75.41,1.59.38,2.41.33,4.21-.24,8.42.45,12.64.01,1.42-.15,2.87-.04,4.18.46,3.01,1.15,5.8-.91,8.74-.47,1.09,1.04.75,2.36.73,3.62.18,2.38.16,4.77,0,7.15-.02,3.53.65,7.09-.46,10.58-1.95.98-2.94.81-4.11-.98-.6-.92-1.21-1.63-2.34-1.87-1.1-.24-1.56-1.11-1.68-2.13-.18-1.59-1.16-2.16-2.6-2.15-1.86.01-3.3-.52-4.15-2.37-.54-1.17-1.81-1.22-2.93-1.21-1.84.02-3.33-.48-4.32-2.2-.61-1.06-1.74-1.32-2.9-1.38-1.42-.07-2.83-.02-4.25-.06-1.25-.04-2.26-.44-3.13-1.43-1.35-1.54-2.27-1.49-3.67-.04-2.18,2.27-5.45,2.07-7.16-.51-.64-.96-1.44-1.45-2.56-1.52-.82-.05-1.64-.05-2.46-.05-23.92,0-47.84.01-71.76-.02-2.4,0-4.6.07-5.95,2.54-.55,1.01-1.76,1.01-2.81,1.03-2.24.05-4.47.02-6.71.02-3.05,0-6.09-.04-9.11.68-1.97.47-4,.26-5.99-.22-1.24-.3-2.49-.46-3.76-.42-1.31.04-2.29.46-2.71,1.85-.58,1.95-2.02,2.53-3.96,2.53-3.87,0-7.75.08-11.62.06-1.34,0-2.36.35-3.28,1.47-1.56,1.9-3.95,1.96-6.16,2.05-3.65.16-7.3.07-10.95.04-1.64-.01-3.06.14-3.85,1.92-.49,1.1-1.63,1.46-2.79,1.58-1.19.12-2.38.11-3.57.07-1.78-.05-3.34.1-4.32,2-.67,1.31-2.13,1.51-3.52,1.56-2.46.07-4.92.02-7.38.04-1.34,0-2.46.25-3.12,1.64-.78,1.64-2.33,1.96-3.97,1.92-1.51-.04-2.8.21-3.38,1.89-.22.64-.79,1.2-1.46,1.3-3.22.45-6.46,1.03-9.61-.37v-7.15Z"/><path class="cls-8" d="M5.96,52.23c-2.23,0-4.47.05-6.7-.01-1.61-.04-2.92-.06-3.7,1.88-.61,1.51-3.55,1.1-4.34-.45-.3-.59-.42-1.33-1.28-1.35-.87-.03-1.15.66-1.3,1.3-.3,1.26-1.2,1.33-2.23,1.33-1.09,0-2.1,0-2.41-1.39-.26-1.2-1.18-1.33-2.24-1.32-3.43.04-6.87-.18-10.28.07-3.76.27-7.36-.76-11.05-.96-.66-.04-1.2-.3-1.33-.97-.33-1.67-1.5-1.74-2.87-1.71-2.83.06-5.66,0-8.49.02-2.01,0-3.99.04-5.93-.72-2.37-.92-4.82.13-7.25.07-7.85-.19-15.74-1.06-23.57.47-.79.15-1.62.17-2.44.17-10.58.01-21.16.02-31.73-.01-1.39,0-2.44.12-2.85,1.75-.33,1.33-1.54,1.64-2.7,1.34-2.4-.62-4.63-.2-7.01.3-2.28.49-4.74.18-7.12.2-3.13.02-6.26.02-9.39,0-.94,0-1.87,0-2.16,1.1-.59,2.25-2.39,2.44-4.21,2.46-3.8.05-7.6,0-11.4.02-.8,0-1.87-.23-2.1.79-.46,2.04-2.01,1.6-3.42,1.97-3.22.83-6.46.87-9.72.81-.81-.02-1.66-.02-2.42-.25-1.27-.38-2.12,0-2.43,1.21-.57,2.21-2.25,2.55-4.12,2.62-1.19.05-2.38.03-3.58,0-1.51-.03-3.05-.23-3.42,1.88-.1.55-.66.78-1.23.79-3.41.03-6.69,1.43-10.15.93-1.36-.2-2.54.02-2.86,1.69-.11.56-.56.99-1.11.92-2.57-.34-4.87,1.37-7.44.97-.88-.14-1.7.1-1.94,1.07-.53,2.14-2.22,2.38-3.98,2.48-1.26.07-2.53.01-3.8.01v-4.47c1.93.14,3.53.04,4.47-2.26.6-1.45,2.63-1.04,4.05-1.28,1.01-.17,2.08-.08,3.12-.03,1.54.08,2.66-.21,3.3-1.92.68-1.81,2.69-1.24,4.12-1.6,1.05-.27,2.23-.11,3.34-.05,1.55.09,2.77-.19,3.26-1.95.24-.84,1.04-1.16,1.96-1.2,3.11-.12,6.23-.34,9.34-.42,1.39-.03,2.48-.24,2.93-1.78.28-.96,1.05-1.42,2.07-1.36,3.13.17,6.2-.76,9.34-.46,1.4.14,2.46-.24,2.92-1.78.32-1.08,1.24-1.27,2.3-1.37,5.34-.49,10.7-.45,16.05-.41,1.49.01,2.71-.08,2.61-2.07-.07-1.33.89-1.53,1.97-1.52,2.16.02,4.32-.03,6.49.02,1.32.03,2.34-.27,2.75-1.7.19-.66.59-1.3,1.37-1.25.64.04,1.03.6,1.2,1.19.33,1.15,1.01,1.75,2.25,1.76,1.22.01,1.87-.54,2.34-1.65.93-2.2,3.14-1.79,4.83-1.86,4.69-.19,9.39-.08,14.09-.06,1.26,0,2.24-.02,2.63-1.66.35-1.48,2.14-1.46,2.58-.51,1.15,2.5,3.37,1.67,5.15,2.12.91.23,1.93,0,2.9.05,1.76.09,3.31.11,3.21-2.42-.05-1.21,1.13-1.16,2.03-1.16,11.22,0,22.44,0,33.66,0,1.85,0,3.87-.38,4.2,2.38.07.56.68.74,1.25.71.58-.03,1.09-.3,1.15-.87.23-2.18,1.73-2.3,3.41-2.22.97.05,1.94,0,2.91.02.74.01,1.51.4,1.58,1.03.26,2.51,2.07,2.03,3.66,2.08,4.98.18,9.96-.38,14.94.4,2.36.37,4.69-.6,7.1-.45,1.67.11,2.96.42,3.21,2.33.14,1.06.85,1.29,1.76,1.28,2.09,0,4.17-.02,6.26,0,1.04,0,1.67-.34,1.84-1.47.19-1.23,1.08-1.67,2.27-1.66,3.5.02,7.01.02,10.51,0,1.18,0,2.14.35,2.32,1.59.21,1.43,1.1,1.57,2.24,1.55,1.49-.03,2.98,0,4.47,0,1.13,1.15.8,2.53.65,3.89-.09.42-.26.79-.64,1.02Z"/><path class="cls-78" d="M-233.73,90.67c2.68,0,5.37-.03,8.05.01,1.56.03,2.64-.41,2.7-2.19.04-1.04.69-1.4,1.64-1.4.97,0,1.94-.03,2.91,0,1.34.05,2.35-.32,2.6-1.83.23-1.37,1.15-1.77,2.42-1.76,2.98.02,5.96.03,8.94,0,1.4-.01,2.68-.21,2.99-1.99.22-1.24,1.16-1.6,2.34-1.59,1.86.03,3.73,0,5.59,0,1.45,0,2.52-.55,2.71-2.07.19-1.46,1.14-1.52,2.26-1.51,3.95.01,7.9-.05,11.85.03,1.82.03,3.53-.36,5.25-.85.5-.14,1.1-.13,1.23-.76.44-2.1,2.01-2.01,3.64-2,4.16.04,8.33-.04,12.49.04,1.57.03,2.53-.59,2.61-2.07.11-1.91,1.24-2.38,2.81-2.42,1.41-.03,2.8-.05,4.2.38,2.47.75,4.96.64,7.48.07,4.48-1.01,9.05-.3,13.58-.42,1.77-.05,3.24.06,4.02-2.1.53-1.45,2.19-1.53,3.68-1.53,12.52.02,25.04.01,37.56.01s25.34.02,38.01-.02c2.06,0,3.74.32,4.15,2.72.16.94.9.97,1.54.85,1.28-.25,2.84.82,3.84-.82,1.58-2.61,3.79-2.66,5.25-.02.48.87,1.09.87,1.83.87,1.79,0,3.58,0,5.37,0,1.47,0,2.76.56,3.21,1.97.52,1.62,1.61,1.69,2.93,1.61,2.21-.13,4.27,0,4.71,2.84.1.67.67.71,1.21.72.75.01,1.49,0,2.24.01,1.7.05,2.95.61,2.75,2.64-.13,1.31.35,1.97,1.75,1.84.88-.08,1.67.14,1.8,1.21.27,2.22,1.83,2.45,3.6,2.35.03.12.07.24.1.35-.12.22-.29.39-.52.5-2.07.67-4.07-.52-6.12-.26-.24-.02-.48-.08-.7-.16-1.41-.65-2.69-1.35-3.56-2.82-.92-1.56-3.01-2.05-3.9-3.79-.25-.48-1.09-.31-1.68-.34-1.54-.09-3.11.19-4.64-.21-.27-.13-.62-.28-.67-.55-.51-2.8-2.56-2.74-4.73-2.71-6.01.1-12.02-.13-18.03-.15-4.98-.02-9.95.34-14.93.16-2.2-.08-4.28-.32-5.56-2.58-.66-1.16-1.67-.96-2.57.02-2.47,2.71-5.63,2.65-8.21-.14-1.36-1.46-8.66-1.26-9.79.38-1.1,1.59-2.41,2.12-4.21,1.5-.73-.25-1.48-.16-2.22-.16-5.51,0-11.06-.38-16.53.12-4.1.37-8.17-.78-12.15.02-4,.8-7.97.97-11.99.71-1.5-.1-2.97.02-4.45.16-.93.09-1.63.43-2.23,1.24-1.4,1.87-2.63,1.84-4.12.07-1.28-1.53-1.8-1.56-3.06.05-.66.85-1.4,1.17-2.46,1.22-7.79.32-15.55,1.33-23.37.99-1.27-.05-2.29.3-2.96,1.55-.85,1.57-2.46,1.82-4.05,1.93-2.38.17-4.77.05-7.15.08-1.34.01-2.47.26-3.15,1.62-.61,1.21-1.81,1.44-3.05,1.48-2.75.09-5.48.61-8.25.49-1.26-.06-2.32.26-2.96,1.53-.63,1.25-1.87,1.62-3.16,1.84-1.4.24-2.82.19-4.24.18-1.5-.02-2.69.29-3.53,1.77-.86,1.54-2.57,1.65-4.14,1.75-2.38.15-4.77.05-7.15.06-1.28,0-2.28.31-2.91,1.59-.76,1.53-2.32,1.79-3.82,1.9-1.49.11-2.65.46-3.51,1.9-.79,1.33-2.11,1.56-3.46.56v-6.7Z"/><path class="cls-60" d="M-1.14,83.52h.45c1.38.27,2.81.4,3.1,2.25.3,2.01.85,4.06-1.23,5.48-1.85,1.26-2.43,5.96-1.32,8.56.38.9,1.36.82,2.14.94,2.06.33,3.89.62,5.24,2.78.77,1.23,2.73,1.78,3.67,3.33.41.68,1.53.56,2.32.45,4.33-.59,8.35,1.3,12.58,1.52,1.37.07,1.88,1.09,1.93,2.33.07,2.04.06,4,2.56,4.86.98.34.95,1.58.98,2.57.07,2.75.13,5.51.12,8.26,0,1.42.22,2.61,1.89,3.1,1.23.36,1.57,1.49,1.56,2.7-.01,1.79.13,3.57.15,5.36.01,1.2.3,2.16,1.65,2.57,1.33.4,1.79,1.47,1.78,2.79-.02,1.34.11,2.68.11,4.02.01,1.82-.1,3.6,2.27,4.24.91.25,1.19,1.3,1.23,2.22.2,3.94-.05,7.89.26,11.83.03.37-.19.71-.49.97-3.69-.42-3.95-2.9-3.6-5.84.12-1.03.02-2.08.02-3.12,0-1.46-.64-2.51-2.16-2.61-1.24-.09-1.44-.73-1.42-1.76.04-2.01-.01-4.02.02-6.03.02-1.62-.5-2.83-2.29-2.96-1.13-.08-1.33-.7-1.3-1.63.03-1.12,0-2.23,0-3.35,0-.93-.21-2.16-1.01-2.32-2.77-.53-2.25-2.76-2.52-4.5-.23-1.48-.33-2.82-2.21-3.08-.82-.11-.78-.9-1-1.54-1.01-2.89.1-5.74.05-8.61-.06-3.13-.06-2.94-3.12-3.69-1.97-.48-3.88-.91-5.9-.81-.8.04-1.24-.31-1.3-1.16-.03-.43-.15-1.18-.36-1.23-3.02-.69-3.96-5.06-7.8-4.34-1.65.31-3.05.1-3.18-2.23-.07-1.19-1.38-1.33-2.5-1.32-4.93.03-4.48.54-4.49-4.6,0-2.23.02-4.47,0-6.7-.01-1.17.19-2.06,1.64-2.11,1.46-.05,1.88-1.14,1.88-2.31,0-1.3-.89-2-2.16-2.12-1.99-.18-4-.18-5.99-.3-2.6-.17-2.47-2.13-2.83-3.52-.42-1.63-.8-2.85-2.69-2.92-.77-.03-.98-.5-1.03-1.18-.15-1.92-1.39-2.42-3.1-2.4-3.05.04-6.14.28-9.16-.06-3.83-.42-7.63.38-11.49-.28-3.34-.56-6.81.83-10.21.3-3.46-.54-6.92.63-10.37-.34-.96-.27-1.63-.45-1.79-1.57-.16-1.11-.96-1.56-2.07-1.63-1.3-.09-1.95.61-2.24,1.72-.2.76-.3,1.41-1.34,1.43-1.07.03-1.37-.49-1.58-1.42-.29-1.27-1.3-1.72-2.54-1.72-1.79,0-3.58.04-5.36-.01-1.78-.05-3.32.15-3.64,2.34-.12.8-.77.78-1.38.79-.67.01-1.16-.17-1.26-.94-.25-1.92-1.5-2.23-3.21-2.21-5.36.08-10.73.07-16.09,0-1.52-.02-2.66.25-3.03,1.9-.19.85-.71,1.24-1.59,1.25-.91,0-1.02-.59-1.21-1.28-.8-2.95-3.26-1.54-5.05-1.82-1.63-.25-2.34.81-2.44,2.22-.12,1.7-1.31,1.32-2.28,1.32-8.87.02-17.73.03-26.6,0-1.79,0-3.23-.02-3.99,2.21-.52,1.55-2.48,1.34-3.92,1.36-4.4.06-8.79.06-13.19,0-1.95-.02-3.63.15-3.78,2.66-.07,1.1-.99.92-1.71.92-3.35.02-6.71,0-10.06.01-1.32,0-2.25.4-3.09,1.68-.99,1.52-2.94,1.8-4.7,1.87-2.23.09-4.47,0-6.7.03-1.32.03-2.56.27-2.8,1.93-.11.79-.66,1.01-1.39,1.2-2.05.53-4.13.41-6.21.43-1.4.01-2.42.33-3.27,1.75-.9,1.49-2.86,1.61-4.52,1.8-1.18.13-2.38.02-3.57.04-.86.01-1.96.24-2.13.96-.7,3.05-3.19,2.28-5.14,2.57-1.09.16-2.23.03-3.35.04-.93,0-2.05.2-2.31,1.05-.6,1.94-2.04,1.61-3.42,1.62v-3.13c1.46-.01,3.02.37,3.32-1.91.14-1.08,1.31-1.2,2.35-1.24,2.09-.08,4.42.26,4.96-2.77.16-.91,1.14-.79,1.88-.79,2.76,0,5.52.1,8.27-.04,1.68-.09,3.63.08,4.07-2.45.19-1.08,1.43-1.07,2.44-1.1,2.22-.06,4.46.28,6.66-.4.71-.22,1.25-.45,1.36-1.25.21-1.64,1.33-2.03,2.74-1.91,3.29.29,6.51-.57,9.79-.46.9.03,1.64-.19,1.79-1.25.23-1.64,1.37-1.91,2.77-1.89,2.46.04,4.92.1,7.38-.02,1.84-.09,3.99.19,4.46-2.53.11-.64.87-.99,1.61-1,.52,0,1.04-.03,1.57,0,7.67.32,15.31-.71,22.98-.45,1.13.04,2.05-.09,2.25-1.53.15-1.11.97-1.58,2.09-1.6,1.2-.02,2.06.41,2.29,1.64.16.82.42,1.44,1.37,1.45.94,0,1.24-.6,1.39-1.43.22-1.23,1.08-1.65,2.28-1.67,2.13-.03,4.27.01,6.38-.07,14.29-.55,28.59-.31,42.89-.36,1.19,0,1.98-.26,2.18-1.63.17-1.11,1.06-1.52,2.16-1.51,2.39.01,4.77.01,7.16,0,1.21,0,2,.51,2.23,1.73.38,2.08,2.05,1.33,3.23,1.35,1.13.03,2.69.63,3.04-1.32.22-1.22.97-1.76,2.19-1.77,1.21-.01,2.04.46,2.26,1.69.35,2.03,2.16,1.76,3.36,1.8,2.81.1,5.63.35,8.46-.25,1.5-.32,3.11-.26,4.66.08,1.84.41,3.69.43,5.53,0,1.33-.31,2.71-.36,4-.14,4.56.78,9.15.05,13.72.34,1.86.12,3.1.33,2.82,2.56-.07.6.25.99.87,1.07,1.43.51,2.91.15,4.36.21,1.01.04,1.78.37,2,1.37.24,1.07.75,1.7,1.86,1.87.6.09,1.28.44,1.39.99.43,2.16,2.27,2.2,3.8,2.72Z"/><path class="cls-82" d="M10.04,212.23c0-4.99.37-10.01-.1-14.95-.49-5.03.78-10.04-.28-15.05-.29-1.36-.44-2.28-2.06-2.19-1.13.06-1.63-.61-1.58-1.68.1-1.92-.21-3.84.29-5.77.45-1.75.13-3.29-2.06-3.71-1.99-.38-1.55-2.18-1.75-3.41-.26-1.6-.09-3.27-.06-4.9.02-.97-.18-2.02-1.15-2.19-2.54-.44-2.28-2.44-2.38-4.09-.1-1.68-.12-3.13-2.28-3.4-.81-.1-.78-.91-.92-1.59-.45-2.13-.48-4.27-.42-6.43.04-1.3-.28-2.26-1.83-2.13-1.39.12-1.88-.5-1.77-1.83.1-1.21-.52-1.8-1.73-1.76-1.17.04-1.88-.42-1.82-1.68.06-1.3-.49-1.97-1.84-1.9-1.22.06-1.8-.55-1.74-1.76.07-1.55-.85-1.88-2.15-1.82-.74.04-1.5-.05-2.23.02-1.66.15-2.79-.26-2.8-2.21,0-1.05-.71-1.41-1.65-1.37-1.3.05-1.96-.49-1.91-1.84.01-.36-.14-1.04-.19-1.04-2.87.13-3.43-2.9-5.44-4.06-2.08-1.2-3.61-3.56-4.99-5.66-.54-.82-.6-1.76-1.83-1.71-1.34.06-1.91-.59-1.85-1.89.05-1.25-.64-1.66-1.81-1.71-1.18-.05-2.35-.31-3.52-.44-.9-.09-1.25-.6-1.4-1.45-.19-1.11-.92-1.7-2.04-1.66-2.24.09-4.4-.72-6.65-.48-.94.1-1.82-.05-2-1.25-.24-1.65-1.38-1.88-2.78-1.87-4.99.03-9.98-.02-14.98.03-1.94.02-3.85-.17-5.76-.45-.84-.13-1.4-.4-1.53-1.3-.24-1.65-1.41-1.86-2.8-1.85-5.74.03-11.47.01-17.21.01-13.9,0-27.79.01-41.69-.02-1.75,0-3.26-.09-3.33,2.36-.03,1.23-1.23,1.25-2.25,1.24-4.4-.02-8.79.01-13.19-.02-1.41-.01-2.53.26-2.76,1.9-.15,1.06-.91,1.21-1.8,1.24-3.34.13-6.67.33-10.01.43-1.26.04-2.25.35-2.46,1.72-.18,1.15-.86,1.39-1.88,1.44-5.2.23-10.39.63-15.59.44.02-3.71.86-4.27,4.22-2.8.53.23,1.07.67,1.67.28,2.1-1.38,4.55-1.13,6.86-1.45,1.43-.19,2.09-1.32,3.16-1.92,3-1.69,6.19-1.2,9.34-1.25,1.7-.03,3.46.34,3.57-2.33.04-1.05,1.26-1.27,2.31-1.26,2.75.03,5.49,0,8.24,0,2.7-.81,5.46-.3,8.2-.45.73-.04,1.58.2,2.12-.42,1.46-1.67,3.38-1.67,5.34-1.67,6.03,0,12.07,0,18.1,0,1.66,0,3.27-.07,4.73-1,.65-.41,1.4-.59,2.15-.47,4.27.66,8.69-.79,12.79.27,9.28,2.41,18.64.59,27.94,1.17,2.01.13,3.78.37,5.19,2.04,1.06,1.25,2.58,1.59,4.24,1.58,6.33-.04,12.66-.01,18.99-.02,1.75,0,3.2.28,3.93,2.2.55,1.44,2,1.38,3.27,1.37,1.77-.02,3.18.35,3.91,2.25.51,1.32,1.87,1.28,3.07,1.34,3.44.18,3.76.53,3.8,4,.01.82.04,1.64,0,2.46-.13,2.18.18,4.03,2.79,4.56.87.18,1.22,1.02,1.61,1.75,1.68,3.11,4.2,4.94,7.81,5.14.82.04,1.71.13,2.32.7,1.64,1.55,3.32,2.95,5.7,3.22.61.07.96.69,1.18,1.25.39.95,1.03,1.61,1.98,2,.71.29,1.08.96,1.6,1.48,2.06,2.06,3.39,4.58,4.97,6.96,1.39,2.1,2.42,3.97,2.29,6.47-.07,1.27.32,2.39,1.67,2.86,1.55.55,1.89,1.78,1.85,3.21-.06,1.9.21,3.54,2.33,4.3,1.05.38,1.18,1.45,1.23,2.44.08,1.64.04,3.27.03,4.91,0,1.57.02,3.12.95,4.51.39.57.41,1.25.34,1.94-.11,1.09.14,2.03,1.04,2.79.63.54,1.05,1.31,1.1,2.14.1,1.74.71,3.33,1.21,4.96-.06,1.88-.36,3.76,2.59,3.73,1.27,0,.97,1.45.97,2.37.02,8.69.01,17.38.01,26.07h-6.71Z"/><path class="cls-38" d="M-176.93,115.7c-1.34,0-2.68.04-4.01-.01-1.63-.07-2.95.13-3.25,2.15-.15,1.06-1.14.98-1.97.99-3.26.03-6.51-.08-9.76.41-1.11.17-2.2.28-2.39,1.51-.23,1.52-1.14,1.71-2.37,1.66-3.26-.14-6.48.75-9.76.45-.79-.07-1.75.12-1.89.86-.6,3.04-3.06,2.43-5.04,2.68-.93.12-2.06.13-2.23,1.08-.47,2.62-2.5,2.34-4.25,2.5-1.47.13-2.97.05-4.46.02-.89-.02-1.9.21-2.02,1.04-.3,2.26-1.79,2.2-3.42,2.09v-4.02c1.62.18,2.86-.06,3.35-2,.3-1.2,1.57-1.19,2.64-1.13,2.02.11,3.89.1,4.52-2.48.23-.96,1.27-1.09,2.23-1.11,1.55-.03,3.09-.03,4.66-.26,1.82-.27,3.46-.25,4.06-2.49.23-.85,1.31-.79,2.15-.82,1.48-.05,2.94-.01,4.44-.25,1.79-.28,3.5-.25,4.33-2.29.23-.56.98-.6,1.6-.58,2.4.1,4.63-1.07,7.04-.93.27.02.71-.09.8-.28,1.73-3.63,5.2-2.49,8.01-2.75,2.87-.27,5.78-.13,8.66-.49.95-.12,1.58-.41,1.8-1.31.38-1.54,1.42-1.85,2.85-1.87,7.8-.13,15.6-.67,23.41-.41,1.26.04,2.28-.17,2.42-1.63.17-1.64,1.34-1.51,2.47-1.51,7.45,0,14.92.33,22.34-.09,7.29-.41,14.53.46,21.8.12,3.26-.15,6.5.72,9.78.43.91-.08,1.57.25,1.84,1.24.2.72.48,1.51,1.47,1.36.8-.12,1.05-.83,1.12-1.49.13-1.26.87-1.74,1.98-1.54,1.89.34,3.85.19,5.68.87.72,1.04,1.47,2.01,2.81,2.37.65.17,1.21.69,1.45,1.32.61,1.66,1.91,1.86,3.42,1.85,3.28-.02,6.55-.04,9.83.01.88.02,1.8-.06,2.63.38l5.79,5.26c.4,1.18,1.3,1.52,2.45,1.49,2.3-.06,4.36.29,5.02,3,.09.38.44.58.77.76,2.03,1.12,2.95,2.83,2.82,5.15-.08,1.35.71,1.85,1.96,1.8,2.3-.1,4.28.31,5.28,2.79.4,1,1.54.83,2.39.81,2.11-.04,3.84.46,4.65,2.65.23.61.77.88,1.32,1.12.93.4,1.64,1.04,2.01,1.98.32.82.9,1.33,1.69,1.67.86.37,1.48.99,1.86,1.85.34.79.86,1.36,1.67,1.69.94.39,1.58,1.1,1.98,2.02.27.64.66,1.15,1.33,1.42,1.87.74,2.47,2.22,2.4,4.1-.04,1.11.01,2.23,0,3.35-.03,1.64.2,3.02,2.02,3.77,1.3.54,1.55,1.9,1.56,3.23,0,1.68.09,3.21,2.09,3.97,1.2.46,1.42,1.79,1.5,3.04.15,2.68-.05,5.36,0,8.03.03,1.34.29,2.42,1.74,3.01,1.5.62,1.84,2.03,1.82,3.53-.03,2.6.1,5.21.06,7.81-.02,1.27.27,2.18,1.55,2.89,2.48,1.36,2.45,3.63-.03,5.18-1.16.73-1.35,1.07-.1,1.95,3.13,2.21,3.05,6.97-.17,8.94-1.09.66-1.18,1.85-1.99,2.6h-.45c-1.05-1.23-.76-2.68-.57-4.06.18-1.37-.25-2.19-1.46-2.91-2.58-1.54-2.59-5.78-.11-7.53,1.96-1.39,2.01-1.86.02-3.14-1.31-.83-1.71-1.97-1.73-3.39-.03-2.46-.04-4.92,0-7.37.02-1.61-.4-2.8-1.93-3.69-1.9-1.1-1.84-2.41-.07-3.84,1.78-1.44,1.8-1.79.09-3.17-1.66-1.34-2.47-3.49-4.52-4.5-.71-.35-.66-1.44-.7-2.26-.06-1.34-.05-2.68-.03-4.02.03-1.61-.39-2.89-1.98-3.66-1.42-.68-1.6-2.06-1.58-3.45.03-1.68-.63-2.73-2.02-3.87-1.77-1.45-3.56-3.09-4.88-4.98-.83-1.19-1.59-1.76-2.99-1.82-4.07-.18-4.14-.26-4.45-4.39-.1-1.3-.49-2.31-1.76-2.84-.41-.17-.9-.38-1.07-.77-1.02-2.37-2.94-2.9-5.28-2.8-1.13.05-2.01-.57-2.49-1.6-.65-1.41-1.78-1.93-3.25-1.87-1.93.07-3.57-.33-4.2-2.48-.15-.52-.61-.82-1.12-1.03-.41-.17-1.03-.27-1.16-.62-.89-2.45-3.58-3.16-4.91-5.23-1.09-1.71-3.27-2.46-4.26-4.41-.32-.63-1.35-.5-2.09-.53-1.56-.06-3.13.02-4.69-.06-1.08-.05-2.16-.25-2.72-1.26-.78-1.43-2-1.75-3.49-1.95-2.6-.35-5.2-.32-7.81-.35-1.43-.02-2.67-.39-3.33-1.79-.54-1.14-1.58-1.2-2.62-1.35-5.04-.75-10.12-.31-15.18-.41-2.23-.05-4.47-.04-6.71,0-1.82.03-3.34-.32-4.4-2.03-.81-1.31-1.87-1.14-2.61.12-.93,1.57-2.33,1.93-3.99,1.91-2.16-.02-4.32.05-6.48-.01-11.03-.3-22.04.71-33.07.45-1.44-.03-2.61.26-3.35,1.68-.62,1.2-1.83,1.4-3.08,1.43-2.23.07-4.46.03-6.7.19-2.31.17-4.21.7-5.05,3.11Z"/><path class="cls-78" d="M31.06,101.4c-.15,1.95-.2,3.8,2.58,3.81.4,0,.92.36.91.86-.06,1.99,1.39,2.3,2.8,2.44,1.36.13,1.82.75,1.77,2.01-.04.89.03,1.79-.01,2.68-.04.94.21,1.49,1.27,1.7,1.74.35,2.35,1.63,2.32,3.32-.03,1.86.03,3.72-.02,5.58-.02,1.02.19,1.62,1.37,1.86,1.62.32,2.24,1.56,2.23,3.16-.01,1.41-.03,2.83,0,4.24.04,1.61-.6,3.56,2.03,3.91.64.09.55.93.66,1.52.42,2.05.07,4.43,2.8,5.42,1.13.41.75,1.82.75,2.83,0,2.19-.23,4.45,2.89,4.81.89.1.68,1.03.69,1.67.02,2.9.02,5.8,0,8.71,0,1.05.05,2.07.39,3.08.53,1.58.59,3.14.11,4.8-.44,1.51-.45,3.04,1.83,3.15,1.07.05,1.26.87,1.26,1.76,0,2.08.03,4.17,0,6.25-.03,1.56.42,2.62,2.19,2.69,1.21.05,1.4.87,1.39,1.86-.01.94-.3,1.65-1.36,1.66-1.29.01-2.04.69-2.02,1.87.02,1.04.7,1.74,1.91,1.75,1.52.02,1.48,1.16,1.48,2.23,0,6.4,0,12.8,0,19.2h-9.84c-.75-.78-.71-1.76-.72-2.73-.02-1.71,0-3.42-.01-5.13,0-1.4-.17-2.52-1.83-3.14-1.74-.66-1.78-2.07-.12-2.87,1.56-.74,1.97-1.86,1.95-3.39-.02-1.41-.03-2.83,0-4.24.04-1.54-.49-2.66-1.84-3.54-1.76-1.16-1.7-1.99-.01-3.45,2.27-1.96,2.25-2.53-.3-4.16-1.18-.75-1.35-1.83-1.36-3.08-.03-4.08.22-8.18-.93-12.18-.2-.71-.15-1.56-.82-2.01-1.81-1.22-1.96-3.02-1.9-4.94.03-1.04-.01-2.08,0-3.12.02-1.45-.3-2.6-1.86-3.16-1.41-.51-1.69-1.79-1.68-3.11.01-1.85-.06-3.56-2.29-4.28-.92-.29-1.14-1.28-1.21-2.23-.13-1.78-.1-3.57-.12-5.35-.01-1.28-.3-2.33-1.69-2.81-1.28-.45-1.73-1.48-1.8-2.8-.14-2.75-.06-5.5-.08-8.25,0-1.5-.19-2.79-1.9-3.36-1.1-.37-1.55-1.32-1.58-2.46-.02-.89-.17-1.78-.1-2.67.2-2.44-.31-4.41-2.54-5.97-1.32-.92-2.11-2.54-3.66-3.43-1.15-.67-1.1-2-.28-3.14.84-.59,1.79-.54,2.74-.48,1.25-.09,2.51-.26,3.56.68Z"/><path class="cls-81" d="M23.01,212.23c0-3.65-.03-7.3.01-10.94.02-1.41-.12-2.43-1.94-2.54-1.53-.09-1.66-1.41-1.66-2.69.02-7.59,0-15.19.02-22.78,0-1.63.16-3.13-2.24-3.21-1.07-.03-1.37-1.18-1.36-2.25.03-2.01,0-4.02.01-6.03.01-1.1-.09-1.91-1.38-2.44-1.63-.66-2.43-2.05-2.23-3.95.15-1.4.25-2.79-1.67-3.36-1.07-.32-1.12-1.52-.98-2.5.51-3.46-1.26-6.7-.94-10.15.07-.77-.47-1.16-1.19-1.4-.96-.32-1.74-1.05-2.1-1.91-.46-1.11-1.03-1.64-2.26-1.71-1-.06-1.52-.85-1.56-1.87-.02-.45,0-.89-.01-1.34-.04-3.47.65-4.03-3.67-3.86-.85.03-1.61-.09-2.23-.76-1.18-1.28-1.83-3.21-4.05-3.26-.23,0-.64-.55-.64-.84.04-2.5-1.64-2.36-3.35-2.31-1.56.05-3.13-.06-4.69.03-2.16.12-3-.87-2.84-2.94.06-.81,0-1.64,0-2.46.02-1.04-.35-1.72-1.51-1.77-1.65-.07-2.12-1.1-2.07-2.57.03-.97,0-1.94,0-2.9,0-.94-.33-1.59-1.38-1.66-2.25-.14-2.39-1.6-2.06-3.33.03-.14.11-.28.15-.42.35-1.26,1.26-2.68.21-3.8-1.16-1.24-2.64-.23-3.97.12-2.07.54-3.83-.89-5.82-.94-.18,0-.51-.61-.48-.91.2-2.37-1.3-2.35-3.01-2.38-3.04-.05-6.08.31-9.12-.34-.95-.2-2.04.24-3.06.36-1.72.2-2.99-.13-2.8-2.31.04-.4-.26-.84-.4-1.26.82,0,1.64-.04,2.45,0,1.14.07,1.65-.41,1.58-1.56-.05-.93.03-1.87,1.25-1.98,1.11-.1,2.4-.29,2.95.97.94,2.15,2.8,2.46,4.72,2.54,2.6.11,5.2.04,7.81.02,1.06,0,1.94.14,2.08,1.45.08.78.6,1.32,1.34,1.19,2.52-.43,4.76.98,7.21.94.22,0,.45,0,.66.05,1.23.33,4.17,4.24,4.18,5.54,0,2.38-.13,4.76.05,7.13.14,1.79.33,3.69,2.5,4.51.64.24,1.31.9,1.57,1.52.92,2.28,2.88,2.51,4.88,2.67,1.26.1,2.53.02,3.79.02.68,0,1.38-.03,1.52.89.13,1.67.67,2.82,2.71,2.52.66-.1,1.33.38,1.63,1.01.77,1.62,2.22,1.88,3.73,1.96,1.68.09,3.04.64,3.86,2.21.14.26-.13.06.12.18,3.52,1.72,3.35,4.79,3.07,7.99-.14,1.59.31,3.07,1.95,3.95,1.15.62,1.48,1.8,1.54,3.05.06,1.41-.02,2.83.09,4.24.11,1.38.45,2.61,1.83,3.34,1.24.66,1.62,1.88,1.68,3.21.08,1.79.52,3.3,2.32,4.24,1.32.69,1.63,2.02,1.45,3.48-.3,2.37-.22,4.76-.12,7.14.06,1.38.4,2.62,1.78,3.36,1.23.67,1.54,1.87,1.74,3.19.55,3.7.44,7.42.44,11.14,0,1.53.04,2.96,1.71,3.78.83.41,1.22,1.3,1.31,2.23.2,2.07.77,4.14.51,6.22-.59,4.82-.33,9.66-.41,14.49-.02.97,0,1.95-.74,2.73h-4.47Z"/><path class="cls-93" d="M41.8,166.65c-.74-4.13-.39-8.29-.43-12.44-.01-1.35-.2-2.3-1.88-2.36-1.24-.05-1.72-1-1.71-2.2,0-2.08-.02-4.17,0-6.25.02-1.24-.15-2.2-1.73-2.26-1.38-.06-1.87-1.01-1.86-2.3.01-2.16-.02-4.31,0-6.47.01-1.12-.29-1.87-1.59-1.93-1.67-.08-2.02-1.19-2-2.63.03-3.05-.02-6.1.02-9.15.02-1.39-.1-2.39-1.87-2.67-1.66-.26-1.73-1.77-1.73-3.18,0-3.69.31-2.89-3.31-3.49-4.24-.7-8.43-1.48-12.74-1.26-.33.02-.94-.23-.96-.4-.22-2.15-1.58-2.89-3.51-3.03-.1,0-.27-.21-.27-.33-.16-3.77-3.34-2.36-5.21-2.8-1.53-.36-1.98-.77-2.24-2.31-.4-2.35-.18-4.52.47-6.76.27-.95.42-1.7,1.55-1.79.57-.05.92-.4,1.12-.94.81-2.22-.46-5.24-2.61-6.18,2.26-.29,4.45.66,6.71.45.52,1.85,1.99,2.56,3.65,3.04.15.17.34.35.35.56.08,2.24,1.52,2.61,3.35,2.43,1.13-.1,2.25-.16,3.28.43.11.09.28.19.3.32.23,2.06,1.6,2.96,3.44,3.39.38,2.1,1.81,3.16,3.72,3.74.64,1.07.65,2.2.32,3.36-.45,1.82-.53,3.43,1.93,3.83.6.1,1,.68,1.16,1.27.61,2.2,2.23,4.07,2.14,6.51,0,.22.05.46.16.64,2.44,4.01,3.45,8.39,3.35,13.06,0,.37,0,.8.18,1.09,2.12,3.22,2.31,7.1,3.68,10.52.83,2.09,1.48,4.25,2.35,6.32.34.82.76,1.65.79,2.55.05,1.66.66,2.97,1.94,4.06,1.19,1.01,1.72,2.41,1.72,3.97,0,3.34.23,6.7-.15,10.03-.15,1.29.19,2.06,1.37,2.69,2.21,1.18,3.15,3.53,4.17,5.56.7,1.4.44,3.29-1.15,4.64-1.39,1.18-1.38,2.6-.07,3.85,1.11,1.07,1.74,2.15,1.48,3.72-.08.49.19,1,.41,1.48,1.69,3.65,1.65,7.36.08,11-.57,1.31-.38,2.34.1,3.59,1.34,3.48,1.51,7.04.24,10.61h-4.47c0-7.37-.02-14.74.01-22.11,0-1.74-.29-3.14-2.35-3.39-.57-.07-1.08-.35-1.13-.91-.11-1.18,0-2.38-.13-3.56-.17-1.5.78-1.93,1.85-2.62,1.8-1.16,1.3-5.78-.65-6.7-.68-.32-1.13-.66-1.17-1.44-.07-1.63-.69-3.2-.46-4.86Z"/><path class="cls-75" d="M338.79,212.23c0-54.16,0-108.31,0-162.47,0-.82-.05-1.63-.07-2.45-1.05-1.29-.75-2.84-.75-4.3-.02-26.66-.01-53.33-.01-79.99,0-22.27,0-44.54,0-66.81,0-.74.01-1.49,0-2.23-.06-2.5-.18-2.62-2.69-2.68-.97-.02-1.94,0-2.91,0-82,0-163.99,0-245.99-.02-1.61,0-3.31.37-4.75-.75-.74-.02-1.49-.07-2.23-.07-104.37,0-208.74,0-313.11,0,.1-.14-.23-.47.22-.45.6.02,1.19,0,1.79,0,189.65,0,379.3,0,568.95-.04,1.68,0,2.06.38,2.05,2.05-.05,106.07-.04,212.14-.07,318.21,0,.65.52,1.52-.42,2.01Z"/><path class="cls-38" d="M-.7,212.23c-.09-1.62-.21-3.22,2.12-3.35.5-.03.98-.46,1.13-.99.51-1.81.62-3.68-.02-5.45-.29-.81-1.1-1.4-2.12-1.39-.89,0-1.11-.54-1.11-1.32,0-.77.21-1.29,1.1-1.35,1.46-.09,2.47-.8,2.41-2.34-.05-1.42-1.04-2.06-2.4-2.14-1.24-.07-1.11-.97-1.11-1.78,0-3.13-.03-6.25,0-9.38.02-1.69-.44-2.99-2.36-3.12-1.37-.09-1.22-1.03-1.22-1.92,0-3.13-.02-6.25,0-9.38.02-1.61-.46-2.85-2.25-2.99-1.1-.09-1.37-.63-1.34-1.6.04-1.04.02-2.08,0-3.13-.03-1.27-.63-2.29-1.91-2.36-1.65-.08-1.7-1.01-1.67-2.23.05-1.79.02-3.57,0-5.36,0-.52.12-1.33-.14-1.5-2.19-1.42-3.56-3.67-5.53-5.33-1.83-1.54-3.53-3.28-5.06-5.12-1.64-1.99-3.93-3.3-5.42-5.45-.25-.37-1.42-.15-2.16-.13-1.63.04-3.29.32-3.43-2.17-.05-.95-1.09-1.34-2.06-1.39-.74-.04-1.5-.1-2.23,0-2.04.28-2.85-.48-2.62-2.58.24-2.21-.03-4.25-2.87-4.65-.54-.08-.65-.55-.68-1.02-.13-2.06-1.43-2.58-3.23-2.5-.82.03-1.64-.01-2.46,0-.85.02-1.45-.18-1.5-1.2-.02-.43-.14-1.16-.37-1.22-3.25-.92-4.04-5.79-8.65-4.86-3.22.65-6.68.1-10.03.14-1.31.02-2.37-.1-2.5-1.77-.06-.77-.6-1.56-1.37-1.58-2.01-.05-2.32-1.41-2.56-2.92,1.63,1.22,3.47,1.47,5.47,1.37,2.38-.12,4.77-.01,7.15-.03,1.76-.02,3.63-.36,3.97,2.22.08.61.75,1.08,1.31,1.08,2.22.04,3.41,1.63,4.72,3,1.31,1.37,2.94.73,4.44.83,1.64.11,2.75.08,4.01,1.99,1.22,1.85,2.69,3.54,3.8,5.62.92,1.72,2.5,3.65,5.16,3.16.14-.03.41,0,.42.06.61,2.32,3.22,2.9,4.22,4.71.88,1.6,1.81,2.41,3.58,2.37,1.56-.04,3.14.13,4.69-.04,2.16-.25,2.76.69,2.55,2.66-.1.94-.43,2.29.32,2.79,2.14,1.43,3.25,3.89,5.43,5.15.75.44,1.35.61,1.51,1.58.15.91.73,1.76,1.69,1.89,1.72.24,1.86,1.3,1.78,2.69-.08,1.48.03,2.98-.03,4.46-.07,1.91.42,3.44,2.55,3.81,1.21.22,1.04,1.08,1.03,1.87-.04,2.42-.31,4.89,3.06,5.48.8.14.48,1.14.52,1.77.1,1.67-.4,3.48,1.25,4.74.53.41.14.67-.14,1.06-2.07,2.97-1.58,4.88,1.75,6.58.82.42.71,1.04.72,1.68.02,1.93.01,3.87,0,5.81,0,1.49.55,2.74,2.07,3.04,1.4.27,1.53,1.04,1.52,2.2-.03,7.07-.02,14.14-.02,21.21H-.7Z"/><path class="cls-78" d="M50.3,212.23c0-2.16.43-4.42-.09-6.45-1.05-4.07-1.15-7.96.05-12,1.02-3.45-1.62-6.55-1.38-9.99.04-.56-.53-.79-.99-1.07-2.23-1.35-2.26-3.89-.1-5.46,1.58-1.15,1.75-3.79.19-4.99-.81-.62-1.53-1.23-1.65-2.25-.12-1.09-.67-1.48-1.71-1.67-1.77-.32-2.02-1.4-1.74-3.14.61-3.75.28-7.56.17-11.34-.04-1.42-1.22-2.36-2.32-3.13-.74-.51-1.26-1.02-1.17-1.96.16-1.53-.6-2.86-.92-4.27-1.05-4.67-4.04-8.76-4.05-13.72,0-.33-.19-.85-.44-.97-2.26-1.13-1.96-3.23-1.7-5.05.45-3.1-1.75-5.64-1.55-8.66.02-.37-.57-.83-.96-1.15-.4-.33-1.1-.58-1.01-1.09.44-2.63-1.33-4.61-1.88-6.93-.17-.7-.29-1.35-1.1-1.46-2.67-.38-2.74-2.03-2.05-4.08.3-.27.6-.24.89,0-.21,1.54.3,2.38,1.79,3.28,1.92,1.16,3.49,3.01,4.98,4.76.9,1.06.29,2.59.37,3.91.07,1.04.04,2.08,0,3.13-.03,1.13.31,1.86,1.6,1.92,1.52.07,1.99,1.04,1.98,2.42-.02,3.13.02,6.25-.02,9.38-.02,1.39.07,2.49,1.92,2.55,1.24.04,1.68,1.05,1.67,2.24-.02,2.08.03,4.17-.01,6.25-.03,1.29.24,2.15,1.79,2.21,1.25.05,1.79.92,1.79,2.13,0,.89.04,1.79,0,2.68-.07,1.36.2,2.29,1.88,2.36,1.25.05,1.71,1.01,1.7,2.21-.01,2.08,0,4.17,0,6.25,0,.66-.19,1.55.48,1.85,3.5,1.59,2.4,5.07,2.97,7.69.59,2.7.13,5.63.13,8.46,0,.92-.03,1.92,1.2,2.03,1.24.11,2.15.47,2.37,1.85.25,1.61-.69,2.66-1.86,3.27-2,1.04-2.5,1.56.09,2.47,1.02.36,1.86,1.42,1.81,2.84-.08,2.16,0,4.32-.03,6.48-.03,1.53-.38,2.84-2.34,2.85-.56,0-1.12.28-1.05.91.07.61.48,1.08,1.23,1,1.98-.23,2.17,1.06,2.16,2.53,0,2.98,0,5.96,0,8.93h-3.13Z"/><path class="cls-83" d="M84.74,58.49c-1.54.02-2.77.39-2.69,2.3.05,1.37-.94,1.34-1.84,1.26-1.72-.15-2.95.11-2.65,2.31.16,1.15-.69,1.36-1.59,1.27-1.39-.13-2.15.33-1.96,1.85.18,1.41-.53,1.81-1.83,1.75-1.77-.07-3.55-.02-5.32-.02-.09-.08-.18-.17-.28-.25-.86-2.07-.26-4.24-.47-6.36-.11-1.1.46-2.47-.94-3.15-1.04-.5-3.79.36-4.67,1.34-1.81,2.03-3.39,2.02-4.69-.23-.69-1.2-1.66-1.28-2.79-1.35-1.44-.08-2.99.34-4.25-.79-.67-1.16-.67-2.32-.05-3.49.73-.77,1.73-.85,2.65-.74,2.39.31,4.11-.34,4.75-2.87h6.26c.38-.06.77-.18.84-.6.48-2.88,2.69-2.98,4.88-2.95,1.5.02,1.99-.94,2.96-1.81,1.78-1.58,3.01-3.73,5.08-4.94.65-.38,1.53-.57,1.63-1.36.37-2.75,2.5-2.56,4.36-2.61,1.62-.04,2.26-.66,3.32-1.99,1.29-1.61,2.92-3.26,4.57-4.61.95-.78,1.66-1.83,2.45-2.38,1.99-1.39,3.19-3.4,4.94-4.92.1-.09.36-.02.42-.11,1.4-2.17,3.76-3.42,5.22-5.52.08-.11.04-.29.08-.44.46-1.82,3.44-.45,3.51-2.76.08-2.83,2.25-1.78,3.65-1.84,1.79-.08,3.3-.24,3.57-2.44.13-1.07.97-1.18,1.84-1.18,2.08,0,4.17-.03,6.25,0,1.45.02,2.52-.39,2.6-2.04.06-1.32.87-1.56,1.97-1.55,1.49.02,2.98.02,4.47,0,1.71-.02,3.56-.38,3.57,2.32,0,.64.71,1.18,1.44,1.21,2.96.1,1.77,2.34,1.96,3.81.18,1.36.01,2.6-1.87,2.54-.27,0-.78.18-.79.3-.21,2.96-3.54,3.27-4.73,5.65-.82,1.64-2.89,3.02-4.39,4.48-.92.9-2.54,1.01-2.63,2.86-.04.8-.82.96-1.53.96-1.04,0-2.09,0-3.13.02-.29,0-.75,0-.85.17-1.29,2.11-3.76,3.21-4.91,5.25-.72,1.28-1.25,1.77-2.58,1.72-2.25-.08-4.64-.39-5,2.89-.06.56-.76.61-1.29.7-.86.14-1.72.53-1.83,1.41-.33,2.68-2.43,2.45-4.18,2.54-1.65.09-2.46.44-3.51,2.09-1.03,1.6-2.79,3.55-4.41,4.38-2.2,1.13-2.54,2.36-2.45,4.31-3.6.02-3.09-.28-3.13,3.58Z"/><path class="cls-79" d="M49.02,54.92c0,1.2,0,2.4,0,3.6-.1.1-.21.19-.31.29-1.28.52-2.51.62-3.61-.41-.53-.86-.53-1.83-.52-2.79.04-3.91-.16-7.82.1-11.72-.05-1.16-.22-2.34.55-3.37,1.24-.81,2.47-.88,3.67.09.04,3.58.08,7.16.12,10.74.87,1.19.86,2.38,0,3.57Z"/><path class="cls-84" d="M49.07,22.75c.67,0,1.33.02,2-.02,1.02-.05,1.48.38,1.47,1.43-.02,4.88-.02,9.75,0,14.63,0,1.09-.55,1.42-1.52,1.38-.66-.03-1.33,0-2,0-.82-.62-.84-1.55-.84-2.43-.02-3.64-.14-7.29.06-10.93.11-1.17-.17-2.37.3-3.52.12-.24.3-.42.54-.54Z"/><path class="cls-45" d="M48.9,26.28c.04,4.63.08,9.26.12,13.89-.04.15-.08.29-.12.44-1.17,0-2.35,0-3.52,0-.69-.59-.77-1.41-.77-2.21-.03-2.79-.16-5.58.07-8.36-.04-1.29-.28-2.61.58-3.77,1.21-.85,2.43-.92,3.64,0Z"/><path class="cls-30" d="M49.02,54.92c0-1.19,0-2.38,0-3.57,1.17,0,2.35,0,3.52,0,1.19,0,2.39,0,3.58,0,0,.3-.04.6,0,.89.34,2.11-.48,2.97-2.66,2.72-1.46-.17-2.96-.03-4.44-.03Z"/><path class="cls-19" d="M45.4,19.02q3.39.35,3.67,3.73s-.19-.02-.19-.02c-1.08.93-2.23.83-3.43.27-.96-1-.82-2.18-.54-3.38.1-.25.27-.45.49-.61Z"/><path class="cls-53" d="M6.06,22.77c.44-1.21-1.26-3.18,1.3-3.64.74-.04,1.48-.08,2.22-.12.21.16.37.36.47.61.28,1.19.4,2.36-.55,3.35-1.18.61-2.34.69-3.44-.19Z"/><path class="cls-46" d="M41.74,15.61q3.6-.07,3.65,3.41c-.06.06-.07.13-.05.21-1.21.87-2.41.82-3.63.01-.82-1.21-.87-2.43.02-3.63Z"/><path class="cls-32" d="M41.74,15.61c.02,1.16.05,2.32.07,3.48-.08.1-.17.21-.25.31-3.2.97-4.25.06-3.82-3.29.11-.25.27-.46.5-.62,1.17.04,2.33.08,3.5.12Z"/><path class="cls-56" d="M13.22,15.61c1.18-.05,2.35-.1,3.53-.15.1.09.19.19.29.28.55,1.18.56,2.34-.12,3.48-1.09.82-2.28.73-3.49.33-.25-.12-.45-.31-.59-.54-.47-1.2-.58-2.36.38-3.41Z"/><path class="cls-6" d="M13.22,15.61c-.02,1.16-.04,2.31-.05,3.47-1.14,1.12-2.33.99-3.54.14,0,0-.05-.21-.05-.21,0-.37.06-.74,0-1.1-.26-1.82.48-2.6,2.32-2.33.43.06.88.02,1.32.03Z"/><path class="cls-29" d="M34.66,11.89c.07.02.14.04.21.05q3.32.23,3.37,3.56l-.04.21c-1.13.78-2.29.72-3.47.15-.98-.99-.83-2.17-.56-3.36.1-.25.27-.45.49-.61Z"/><path class="cls-5" d="M20.38,12.04c1.17-.05,2.35-.1,3.52-.14.1.1.2.2.3.3.55,1.25.61,2.46-.27,3.6-1.25.69-2.48.71-3.69-.12-.83-1.24-.87-2.45.14-3.63Z"/><path class="cls-55" d="M20.38,12.04c-.03,1.17-.06,2.33-.09,3.5-.08.1-.17.2-.25.3-1.13.57-2.22.59-3.28-.17.07-.07.07-.14,0-.21,0-.37.04-.74-.01-1.1-.26-1.82.45-2.63,2.32-2.35.43.06.88.03,1.33.03Z"/><path class="cls-73" d="M31.01,8.48q3.59-.11,3.65,3.41l-.05.21c-1.05.77-2.18.68-3.33.28-.24-.13-.42-.31-.56-.54-.44-1.16-.55-2.3.29-3.36Z"/><path class="cls-48" d="M31.01,8.48c.03,1.16.06,2.32.09,3.48-1.17,1.09-2.41.92-3.66.17-.88-1.24-.91-2.46.1-3.65,1.16,0,2.31,0,3.47.01Z"/><path class="cls-58" d="M27.54,8.47c-.03,1.16-.07,2.33-.1,3.49-.08.1-.16.2-.25.3-1.12.57-2.22.59-3.28-.16v-.21c0-.3.03-.6-.01-.89-.31-2,.44-2.93,2.53-2.58.36.06.74.03,1.11.04Z"/><path class="cls-21" d="M66.84,69.22c-4.02.05-3.54-.48-3.58,3.58,0,1.19,0,2.38,0,3.57-1.86.52-3.05,1.72-3.58,3.57h-3.57c-1.86.53-3.05,1.72-3.58,3.58h0c-1.1.88-2.28.82-3.49.28-.23-.17-.41-.38-.53-.64-.67-3.48-.29-6.99-.25-10.49-.26-3.98-.09-7.96-.09-11.94,0-.83.17-1.61.72-2.27,0,0,.13.05.13.05,1.26,0,2.52.02,3.78-.03,1.82-.07,3.66-.29,3.82,2.36.05.79.78.78,1.38.76.64-.02,1.27.11,1.67-.71.77-1.56,4.55-2.88,6.18-2.33,1.02.35.99,1.17.99,1.99,0,2.89,0,5.78,0,8.66Z"/><path class="cls-22" d="M52.53,83.52c.05-4.01-.48-3.54,3.58-3.57,0,1.19,0,2.38,0,3.57h-3.58Z"/><path class="cls-66" d="M6.07,44.18c-.04-2.53-.08-5.06-.12-7.59.04-1.04.08-2.09.12-3.13,1.2-.96,2.41-.89,3.63-.04,1.25,3.34.65,6.75.43,10.15-.09.28-.23.53-.42.76-1.24.74-2.46.82-3.64-.14Z"/><path class="cls-64" d="M9.52,33.44c-1.15,0-2.3.01-3.44.02,0-3.56,0-7.13-.01-10.69,1.15,0,2.3-.01,3.45-.02.1.08.21.16.32.24.68,1.09.45,2.3.45,3.48-.02,2.25.5,4.54-.43,6.73-.11.08-.21.17-.32.25Z"/><path class="cls-12" d="M45.4,87.15c0,.3-.06.6-.01.89.36,2.18-.61,2.97-2.71,2.64-.29-.04-.59.03-.88.06,0,0,0-.11,0-.11-.92-1.13-.86-2.31-.2-3.54,1.12-.88,2.31-.85,3.55-.25.09.11.18.21.27.32Z"/><path class="cls-62" d="M49.01,83.5c1.17,0,2.35.02,3.52.02,0,.36-.05.73,0,1.08.32,2.02-.54,2.8-2.52,2.5-.35-.05-.72-.01-1.08-.01-.88-1.22-1.01-2.42.08-3.59Z"/><path class="cls-87" d="M49.01,83.5c-.03,1.2-.05,2.39-.08,3.59-1.18.02-2.35.04-3.53.07,0,0-.05-.12-.05-.12-.94-1.19-.86-2.41-.09-3.64,1.25-.78,2.47-.83,3.65.14l.1-.04Z"/><path class="cls-17" d="M6.07,44.18c1.15,0,2.3,0,3.44,0,1.48,2.34,1.06,4.75.27,7.18-1.25.89-2.49.95-3.72-.04-.04-1.34-.07-2.68-.11-4.02.04-1.04.08-2.09.12-3.13Z"/><path class="cls-49" d="M41.82,87.1c-.01,1.17-.02,2.35-.03,3.52-1.19.04-2.37.07-3.56.11-.1-.1-.2-.19-.3-.29-.56-1.24-.61-2.45.29-3.57,1.24-.63,2.46-.78,3.59.23Z"/><path class="cls-71" d="M38.23,90.73c0,.22-.04.45,0,.67.32,2.11-.3,3.31-2.7,2.86-.28-.05-.59.03-.88.06-.1-.1-.21-.21-.31-.31-.56-1.24-.71-2.54.4-3.46,1.06-.89,2.34-.78,3.49.07l.02.13Z"/><path class="cls-11" d="M34.65,94.32c0,.29-.05.6,0,.88.36,2.17-.61,2.95-2.69,2.63-.29-.04-.59.02-.88.03-.1-.1-.2-.19-.3-.29-.55-1.22-.59-2.4.31-3.5,1.2-.7,2.39-.75,3.55.1l.02.14Z"/><path class="cls-1" d="M31.06,101.4c-1.19,0-2.39,0-3.58,0-.92-1.19-.91-2.4-.09-3.64,1.22-.84,2.44-.88,3.65.02,0,0,.03.09.03.09,0,1.18,0,2.35,0,3.53Z"/><path class="cls-95" d="M6.07,51.33c1.15,0,2.3,0,3.45.01,1.46,2.34,1.08,4.73.23,7.14-1.23.93-2.46.97-3.69,0-.03-2.08-.06-4.17-.09-6.25.03-.3.07-.6.1-.9Z"/><path class="cls-92" d="M6.06,58.48c1.15.01,2.31.02,3.46.03.11.09.22.18.33.27.76,2.35.9,4.69-.15,7-1.25.77-2.47.81-3.65-.15-.02-1.19-.05-2.38-.07-3.57.03-1.19.05-2.39.08-3.58Z"/><path class="cls-82" d="M13.17,180.05c-.63-.31-1.21-.77-1.35-1.42-.48-2.33-1.06-4.57-2.07-6.79-.62-1.37-.63-3.03-1.63-4.44-.82-1.16-.24-2.75-.3-4.15-.06-1.34-.04-2.68,0-4.02.04-1.33.09-2.41-1.81-2.59-1.09-.1-1.81-1.2-1.78-2.51.03-1.04,0-2.08,0-3.13,0-.77-.23-1.24-1.1-1.35-1.94-.24-2.66-1.5-2.46-3.3.32-2.78-.81-4.72-2.57-6.91-1.42-1.77-2.11-4.02-4.17-5.59-.85-.65-2.05-1.69-2.56-2.52-1.44-2.3-3.76-2.78-5.67-4.11-1.9-1.33-3.54-2.27-5.86-2.88-2.14-.56-5.16-1.16-5.99-4.36-.34-1.3-1.32-2.54-3.21-2.59-1.39-.03-2.17-1.15-2.18-2.63,0-2.01-.09-4.02.02-6.03.09-1.61-.55-2.15-2.08-2-.81.08-1.64.01-2.46.01-1.39,0-2.41-.76-2.55-2.02-.17-1.5-.96-1.58-2.11-1.57-1.18.02-2.39.01-3.54-.2-.49-.09-1.23-.72-1.26-1.15-.19-2.8-2.19-2.2-3.88-2.2-6.33,0-12.66-.05-18.99.03-1.62.02-2.93-.29-3.9-1.63-1.21-1.67-2.83-2.05-4.85-2.03-7.89.11-15.79.04-23.68.05-1.14,0-2.06-.27-3.09-.89-2.63-1.59-5.58-1.26-8.35-.37-1.13.36-1.93.78-3.05.04-1.49-.98-3.11-.93-4.55.18-1.13.88-2.37,1.05-3.76,1.04-6.85-.04-13.7-.02-20.56-.01-.66,0-1.61-.18-1.95.17-2.47,2.58-5.59,1.35-8.44,1.59-1.33.11-2.68.02-4.02.02,2.31-1.58,4.91-.69,7.39-.87,1.2-.09,2.34.12,2.81-1.48.31-1.05,1.4-1.13,2.41-1.24,11.34-1.28,22.72-.84,34.08-.87,12.04-.03,24.08,0,36.12-.02,1.99,0,3.56.4,3.98,2.65.26,1.36,1.36.92,2.16.92,7.38.03,14.76.05,22.14,0,2.1-.01,3.9.21,4.36,2.75.22,1.2,1.26.78,2.01.83,1.39.1,3.48-.52,3.98.73,1.15,2.9,3.28,2.92,5.73,3.04,1.17.06,1.64,1.17,1.65,2.32.02,1.12-.03,2.24.02,3.35.09,2.15.13,4.34,2.61,5.36.3.12.69.57.66.83-.33,2.67,1.97,3.84,3.17,5.62.6.88,1.54,1.1,2.55,1.1,1.19,0,2.39,0,3.58,0,.86,0,1.81.14,2.12.96.85,2.28,2.83,2.41,4.71,2.57,1.4.12,2.06.86,3.01,1.8,1.5,1.49,2.93,3.08,4.51,4.48.97.86,1.61,1.53,1.72,2.85.17,2.04.3,4.06,2.96,4.79,1.63.45,1.54,2.19,1.47,3.63-.07,1.6-.16,2.96,2,3.47,1.65.39,1.61,2.11,1.59,3.56-.02,1.53-.35,3.19,1.79,3.73.32.08.64.66.73,1.06.96,4.59,1.55,9.23.83,13.9-.21,1.35-.13,2.15,1.3,2.51.4.1,1.01.43,1.06.73.35,2.37,2.03,4.66.56,7.17Z"/><path class="cls-10" d="M6.01,83.52c0-3.58.02-7.16.03-10.74,1.23-.95,2.47-.92,3.72-.06,1.02,3.6,1.04,7.2-.01,10.8-1.24.95-2.49.95-3.73,0h0Z"/><path class="cls-23" d="M9.52,72.8c-1.16,0-2.32,0-3.48-.01,0-2.38,0-4.77,0-7.15,1.16,0,2.31,0,3.47.01,1.11,1.01.8,2.32.76,3.57.03,1.25.37,2.57-.76,3.58Z"/><path class="cls-26" d="M6.02,83.51c1.17,0,2.35.02,3.52.03.09.08.19.15.29.23.54,1.05.55,2.09,0,3.14-.1.07-.19.15-.29.22-.15,0-.3-.02-.44-.02-3.22-.07-3.08.47-3.08-3.14,0-.15,0-.3,0-.45Z"/><path class="cls-77" d="M27.48,97.95v3.44c-.89,0-1.79,0-2.68,0-.3,0-.6,0-.89,0,0-1.15-.01-2.29-.02-3.44.05-.1.11-.2.16-.31.96-.6,1.97-.52,2.99-.2.22.11.36.28.44.51Z"/><path class="cls-70" d="M16.72,90.78c-1.16-.04-2.33-.08-3.49-.13-.95-1.01-.83-2.16-.42-3.35.13-.24.32-.43.56-.57,3.37-.74,4.3.09,3.85,3.42-.11.26-.28.46-.51.62Z"/><path class="cls-63" d="M23.89,97.95c-.07-.02-.14-.04-.21-.05q-3.3-.26-3.38-3.53c.08-.11.16-.23.24-.35,1.22-.66,2.41-.67,3.56.16.69,1.22.77,2.42-.15,3.57l-.05.19Z"/><path class="cls-74" d="M13.15,87.18c.03,1.16.05,2.31.08,3.47-.36,0-.73-.03-1.08.03-1.93.28-2.9-.39-2.56-2.47.06-.35-.02-.72-.04-1.08,0,0,.09-.07.09-.07,1.2-.86,2.38-.99,3.52.11Z"/><path class="cls-69" d="M20.29,94.38c-.07-.02-.14-.04-.22-.05q-3.28-.25-3.36-3.55l.07-.2c1.21-.85,2.43-.8,3.66-.04.78,1.23.87,2.44-.07,3.64l-.07.21Z"/><path class="cls-47" d="M34.63,94.18c-1.18.03-2.36.07-3.54.1-.1-.1-.21-.2-.32-.29-1.01-3.5-.37-7.06-.41-10.59-.27-7.59-.09-15.18-.09-22.77,0-.67.1-1.34.44-1.94.86-1.1,2.11-.86,3.27-.95.87-.07,1.78.14,2.83-.38-1.08-1.03-2.47-1.76-2.74-3.33-.24-1.4-.17-2.8-.17-4.21,0-3.48-.02-6.96.01-10.43.01-1.56.45-2.78,2.19-3.1,1.56-.29,1.24-1.61,1.45-2.64-.03-1.17-.17-2.36.29-3.49.12-.25.3-.44.53-.59,1.14-.55,2.35-.39,3.55-.35,1.22-.09,2.44-.23,3.46.67,0,3.58,0,7.15,0,10.73,0,1.04,0,2.08,0,3.13-2.67.81-2.95,2.81-2.84,5.21.15,3.26.06,6.53.03,9.8-.03,3.53-.49,3.99-3.95,4.08-.67.02-1.34,0-2,.12-.46.09-.86.27-.92.81-.06.53.24.83.69,1,1.06.41,2.15.81,2.39,2.09.33,1.76.4,3.54-.08,5.29-.22.81-.92,1.18-1.67,1.3-1.66.26-1.62,1.48-1.59,2.69.03,1.3-.28,2.77,1.63,3.14,1.29.25,1.86,1.2,1.86,2.43,0,1.82.56,3.72-.69,5.38,0,1.17,0,2.34,0,3.51-.07,0-.15.02-.22.02q-3.34.12-3.36,3.55Z"/><path class="cls-91" d="M38.22,87.09c0-1.41-.08-2.83.02-4.24.13-1.84-.07-2.79-2.46-3.09-2.39-.29-.79-2.82-1.06-4.31-.16-.87-.75-2.67,1.05-2.57,2.52.14,2.62-1.2,2.46-3.01-.06-.66-.05-1.34,0-2.01.09-1.42-.33-2.37-1.97-2.22-1.54.15-1.61-.8-1.64-1.96-.03-1.31.58-1.62,1.77-1.64,1.69-.04,3.86.78,4.95-.37,1.23-1.3.39-3.55.44-5.38.08-2.97.02-5.95.02-8.93q0-3.6,3.58-3.63v14.75c.61.63.78,1.43.79,2.26.01,4,.17,8.01-.08,12.01.23,2.77.09,5.55.09,8.32,0,.89-.12,1.76-.78,2.44-.01,1.17-.03,2.34-.04,3.51-1.18.02-2.35.05-3.53.07-1.2,0-2.4,0-3.6,0Z"/><path class="cls-34" d="M45.39,72.8c0-4.77,0-9.54,0-14.3,1.17-.01,2.34-.02,3.51-.03,0,4.77,0,9.55,0,14.32-1.16.96-2.33.91-3.5.01Z"/><path class="cls-14" d="M45.44,22.71c1.15,0,2.29.02,3.44.03,0,1.18.01,2.36.02,3.54-1.17.06-2.35.11-3.52.17-.1-.1-.2-.19-.3-.29-.52-1.22-.69-2.4.36-3.45Z"/><path class="cls-39" d="M45.37,29.89c-1.21,0-2.42-.01-3.63-.02-.81-1.04-.72-2.17-.32-3.33.13-.24.31-.42.54-.56,1.17-.45,2.31-.53,3.39.27,0,0,.02.21.02.21,0,1.15,0,2.29,0,3.44Z"/><path class="cls-2" d="M45.36,26.24c-1.19.02-2.38.04-3.57.06-1.18-2.33-1.19-4.66,0-6.98.05-.07.06-.15.03-.23,1.18.05,2.36.09,3.53.14.03,1.16.06,2.32.09,3.47-.03,1.18-.05,2.36-.08,3.53Z"/><path class="cls-27" d="M9.62,19.21c1.18-.05,2.36-.09,3.54-.14-.06.07-.06.14,0,.21,1,1.16.87,2.36.13,3.58-1.23.75-2.44.84-3.6-.15,0,0-.18.03-.18.03.04-1.18.08-2.36.12-3.54Z"/><path class="cls-18" d="M41.79,19.32c0,2.33,0,4.66,0,6.98l.04.05c-1.89.46-3.07,1.66-3.65,3.49l.05.07c-1.08.86-2.23.82-3.42.26-1.06-.88-.79-2.16-.97-3.3-.22-1.42-.43-2.77-2.13-3.29-.89-.27-1.34-1.08-1.67-1.95-.71-1.86-1.04-1.9-2.23-.45-1.43,1.74-3.94,2.37-5.95,1.47-1.58-.71-1.86-2.18-2.15-3.66-.15-1.2-.28-2.39.62-3.39l-.05-.06c1.19,0,2.38.02,3.56.03,1.87-.51,3.11-1.66,3.64-3.54l-.05-.06c1.22,0,2.44,0,3.66,0l-.05.07c.53,1.88,1.77,3.03,3.64,3.54,1.17.05,2.34.1,3.51.14,0,.37.06.74,0,1.1-.26,1.78.36,2.65,2.27,2.37.42-.06.87.09,1.31.14Z"/><path class="cls-88" d="M20.33,19.16c1.14,3.24,1.14,3.2,4.54,3.15,1.17-.02,2-.23,2.32-1.53.27-1.14,1.03-1.72,2.3-1.62,1.42.12,1.09,1.16,1.13,1.99.04.92.46,1.87,1.27,1.86,2.3-.03,2.38,1.6,2.59,3.1.17,1.24.12,2.52.17,3.78-.07.08-.13.16-.2.24-2.06.12-2.97,1.33-3.11,3.28-.14.2-.31.34-.53.45-1.06.4-2.16.32-3.26.27-1.1.03-2.2.13-3.27-.23-.22-.09-.4-.22-.56-.4-.3-1.86-1.01-3.33-3.25-3.29-.19-.12-.34-.27-.46-.46q-.71-2.7-3.61-2.76c-1.2.09-2.39.2-3.42-.63-.71-1.25-.73-2.46.19-3.63,0-1.15,0-2.29,0-3.44,1.18-.05,2.36-.1,3.53-.15,1.22-.88,2.43-.93,3.63.02Z"/><path class="cls-4" d="M20.33,19.16c-1.21,0-2.42-.01-3.63-.02.02-1.16.04-2.32.07-3.47,1.19-.02,2.38-.04,3.57-.06,0,1.19,0,2.37,0,3.56Z"/><path class="cls-86" d="M34.69,15.56c-.36,0-.73-.03-1.09.03-1.94.29-2.89-.41-2.55-2.48.06-.35,0-.72,0-1.09,1.19.02,2.37.05,3.56.07.03,1.16.05,2.31.08,3.47Z"/><path class="cls-86" d="M27.49,12.02c-.1,3.75.71,3.6-3.64,3.54.02-1.16.04-2.31.06-3.47,1.19-.03,2.38-.05,3.58-.08Z"/><path class="cls-59" d="M45.39,72.8c1.17,0,2.34,0,3.5-.01,0,3.58.01,7.17.02,10.75-1.17,0-2.35,0-3.52-.01,0-3.57,0-7.15,0-10.72Z"/><path class="cls-3" d="M9.52,58.52c0-2.39,0-4.78,0-7.17,0-2.38,0-4.77,0-7.15.05-.15.1-.3.15-.45,2.24-1.26,4.47-.29,6.66.13.88.17,1.02,1.19,1.11,2.01.11.96.04,1.93.11,2.89.06.76.14,1.54,1.08,1.72,1.47.27,2.34,1.16,2.84,2.52.15.41.39.85.95.73.54-.12.6-.61.64-1.05.18-1.85.02-3.71.1-5.56.15-3.12,1.71-3.95,4.58-2.46,1.07,3.35.43,6.77.44,10.16.05,2.35.44,4.72-.34,7.03-.08.12-.15.31-.27.33-2.08.35-3.14,1.69-3.6,3.63-2.64.95-3.44.68-4.4-1.77-.43-1.09-1.19-1.23-2.08-1.2-2.25.09-4.26-.05-5.07-2.76-.35-1.17-2.05-.69-2.76-1.62l-.14.05Z"/><path class="cls-20" d="M27.41,44.63c-.45,0-.9.05-1.34,0-1.62-.21-2.3.38-2.2,2.1.13,2.15.03,4.32.03,6.48,0,.85.01,1.68-1.2,1.71-1.03.02-1.92.05-1.98-1.41-.07-1.56-.85-2.46-2.6-2.19-.9.14-1.33-.33-1.39-1.29-.11-1.84.85-4.56-.4-5.31-1.78-1.06-4.4-.72-6.67-.98-.05-3.43-.1-6.87-.15-10.3l.15.05c2.05-1.33,4.26-.69,6.43-.48.12.01.2.07.2.08.79,2.46,3.66,3.05,4.73,5.25.29.59.36,1.35,1.25,1.29.81-.05.79-.76.94-1.3.13-.5.23-1.01.59-1.42,1.13-.73,2.31-.69,3.51-.21.25.15.44.35.57.61.4,2.48,1,4.97-.48,7.32Z"/><path class="cls-40" d="M23.91,37.04c0,.67-.04,1.33,0,2,.07,1.12-.37,1.64-1.54,1.59-1.04-.04-2.08-.11-2-1.45.09-1.61-.44-2.32-2.13-2.17-1.15.1-1.58-.71-1.48-1.73.15-1.54-.63-1.89-1.99-1.82-1.7.08-3.4.04-5.1.04v-7.18c1.17-.97,2.34-.88,3.51,0h3.56c.54,1.86,1.73,3.06,3.59,3.58h0c.53,1.86,1.72,3.05,3.59,3.57h0c.93,1.2.93,2.39,0,3.58Z"/><path class="cls-50" d="M13.18,26.31c-1.17,0-2.34,0-3.51,0,0-1.2.01-2.39.02-3.59,1.16,0,2.32,0,3.47,0,0,1.19.01,2.39.02,3.58Z"/><path class="cls-36" d="M31.04,97.78c-1.19.06-2.37.12-3.56.17,0,0-.01-.2-.01-.2-.87-1.02-.74-2.15-.34-3.3.13-.24.31-.42.55-.56,1.17-.44,2.32-.52,3.37.32,0,0,.05.06.05.06-.02,1.17-.03,2.33-.05,3.5Z"/><path class="cls-94" d="M9.66,58.46c2.11-.16,4.07-.13,4.03,2.83,0,.65.61.75,1.15.76.96.01,1.92.08,2.88,0,1.71-.15,2.95.11,2.63,2.29-.13.94.44,1.32,1.34,1.3.74-.02,1.48,0,2.21,0,.69.59.76,1.41.79,2.23.07,2.07.1,4.14,0,6.2-.13,2.57-.91,3.13-3.56,2.73-.51-.23-.82-.66-.92-1.18-.25-1.34-.98-2.06-2.38-2.22-1.26-.14-1.66-1.09-1.76-2.23-.09-1.04.01-2.08-.13-3.12-.08-.6-.18-1.24-.96-1.29-.65-.04-.81.49-1.05.97-1.16,2.38-1.94,2.64-4.28,1.49-.05-1.19-.1-2.38-.15-3.57.05-2.39.1-4.79.15-7.18Z"/><path class="cls-42" d="M9.67,69.22c.6,0,1.2-.04,1.79,0,1.21.1,1.84-.34,1.72-1.64-.12-1.36.68-1.93,1.9-1.88,1.3.05,1.78.87,1.68,2.12-.06.74.05,1.49-.02,2.23-.17,1.8.09,2.85,2.42,2.84,2.21,0,1.44,2.12,1.62,3.47-1.22,1.32-2.68,1.17-4.19.66-2.41-.39-2.46-.32-2.75,2.01-.21,1.64-.02,3.4-1.23,4.79-1.05.48-2.05.5-2.95-.34,0,0-.11.05-.11.05,0-3.58-.01-7.16-.02-10.75.05-1.19.1-2.39.15-3.58Z"/><path class="cls-76" d="M9.65,83.49c1.03,0,2.05,0,3.08-.01,1.73.95,1.29,2.2.48,3.49l-.05.21c-1.17-.04-2.35-.08-3.52-.11,0-1.19.01-2.38.02-3.57Z"/><path class="cls-61" d="M27.42,94.21c.02,1.18.03,2.36.05,3.54-1.18,0-2.35,0-3.53.01-.03-1.16-.05-2.33-.08-3.49,1.17-1,2.36-.97,3.56-.06Z"/><path class="cls-7" d="M13.2,86.96c-.23-1.15.4-2.43-.48-3.49.16-2.05.12-4.15.51-6.15.45-2.31,2.14-1.34,3.51-.95.58.81.76,1.72.77,2.7,0,3.77-.14,3.65,3.82,3.7,1.02.01,2.08-.04,2.86.84.77,1.47.57,3.05.5,4.6-.13,3.07-1.61,3.87-4.42,2.48-1.17-.04-2.33-.08-3.5-.11q-.08-3.29-3.58-3.61Z"/><path class="cls-51" d="M20.28,90.69c3.92-.13,3.61.67,3.63-3.66,0-1.17,0-2.34,0-3.51-.92-1.18-1.07-2.5-.05-3.57,1.01-1.07,2.37-.91,3.63-.23,1.01,1.14.77,2.5.7,3.84.24,2.81.1,5.62.09,8.43,0,.83-.16,1.62-.73,2.27l-.12-.05c-1.19.02-2.38.04-3.56.06-1.16-.03-2.33-.07-3.49-.1-.03-1.16-.06-2.32-.09-3.48Z"/><path class="cls-33" d="M38.21,33.45c0,.67-.03,1.34.01,2.01.07,1.14-.41,1.72-1.56,1.57-1.8-.24-2.08.71-2.05,2.25.08,4.54.04,9.08.02,13.62,0,1.77.63,3.04,2.49,3.35.86.14,1.14.55,1.05,1.35-.09.8-.67.88-1.3.89-1.94,0-3.87,0-5.81,0-1.06-1.08-.71-2.42-.7-3.7-.2-5.87-.2-11.74,0-17.6-.04-1.29-.31-2.62.72-3.7l-.04-.07c1.07-.9,2.34-.73,3.59-.65,1.25-.08,2.52-.27,3.58.67Z"/><path class="cls-68" d="M31.06,54.91c0,1.19,0,2.39,0,3.58,0,8.34,0,16.68,0,25.02-1.17.89-2.33.97-3.5,0-.05-1.19-.1-2.39-.15-3.58-.69-.79-.73-1.75-.74-2.72-.03-4.15-.03-8.29,0-12.44,0-.97.05-1.93.74-2.72.05-2.38.1-4.76.15-7.14,1.17-.96,2.33-.89,3.5,0Z"/><path class="cls-67" d="M27.56,83.52c1.17,0,2.33,0,3.5,0,0,3.57-.01,7.13-.02,10.7-1.17.02-2.34.03-3.51.05,0-3.58.02-7.16.03-10.75Z"/><path class="cls-65" d="M38.19,29.84q.08-3.6,3.65-3.49c-.03,1.17-.06,2.34-.09,3.51-1.19,0-2.37-.01-3.56-.02Z"/><path class="cls-89" d="M38.21,33.45c-1.21,0-2.42-.01-3.63-.02-.88-1.19-.87-2.36.1-3.5l-.04-.04c1.2,0,2.4.02,3.59.02,0,1.18-.01,2.36-.02,3.54Z"/><path class="cls-37" d="M20.33,29.89c-4.18-.03-3.5.36-3.59-3.57.36,0,.73.04,1.08-.01,1.99-.31,2.83.49,2.52,2.5-.06.35,0,.72,0,1.08Z"/><path class="cls-90" d="M34.68,29.93c-.03,1.17-.07,2.33-.1,3.5-1.18,0-2.36,0-3.54,0q.05-3.61,3.64-3.5Z"/><path class="cls-31" d="M23.91,37.04c0-1.19,0-2.38,0-3.57,1.21,0,2.42.02,3.63.03.85,1.23,1,2.42-.16,3.56-1.16,0-2.31-.01-3.47-.02Z"/><path class="cls-54" d="M27.38,37.05c.05-1.19.1-2.38.16-3.56,1.18,0,2.37,0,3.55,0-.01,1.17-.03,2.34-.04,3.51-1.15.93-2.31.99-3.48.03l-.19.02Z"/><path class="cls-35" d="M23.91,33.46c-4.13-.02-3.52.38-3.59-3.57,4.13.02,3.52-.38,3.59,3.57Z"/><path class="cls-52" d="M27.41,62.06c0,5.96,0,11.92,0,17.88-3.93.06-3.46-.48-3.5,3.58-1.86,0-3.72-.04-5.59,0-1.15.03-1.61-.43-1.58-1.58.05-1.86.01-3.72.01-5.58,1.34.96,2.68.02,4.03,0q3.13,0,3.13-3.13c0-2.53,0-5.06,0-7.6.04-4.06-.42-3.52,3.51-3.58Z"/><path class="cls-44" d="M27.56,37.03c1.16,0,2.32-.02,3.48-.03,0,5.97.01,11.94.02,17.91-1.17,0-2.33,0-3.5,0-.05-3.43-.1-6.86-.15-10.28.05-2.53.1-5.07.15-7.6Z"/></g><path class="cls-24" d="M30.07,7.76l19.41,14.46-.83,64.44-21.48,13.22-19.41-15.77V20.98L30.07,7.76M30.07,0c-1.36,0-2.73.36-3.96,1.08L3.81,14.3c-2.36,1.4-3.81,3.94-3.81,6.68v63.13c0,2.34,1.05,4.55,2.87,6.03l19.41,15.77c1.42,1.15,3.15,1.74,4.9,1.74,1.4,0,2.81-.38,4.07-1.15l21.48-13.22c2.27-1.39,3.66-3.85,3.69-6.51l.83-64.44c.03-2.49-1.13-4.84-3.13-6.33L34.71,1.54c-1.37-1.02-3-1.54-4.64-1.54h0Z"/></g></svg>