<?xml version="1.0" encoding="UTF-8"?><svg id="Layer_2" xmlns="http://www.w3.org/2000/svg" xmlns:xlink="http://www.w3.org/1999/xlink" viewBox="0 0 131.64 187.47"><defs><style>.cls-1{fill:#2a0000;}.cls-1,.cls-2,.cls-3,.cls-4,.cls-5,.cls-6,.cls-7,.cls-8,.cls-9,.cls-10,.cls-11,.cls-12,.cls-13,.cls-14,.cls-15,.cls-16,.cls-17,.cls-18,.cls-19,.cls-20,.cls-21,.cls-22,.cls-23,.cls-24,.cls-25,.cls-26,.cls-27,.cls-28,.cls-29,.cls-30,.cls-31,.cls-32,.cls-33,.cls-34,.cls-35,.cls-36,.cls-37,.cls-38,.cls-39,.cls-40,.cls-41,.cls-42,.cls-43,.cls-44,.cls-45,.cls-46,.cls-47,.cls-48,.cls-49,.cls-50,.cls-51,.cls-52,.cls-53,.cls-54,.cls-55,.cls-56,.cls-57,.cls-58,.cls-59,.cls-60,.cls-61,.cls-62,.cls-63,.cls-64,.cls-65,.cls-66,.cls-67,.cls-68,.cls-69,.cls-70,.cls-71,.cls-72,.cls-73,.cls-74,.cls-75,.cls-76,.cls-77,.cls-78,.cls-79,.cls-80,.cls-81,.cls-82,.cls-83,.cls-84,.cls-85,.cls-86,.cls-87,.cls-88,.cls-89,.cls-90,.cls-91,.cls-92,.cls-93,.cls-94,.cls-95,.cls-96,.cls-97,.cls-98,.cls-99,.cls-100,.cls-101,.cls-102,.cls-103,.cls-104,.cls-105,.cls-106,.cls-107,.cls-108,.cls-109,.cls-110,.cls-111,.cls-112,.cls-113,.cls-114,.cls-115,.cls-116,.cls-117,.cls-118,.cls-119,.cls-120,.cls-121,.cls-122,.cls-123,.cls-124,.cls-125,.cls-126,.cls-127,.cls-128,.cls-129,.cls-130,.cls-131,.cls-132,.cls-133,.cls-134,.cls-135,.cls-136,.cls-137,.cls-138,.cls-139,.cls-140,.cls-141,.cls-142,.cls-143,.cls-144,.cls-145,.cls-146,.cls-147,.cls-148,.cls-149,.cls-150,.cls-151,.cls-152,.cls-153,.cls-154,.cls-155,.cls-156,.cls-157,.cls-158,.cls-159,.cls-160,.cls-161,.cls-162,.cls-163,.cls-164,.cls-165,.cls-166,.cls-167,.cls-168,.cls-169,.cls-170,.cls-171,.cls-172,.cls-173,.cls-174,.cls-175,.cls-176,.cls-177,.cls-178,.cls-179,.cls-180,.cls-181,.cls-182,.cls-183,.cls-184,.cls-185,.cls-186,.cls-187,.cls-188,.cls-189,.cls-190,.cls-191,.cls-192,.cls-193,.cls-194,.cls-195,.cls-196,.cls-197,.cls-198,.cls-199,.cls-200,.cls-201,.cls-202,.cls-203,.cls-204,.cls-205,.cls-206,.cls-207,.cls-208,.cls-209,.cls-210,.cls-211,.cls-212,.cls-213,.cls-214,.cls-215,.cls-216,.cls-217,.cls-218,.cls-219,.cls-220,.cls-221,.cls-222,.cls-223,.cls-224,.cls-225,.cls-226,.cls-227,.cls-228,.cls-229,.cls-230,.cls-231,.cls-232,.cls-233,.cls-234,.cls-235,.cls-236,.cls-237,.cls-238,.cls-239,.cls-240,.cls-241,.cls-242,.cls-243,.cls-244,.cls-245,.cls-246,.cls-247,.cls-248,.cls-249,.cls-250,.cls-251,.cls-252,.cls-253,.cls-254,.cls-255{stroke-width:0px;}.cls-2{fill:#180000;}.cls-3{fill:#120d0c;}.cls-4{fill:#100000;}.cls-5{fill:#5a4646;}.cls-6{fill:#dffee1;}.cls-7{fill:#bbedbd;}.cls-8{fill:#3e0b08;}.cls-9{fill:#b7ceb5;}.cls-10{fill:#daf1d7;}.cls-11{fill:#f5f5f5;}.cls-12{fill:#c9fbc8;}.cls-13{fill:#7e9677;}.cls-14{fill:#3d3429;}.cls-15{fill:#c8e5c4;}.cls-16{fill:#c0efbe;}.cls-17{fill:#ddfedd;}.cls-18{fill:#4e4e3d;}.cls-19{fill:#e3fee7;}.cls-20{fill:#3f130e;}.cls-21{fill:#837b6c;}.cls-22{fill:#d9d9d8;}.cls-23{fill:#76625c;}.cls-24{fill:#050000;}.cls-25{fill:#8ca989;}.cls-26{fill:#310000;}.cls-27{fill:#131611;}.cls-256{clip-path:url(#clippath);}.cls-28{fill:#d5fed2;}.cls-29{fill:none;}.cls-30{fill:#a3c69e;}.cls-31{fill:#d5e1db;}.cls-32{fill:#c1e0bc;}.cls-33{fill:#eafef0;}.cls-34{fill:#cec3c3;}.cls-35{fill:#5b3b38;}.cls-36{fill:#140908;}.cls-37{fill:#e9fee7;}.cls-38{fill:#070000;}.cls-39{fill:#200100;}.cls-40{fill:#c4f8c5;}.cls-41{fill:#0a0000;}.cls-42{fill:#d6fed8;}.cls-43{fill:#c6f0c7;}.cls-44{fill:#8eac88;}.cls-45{fill:#b7e2b2;}.cls-46{fill:#d7fedb;}.cls-47{fill:#490000;}.cls-48{fill:#f3fef5;}.cls-49{fill:#ebfeeb;}.cls-50{fill:#090907;}.cls-51{fill:#b2a8a6;}.cls-52{fill:#480000;}.cls-53{fill:#a19d9a;}.cls-54{fill:#ddfee2;}.cls-55{fill:#beb9a9;}.cls-56{fill:#54644f;}.cls-57{fill:#97b68e;}.cls-58{fill:#454133;}.cls-59{fill:#ecebea;}.cls-60{fill:#bbeebd;}.cls-61{fill:#282e24;}.cls-62{fill:#232820;}.cls-63{fill:#999795;}.cls-64{fill:#70716c;}.cls-65{fill:#664f4e;}.cls-66{fill:#0b0000;}.cls-67{fill:#4f0000;}.cls-68{fill:#e1f9e1;}.cls-69{fill:#5c5a57;}.cls-70{fill:#21201b;}.cls-71{fill:#0c0808;}.cls-72{fill:#e8e8e7;}.cls-73{fill:#a2c9a1;}.cls-74{fill:#f0eeed;}.cls-75{fill:#effef2;}.cls-76{fill:#928674;}.cls-77{fill:#e7fee8;}.cls-78{fill:#590000;}.cls-79{fill:#300000;}.cls-80{fill:#a0c8a0;}.cls-81{fill:#abd2a7;}.cls-82{fill:#a59896;}.cls-83{fill:#210d0a;}.cls-84{fill:#dffedd;}.cls-85{fill:#afddb0;}.cls-86{fill:#cfeacd;}.cls-87{fill:#190000;}.cls-88{fill:#c9fece;}.cls-89{fill:#d9fedb;}.cls-90{fill:#b8e9b7;}.cls-91{fill:#d1fed1;}.cls-92{fill:#0c0606;}.cls-93{fill:#707f6e;}.cls-94{fill:#bceabc;}.cls-95{fill:#ccfed0;}.cls-257{clip-path:url(#clippath-1);}.cls-96{fill:#3b3c30;}.cls-97{fill:#454941;}.cls-98{fill:#4d4846;}.cls-99{fill:#0b0503;}.cls-100{fill:#b7e3b5;}.cls-101{fill:#3d0000;}.cls-102{fill:#9bbf99;}.cls-103{fill:#a5caa1;}.cls-104{fill:#7b9478;}.cls-105{fill:#380000;}.cls-106{fill:#2f0000;}.cls-107{fill:#d0cbc8;}.cls-108{fill:#d7d3cb;}.cls-109{fill:#e1fee4;}.cls-110{fill:#a6a5a4;}.cls-111{fill:#d9f2e8;}.cls-112{fill:#000;}.cls-113{fill:#627058;}.cls-114{fill:#300e0e;}.cls-115{fill:#f7f6f6;}.cls-116{fill:#3b0402;}.cls-117{fill:#b7e7b5;}.cls-118{fill:#3e0000;}.cls-119{fill:#f7fef9;}.cls-120{fill:#240000;}.cls-121{fill:#2a0909;}.cls-122{fill:#e1f8f3;}.cls-123{fill:#170000;}.cls-124{fill:#2f0b08;}.cls-125{fill:#c4f7c3;}.cls-126{fill:#555b48;}.cls-127{fill:#200;}.cls-128{fill:#93b390;}.cls-129{fill:#998a83;}.cls-130{fill:#020000;}.cls-131{fill:#6f5a52;}.cls-132{fill:#c3f6c3;}.cls-133{fill:#4c0000;}.cls-134{fill:#89937f;}.cls-135{fill:#b7e9b9;}.cls-136{fill:#86a183;}.cls-137{fill:#c2f7c4;}.cls-138{fill:#b1daae;}.cls-139{fill:#0c0000;}.cls-140{fill:#f0efec;}.cls-141{fill:#d2fed6;}.cls-142{fill:#f3fef8;}.cls-143{fill:#a9bbaa;}.cls-144{fill:#120000;}.cls-145{fill:#746459;}.cls-146{fill:#b1b29b;}.cls-147{fill:#470000;}.cls-148{fill:#140101;}.cls-149{fill:#b8e4b4;}.cls-150{fill:#140000;}.cls-151{fill:#1d0000;}.cls-152{fill:#c4fbc9;}.cls-153{fill:#290000;}.cls-154{fill:#560000;}.cls-155{fill:#edfef0;}.cls-156{fill:#657263;}.cls-157{fill:#bef2be;}.cls-158{fill:#0f0000;}.cls-159{fill:#aedbaf;}.cls-160{fill:#e7feec;}.cls-161{fill:#afdeb1;}.cls-162{fill:#546552;}.cls-163{fill:#150000;}.cls-164{fill:#445243;}.cls-165{fill:#181c16;}.cls-166{fill:#2c2f29;}.cls-167{fill:#f6fef8;}.cls-168{fill:#5e6f59;}.cls-169{fill:#dbfee0;}.cls-170{fill:#718569;}.cls-171{fill:#a6d0a5;}.cls-172{fill:#c8f9c6;}.cls-173{fill:#e4fee9;}.cls-174{fill:#2e0000;}.cls-175{fill:#020201;}.cls-176{fill:#f5fdf6;}.cls-177{fill:#9dc097;}.cls-178{fill:#a0c19a;}.cls-179{fill:#ebf2eb;}.cls-180{fill:#96ba96;}.cls-181{fill:#a2c0a4;}.cls-182{fill:#d2fed3;}.cls-183{fill:#86a584;}.cls-184{fill:#fefefe;}.cls-185{fill:#0e0201;}.cls-186{fill:#430000;}.cls-187{fill:#f3fef4;}.cls-188{fill:#534646;}.cls-189{fill:#260000;}.cls-190{fill:#020101;}.cls-191{fill:#68544f;}.cls-192{fill:#a4cb9f;}.cls-193{fill:#1e0000;}.cls-194{fill:#e6e3e2;}.cls-195{fill:#c9fcc9;}.cls-196{fill:#29140e;}.cls-197{fill:#370000;}.cls-198{fill:#cac2b8;}.cls-199{fill:#8da986;}.cls-200{fill:#302018;}.cls-201{fill:#090000;}.cls-202{fill:#464342;}.cls-203{fill:#acd4a9;}.cls-204{fill:#f5fef6;}.cls-205{fill:#383633;}.cls-206{fill:#89a889;}.cls-207{fill:#967e7e;}.cls-208{fill:#a4cda4;}.cls-209{fill:#a7d2a8;}.cls-210{fill:#869d7d;}.cls-211{fill:#1b0000;}.cls-212{fill:#e6fee8;}.cls-213{fill:#0d0000;}.cls-214{fill:#c1f7c3;}.cls-215{fill:#160000;}.cls-216{fill:#cef7d0;}.cls-217{fill:#9cbd97;}.cls-218{fill:#200000;}.cls-219{fill:#bdedbb;}.cls-220{fill:#defee0;}.cls-221{fill:#84a081;}.cls-222{fill:#350000;}.cls-223{fill:#372b21;}.cls-224{fill:#99ba9a;}.cls-225{fill:#f3fefe;}.cls-226{fill:#778e72;}.cls-227{fill:#8db18d;}.cls-228{fill:#bdf0be;}.cls-229{fill:#5c403d;}.cls-230{fill:#110101;}.cls-231{fill:#aad0a5;}.cls-232{fill:#b2dbae;}.cls-233{fill:#abd2a4;}.cls-234{fill:#b2e0af;}.cls-235{fill:#1f0000;}.cls-236{fill:#eefef1;}.cls-237{fill:#8c7e79;}.cls-238{fill:#e0e0d6;}.cls-239{fill:#b5e6b7;}.cls-240{fill:#160907;}.cls-241{fill:#3a4436;}.cls-242{fill:#3a0000;}.cls-243{fill:#6a7a60;}.cls-244{fill:#462525;}.cls-245{fill:#460000;}.cls-246{fill:#030000;}.cls-247{fill:#370705;}.cls-248{fill:#788d73;}.cls-249{fill:#5b6651;}.cls-250{fill:#effefd;}.cls-251{fill:#eafee8;}.cls-252{fill:#e8feec;}.cls-253{fill:#401b15;}.cls-254{fill:#f4fef8;}.cls-255{fill:#718870;}</style><clipPath id="clippath"><polygon class="cls-29" points="9 24.81 31 8.81 61 18.81 63 138.81 43 155.81 13 144.81 9 24.81"/></clipPath><clipPath id="clippath-1"><polygon class="cls-29" points="71.47 89.54 92.47 73.54 121.47 83.54 122.47 160.54 102.47 178.54 72.47 166.54 71.47 89.54"/></clipPath></defs><g id="Independent_Women"><path class="cls-112" d="M130.64,83.35c-.05-3.79-2.48-7.15-6.07-8.39l-29-10c-.95-.33-1.94-.49-2.93-.49-1.94,0-3.86.63-5.45,1.84l-16.19,12.34-1-59.8c-.06-3.82-2.53-7.18-6.15-8.39L33.85.46c-.93-.31-1.89-.46-2.85-.46-1.88,0-3.74.59-5.29,1.72L3.71,17.72C1.29,19.48-.09,22.32,0,25.3l4,120c.13,3.66,2.46,6.89,5.9,8.15l30,11c1.01.37,2.06.55,3.1.55,2.1,0,4.18-.74,5.83-2.14l14.6-12.41.21,16.14c.05,3.63,2.28,6.89,5.66,8.24l30,12c1.08.43,2.21.64,3.34.64,2.19,0,4.34-.8,6.02-2.31l20-18c1.93-1.73,3.01-4.21,2.98-6.81l-1-77ZM43,156l-30-11L9,25,31,9l30,10,2,120-20,17ZM102.64,178.47l-30-12-1-77,21-16,29,10,1,77-20,18Z"/><g class="cls-256"><path class="cls-24" d="M.87,10.99c7.78-.74,15.58-.53,23.37-.57.12.13.25.27.37.4.58,1.45.65,2.85-.4,4.15-1.28.86-2.74.69-4.17.7-1.87.02-3.75-.03-5.62,0-1.05.02-2.15,0-2.98.72-2.67,2.31-5.91,2.51-9.14,2.35"/><path class="cls-24" d="M81.12,11.36c-1.67,0-3.33.04-4.85.9-.84.48-1.74.62-2.7.28-5.17-1.81-10.34-1.86-15.5.03-.6.22-1.29.34-1.83.01-2.63-1.63-5.02-.94-7.66.24-1.96.88-4.29.62-6.44,0-1.43-1.25-3.1-1.74-4.98-1.52-1.4.06-2.8.04-4.2.02-1.46.06-2.92.04-4.39,0-1.51.02-3.05.19-4.32-.89h0c.09-3.96.47-4.37,4.28-4.37"/><path class="cls-163" d="M68.64,46.4c-1.74,0-3.56.29-5.15-.82-1.28-2.95-1.17-5.91-.12-8.89,1.2-1.09,2.71-.95,4.14-.95"/><path class="cls-193" d="M68.51,63.89c-1.65-.02-3.36.24-4.88-.72-1.13-1.36-.89-2.98-.88-4.56,0-1.57-.23-3.17.76-4.57,2.13-1.16,3.66-.69,4.89,1.47,1.46,2.57,5.7,3.08,7.68.78"/><path class="cls-41" d="M78.55,23.87c-1.77.03-3.53.16-5.29.39-3.23.41-6.44.43-9.49-.99-1.18-1.16-.99-2.77-1.39-4.18-.32-2.17.1-4.2,2.43-4.76,2.81-.67,6-1.36,8.17,1.26,1.47,1.78,2.11,1.71,3.26-.09.86-1.35,2.4-1.56,3.9-1.57"/><path class="cls-213" d="M68.7,28.83c-1.45,0-2.92.12-4.35-.28-.35-.12-.65-.31-.91-.57-.76-1.34-.68-2.75-.39-4.19.12-.35.32-.63.61-.87"/><path class="cls-38" d="M80.28,14.78c-2.21,0-3.96.31-4.21,2.99-.08.81-.66,1.33-1.49,1.31-.83-.01-1.19-.6-1.5-1.35-1.19-2.9-3.41-3.7-7.65-2.91-2.57.49-2.45,2.43-2.41,4.35-.9.87-1.92.81-2.97.36-1.06-2.3-2.09-4.66-5.39-3.86-1.39.06-2.78.04-4.17.02-1.45.05-2.91.04-4.36,0-1.5-.01-3.05.2-4.39-.76-.68-.88-.74-1.75.01-2.63,3.07-.32,6.45,1.07,9.09-1.75.31-.33,1.2-.1,1.83-.13,2.58-.1,4.71,2.39,7.92.26,2.02-1.35,5.67-.27,8.59-.25,1.61.01,3.35-.43,4.47,1.38.34.55,1.28.67,1.67.14"/><path class="cls-38" d="M3.07,17.94c2.88-.13,5.51-.29,7.96-2.47,1.88-1.68,4.82-.43,7.28-.66.52-.05,1.04,0,1.56,0,.62.78.73,1.6.25,2.49-.29.3-.66.65-1.06.59-5.22-.75-9.47,2.3-14.15,3.62-1.22.34-2.49.57-3.71.38"/><path class="cls-218" d="M69.12,68.3c-1.85,0-3.76.31-5.48-.75-1.08-1.56-1.23-3.1.09-4.61"/><path class="cls-4" d="M68.52,33.21c-1.73,0-3.57.36-5.11-.88-.78-1.54-.94-3.03.3-4.43"/><path class="cls-41" d="M5.68,22.69c2,.03,3.59-.44,4.76-2.29,1.28-2.01,3.12-2.68,5.32-1.21.75,1.37.72,2.76.05,4.14-2.17.97-4.28,2-4.68,4.73-1.19.88-2.57.73-3.92.74"/><path class="cls-3" d="M19.86,17.3c0-.83,0-1.67,0-2.5,1.45-.04,2.89-.08,4.34-.11.13.12.25.25.38.37.62,1.38.62,2.73-.14,4.06-1.18,1.06-2.55.91-3.95.63-.33-.11-.61-.3-.85-.56-.35-.67-.28-1.3.21-1.88Z"/><path class="cls-38" d="M24.24,10.43c1.48,0,2.96.02,4.44.03,1.03,1.47,1,2.94.02,4.42-1.48,1-2.95,1.05-4.42-.01,0,0-.08-.17-.08-.17.01-1.42.02-2.84.04-4.26Z"/><path class="cls-71" d="M41.76,12.3c0,.78-.02,1.56-.03,2.35-.11.15-.23.29-.34.44-1.47.7-2.89.75-4.21-.35-.82-1.46-.87-2.89.15-4.28,1.5.58,4.11-1.54,4.44,1.85Z"/><path class="cls-69" d="M28.6,14.65c.03-1.4.06-2.8.09-4.2,1.43.02,2.85.04,4.28.06,1.1,1.28,1.01,2.67.4,4.11-1.15,1.23-2.56,1.03-3.99.72-.34-.13-.6-.37-.77-.69Z"/><path class="cls-202" d="M33.02,14.7c-.02-1.39-.03-2.79-.05-4.18,1.45-.02,2.9-.04,4.35-.06.01,1.41.03,2.82.04,4.23-.12.14-.23.28-.34.42-1.41.62-2.78.84-4-.4Z"/><path class="cls-4" d="M63.73,36.68c-1.24-1.46-1.24-2.92,0-4.37"/><path class="cls-87" d="M76.88,57.28c-.32,1.2-1.15,1.4-2.14,1.27-2.92-.37-6.92,1.74-7.63-3.68-.17-1.31-2.21-.46-3.38-.69-1.29-1.48-1.15-3.01-.16-4.57.78-.6,1.72-.75,2.65-.74"/><path class="cls-123" d="M63.73,49.81c-1.24-1.46-1.24-2.92,0-4.38"/><path class="cls-188" d="M63.73,45.43c0,1.46,0,2.92,0,4.38,0,1.46,0,2.92,0,4.38-.05,1.46-.11,2.92-.16,4.38-1.54,1.15-3.06,1.12-4.57-.06-.66-1-.7-2.15-.71-3.29-.04-7.97-.04-15.94,0-23.91,0-1.14.05-2.28.69-3.3,1.52-1.25,3.05-1.21,4.59-.04,0,0,.13-.07.13-.07,0,1.47.02,2.93.02,4.4,0,1.46,0,2.92,0,4.37,0,2.92,0,5.84,0,8.75Z"/><path class="cls-5" d="M59.38,58.56c1.4,0,2.79,0,4.19,0,.05,1.46.11,2.91.16,4.37,0,1.46,0,2.92,0,4.38,1.36,2.93,1.3,5.87.01,8.81-1.56,1.06-3.13,1.08-4.69,0-1.59-4-.53-8.18-.75-12.28-.09-1.79-.49-3.77,1.06-5.28Z"/><path class="cls-36" d="M59.9,19.17c1.04,0,2.08,0,3.13,0,1.13,1.1.42,2.5.63,3.75,0,.22-.02.45-.03.67-1.23.95-2.57.85-3.96.44-.33-.15-.59-.37-.78-.68-.53-1.36-.6-2.71.1-4.04.26-.31.56-.36.9-.15Z"/><path class="cls-96" d="M59.31,23.53c1.44.02,2.88.04,4.32.07-.02,1.46-.04,2.92-.06,4.38-1.4-.02-2.8-.04-4.2-.05-1.27-1.44-1.24-2.91-.06-4.39Z"/><path class="cls-41" d="M59.9,19.17c-.23.01-.47.02-.7.04-1.46,1.09-2.93,1.02-4.4.02-.99-1.5-.99-2.98.1-4.43q4.91,0,5.01,4.37Z"/><path class="cls-63" d="M41.73,14.65c1.45.08,2.89.15,4.34.23,1.2,1.43,1.15,2.91.21,4.45-1.52.96-3.05.94-4.59.06-1.01-1.51-1.09-3,.08-4.47l-.12-.12.09-.15Z"/><path class="cls-98" d="M46.19,19.09c-.04-1.41-.08-2.81-.12-4.22,1.46-.02,2.92-.03,4.38-.05,1.17,1.44,1.14,2.91.15,4.42-1.5.97-2.98,1.12-4.41-.15Z"/><path class="cls-92" d="M50.56,19.1c-.03-1.42-.07-2.85-.1-4.27,1.48,0,2.96-.02,4.44-.03,0,1.41-.02,2.82-.03,4.23-.09.13-.18.27-.27.4-1.24.65-2.48.64-3.73.04-.1-.12-.2-.25-.31-.38Z"/><path class="cls-38" d="M9.82,19.17c.19-.07.51.02.6-.09,2.62-3.41,6.19-1.72,9.44-1.78,0,.55,0,1.1-.01,1.65-1.36,1.48-2.82,1.28-4.32.24-2.31-.24-4.28-.13-5.01,2.79-.37,1.46-2.02,1.58-3.43,1.58"/><path class="cls-120" d="M67.04,77.03c-1.03,0-2.07-.02-3.02-.52-.15-.13-.3-.26-.45-.4.06-2.93.11-5.86.17-8.8"/><path class="cls-41" d="M10.94,27.96c.15.11.29.22.44.32.72,1.39.71,2.76-.17,4.08-2.8,1.33-5.89.94-8.84,1.36"/><path class="cls-205" d="M15.53,19.19c1.44-.08,2.88-.16,4.32-.24.08.09.1.19.06.3.94,1.16.8,2.45.49,3.77-.12.31-.3.57-.56.79-1.22.62-2.47.57-3.75.22-.31-.13-.52-.35-.64-.67.03-1.39.05-2.78.08-4.18Z"/><path class="cls-64" d="M10.94,27.96c.05-.51.22-1.03.14-1.52-.34-2.27.48-3.28,2.85-2.9.49.08,1.01-.1,1.52-.16.08.08.1.18.07.29,1.1,1.44.98,2.89.04,4.35-1.47.96-2.92,1.05-4.35-.08l-.12.11-.15-.08Z"/><path class="cls-110" d="M24.29,14.86c1.44-.07,2.87-.14,4.31-.21l.05.29c1.09,1.29,1.12,2.77.19,4-1.09,1.45-2.7,1.25-4.23.57-.13-.15-.27-.3-.4-.44.03-1.41.05-2.81.08-4.22Z"/><path class="cls-22" d="M19.81,23.51c.03-1.42.07-2.83.1-4.25,1.43-.06,2.87-.12,4.3-.18-.04.11-.02.22.06.31,1.11,1.4,1.19,2.99-.02,4.17-1.3,1.26-2.97,1.19-4.44-.04Z"/><path class="cls-59" d="M41.76,14.91c.02,1.41.05,2.82.07,4.22-1.49,1.23-3.18,1.32-4.48,0-1.21-1.21-1.12-2.82.06-4.21l.06-.15-.12-.11c1.47.08,2.94.15,4.4.23Z"/><path class="cls-184" d="M37.41,14.94q-.06,4.29,4.42,4.2c1.45-.01,2.91-.03,4.36-.04,1.46,0,2.91,0,4.37,0,0,0-.07.15-.07.15.84,2.14,1.76,4.17,4.71,3.44,1.41-.02,2.86-.18,4.01.91l.1-.06c.02,1.46.04,2.93.06,4.39,0,10.21,0,20.43,0,30.64,0,5.83,0,11.66,0,17.49.99,1.32.79,2.86.79,4.36.06,1.5.04,3,0,4.5.1,1.54.04,3.08.02,4.62.19,11.91.07,23.82.07,35.73,0,.93-.08,1.86-.44,2.74-.19.36-.42.82-.8.87-2.36.35-3.39,1.94-3.92,4.04-2.02.96-4.61,1.47-3.7,4.73,0,1.49.19,3.01-.91,4.25-1.53.89-3.04.93-4.53-.09-1.54-4.19-.52-8.53-.72-12.8,0-.92-.13-1.85,0-2.75.47-3.17-.34-5.55-3.71-6.51-1.27-2.75-.56-5.65-.67-8.49-.05-1.53-.07-3.05,0-4.58-.07-2.84-.09-5.69,0-8.53-.03-1.5-.07-2.99,0-4.49-.04-1.49-.05-2.97,0-4.46-.07-1.5-.04-3,0-4.5-.09-2.86-.08-5.72,0-8.58-.07-2.86-.09-5.72,0-8.59-.03-1.5-.07-2.99,0-4.49-.04-1.44-.06-2.89,0-4.33-.03-1.03-.12-2.07.01-3.09.37-2.89-.31-5.06-3.54-5.68-1.14-1.44-.83-3.16-.84-4.79-.01-1.72-.33-3.08-2.35-3.4-.74-.12-1.51-.54-1.6-1.3-.3-2.3-2.03-2.91-3.82-3.51-1.06-1.91-1.42-4.69-4.74-3.75-1.46.01-2.94.17-4.21-.8-1.02-1.34-.8-2.91-.81-4.44-.02-1.54-.2-3.1.88-4.42l-.04-.02q4.4.1,4.46-4.13c.1-.03.21-.09.3-.08,3.38.44,4.74-1.02,4.08-4.36,1.46-.08,2.91-.17,4.37-.25,1.47.08,2.93.16,4.4.24Z"/><path class="cls-127" d="M2.32,140.86c1.38.02,2.78-.12,4.12.41.34.18.59.44.76.78.47,1.5.62,2.97-.48,4.3-1.41.85-2.98.62-4.51.64"/><path class="cls-145" d="M59.37,80.43c0-1.46,0-2.92,0-4.38,1.4.02,2.79.04,4.19.06,0,0,.15-.07.15-.07,1.02,1.48,1.02,2.98.11,4.51-1.51.97-3,1.05-4.46-.12Z"/><path class="cls-112" d="M4.03,118.95c.91-.11,1.85-.03,2.78,0,1.42-.02,2.85-.15,4.15.61.7,2.52,2.45,4.02,4.85,4.87,1.1,2.71.5,5.53.58,8.3.02,1.43.06,2.86-.02,4.28-.98,3.35,1.86,3.75,3.78,4.87.72,1.45.76,2.87-.17,4.25-1.32,1.06-2.89.85-4.42.85-1.46,0-2.94.17-4.31-.54-.86-2.19-1.94-4.17-4.52-4.73h0c-.81-2.19-1.71-4.23-4.69-3.51"/><path class="cls-53" d="M59.21,23.6c-1.41-.03-2.83-.06-4.24-.09-1.15-1.39-1.19-2.8-.06-4.22l-.12-.11.08-.14c1.44.06,2.89.12,4.33.18,0,1.46.01,2.92.02,4.39Z"/><path class="cls-72" d="M54.9,19.29c.02,1.41.04,2.82.06,4.22q-4.41.1-4.48-4.27c1.47.01,2.95.03,4.42.04Z"/><path class="cls-153" d="M63.88,85.23c-.3-.17-.53-.41-.68-.72-.47-1.4-.57-2.77.36-4.04.05-1.47.1-2.95.16-4.43"/><path class="cls-158" d="M.16,32.95c3.64.2,7.2-1.09,10.86-.61.13.11.27.23.4.34.71,1.3.49,2.72.55,4.1.02,1.39.1,2.78-.22,4.15-.1.32-.26.62-.47.88-1.58.77-3.06,1.55-3.99,3.24-.89,1.63-2.69,1.81-4.39,1.82"/><path class="cls-144" d="M.11,101.56c1.08.07,2.25.49,2.52,1.54.57,2.2,2.28,2.74,4.07,3.31.68,2.41,2.08,4.1,4.65,4.62.8,1.3.65,2.74.64,4.16-.04,1.43.17,2.89-.49,4.25-.12.13-.25.26-.38.39-1.46,0-2.92,0-4.38,0-.63-2.29-2.12-3.72-4.38-4.38"/><path class="cls-38" d="M2.35,115.46q4.37,0,4.38,4.38c-1.43,0-2.85,0-4.28,0"/><path class="cls-9" d="M11.21,27.93c1.39,0,2.78,0,4.17,0,.14.12.28.25.42.37.66,1.47.72,2.89-.37,4.21-1.46.81-2.87.9-4.22-.24l-.2.07c.07-1.47.13-2.94.2-4.41Z"/><path class="cls-11" d="M19.85,23.52c0,1.47,0,2.94.01,4.41-1.41,1-2.81,1.16-4.2-.03l-.28.03c.05-1.42.1-2.84.14-4.26,1.44-.05,2.88-.09,4.32-.14Z"/><path class="cls-207" d="M59.17,128.62c.03-11.8.06-23.59.1-35.39,0-1.34.07-2.69.1-4.03,1.45-1.14,2.94-1.06,4.45-.12.99,1.43.73,3.05.74,4.63.12,4.34.11,8.69.01,13.03.15,6.18.05,12.36.05,18.55,0,1.03-.05,2.06-.54,3.01-1.29,1.44-2.84,1.26-4.45.7-.15-.13-.31-.26-.46-.39Z"/><path class="cls-73" d="M41.66,111.1c.07,2.92.14,5.84.21,8.76-.12.12-.24.23-.37.35-2.4.83-4.32.6-5.05-2.28-.23-.91-.86-1.38-1.73-1.6-.3-.08-.79-.11-.86-.3-1.15-3.03-4.94-3.76-6-6.67-.75-2.05-2.84-1.52-3.86-2.78-1.06-2.76-.93-5.53-.14-8.31,1.11-1.36,2.58-1.19,4.05-.93.32.09.6.26.85.47.62,2.01.97,4.29,3.92,4.06.27.13.48.33.66.57.17,2.38,1.27,3.85,3.83,3.86.26.15.46.36.61.61-.11,2.68,1.92,3.4,3.87,4.18Z"/><path class="cls-159" d="M41.67,97.97c0,2.91,0,5.82,0,8.74-1.43,1.12-2.86,1.04-4.29,0h0c-.64-2.28-2.1-3.73-4.37-4.38h0c-.64-2.27-2.1-3.73-4.38-4.37h0c-1.54-2.74-1.11-5.56-.41-8.4,2.87-1.82,4.43-1.57,5.54,1.24.62,1.56,1.76,1.86,3.05,2.21.3.12.57.3.79.54.27,2.47,1.86,3.74,4.07,4.44Z"/><path class="cls-179" d="M46.13,128.59c0,4.37,0,8.74,0,13.11,1.08,1.47,1.1,2.96.07,4.47-1.51,1.01-3.02,1.01-4.53,0-1.53-2.74-.69-5.71-.82-8.59.08-2.8-.32-5.63.33-8.41.14-.36.37-.66.68-.9,1.48-.68,2.92-.73,4.27.32Z"/><path class="cls-142" d="M28.63,36.68c2.37-.08,4.96-.57,4.5,3.33-.13,1.06,1.08,1.11,1.89,1.03,2-.2,2.48.81,2.39,2.59-.1,2.06-.02,4.12-.02,6.19-.13.12-.26.24-.39.37-1.39.59-2.74.61-4.03-.25-.48-2.6-2.37-3.82-4.63-4.67-.95-2.71-.89-5.44-.1-8.17.13-.14.26-.27.39-.41Z"/><path class="cls-119" d="M37.38,49.81q4.37,0,4.38,4.48c0,1.43,0,2.85,0,4.28-1.44,1.09-2.93,1.09-4.46.2-1.05-1.37-.82-2.97-.82-4.52,0-1.54-.22-3.12.89-4.43h0Z"/><path class="cls-176" d="M46.13,128.59c-1.42,0-2.84.01-4.26.02-1.8-2.89-1.41-5.84-.23-8.81,0,0,.22.06.22.06q4.27-.05,4.27,4.07c0,1.55,0,3.11,0,4.66Z"/><path class="cls-6" d="M41.74,67.32c0,2.92,0,5.84,0,8.75-1.49,1.1-2.99,1.09-4.49.01-1.25-2.92-1.23-5.84-.02-8.77,1.51-1.13,3.01-1.12,4.52,0Z"/><path class="cls-42" d="M37.39,76.07c1.45,0,2.9,0,4.34.01,0,2.92,0,5.83,0,8.75-1.27,1.01-2.66.91-4.09.41-.33-.18-.57-.44-.74-.77-.56-2.68-.71-5.35.11-8.02.13-.13.26-.26.38-.39Z"/><path class="cls-31" d="M46.12,145.87c0-1.39.01-2.78.02-4.17,1.42-.05,2.85-.11,4.27-.16.3.18.5.43.63.75.33,1.34.42,2.65-.43,3.86-1.2.89-2.5.81-3.85.44-.32-.14-.54-.38-.65-.72Z"/><path class="cls-111" d="M50.41,141.54c.04-1.4.08-2.8.11-4.19,1.45-1.09,2.93-1.09,4.43-.11,1.04,1.48,1.02,2.99.07,4.5-1.47,1.04-2.96,1.1-4.45.04l-.16-.24Z"/><path class="cls-250" d="M54.95,137.38c-1.47-.01-2.95-.02-4.42-.03q-.01-4.38,4.37-4.39c.11.11.23.23.34.34.55,1.24.54,2.48.04,3.73-.11.12-.22.24-.32.35Z"/><path class="cls-225" d="M54.89,132.96q.01-4.4,4.28-4.34l.2-.07c.97,1.5.99,2.99-.02,4.49-1.5,1.03-2.99,1.02-4.46-.07h0Z"/><path class="cls-203" d="M37.38,106.7c1.43,0,2.86,0,4.29,0,0,1.46,0,2.92-.01,4.39-4.63-.1-4.25.63-4.28-4.39Z"/><path class="cls-94" d="M41.67,97.97c-4.52-.14-4.29.77-4.29-4.4,1.44-1.13,2.88-1.08,4.32.02,0,1.46-.02,2.92-.02,4.39Z"/><path class="cls-43" d="M41.7,93.59c-1.44,0-2.88-.01-4.32-.02h0c-1.09-1.46-1.09-2.96-.16-4.5,1.53-.97,3.03-1,4.5.13,0,1.46,0,2.92-.01,4.38Z"/><path class="cls-237" d="M63.54,89.2c-1.39,0-2.78,0-4.17,0,0-1.46,0-2.92,0-4.38,1.41-1.08,2.8-1.06,4.18.05l.19-.07c.96,1.52,1.11,3-.2,4.42Z"/><path class="cls-216" d="M41.71,89.21c-1.44,0-2.88-.01-4.32-.02-1.14-1.46-1.14-2.92,0-4.37,1.45,0,2.89,0,4.34.01,0,1.46,0,2.92-.01,4.38Z"/><path class="cls-21" d="M63.55,84.86c-1.39-.02-2.79-.03-4.18-.05,0-1.46,0-2.92,0-4.39,1.4.01,2.79.02,4.19.04,0,1.46,0,2.93,0,4.39Z"/><path class="cls-236" d="M15.67,27.9c1.4.01,2.8.02,4.2.03,0,1.45,0,2.91,0,4.36-.11.11-.22.23-.34.35-1.25.56-2.5.55-3.75.03-.12-.11-.23-.22-.35-.33.08-1.48.16-2.96.24-4.44Z"/><path class="cls-173" d="M19.87,32.29c1.46,0,2.91.01,4.37.02,1.02,1.26.93,2.65.45,4.07-.18.34-.44.59-.78.76-1.5.46-2.95.59-4.25-.54-.83-1.47-.85-2.91.21-4.29v-.03Z"/><path class="cls-212" d="M41.74,67.32c-1.45,0-2.91,0-4.36,0-.11-.12-.23-.24-.35-.36-.56-1.3-.53-2.59,0-3.89.2-.29.46-.5.78-.64,1.38-.39,2.73-.49,3.93.51,0,1.46,0,2.92,0,4.38Z"/><path class="cls-75" d="M41.75,62.95c-1.45,0-2.91,0-4.36,0-1.14-1.46-1.14-2.92,0-4.38,1.46,0,2.91,0,4.37,0,0,1.46,0,2.92,0,4.38Z"/><path class="cls-254" d="M24.25,36.68c0-1.46,0-2.91,0-4.37q4.38,0,4.39,4.37s0,0,0,0c-1.46,1.06-2.92,1.15-4.37,0Z"/><path class="cls-26" d="M2.35,146.09c1.11,1.54,1.16,3.08,0,4.62"/><path class="cls-153" d="M2.35,150.47c0-1.46,0-2.92,0-4.37,1.46,0,2.92,0,4.38,0,1.46-1.1,2.92-1.09,4.39-.01,1.45,0,2.91.02,4.36.02,1.1,1.46,1.1,2.95.17,4.49-1.41,1.03-3.04.78-4.63.79-2.9-.21-5.94.84-8.68-.91Z"/><path class="cls-123" d="M11.12,146.08c-1.46,0-2.93,0-4.39.01,0-1.46,0-2.91,0-4.37,5.09,0,4.3-.3,4.39,4.36Z"/><path class="cls-201" d="M2.35,137.34q4.37,0,4.38,4.37c-1.46,0-2.92,0-4.38,0-1.1-1.45-1.1-2.91,0-4.37Z"/><path class="cls-163" d="M2.35,137.34c0,1.46,0,2.91,0,4.37"/><path class="cls-104" d="M15.6,132.95c-.08-2.92-.15-5.85-.23-8.77.15-.13.29-.25.44-.38,1.54-.56,3.04-.7,4.37.52.92,2.89,1.06,5.77-.15,8.63-1.48,1.1-2.96,1.17-4.44,0Z"/><path class="cls-87" d="M15.49,150.47c0-1.45,0-2.91,0-4.36,1.46,0,2.93,0,4.39-.01.13.14.25.28.38.42.57,1.49.69,2.94-.45,4.25-1.49.7-2.94.87-4.31-.29Z"/><path class="cls-27" d="M19.87,146.09c0-1.41,0-2.81,0-4.22.12-.15.23-.3.35-.45,1.49-.71,2.93-.77,4.29.32.78,1.52.8,3.01-.22,4.44-1.5.99-2.98.99-4.44-.1h0Z"/><path class="cls-162" d="M19.88,141.87c-.1-.02-.2-.05-.3-.06q-4.2-.27-3.99-4.51c1.44-1.11,2.92-1.01,4.41-.12.91,1.5,1.03,2.97-.13,4.41v.28Z"/><path class="cls-255" d="M19.83,137.37c-1.42-.02-2.83-.05-4.25-.07,0-1.45,0-2.9.01-4.35,1.42,0,2.84,0,4.27.01.12.13.25.26.37.39.55,1.41.74,2.78-.4,4.02Z"/><path class="cls-99" d="M15.37,124.18q-4.25.06-4.26-4.34h0c1.46-1.09,2.95-1.09,4.45-.09,1.03,1.49,1.01,2.99.03,4.49l-.22-.06Z"/><path class="cls-174" d="M71.96,94.03c-2.78.58-5.55,1.11-8.21-.46-.07-1.46-.14-2.91-.21-4.37.07-1.47.13-2.94.2-4.42,1.54.01,3.09-.03,4.62.05"/><path class="cls-144" d="M2.6,46.07c2.26.12,4.14-.27,4.79-2.88.51-2.04,2.25-1.38,3.61-1.51,1.17,1,.95,2.37.99,3.68,0,1.46.17,2.94-.6,4.29-1.85,1.1-3.73,2.08-4.92,4.08-.74,1.24-2.3,1.32-3.67,1.3"/><path class="cls-181" d="M11.21,32.27c1.41.02,2.81.05,4.22.07,0,0,.11-.06.11-.06,1.02,1.46,1.03,2.94.07,4.44-1.47,1.02-2.94,1.1-4.39-.04,0-1.47,0-2.94,0-4.41Z"/><path class="cls-227" d="M11.21,45.43c-.07-1.25-.14-2.5-.21-3.74.07-.21.14-.42.21-.63,1.45-1.14,2.94-1.05,4.44-.11.93,1.52.92,3.05.03,4.58-1.51,1-3,1.07-4.47-.09Z"/><path class="cls-224" d="M15.4,41.08c-1.4,0-2.79-.02-4.19-.03,0-1.46,0-2.92,0-4.37,1.4.01,2.8.03,4.2.04.13.12.27.24.4.36.59,1.41.8,2.78-.41,4Z"/><path class="cls-163" d="M.54,91.58c2.01,1.02,2.77,2.74,2.64,4.88-.11,1.96.68,3.23,2.35,4.34,2.18,1.45,2.7,3.56,1.19,5.91-2.14-.04-4.73.77-4.55-3.01.06-1.25-1.32-1.36-2.39-1.36"/><path class="cls-163" d="M2.2,54.2c2.26.16,4.02-.17,4.81-2.8.56-1.84,2.42-1.65,4-1.55.13.12.27.23.4.35.72,1.31.49,2.75.55,4.15.05,1.41.04,2.82.02,4.22.02,1.43.07,2.85-.1,4.28-.07.53-.25,1.03-.58,1.45-4.52,2.68-7.5,7.04-11.35,10.46"/><path class="cls-211" d="M.64,72.7c2.54-1.98,5.03-4.22,6.87-6.82,1.08-1.51,2.03-1.73,3.49-1.69,1.01.82.94,1.97.98,3.09.06,1.47.05,2.94.01,4.41.05,1.47.04,2.94,0,4.41.07,1.49.04,2.97,0,4.46.08,2.82.09,5.65,0,8.47.03,1.49.07,2.98,0,4.47.04,1.47.05,2.95,0,4.42.04,1.47.05,2.94,0,4.4.05,1.48.05,2.96,0,4.44-.03,1.5.29,3.07-.9,4.33q-4.37,0-4.37-4.38c.13-2.65.33-5.24-3.22-6.07-1.61-.38-1.2-2.02-1.13-3.2"/><path class="cls-83" d="M11.11,111.08c0-1.46,0-2.92,0-4.38,1.44-1.09,2.92-1.08,4.45-.2,1.06,1.37.82,2.97.82,4.53-.01,1.56.23,3.16-.83,4.53-1.5,1-2.98,1-4.44-.1,0-1.46,0-2.91,0-4.37Z"/><path class="cls-240" d="M11.11,115.45c1.43.01,2.86.02,4.28.04.13.1.25.2.38.3.61,1.24.61,2.48,0,3.72-.13.1-.26.19-.39.29-1.42,0-2.84.02-4.27.03,0-1.46,0-2.92,0-4.38Z"/><path class="cls-242" d="M62.77,137.51c-.06-1.51-.08-3.03-.01-4.54,0-1.51-.22-3.06.79-4.38.07-7.3.14-14.59.21-21.89"/><path class="cls-222" d="M72.4,106.7c-2.88,0-5.77,0-8.65,0,0-4.38,0-8.75,0-13.13,2.88,0,5.76,0,8.65,0"/><path class="cls-129" d="M63.55,128.59c0,1.44.01,2.88.02,4.32-1.07,1.06-2.36.85-3.65.62-.32-.1-.58-.29-.79-.54.08-1.48.17-2.96.25-4.44,1.39.02,2.78.03,4.17.05Z"/><path class="cls-102" d="M41.64,119.8c.08,2.94.16,5.87.23,8.81,0,0-.22-.05-.22-.05-2.99,1.34-3.86,1.11-5.09-1.58-.42-.91-.85-1.64-1.87-1.88-.3-.07-.78-.11-.86-.31-1.17-3.02-4.73-3.85-6.07-6.67-.32-.67-.5-1.45-1.31-1.6-3.04-.57-3.24-2.76-3.08-5.19.03-1.43-.17-2.89.5-4.24.13-.13.25-.26.38-.39,2.41-.11,5.03-.51,4.45,3.35,2.71.83,3.79,3.34,5.57,5.03,1.23,1.17,3.06,1.17,3.36,3.75.23,1.91,2.62.67,4.01.97Z"/><path class="cls-209" d="M28.62,89.2c0,2.92,0,5.83,0,8.75-1.46,0-2.92,0-4.38,0-.11-.1-.22-.21-.33-.31-.48-1.71-.9-3.42-3.22-3.53-.77-.03-1.39-.7-1.41-1.46-.08-2.41-1.93-2.62-3.62-3.08-.3-.19-.51-.43-.66-.75-.59-2.65-.58-5.29-.03-7.94.15-.34.39-.61.7-.82,1.4-.58,2.78-.61,4.12.16.97,1.78,1.24,4.2,4.08,4.25.47,0,.87.63.91,1.15.15,2.22,1.8,2.75,3.52,3.23.11.11.21.23.32.34Z"/><path class="cls-102" d="M24.24,97.95c0,2.92,0,5.83,0,8.75h0c-3.08,1.33-4.09,1.1-5.16-1.73-.6-1.6-1.84-1.71-3.07-2.09-.33-.14-.6-.35-.83-.63-.65-1.4-.65-2.8,0-4.2.23-.3.53-.52.88-.67,2.76-.35,5.55-.99,8.18.57h0Z"/><path class="cls-171" d="M33,102.33q4.38,0,4.37,4.38-4.38,0-4.37-4.38Z"/><path class="cls-208" d="M28.62,97.95q4.38,0,4.38,4.38-4.38,0-4.38-4.38Z"/><path class="cls-135" d="M37.39,84.82c0,1.46,0,2.92,0,4.37,0,1.46,0,2.92-.01,4.38-2.28,0-4.63.7-4.6-3.27.01-2.1-2.72-.71-4.15-1.11h0c-1.54-2.8-1.21-5.67-.31-8.56,3.02-1.63,4.33-1.4,5.5,1.51.72,1.8,2.52,1.62,3.56,2.68h.01Z"/><path class="cls-128" d="M24.24,111.08c-.13,2.43-.48,5.02,3.36,4.45.77,2.77,3.68,3.73,4.99,5.56,1.17,1.64,1.28,3.46,3.86,3.24.58-.05.94.56.87,1.09-.56,3.85,2.1,3.18,4.33,3.13,0,2.93,0,5.86.01,8.79-2.42,1.5-5.04.98-7.57.57-1.85-.3-1.94-2-1.94-3.47,0-2.45.17-4.89-3.11-5.54-.74-.15-.75-1.31-1.24-1.68-2.66-2.02-4.05-5.39-7.27-6.77-.31-.11-.58-.29-.82-.51-.37-2.41-1.83-3.83-4.11-4.53l-.2.07c.07-1.47.13-2.94.2-4.41,2.88-1.48,5.76-1.43,8.64,0Z"/><path class="cls-25" d="M19.87,119.83c2.42-.12,5.03-.5,4.45,3.35,2.75.8,4.56,2.54,5.31,5.32,4.47-.53,3.48,2.75,3.3,5.07-.23,2.96.7,4.19,3.75,3.8,1.63-.21,3.31-.03,4.97-.03.08,2.9.15,5.79.23,8.69-.12.13-.25.26-.37.39-1.34.7-2.79.49-4.21.53-1.38,0-2.78.13-4.08-.53-1.08-1.91-1.61-4.39-4.54-4.4-.27-.21-.48-.47-.61-.78.32-5.08-1.05-8.56-7.15-7.68-.38.05-.73-.35-1.05-.61,0,0-.02.01-.02.01,0-2.92,0-5.83,0-8.75-1.05-1.46-1.15-2.93,0-4.39Z"/><path class="cls-143" d="M41.89,146.04c1.41-.06,2.81-.11,4.22-.17.08.09.1.19.06.3.99,1.26.85,2.63.38,4.03-.18.33-.44.57-.78.74-1.48.44-2.92.57-4.21-.53-.82-1.43-.9-2.86.05-4.28l.28-.1Z"/><path class="cls-160" d="M24.25,36.68c1.46,0,2.91,0,4.37,0,0,2.91,0,5.83.01,8.74-.12.12-.25.24-.37.36-1.36.56-2.71.56-4.04-.13-.27-.26-.46-.56-.59-.91-.27-2.72-.94-5.48.6-8.06h.01Z"/><path class="cls-33" d="M37.38,49.81v4.38c-1.37,1.04-2.79,1.02-4.26.24-1.17-1.29-1.08-2.72-.5-4.22.13-.14.26-.27.39-.41,1.46,0,2.91,0,4.37,0Z"/><path class="cls-252" d="M28.63,45.43c4.87.05,4.32-.49,4.38,4.38,0,0-.01,0-.01,0-1.4,1.07-3,1.26-4.27.11-1.41-1.29-1.21-2.96-.11-4.48h0Z"/><path class="cls-109" d="M33,54.19c1.46,0,2.91,0,4.37,0,0,1.46.01,2.91.02,4.37,0,1.46,0,2.92,0,4.38,0,0-.02,0-.02,0-3.85,1.69-5.13.74-5.27-3.9.06-1.49-.18-3.02.51-4.45.13-.14.26-.27.39-.41Z"/><path class="cls-95" d="M37.38,67.32c0,2.92,0,5.83.01,8.75,0,0-.02,0-.02,0-1.5,1.11-3.02,1.11-4.56.09-1.18-2.96-1.15-5.92-.03-8.89,1.54-1.08,3.07-1.08,4.59.05h.01Z"/><path class="cls-214" d="M33,76.07c1.45,0,2.91,0,4.36,0,0,2.92,0,5.84,0,8.75-2.28,0-4.62.68-4.6-3.27.01-2.09-2.72-.71-4.15-1.11-.13-.14-.25-.28-.38-.42-.57-1.49-.69-2.94.45-4.26,1.5-.76,2.94-.77,4.32.29Z"/><path class="cls-166" d="M50.57,141.78c1.42-.05,2.85-.1,4.27-.15.12.11.24.22.36.33.6,1.26.53,2.54.13,3.83-.15.31-.37.54-.67.71-1.3.47-2.59.53-3.87-.09-.11-.13-.22-.25-.32-.38.03-1.41.07-2.83.1-4.24Z"/><path class="cls-70" d="M46.06,150.42c.04-1.41.08-2.83.11-4.24,1.43-.05,2.86-.1,4.29-.16l.13.25c1.04,1.49.98,2.97-.06,4.43-1.55.8-3.06.95-4.48-.28Z"/><path class="cls-97" d="M54.84,141.63c.03-1.42.07-2.83.1-4.25h-.02c1.44-1.14,2.92-1.12,4.42-.12,1.02,1.48,1,3,.13,4.54-1.48,1-2.98,1.04-4.51.12-.07-.08-.11-.18-.12-.29Z"/><path class="cls-122" d="M59.26,137.33c-1.45.02-2.89.04-4.34.06,0-1.47-.02-2.95-.03-4.42,1.41,0,2.82.01,4.23.02l.26-.04c.86,1.29.84,2.63.25,4-.12.12-.25.25-.37.37Z"/><path class="cls-169" d="M15.41,36.71c.04-1.48.09-2.96.13-4.43,1.44.01,2.88.03,4.32.04,0,1.45,0,2.91,0,4.36-.13.12-.25.24-.38.36-1.38.57-2.72.65-3.94-.39l-.14.06Z"/><path class="cls-220" d="M24.24,36.69c0,2.92,0,5.83,0,8.75-3.44,1.59-5.13.73-5.31-2.86-.1-2-.49-4.1.92-5.89h0c1.46,0,2.91,0,4.37,0Z"/><path class="cls-141" d="M37.37,67.32c-1.46,0-2.91,0-4.37,0-1.5,1.11-3.02,1.11-4.56.09-1.19-2.96-1.16-5.93-.03-8.9,1.54-1.08,3.07-1.07,4.59.05.06,4.87-.5,4.33,4.37,4.38,0,1.46,0,2.92,0,4.38Z"/><path class="cls-197" d="M2.35,150.47c2.92,0,5.84,0,8.75,0,1.11,1.54,1.15,3.08,0,4.62-1,.68-2.15.74-3.29.74"/><path class="cls-106" d="M11.11,154.84c0-1.46,0-2.92,0-4.37,1.46,0,2.92,0,4.38,0,1.46,0,2.92,0,4.38,0,1.5-1.09,3-1.1,4.5-.01.96,1.56,1.01,3.11-.1,4.63-4.41,1.05-8.8,1.49-13.16-.23Z"/><path class="cls-221" d="M19.87,119.83c0,1.46,0,2.92,0,4.39-1.42,0-2.84.02-4.26.02-.07-1.48-.14-2.96-.22-4.44l.22.07c1.41-1.17,2.84-1.08,4.27-.03Z"/><path class="cls-139" d="M24.25,150.49c-1.46,0-2.92-.02-4.38-.03,0-1.46,0-2.91,0-4.37,1.48-.01,2.95-.03,4.43-.04.11.12.21.24.32.36.51,1.25.52,2.5-.03,3.74-.11.11-.23.23-.34.34Z"/><path class="cls-136" d="M19.88,132.95c2.74.18,6.24-1.13,8.04.53,1.98,1.83.42,5.43.7,8.24-1.46,1.2-2.94,1.02-4.43.08-1.44-.07-2.88-.14-4.32-.21-.01-1.41-.02-2.81-.03-4.22.02-1.47.03-2.95.05-4.42Z"/><path class="cls-164" d="M24.19,141.8c1.48-.03,2.95-.05,4.43-.08l-.03.03c1.15,1.45,1.14,2.95.18,4.49-1.54.96-3.05.96-4.52-.16,0,0,.04-.03.04-.03-.03-1.42-.07-2.84-.1-4.25Z"/><path class="cls-253" d="M72.42,93.57s-.02,0-.02,0"/><path class="cls-183" d="M11.21,45.43c1.4,0,2.79.01,4.19.02,1.27,1.41,1.11,2.88.21,4.39-1.48,1.04-2.95,1.1-4.4-.07,0,0-.2.07-.2.07.07-1.47.13-2.94.2-4.42Z"/><path class="cls-182" d="M15.41,49.85c0-1.47,0-2.93,0-4.4,0-1.46,0-2.91,0-4.37.05-1.47.1-2.95.15-4.42,1.44.01,2.87.02,4.31.03,0,1.43,0,2.85,0,4.28.05,4.9-.54,4.44,4.38,4.47,1.66,2.63.71,5.53.89,8.32-.04,1.47.12,2.97-.39,4.4-.16.35-.4.62-.73.81-1.43.55-2.83.6-4.17-.27-1.02-1.2-.94-2.69-.81-4.06.25-2.56-.69-4.06-3.28-4.44-.12-.11-.24-.23-.36-.35Z"/><path class="cls-113" d="M11.21,67.31c-.07-1.04-.13-2.08-.2-3.12.07-.42.13-.84.2-1.26,1.45-1.12,2.92-1.04,4.39-.03.98,1.49.97,3,.07,4.53-1.51.97-3,1.04-4.46-.12Z"/><path class="cls-243" d="M15.37,62.91c-1.39,0-2.78.01-4.17.02,0-1.46,0-2.92,0-4.38,1.17-.99,2.49-.84,3.84-.49.32.13.58.35.78.63.55,1.31.61,2.61-.05,3.91-.13.1-.27.2-.4.31Z"/><path class="cls-170" d="M15.4,58.6c-1.4-.01-2.79-.03-4.19-.04,0-1.46,0-2.92,0-4.38,1.48-1.14,2.97-1.06,4.48-.06.84,1.56,1.01,3.07-.29,4.49Z"/><path class="cls-13" d="M15.39,54.21c-1.39-.01-2.79-.02-4.18-.03,0-1.47,0-2.94,0-4.4,1.4.03,2.8.05,4.19.08,0,0,.16-.07.16-.07.97,1.52,1.12,3-.18,4.43Z"/><path class="cls-58" d="M15.37,80.42c.01,2.94.02,5.88.03,8.82-1.42,1.1-2.83,1.01-4.23-.05,0-2.92,0-5.83,0-8.75,1.39-1.03,2.79-1.1,4.19-.02Z"/><path class="cls-196" d="M15.38,106.71c-1.42,0-2.84,0-4.27,0,0-1.46,0-2.92.01-4.38,1.43-1.05,2.86-1.11,4.26.05l.19-.08c.96,1.52,1.11,3-.2,4.42Z"/><path class="cls-200" d="M15.39,102.37c-1.42-.02-2.84-.03-4.26-.05,0-1.46,0-2.92.01-4.38,1.41-1.02,2.82-1.13,4.24-.02,0,1.48,0,2.96.01,4.45Z"/><path class="cls-223" d="M15.38,97.92c-1.41,0-2.83.01-4.24.02,0-1.46,0-2.92.01-4.38,1.47-1.11,2.96-1.08,4.49-.13.95,1.52.94,3.04-.04,4.55l-.23-.07Z"/><path class="cls-14" d="M15.39,93.58c-1.41,0-2.82-.01-4.23-.02,0-1.46.01-2.92.02-4.38,1.41.02,2.82.03,4.23.05l.19-.08c.95,1.52,1.1,3.01-.2,4.42Z"/><path class="cls-18" d="M15.37,80.42c-1.4,0-2.8.01-4.19.02,0-1.46.01-2.92.02-4.38,1.46-1.12,2.95-1.05,4.46-.11.93,1.52.93,3.03-.05,4.53l-.23-.06Z"/><path class="cls-126" d="M15.39,76.08c-1.4,0-2.79-.02-4.19-.03,0-1.46,0-2.92,0-4.37,1.47-1.12,2.94-1.04,4.41-.01.9,1.52,1.07,3-.23,4.41Z"/><path class="cls-249" d="M15.37,71.66c-1.39,0-2.78.01-4.17.02,0-1.46,0-2.92,0-4.38,1.39,0,2.78.01,4.18.02,1.24,1.22,1.02,2.59.41,4-.14.11-.28.23-.42.34Z"/><path class="cls-180" d="M15.38,106.71c.07-1.47.13-2.95.2-4.42,2.14.13,4.53-.69,4.5,3.21-.02,2.27,2.73.77,4.16,1.21,0,1.46,0,2.92,0,4.38-2.88,0-5.76,0-8.64,0-.07-1.46-.15-2.91-.22-4.37Z"/><path class="cls-206" d="M19.87,119.83c-1.42.01-2.85.02-4.27.03,0-1.48,0-2.97,0-4.45,4.37.22,4.28-.94,4.27,4.42Z"/><path class="cls-79" d="M65.18,152.09c-1.03.57-.5,2.31-.62,3.53"/><path class="cls-79" d="M55.4,155.79c-2.06.06-4.13.04-6.19-.02-1.13-.03-2.28-.05-3.24-.82-.94-1.54-.92-3.05.15-4.53,0,0-.06,0-.06,0,1.48.01,2.96.03,4.44.04,2.29-.64,3.75-2.09,4.38-4.39h0c2.31-.62,3.75-2.11,4.38-4.41,0-1.45,0-2.89,0-4.34l-.02-.02c1.46-1.03,2.92-1.09,4.39-.03.12,2.81,1.65,4.09,5.4,4.41,1.12.1,2.25.02,3.38.02"/><path class="cls-8" d="M72.41,132.96c0-8.75,0-17.5,0-26.26,0-1.46,0-2.92,0-4.38"/><path class="cls-247" d="M72.41,146.09v-4.38c0-2.92,0-5.84,0-8.75"/><path class="cls-131" d="M63.63,137.28c-1.46,0-2.93.02-4.39.03.05-1.45.1-2.9.15-4.36,1.39-.01,2.78-.03,4.18-.04.02,1.46.04,2.91.06,4.37Z"/><path class="cls-20" d="M72.41,102.33c0-2.92,0-5.84,0-8.76"/><path class="cls-80" d="M15.39,93.58c.07-1.47.14-2.95.2-4.42,2.39-.06,4.9-.32,4.38,3.4-.08.54.48,1.02,1,.94,3.98-.6,3.27,2.18,3.27,4.45-2.88.01-5.76.02-8.64.03-.07-1.47-.15-2.94-.22-4.41Z"/><path class="cls-161" d="M28.62,80.45c0,2.92,0,5.83,0,8.75-2.35.07-5.03.61-4.47-3.31.08-.53-.44-1.06-.98-.98-3.91.56-3.38-2.11-3.32-4.46.13-.12.26-.25.39-.37,1.35-.66,2.8-.44,4.22-.49,1.45-.03,2.93-.18,4.15.86h0Z"/><path class="cls-85" d="M15.39,76.08c0-1.47,0-2.94-.01-4.42l.23.06c1.48-1.18,2.96-1.11,4.45,0,1.12,2.93,1.34,5.84-.17,8.71,0,0,0,0,0,0-1.42.01-2.84.02-4.26.03-.07-1.47-.15-2.93-.22-4.4Z"/><path class="cls-248" d="M28.68,146.01c-.03-1.42-.06-2.84-.09-4.26q4.43-.08,4.4,4.19c-.11.14-.22.29-.33.43-1.4.64-2.76.84-3.98-.37Z"/><path class="cls-61" d="M32.99,145.94c1.44.07,2.89.14,4.33.22,1.18,1.42,1.14,2.9.23,4.43-1.51.97-3.02.96-4.54.03-1.07-1.47-1.16-2.94,0-4.4l-.03-.28Z"/><path class="cls-168" d="M37.45,150.4c-.04-1.42-.09-2.83-.13-4.25,1.43,0,2.87-.01,4.3-.02.04,1.41.09,2.81.13,4.22-.11.14-.23.27-.34.41-1.39.62-2.74.81-3.96-.36Z"/><path class="cls-185" d="M46.12,150.43c0,1.47,0,2.94,0,4.41-1.43,1.15-2.89,1.03-4.39.14-1.02-1.46-1.13-2.91.06-4.34.08-.11.06-.2-.05-.28,1.46.02,2.91.05,4.37.07Z"/><path class="cls-54" d="M24.25,54.18c0-2.92,0-5.83,0-8.75,1.46,0,2.92,0,4.38,0q0,4.37,4.37,4.38c0,1.46,0,2.91,0,4.37h0c-2.92,1.47-5.83,1.48-8.74,0Z"/><path class="cls-46" d="M24.25,54.18c2.91,0,5.83,0,8.74,0,0,1.46,0,2.92,0,4.37-1.46,0-2.92,0-4.38,0-1.46,1.06-2.92,1.15-4.37-.01,0-1.46,0-2.92,0-4.37Z"/><path class="cls-152" d="M28.63,67.31c1.46,0,2.91,0,4.37,0,0,2.92,0,5.83,0,8.75-1.46,0-2.92,0-4.38,0-.84-1.84-1.24-4.12-4.05-3.93-.3-.15-.53-.36-.7-.64-.53-1.32-.53-2.64-.02-3.97.18-.31.44-.54.76-.7,1.41-.44,2.78-.52,4.01.48Z"/><path class="cls-7" d="M24.24,71.69c4.95.03,4.32-.42,4.38,4.37,0,1.46,0,2.92,0,4.38-1.46,0-2.92,0-4.37,0-1.46-2.92-1.52-5.83,0-8.75Z"/><path class="cls-218" d="M59.25,141.67q.03,4.43-4.38,4.41c.03-1.39.06-2.78.09-4.17,1.43-.08,2.86-.16,4.29-.25Z"/><path class="cls-189" d="M54.89,146.08q.02,4.39-4.38,4.39c.03-1.4.07-2.8.1-4.19,1.43-.06,2.86-.13,4.28-.19Z"/><path class="cls-88" d="M28.63,67.31c-1.46,0-2.92,0-4.37,0-1.53-2.91-1.45-5.83-.01-8.74,0,0,0-.01,0-.01,1.46,0,2.92,0,4.37.01,0,2.92,0,5.83,0,8.75Z"/><path class="cls-118" d="M11.11,154.84c4.38,0,8.76,0,13.14,0,.58-.41,1.1-.34,1.57.2"/><path class="cls-189" d="M25.49,154.85c-.42,0-.83,0-1.25,0v-4.35s0-.04,0-.04c1.47-1.08,2.97-1.08,4.51-.15.98,1.51.96,3.04.09,4.59-1.13.85-2.24.79-3.34-.05Z"/><path class="cls-190" d="M28.62,150.47c-1.46,0-2.92-.01-4.38-.02,0-1.46,0-2.92,0-4.37,1.48-.02,2.95-.05,4.43-.07,1.45.07,2.89.14,4.34.21,0,1.41,0,2.83,0,4.24-.13.12-.25.25-.38.37-1.4.6-2.75.63-4.01-.36Z"/><path class="cls-40" d="M15.39,54.21c.06-1.48.12-2.95.18-4.43,4.39.21,4.31-.91,4.3,4.43,0,1.45,0,2.91,0,4.36-.13.12-.25.24-.37.36-1.38.57-2.7.67-3.92-.4,0,0-.18.07-.18.07,0-1.46,0-2.93,0-4.39Z"/><path class="cls-137" d="M24.24,58.57c0,2.91,0,5.83.01,8.74,0,0,0,0,0,0-1.44,1.09-2.93,1.09-4.46.2-1.05-1.37-.82-2.97-.82-4.52,0-1.54-.22-3.12.9-4.43,0,0,0,0,0,0,1.46,0,2.91,0,4.37.01Z"/><path class="cls-90" d="M19.86,62.94c0,1.46,0,2.91,0,4.37.99,1.25.96,2.6.37,4-.12.13-.25.25-.37.38-1.42,0-2.84.02-4.26.03-.07-1.47-.14-2.93-.22-4.4,0-1.47,0-2.94-.01-4.41,0,0,.22.06.22.06,1.41-1.16,2.84-1.07,4.27-.03Z"/><path class="cls-228" d="M19.86,62.94c-1.42.01-2.84.02-4.27.03,0-1.48-.01-2.96-.02-4.45,1.43.01,2.86.03,4.28.04,0,1.46,0,2.92,0,4.38Z"/><path class="cls-105" d="M41.37,155.24c.13-.14.25-.27.38-.41,1.46,0,2.92,0,4.37,0,3.6,0,7.2.06,10.8-.02"/><path class="cls-153" d="M63.65,153.37c0-.62-.07-1.27.1-1.85.55-1.85,3.99-.19,3.84-3.65-.15-3.31,3.16-1.15,4.82-1.78"/><path class="cls-239" d="M24.24,71.69c0,2.92,0,5.83,0,8.75-1.46,0-2.92,0-4.38,0,0-2.91,0-5.83,0-8.74,0,0,0,0,0,0,1.46-1.1,2.92-1.09,4.38,0h0Z"/><path class="cls-246" d="M41.8,150.64c-.01,1.4-.03,2.8-.04,4.19,0,0,.01.02.01.02-1.31,1.1-2.88.89-4.41.89-1.56,0-3.15.23-4.53-.78-.92-1.53-.92-3.03.18-4.48,0,0,0-.01,0-.01,1.48-.02,2.96-.04,4.44-.06,1.45.08,2.9.15,4.35.23Z"/><path class="cls-60" d="M24.25,71.69c-1.46,0-2.92,0-4.38,0,0-1.46,0-2.92,0-4.38,1.46,0,2.92,0,4.38,0,0,1.46,0,2.92,0,4.38Z"/><path class="cls-242" d="M25.49,154.85c1.04,0,2.09,0,3.13,0,1.46-1.1,2.92-1.09,4.38,0,1.46,0,2.91.01,4.37.02"/><path class="cls-215" d="M33.01,154.83c-1.46,0-2.92,0-4.38,0,0-1.46,0-2.91,0-4.37,1.46,0,2.92,0,4.38,0,0,1.45,0,2.91,0,4.36Z"/><path class="cls-79" d="M37.38,154.85c1.46,0,2.92,0,4.39,0"/><path class="cls-39" d="M67.99,153.32c-.08-2.1.51-3.08,2.77-2.89"/></g><g class="cls-257"><path class="cls-153" d="M81.91,77.56c1,1.3.96,2.68.28,4.1-2.21.9-4.18,2.04-4.64,4.69-1.24.82-2.57.74-3.92.37-1.29-.43-1.59-1.77-2.49-2.78"/><path class="cls-124" d="M112.07,77.55c0,1.39-.02,2.77-.02,4.16-.11.15-.23.29-.34.44-1.45.69-2.85.74-4.15-.35-.81-1.43-.86-2.84.14-4.22,1.46,0,2.91-.02,4.37-.03Z"/><path class="cls-65" d="M107.7,77.58c.01,1.39.03,2.78.04,4.17-.12.14-.24.28-.36.42-1.45.67-2.86.73-4.19-.31-.75-1.45-.84-2.87.19-4.23,1.44-.01,2.88-.03,4.32-.04Z"/><path class="cls-51" d="M103.38,77.62c.04,1.39.08,2.77.13,4.16-1.25,1.23-2.67,1-4.12.48-1.33-1.1-1.06-2.54-.86-3.98.11-.35.3-.64.57-.88,1.43.07,2.85.14,4.28.22Z"/><path class="cls-244" d="M81.82,81.66c.03-1.37.06-2.74.09-4.11,1.41-.07,2.82-.13,4.23-.2.25.18.43.41.55.69.29,1.19.32,2.37-.08,3.55-.15.27-.35.49-.62.65-1.19.44-2.38.44-3.59.08-.29-.14-.47-.36-.58-.66Z"/><path class="cls-121" d="M94.76,73.27q4.41-.06,4.35,4.14l-.08.14.12.11c-1.27.87-2.61.79-3.99.35-.33-.16-.57-.4-.75-.72-.49-1.39-.59-2.75.36-4.02Z"/><path class="cls-191" d="M94.76,73.27c.04,1.4.07,2.8.11,4.2-1.41,1.26-2.88,1.1-4.39.2-1.05-1.49-1.07-2.95.1-4.39,1.39,0,2.79,0,4.18,0Z"/><path class="cls-114" d="M90.57,73.27c-.03,1.41-.07,2.81-.1,4.22-.12.13-.23.25-.35.38-1.34.61-2.64.66-3.88-.25,0,0-.1-.26-.1-.26q.13-4.16,4.43-4.09Z"/><path class="cls-35" d="M120.76,83.09c-.04,1.05-.08,2.1-.12,3.16-1.24.92-2.57.8-3.94.37-.32-.16-.57-.4-.74-.71-.47-1.38-.6-2.73.35-3.98,1.51.3,3.45-1.08,4.45,1.17Z"/><path class="cls-82" d="M116.31,81.92c.04,1.4.07,2.79.11,4.19-1.41,1.22-2.89,1.08-4.42.26-1-1.48-1.08-2.95.07-4.41l-.12-.12.09-.14c1.42.07,2.84.15,4.27.22Z"/><path class="cls-174" d="M64.97,86.18c2.57.13,5,.15,5.27-3.33.03-.41.25-.78.73-.84.63-.08.97.3,1.01.85.09,1.27.85,2.26,1.31,3.37.97,1.2.85,2.53.45,3.89-.14.31-.35.55-.64.73-3.05-.14-3.18,2.78-4.59,4.38"/><path class="cls-23" d="M73.32,90.53c-.01-1.43-.02-2.87-.03-4.3,1.4-.08,2.81-.16,4.21-.23.14.13.27.26.41.39.66,1.49.72,2.93-.29,4.31-1.47.78-2.91.91-4.31-.16Z"/><path class="cls-229" d="M77.49,86c-.67-3.55,1.17-4.6,4.33-4.34,0,0,.12.28.12.28.95,1.22.81,2.56.39,3.92-.16.32-.4.56-.71.74-1.37.47-2.72.6-3.98-.33l-.14-.27Z"/><path class="cls-140" d="M112.07,81.97c.02,1.39.04,2.78.07,4.16-1.47,1.2-3.13,1.3-4.41,0-1.19-1.19-1.11-2.77.06-4.14l.07-.15-.12-.11c1.44.07,2.89.15,4.33.22Z"/><path class="cls-184" d="M107.79,82q-.06,4.21,4.35,4.13c1.43,0,2.85-.01,4.28-.02l-.06.08c1.12,1.28.89,2.83.9,4.33.1,1.53.04,3.05.01,4.58.15,9.91.14,19.81.01,29.71.08,4.29.12,8.58-.01,12.87,0,1.51.21,3.05-.59,4.45-1.79,1-4.03,1.47-4.38,4.1-.09.7-1.04.91-1.74,1.09-.95.25-1.51.81-1.95,1.73-1.37,2.88-2.38,3.15-5.49,1.69-1.14-2.77-.5-5.66-.59-8.51-.09-2.89-.09-5.78,0-8.67-.08-4.18-.11-8.35,0-12.52-.02-1.21-.15-2.44.03-3.62.44-2.86-.64-4.61-3.47-5.27-.82-1.84-1.46-3.84-3.95-4.12-.38-.04-.74-.48-.79-.88-.38-3-2.51-3.01-4.77-2.9-2.1.1-3.88-.26-4.36-2.81-.34-1.81-2.4-1.31-3.41-2.27-.65-3.1-2.7-3.93-5.61-3.57-1.09.13-2.26-.01-3.15-.89-.85-1.46-.86-2.89.19-4.26l.05.05c1.4-.03,2.79-.05,4.19-.08,2.28-.61,3.76-2.02,4.36-4.32h-.04c2.29-.58,3.74-2.02,4.35-4.3h-.03c2.26-.59,3.71-2.01,4.39-4.23l-.07-.12c1.46,0,2.93-.01,4.39-.02l-.07.14c.67,2.24,2.16,3.62,4.41,4.21,1.44-.01,2.87-.03,4.31-.04,1.43.07,2.86.15,4.28.22Z"/><path class="cls-74" d="M99.2,81.82q-4.34.08-4.41-4.21c1.45.02,2.9.03,4.35.05.02,1.39.04,2.78.06,4.16Z"/><path class="cls-194" d="M86.18,81.83q.03,4.38-4.35,4.29c.04-1.4.07-2.79.11-4.19,1.41-.03,2.83-.07,4.24-.1Z"/><path class="cls-107" d="M90.54,77.6q-.08,4.3-4.39,4.22c.03-1.4.06-2.8.09-4.2,1.43,0,2.86-.01,4.3-.02Z"/><path class="cls-238" d="M120.8,89.86c-.07.2-.14.41-.21.61-1.39,1.11-2.79,1.04-4.19.02-.01-1.43-.02-2.86-.04-4.29,1.43.02,2.85.03,4.28.05.05,1.21.1,2.41.15,3.62Z"/><path class="cls-242" d="M69.15,107.64c.7.96.76,2.09.76,3.2,0,7.51.13,15.03-.05,22.54-.12,2.92.58,5.9-.62,8.75"/><path class="cls-222" d="M68.94,94.79c.13.13.26.27.39.4.97,2.7.38,5.49.5,8.24-.03,1.48.29,3.04-.89,4.28"/><path class="cls-253" d="M73.26,90.48c.04,1.45.07,2.9.11,4.34-.13.12-.27.23-.4.35-1.41.57-2.76.61-4.01-.39,0,0-.02,0-.02,0,.08-4.7-.62-4.29,4.32-4.31Z"/><path class="cls-115" d="M81.86,86.13q.05,4.38-4.36,4.32c.04-1.39.09-2.79.13-4.18,1.41-.04,2.82-.09,4.23-.13Z"/><path class="cls-34" d="M116.46,124.97c-.01-10.06-.03-20.11-.04-30.17,1.4-1.05,2.79-1.11,4.17.02l.21-.07c.99,1.34.78,2.9.78,4.41.08,2.82.08,5.64,0,8.46.05,2.8.08,5.61,0,8.41,0,.38,0,.75,0,1.13-.13,2.64.6,5.36-.72,7.89-1.49.95-2.96,1.03-4.41-.1Z"/><path class="cls-48" d="M81.89,99.1c2.39-.13,4.89-.49,4.43,3.31-.1.87.87.98,1.61.99,1.43.01,2.86.08,4.29,0,1.68-.1,2.82.25,2.62,2.3-.08.79-.08,2.01.98,1.9,3.8-.42,3.45,2.05,3.32,4.44-.14.13-.27.26-.41.38-2.73.75-5.46.91-8.15-.17-.81-3.04-2.81-4.11-5.86-3.68-.99.14-2.04-.04-2.9-.74-.97-1.24-.8-2.7-.79-4.13.04-1.41-.17-2.86.49-4.21.12-.13.25-.26.37-.39Z"/><path class="cls-187" d="M103.47,150.81c2.36.13,4.91.53,4.38-3.27-.07-.53.45-1.03.97-.95,2.8.42,3.11-1.1,3.5-3.46.3-1.82,2.61-.6,3.98-.95,1.28,1.22.92,2.8.97,4.29.02,1.48.18,2.98-.61,4.33-1.9.88-3.31,1.95-4.56,3.96-1.03,1.67-3.34,2.7-4.6,4.76-.76,1.24-2.78.95-4.18-.07-.94-1.32-.76-2.83-.75-4.32.04-1.5-.31-3.09.91-4.34Z"/><path class="cls-198" d="M116.46,124.97c1.38,0,2.76,0,4.13-.01.33.23.56.54.71.91.36,4.04.92,8.09-.4,12.08-1.49,1.02-2.97,1.09-4.44-.04,0-4.31,0-8.63,0-12.94Z"/><path class="cls-49" d="M103.44,120.65c0,4.31,0,8.62,0,12.93-1.4,1.06-2.83,1.04-4.3.14-1.07-1.27-.87-2.79-.87-4.28-.02-1.42-.04-2.84.02-4.26.04-1.4-.12-2.82.38-4.18.16-.33.4-.59.72-.77,1.42-.52,2.8-.6,4.06.42Z"/><path class="cls-10" d="M103.47,150.81c-.02,1.44-.03,2.89-.05,4.33-1.41,1.07-2.87,1.05-4.37.2-1.03-1.33-.81-2.88-.81-4.4-.04-1.48-.05-2.97,0-4.45,0-1.51-.21-3.07.82-4.39,1.47-.96,2.92-.98,4.34.11.02,2.87.04,5.73.05,8.6Z"/><path class="cls-204" d="M103.44,120.65c-1.43,0-2.87,0-4.3,0-1.5-2.87-1.43-5.74-.01-8.61h0q4.31,0,4.31,4.4c0,1.41,0,2.81,0,4.22Z"/><path class="cls-68" d="M103.42,142.21l-4.27-.02c-.12-.12-.24-.24-.36-.35-.63-1.26-.44-2.62-.49-3.95.04-1.33-.15-2.7.49-3.96.12-.12.24-.23.37-.35,1.42,0,2.85,0,4.27,0,0,2.87,0,5.75-.01,8.62Z"/><path class="cls-55" d="M116.46,137.9c1.38,0,2.75-.02,4.13-.02,1.52,1.6.89,3.59.98,5.44,0,1.16.03,2.34-.74,3.33-1.48.9-2.94.98-4.37-.13-.06-1.45-.11-2.89-.17-4.34.05-1.43.11-2.86.16-4.28Z"/><path class="cls-167" d="M73.37,94.82c1.43-.01,2.86-.03,4.28-.03q4.22,0,4.23,4.31h0c-2.86,1.51-5.75,1.27-8.68.21-1.07-1.51-1.04-3.03-.05-4.56,0,0,.21.07.21.07Z"/><path class="cls-108" d="M120.59,94.82c-1.39,0-2.78-.01-4.17-.02,0-1.44,0-2.87-.01-4.31,1.4,0,2.79-.01,4.19-.02,0,1.45,0,2.9,0,4.35Z"/><path class="cls-8" d="M68.94,107.72c0-1.44,0-2.87,0-4.31,1.41-1.06,2.85-1.05,4.32-.14,1.07,1.29.86,2.84.87,4.34.04,1.46.05,2.92,0,4.37.04,1.44.05,2.88,0,4.32.04,1.44.05,2.87,0,4.31.04,1.44.05,2.88,0,4.32.05,1.46.04,2.92,0,4.38,0,1.51.21,3.06-.83,4.37-1.48.96-2.93.96-4.36-.11,0-8.62,0-17.24,0-25.86Z"/><path class="cls-247" d="M68.95,133.58c1.41.01,2.81.02,4.22.03.13.11.27.23.4.34.72,1.3.49,2.73.54,4.12.07,1.42.03,2.85.02,4.27.02,1.5.21,3.04-.79,4.36-1.51.83-2.98.97-4.4-.2v-4.31c0-2.87,0-5.75,0-8.62Z"/><path class="cls-20" d="M73.15,103.37c-1.4.01-2.8.02-4.2.03,0-2.87,0-5.75,0-8.62,1.4,0,2.8-.02,4.2-.03.07,1.45.14,2.89.21,4.34.86,1.28.86,2.6.19,3.95-.13.11-.27.22-.41.33Z"/><path class="cls-186" d="M120.8,116.34c8.78,0,17.57.06,26.35-.04,2.44-.03,4.32.13,3.8,3.32-.05.3.35.68.55,1.02-.51,1.14-1.61,1.6-2.54,1.15-4.31-2.09-8.85-.8-13.28-1.14-1.53-.12-3.08.02-4.61-.04-.59-.02-1.56-.13-1.68-.45-1.68-4.32-5.38-3.08-8.58-3.22,0-.21,0-.41,0-.62Z"/><path class="cls-77" d="M99.13,112.03c0,2.87,0,5.74.01,8.61,0,0-.01,0-.01,0-1.22.99-2.57.9-3.96.46-.31-.14-.56-.37-.74-.66-.44-1.64-.83-3.05-2.94-3.62-2.3-.62-1.9-2.66-1.32-4.47.12-.11.23-.22.35-.34,2.87,0,5.74,0,8.61,0Z"/><path class="cls-37" d="M81.89,107.71c1.4,0,2.81,0,4.21,0,4.89.04,4.36-.48,4.41,4.31,0,0,0,0,0,0-2.52,1.51-5.22.83-7.87.62-.35-.11-.65-.29-.92-.53-.76-1.31-.75-2.66-.19-4.04.12-.13.24-.25.36-.37Z"/><path class="cls-19" d="M73.36,107.71c-.07-1.45-.14-2.89-.21-4.34l.22.07c2.83-1.52,5.67-1.45,8.51-.03,0,1.43,0,2.87.01,4.3,0,0-.01,0-.01,0-2.84,1.37-5.68,1.5-8.52,0Z"/><path class="cls-155" d="M81.88,103.41c-2.84,0-5.67.02-8.51.03,0-1.45,0-2.9,0-4.35,2.84,0,5.68,0,8.52,0,0,1.44,0,2.87,0,4.31Z"/><path class="cls-251" d="M103.48,159.44c2.36.11,4.89.48,4.37-3.29-.07-.53.45-1.02.97-.95,2.8.42,3.11-1.1,3.5-3.45.3-1.82,2.6-.6,3.97-.95,1.28,1.19.92,2.75.97,4.22,0,1.43.16,2.88-.57,4.21-2.07.95-4.18,1.87-4.5,4.55-2.55.48-3.76,2.31-4.59,4.54-1.43.72-2.84.75-4.2-.17-1.37-2.72-1.06-5.51-.32-8.32.13-.14.27-.27.41-.4Z"/><path class="cls-146" d="M116.46,155.17c-.06-1.45-.11-2.91-.17-4.36.06-1.43.12-2.86.18-4.28,1.37,0,2.75-.02,4.12-.02,1.77,2.8,1.26,5.7.35,8.61-1.48,1.11-2.97,1.16-4.48.06Z"/><path class="cls-86" d="M99.18,155.11c1.42,0,2.83.01,4.25.02.02,1.44.04,2.87.06,4.31,0,0-.08-.01-.08-.01-1.44,1.09-2.9,1.06-4.37.06-.93-1.49-1.06-2.96.15-4.38Z"/><path class="cls-91" d="M99.12,124.96c0,1.44,0,2.87,0,4.31-2.72,1.5-5.51,1.11-8.32.36-1.25-1.7-1.74-3.86-4.36-4.61-1.51-.43-1.17-2.59-.66-4.12.19-.33.45-.58.79-.75,2.79-.49,5.59-1.03,8.26.49h0c.63,2.24,2.06,3.68,4.3,4.32Z"/><path class="cls-195" d="M90.51,129.26c2.87,0,5.74,0,8.6,0,.01,1.44.03,2.87.04,4.31,0,0-.05,0-.05,0-1.25,1.08-2.76.88-4.23.88-1.47,0-2.96.19-4.32-.6-1.1-1.3-1-2.71-.43-4.18.13-.14.25-.27.38-.4Z"/><path class="cls-89" d="M99.12,124.96q-4.3-.02-4.3-4.31c1.44,0,2.87,0,4.31,0,0,1.44,0,2.88,0,4.31Z"/><path class="cls-81" d="M99.18,155.11c0,1.44,0,2.89,0,4.33-.14.12-.27.25-.41.37-1.45.58-2.85.64-4.17-.34-.67-1.77-1.45-3.16-3.5-4.06-2.1-.92-1.75-3.09-.45-4.87,2.84-.93,5.67-1.25,8.43.28.03,1.43.06,2.86.09,4.29Z"/><path class="cls-45" d="M99.15,142.19c-.02,1.44-.04,2.89-.06,4.33-2.84,1.48-5.71,1.29-8.6.13-1.09-1.5-1.08-3.01-.05-4.54,2.9-1.25,5.79-1.41,8.66.11l.05-.02Z"/><path class="cls-232" d="M90.51,146.5c2.86,0,5.72,0,8.58.01,0,1.44,0,2.88,0,4.31-2.86,0-5.72,0-8.58-.01-.11-.11-.22-.22-.33-.33-.53-1.22-.53-2.43,0-3.65.11-.11.22-.22.34-.33Z"/><path class="cls-219" d="M99.11,142.21c-2.87,0-5.73,0-8.6-.01-.1-.1-.21-.19-.31-.29-.05-2.58-1.7-3.48-3.96-3.74-.27-.21-.45-.48-.57-.79-.34-1.43-.47-2.83.64-4.03,1.45-.79,2.86-.81,4.21.23,1.43,0,2.87,0,4.3,0,.64,2.22,2.06,3.68,4.3,4.31,0,1.44,0,2.88,0,4.32Z"/><path class="cls-125" d="M99.11,137.89c-4.74-.07-4.25.52-4.3-4.31,1.43,0,2.86,0,4.29,0,0,1.44,0,2.88,0,4.32Z"/><path class="cls-47" d="M120.79,143.43c1.59.23,2.89-.56,4.21-1.23,1.11.73,1.19,1.84,1.06,3-.24,2.14-.12,4.29-.18,6.44-.11,2.62.62,5.33-.76,7.83-1.47,1.05-2.95,1.03-4.46.09-1.07-1.47-1.04-2.96-.07-4.47,0-2.86,0-5.73,0-8.59.07-1.02.14-2.05.2-3.07Z"/><path class="cls-153" d="M68.95,146.51h4.21c1.28,1.37,1.1,2.81.26,4.3-1.07.98-2.42.87-3.73.92-4.11.15-4.05.15-4.15,4.35-.06,2.5.49,5.06-.6,7.48-1.26,1.24-2.69,1.15-4.2.57-.14-.13-.28-.26-.42-.39,0-3.36,0-6.71,0-10.07,0-.61-.07-1.25.1-1.82.55-1.82,3.93-.19,3.78-3.6-.15-3.26,3.12-1.13,4.74-1.75Z"/><path class="cls-28" d="M73.36,116.33c0-1.44,0-2.87,0-4.31,2.84-1.5,5.68-1.37,8.52,0h0c.94,1.59,1.55,3.19,3.69,4,2.06.77,1.73,2.88.63,4.62h0c-2.54,1.53-5.24.86-7.91.63-.32-.1-.61-.27-.86-.49-.41-2.33-1.75-3.84-4.07-4.45Z"/><path class="cls-84" d="M81.89,112.03c-2.84,0-5.68,0-8.52,0,0-1.44,0-2.87,0-4.31,2.84,0,5.68,0,8.52,0,0,1.44,0,2.87,0,4.31Z"/><path class="cls-234" d="M73.17,133.61c.07-1.45.13-2.9.2-4.35,1.31-1.07,2.71-.97,4.14-.28,1.12,1.25.95,2.68.58,4.14-.14.34-.38.61-.69.82-1.41.55-2.79.69-4.04-.4l-.19.07Z"/><path class="cls-117" d="M77.57,129.27c-1.4,0-2.8,0-4.2,0,0-1.44,0-2.87,0-4.31,1.22-1.01,2.56-.87,3.93-.42.32.17.56.42.73.74.42,1.4.64,2.77-.46,4Z"/><path class="cls-157" d="M77.57,124.96c-1.4,0-2.81,0-4.21,0,0-1.44,0-2.87,0-4.31,1.4-1.12,2.81-1.01,4.21,0h0c1.04,1.44,1.14,2.88,0,4.31Z"/><path class="cls-172" d="M77.57,120.64c-1.4,0-2.81,0-4.21,0,0-1.44,0-2.87,0-4.31,4.66.06,4.18-.51,4.21,4.31Z"/><path class="cls-177" d="M73.16,150.85c0-1.45,0-2.89,0-4.34.07-1.44.14-2.88.21-4.32,1.27-1.03,2.64-.89,4.05-.35.31.21.54.48.69.83.46,2.71.81,5.42-.32,8.08-1.29,1.11-2.72,1.03-4.21.48-.14-.12-.28-.25-.42-.37Z"/><path class="cls-192" d="M77.57,142.2c-1.4,0-2.8,0-4.21-.01,0-1.44,0-2.87,0-4.31,1.43-1.11,2.87-1.03,4.32-.04.91,1.48,1.03,2.93-.12,4.36Z"/><path class="cls-233" d="M77.56,137.89c-1.4,0-2.8,0-4.2,0,0-1.45,0-2.9,0-4.34,1.4.01,2.8.03,4.21.04,1.08,1.22.91,2.56.37,3.93-.12.13-.25.25-.37.37Z"/><path class="cls-17" d="M86.2,120.64c0-2.25.68-4.55-3.22-4.53-2.07.01-.7-2.67-1.1-4.09,2.87,0,5.75,0,8.62,0,0,2.24-.68,4.56,3.22,4.53,2.07-.01.7,2.67,1.1,4.09-2.87,0-5.75,0-8.62,0Z"/><path class="cls-15" d="M99.18,159.44c1.41,0,2.81,0,4.22-.01.02,2.88.04,5.76.06,8.65-.14.12-.29.25-.43.37-1.52.55-2.98.67-4.23-.62-.84-2.83-1.15-5.64.28-8.4h.09Z"/><path class="cls-76" d="M120.59,155.09c.02,1.43.03,2.87.05,4.3-.1.11-.19.22-.29.33-1.12.55-2.28.48-3.45.19-.28-.12-.49-.32-.64-.58.07-1.39.13-2.78.2-4.17,1.38-.03,2.75-.05,4.13-.08Z"/><path class="cls-134" d="M111.99,163.62c-.59-3.44.89-4.81,4.28-4.28l.22.19c.96,1.3.83,2.66.19,4.04-1.13,1.17-2.51,1.03-3.91.71-.33-.13-.59-.35-.77-.66Z"/><path class="cls-93" d="M107.67,167.95c-.59-3.47.98-4.78,4.32-4.33l.15.25c1,1.29.85,2.64.21,4.02-1.13,1.17-2.5,1.02-3.91.71-.33-.13-.59-.35-.78-.65Z"/><path class="cls-156" d="M103.46,168.08c1.4-.04,2.81-.09,4.21-.13l.18.23c1.03,1.45.92,2.88-.06,4.3-1.48.94-2.95.94-4.41-.03-.99-1.48-1.05-2.93.15-4.33l-.07-.04Z"/><path class="cls-47" d="M150.88,133.58c-1.49.75-2.98.13-4.46-.02-3.58-.36-7.05.84-10.62.65-.79-.04-1.55.25-1.69,1.01-.51,2.76-2.46,2.73-4.61,2.71-1.5,0-3,.37-4.5.57.61-3.49,4.41-4.53,5.77-7.48.39-.84,1.47-.51,2.25-.51,3.56-.02,7.12-.01,10.68-.01.51,0,1.12.18,1.51-.04,3.63-2.06,4.6.58,5.66,3.12Z"/><path class="cls-12" d="M77.57,124.96c0-1.44,0-2.88,0-4.31,2.87,0,5.75,0,8.62,0,0,2.24-.7,4.56,3.21,4.53,2.07-.02.7,2.67,1.1,4.08,0,0,0,0,0,0-1.24,1.05-2.73.9-4.19.88-2.5.09-4.86.12-5.57-3.16-.32-1.47-2.3-1.03-3.17-2.03h0Z"/><path class="cls-132" d="M86.2,129.27c1.44,0,2.87,0,4.31,0,0,1.44,0,2.87,0,4.31-1.44,0-2.88,0-4.32,0-.12-.13-.24-.25-.36-.38-.59-1.38-.62-2.7.36-3.93Z"/><path class="cls-103" d="M90.51,150.82c0,2.24-.7,4.56,3.21,4.53,2.07-.02.7,2.67,1.1,4.08-1.26,1.18-2.83.84-4.32.88-1.49.01-3.01.19-4.37-.67-.85-1.74-1.49-3.35-3.69-4.27-2.05-.86-1.72-3.09-.47-4.88,2.89-.88,5.75-1.22,8.54.32h0Z"/><path class="cls-30" d="M90.51,159.44c1.44,0,2.88,0,4.32,0,1.42,0,2.84,0,4.26,0,.04,2.88.09,5.75.13,8.63-.14.12-.27.25-.41.37-1.44.58-2.83.63-4.13-.36-.76-1.71-1.45-3.19-3.57-4.02-2.03-.79-1.7-2.88-.61-4.61Z"/><path class="cls-138" d="M77.57,142.2c0-1.44,0-2.88,0-4.31,0,0,.02,0,.02,0,2.87-1.45,5.74-1.45,8.61,0h0c.63,2.24,2.07,3.68,4.32,4.3h0c0,1.44,0,2.87,0,4.31h0c-2.34,1.5-4.87.89-7.36.67-.72-.06-1.51-.46-1.64-1.18-.42-2.25-2.3-2.87-3.93-3.8h0Z"/><path class="cls-231" d="M77.57,142.2c2.29-.04,4.91-.65,4.42,3.25-.13,1.04,1.02,1.05,1.83,1.05,2.22.01,4.45.01,6.67.01,0,1.44,0,2.87,0,4.31-2.87,0-5.75,0-8.62,0-1.23.97-2.56.95-3.93.36-.13-.12-.25-.24-.37-.37,0-2.87,0-5.75,0-8.62Z"/><path class="cls-149" d="M86.19,137.89c-2.87,0-5.74,0-8.61,0,0-1.43-.01-2.87-.02-4.3,0,0,.02,0,.02,0,2.87-1.44,5.74-1.44,8.61,0,0,0,0,0,0,0,0,1.44,0,2.87,0,4.31Z"/><path class="cls-100" d="M90.51,142.19q-4.31,0-4.32-4.3,4.31,0,4.32,4.3Z"/><path class="cls-67" d="M125.01,151.43c1.43-.24,3.01.57,4.31-.62,1.29-1,2.65-1,4.06-.26.42.37.58.89.41,1.36-1.05,2.88-3.71,4.74-4.79,7.7-.37,1.01-2.35.74-3.62.18-.12-.12-.24-.24-.37-.36v-8Z"/><path class="cls-67" d="M120.64,159.4c1.45.01,2.91.03,4.36.04h0c1.13,1.32.88,2.92.89,4.47-.02,4.77-1.06,5.65-5.17,4.42-1.18-1.32-.92-2.94-.92-4.5-.02-1.54-.21-3.11.86-4.44h-.02Z"/><path class="cls-39" d="M64.64,163.75c0-3.37.1-6.75-.04-10.12-.08-2.07.5-3.04,2.73-2.84,1.93.17,3.88.06,5.83.07l.2-.07c.93,1.38.92,2.79.15,4.23-3.1.91-4.25,2.97-3.73,6.13.15.89-.06,1.83-.61,2.63-1.3,1.02-2.69.94-4.13.36-.13-.13-.27-.25-.4-.38Z"/><path class="cls-222" d="M60.32,168.06v-4.31c1.44,0,2.87,0,4.31,0h0c1.08,1.45,1.09,2.93.15,4.45-1.52.95-3.01.95-4.46-.14Z"/><path class="cls-16" d="M86.2,133.58c-2.87,0-5.74,0-8.61,0,0-1.43-.01-2.87-.02-4.3,0-1.44,0-2.87,0-4.31,2.24,0,4.57-.71,4.54,3.21-.02,2.07,2.68.7,4.09,1.1,0,1.44,0,2.87,0,4.31Z"/><path class="cls-57" d="M73.16,155.16c.07-1.46.13-2.92.2-4.38,1.41.01,2.81.02,4.22.04,0,0,0,0,0,0,1.04,1.36,1.03,2.79.27,4.27-1.32,1.12-2.77,1.01-4.26.46-.14-.12-.28-.25-.42-.37Z"/><path class="cls-101" d="M60.32,168.06c1.44,0,2.88,0,4.31,0,1.27-1,2.64-.92,4.07-.41.33.19.58.46.74.81.41,1.51.62,3-.65,4.26-2.86.81-5.7,1.18-8.46-.35h0v-4.31Z"/><path class="cls-32" d="M103.53,168.12c-.04,1.4-.09,2.79-.13,4.19-.13.13-.25.26-.38.39-1.45.61-2.85.68-4.12-.44-.78-1.43-.81-2.84.17-4.2,0,0,.15,0,.15,0,1.44.02,2.87.04,4.31.06Z"/><path class="cls-116" d="M120.66,159.38c.01,1.45.02,2.91.03,4.36-1.25.99-2.59.97-3.99.34-.12-.13-.24-.26-.37-.38.05-1.39.1-2.78.15-4.18,1.39-.05,2.78-.1,4.18-.15Z"/><path class="cls-230" d="M112.04,168.02c.04-1.39.07-2.77.11-4.16,1.4-.05,2.8-.11,4.19-.16,0,0,.05.08.05.08.96,1.17.85,2.47.49,3.81-.13.32-.34.58-.62.78-1.29.56-2.59.6-3.89.01-.11-.12-.23-.24-.34-.36Z"/><path class="cls-150" d="M107.73,172.34c.04-1.39.08-2.77.12-4.16,1.4-.05,2.79-.11,4.19-.16,0,0,.05.06.05.06,1.02,1.35.99,2.75.21,4.2-1.28,1.13-2.7,1.05-4.18.45-.13-.13-.26-.26-.39-.39Z"/><path class="cls-2" d="M103.4,172.31c1.44,0,2.89.02,4.33.02,0,0,.05.05.05.05,1.06,1.44,1.04,2.89.06,4.36-1.47,1-2.96.99-4.45.03-1.03-1.48-1.03-2.94.07-4.39l-.06-.08Z"/><path class="cls-133" d="M64.02,185.3v-4.31c2.87,0,5.75,0,8.62,0,1.69-1.36,3.7-.91,5.6-.94,2.55-.04,5.1-.11,7.65.05,1.51-.03,3.02-.08,4.53.01,1.5-.05,3.01-.05,4.51,0,1.56,0,3.17-.26,4.48.94,1.1,3.81.32,5.02-3.41,5.2-1.84.09-3.68.09-5.52-.03-7.67.17-15.35.06-23.02.05-1.22,0-2.48.02-3.44-.97Z"/><path class="cls-186" d="M86.2,180.99h-13.55q0-4.31-4.18-4.31c-1.32,0-2.64,0-3.95,0q-4.18,0-4.18-4.31h8.62c1.35-1.04,2.75-1.02,4.2-.24,1.33,5.12,5.51,3.4,8.86,3.67,1.49-.01,3-.19,4.29.83.97,1.48.97,2.93-.1,4.36Z"/><path class="cls-217" d="M90.51,159.44c-.16,2.43-.41,4.53,3.34,4.56,1.83.02.61,2.6,1,3.96-.12.13-.23.27-.34.4-1.31.72-2.74.49-4.13.54-1.38.02-2.77.14-4.03-.6-1.06-1.83-1.33-4.65-4.63-3.71-1.4,0-2.83.16-4.09-.67-1.09-1.31-.97-2.75-.45-4.24.19-.34.47-.59.82-.76,2.78-.45,5.56-1.01,8.22.5,1.44,0,2.87,0,4.31,0Z"/><path class="cls-178" d="M86.2,159.44c-2.87,0-5.73,0-8.6,0-1.18-1.42-1.08-2.86-.04-4.3,0-1.44,0-2.88.01-4.32,1.44,0,2.87,0,4.31,0,0,2.24-.7,4.56,3.21,4.53,2.07-.02.7,2.67,1.1,4.08Z"/><path class="cls-199" d="M99.07,168.06c.02,1.39.03,2.79.05,4.18-.12.14-.24.28-.35.43-1.45.68-2.86.74-4.2-.3-.76-1.45-.84-2.87.21-4.23,0,0,.06-.17.06-.17,1.41.03,2.82.06,4.23.1Z"/><path class="cls-154" d="M125.01,163.75h4.93c1.18,1.66.72,3.15-.47,4.56-.68.6-1.53.95-2.11,1.72-2.69,3.54-6.7,4.35-11.14,2.31-.87-1.47-.87-2.9.17-4.28h0c1.44-1.07,2.88-1.07,4.32,0q4.31,0,4.31-4.31Z"/><path class="cls-245" d="M120.69,168.06c-1.44,0-2.88,0-4.32,0,0-1.42.01-2.85.02-4.27,1.43-.01,2.87-.02,4.3-.04,0,1.44,0,2.87,0,4.31Z"/><path class="cls-148" d="M68.95,163.75c0-1.53,0-3.06,0-4.59q0-4.06,4.21-3.99l.2-.07c.96,1.3.79,2.81.78,4.28.05,1.47.05,2.94,0,4.41,0,1.51.21,3.06-.83,4.38-1.48.96-2.93.96-4.36-.11h0c-1.08-1.44-1.08-2.87,0-4.31Z"/><path class="cls-1" d="M68.95,163.75c0,1.44,0,2.87,0,4.31-1.44,0-2.87,0-4.31,0,0-1.44,0-2.87,0-4.31,1.44,0,2.87,0,4.31,0Z"/><path class="cls-44" d="M73.36,159.43c0-1.45,0-2.89,0-4.34,1.4.01,2.81.03,4.21.04.01,1.44.02,2.87.04,4.3,0,0-.04,0-.04,0-1.4,1.03-2.8,1.11-4.2-.01Z"/><path class="cls-26" d="M68.95,168.06c1.44,0,2.88,0,4.31,0,.11.11.22.22.33.33.53,1.22.53,2.44,0,3.66-.11.11-.23.22-.34.33-1.43,0-2.87,0-4.3,0,0-1.44,0-2.87,0-4.31Z"/><path class="cls-62" d="M103.46,172.39c0,1.43-.01,2.86-.02,4.29-.13.12-.27.25-.4.37-1.45.57-2.85.66-4.16-.38-.73-1.44-.85-2.84.27-4.16l-.03-.27,4.34.15Z"/><path class="cls-147" d="M116.38,168.05c0,1.44,0,2.88,0,4.32-.11.11-.22.22-.33.33-1.22.53-2.45.54-3.67,0-.11-.11-.22-.23-.33-.34.01-1.42.02-2.85.04-4.27,1.43,0,2.86-.02,4.29-.03Z"/><path class="cls-52" d="M107.74,176.66c.01-1.42.02-2.85.03-4.27,1.43-.01,2.85-.02,4.28-.03,0,0,.02.02.02.02,1.04,1.35,1.02,2.77.28,4.24-1.3,1.13-2.73,1.03-4.21.44-.13-.13-.27-.26-.4-.39Z"/><path class="cls-133" d="M103.44,176.68c1.44,0,2.87-.01,4.31-.02,0,0,.03.04.03.04,1.05,1.36,1.21,2.91.11,4.17-1.22,1.39-2.88,1.18-4.44.37-1.14-1.52-1.09-3.04,0-4.56h-.01Z"/><path class="cls-151" d="M103.43,180.98c-1.43.01-2.85.03-4.28.04-1.44-.02-2.88-.03-4.31-.05-1.09-1.44-1.09-2.92-.15-4.44,1.52-.95,3.01-.94,4.46.13,1.44,0,2.87,0,4.31,0,0,1.43-.02,2.87-.02,4.3Z"/><path class="cls-242" d="M86.2,180.99c0-1.43,0-2.85,0-4.28.11-.12.23-.23.34-.35,1.28-.57,2.55-.53,3.83-.01.29.19.5.45.64.77.39,1.36.48,2.69-.5,3.87-1.44,0-2.88,0-4.31,0Z"/><path class="cls-106" d="M90.51,180.98c0-1.43,0-2.86-.01-4.28,1.44-1.14,2.87-1.14,4.31,0,0,1.43.01,2.85.02,4.28-1.44,0-2.88,0-4.32,0Z"/><path class="cls-222" d="M81.89,176.68c-1.41,0-2.81,0-4.22,0-4.95-.03-4.35.43-4.42-4.3,0,0,.01-.02.01-.02,1.29-1.08,2.83-.87,4.34-.87,1.53,0,3.1-.23,4.46.77.91,1.51.9,2.98-.17,4.42Z"/><path class="cls-235" d="M81.89,176.68c0-1.43,0-2.86-.01-4.29,1.22-1.1,2.59-.87,3.98-.47.33.16.58.4.76.72.51,1.41.59,2.78-.42,4.04,0,0,0,.04,0,.04-1.44,0-2.87-.02-4.31-.03Z"/><path class="cls-210" d="M73.36,159.43c1.4,0,2.8,0,4.2.01,0,1.38,0,2.77,0,4.15-.11.14-.21.29-.32.43-1.39.69-2.73.76-3.96-.34.02-1.42.05-2.83.07-4.25Z"/><path class="cls-241" d="M77.56,163.59c1.42.07,2.84.14,4.25.21,1.14,1.29,1.05,2.69.38,4.15-1.23,1.18-2.67.99-4.14.63-.34-.14-.62-.37-.83-.67-.56-1.4-.71-2.77.35-4.04v-.28Z"/><path class="cls-226" d="M81.95,167.99c-.04-1.39-.08-2.79-.13-4.18q4.39-.13,4.36,4.13c-.11.14-.22.27-.33.41-1.37.62-2.7.81-3.91-.36Z"/><path class="cls-165" d="M86.18,167.93c1.42.07,2.85.14,4.27.21,1.1,1.19.93,2.54.5,3.93-.16.33-.41.57-.73.74-1.41.49-2.77.56-4.02-.44h0c-1.01-1.39-1.13-2.78.02-4.17l-.04-.26Z"/><path class="cls-56" d="M90.53,172.29c-.03-1.38-.05-2.77-.08-4.15,1.44,0,2.89,0,4.33,0,.03,1.38.06,2.77.09,4.15-1.45,1.23-2.9,1.23-4.35,0Z"/><path class="cls-175" d="M90.53,172.29c1.45,0,2.9,0,4.35,0,1.43.08,2.85.15,4.28.23,0,1.39,0,2.77-.01,4.16-1.44,0-2.89.02-4.33.02-1.44,0-2.87,0-4.31,0,0,0,.01-.03.01-.03-1.06-1.42-1.1-2.83,0-4.25l.02-.13Z"/><path class="cls-78" d="M129.32,168.06h3.7c-.21,1.44-.41,2.87-.62,4.31-1.67.95-3,2.33-4.49,3.48-3.51,2.71-7.56,2.19-11.53.83h0c-1.08-1.44-1.08-2.87,0-4.31,1.82,0,3.65-.05,5.47.01,2.23.08,4.26.17,4.53-2.96.14-1.64,1.76-1.31,2.94-1.36Z"/><path class="cls-50" d="M77.58,163.87l.03,4.16c-1.44,1.18-2.89,1.07-4.35.02,0,0,0,0,0,0,0-1.46.02-2.92.03-4.38,1.43.07,2.86.13,4.29.2Z"/><path class="cls-215" d="M73.26,168.06c1.45,0,2.9-.02,4.35-.02,0,0-.03,0-.03,0,1.06,1.44,1.09,2.88,0,4.31-1.44,0-2.88,0-4.31,0,0-1.43,0-2.87,0-4.3Z"/><path class="cls-154" d="M116.38,172.37v4.31c-1.44,0-2.88,0-4.31,0,0-1.43,0-2.87,0-4.3,1.44,0,2.87,0,4.31,0Z"/><path class="cls-66" d="M90.51,172.42c0,1.42,0,2.84,0,4.25-1.44,0-2.88,0-4.32,0,0-1.43,0-2.87,0-4.3,1.44.02,2.87.03,4.31.05Z"/><path class="cls-130" d="M77.58,172.35c0-1.44,0-2.88,0-4.31,1.45-.02,2.91-.04,4.36-.05,1.43.07,2.85.14,4.28.21,0,1.39-.01,2.78-.02,4.17-1.44,0-2.88,0-4.33.01-1.43,0-2.86-.02-4.29-.03Z"/></g></g></svg>