<?xml version="1.0" encoding="UTF-8"?><svg id="Layer_2" xmlns="http://www.w3.org/2000/svg" xmlns:xlink="http://www.w3.org/1999/xlink" viewBox="0 0 187.25 161.55"><defs><style>.cls-1{fill:#fed685;}.cls-1,.cls-2,.cls-3,.cls-4,.cls-5,.cls-6,.cls-7,.cls-8,.cls-9,.cls-10,.cls-11,.cls-12,.cls-13,.cls-14,.cls-15,.cls-16,.cls-17,.cls-18,.cls-19,.cls-20,.cls-21,.cls-22,.cls-23,.cls-24,.cls-25,.cls-26,.cls-27,.cls-28,.cls-29,.cls-30,.cls-31,.cls-32,.cls-33,.cls-34,.cls-35,.cls-36,.cls-37,.cls-38,.cls-39,.cls-40,.cls-41,.cls-42,.cls-43,.cls-44,.cls-45,.cls-46,.cls-47,.cls-48,.cls-49,.cls-50,.cls-51,.cls-52,.cls-53,.cls-54,.cls-55,.cls-56,.cls-57,.cls-58,.cls-59,.cls-60,.cls-61,.cls-62,.cls-63,.cls-64,.cls-65,.cls-66,.cls-67,.cls-68,.cls-69,.cls-70,.cls-71,.cls-72,.cls-73,.cls-74,.cls-75,.cls-76,.cls-77,.cls-78,.cls-79,.cls-80,.cls-81,.cls-82,.cls-83,.cls-84,.cls-85,.cls-86,.cls-87,.cls-88,.cls-89,.cls-90,.cls-91,.cls-92,.cls-93,.cls-94,.cls-95,.cls-96,.cls-97,.cls-98,.cls-99,.cls-100,.cls-101,.cls-102,.cls-103,.cls-104,.cls-105,.cls-106,.cls-107,.cls-108,.cls-109,.cls-110,.cls-111,.cls-112,.cls-113,.cls-114,.cls-115,.cls-116,.cls-117,.cls-118,.cls-119,.cls-120,.cls-121,.cls-122,.cls-123,.cls-124,.cls-125,.cls-126,.cls-127,.cls-128,.cls-129,.cls-130,.cls-131,.cls-132,.cls-133,.cls-134,.cls-135,.cls-136,.cls-137,.cls-138,.cls-139,.cls-140,.cls-141,.cls-142,.cls-143,.cls-144,.cls-145,.cls-146,.cls-147,.cls-148,.cls-149,.cls-150,.cls-151,.cls-152,.cls-153,.cls-154,.cls-155,.cls-156,.cls-157,.cls-158,.cls-159,.cls-160,.cls-161,.cls-162,.cls-163,.cls-164,.cls-165,.cls-166,.cls-167,.cls-168,.cls-169,.cls-170,.cls-171,.cls-172,.cls-173,.cls-174,.cls-175,.cls-176,.cls-177,.cls-178,.cls-179,.cls-180,.cls-181,.cls-182,.cls-183,.cls-184,.cls-185,.cls-186,.cls-187,.cls-188,.cls-189,.cls-190,.cls-191,.cls-192,.cls-193,.cls-194,.cls-195,.cls-196,.cls-197,.cls-198,.cls-199,.cls-200,.cls-201,.cls-202,.cls-203,.cls-204,.cls-205,.cls-206,.cls-207,.cls-208,.cls-209,.cls-210,.cls-211,.cls-212,.cls-213,.cls-214,.cls-215,.cls-216,.cls-217,.cls-218,.cls-219,.cls-220,.cls-221,.cls-222,.cls-223,.cls-224,.cls-225,.cls-226,.cls-227,.cls-228,.cls-229,.cls-230,.cls-231,.cls-232,.cls-233,.cls-234,.cls-235,.cls-236,.cls-237,.cls-238,.cls-239,.cls-240,.cls-241,.cls-242,.cls-243,.cls-244,.cls-245,.cls-246,.cls-247,.cls-248,.cls-249,.cls-250,.cls-251,.cls-252,.cls-253,.cls-254,.cls-255,.cls-256,.cls-257,.cls-258,.cls-259,.cls-260,.cls-261,.cls-262,.cls-263,.cls-264,.cls-265,.cls-266,.cls-267,.cls-268,.cls-269,.cls-270,.cls-271,.cls-272,.cls-273,.cls-274{stroke-width:0px;}.cls-2{fill:#6f5d6b;}.cls-3{fill:#fed887;}.cls-4{fill:#cab472;}.cls-5{fill:#fed987;}.cls-6{fill:#695762;}.cls-7{fill:#fef4a4;}.cls-8{fill:#422218;}.cls-9{fill:#f8f6c7;}.cls-10{fill:#593629;}.cls-11{fill:#4e2d1f;}.cls-12{fill:#fefee5;}.cls-13{fill:#422a25;}.cls-14{fill:#b48757;}.cls-15{fill:#feba74;}.cls-16{fill:#feee9d;}.cls-17{fill:#679668;}.cls-18{fill:#6d6d6d;}.cls-19{fill:#fed585;}.cls-20{fill:#fece7f;}.cls-21{fill:#3f2016;}.cls-22{fill:#fefdd5;}.cls-23{fill:#ad9270;}.cls-24{fill:#d7c297;}.cls-25{fill:#391c13;}.cls-26{fill:#534d41;}.cls-27{fill:#4a3832;}.cls-28{fill:#a0907d;}.cls-29{fill:#88c884;}.cls-275{clip-path:url(#clippath);}.cls-30{fill:#907b67;}.cls-31{fill:#7ed182;}.cls-32{fill:#3b211a;}.cls-33{fill:#feed9b;}.cls-34{fill:#fed484;}.cls-35{fill:#8e6c48;}.cls-36{fill:#5a684f;}.cls-37{fill:#fedc8a;}.cls-38{fill:#bb8e5b;}.cls-39{fill:#3e241a;}.cls-40{fill:#fefeed;}.cls-41{fill:#6e7270;}.cls-42{fill:#77c478;}.cls-43{fill:#fecc7e;}.cls-44{fill:#89d88a;}.cls-45{fill:#7c7161;}.cls-46{fill:#fee491;}.cls-47{fill:#fecf7f;}.cls-48{fill:#62855c;}.cls-49{fill:#6d554b;}.cls-50{fill:#523428;}.cls-51{fill:#fef2b2;}.cls-52{fill:url(#linear-gradient);}.cls-53{fill:#fefad0;}.cls-54{fill:#4c372e;}.cls-55{fill:#fedf8d;}.cls-56{fill:#d2f3d4;}.cls-57{fill:#fee391;}.cls-58{fill:#eeba75;}.cls-59{fill:#bbe3be;}.cls-60{fill:#6a746a;}.cls-61{fill:#73be75;}.cls-62{fill:#fee28f;}.cls-63{fill:#6ba56a;}.cls-64{fill:#522919;}.cls-65{fill:#fefef1;}.cls-66{fill:#6d686b;}.cls-67{fill:#feee9c;}.cls-68{fill:#fefaac;}.cls-69{fill:#44322c;}.cls-70{fill:#fbf9d9;}.cls-71{fill:#5b4c4f;}.cls-72{fill:#6b746d;}.cls-73{fill:#482417;}.cls-74{fill:#786777;}.cls-75{fill:#472419;}.cls-76{fill:#fefcb8;}.cls-77{fill:#fee492;}.cls-78{fill:#623f2b;}.cls-79{fill:#422115;}.cls-80{fill:#572a1a;}.cls-81{fill:#fef8b8;}.cls-82,.cls-276{fill:#f06b0d;}.cls-83{fill:#492416;}.cls-84{fill:#6c5f66;}.cls-85{fill:#3b1e15;}.cls-86{fill:#321a12;}.cls-87{fill:#fed181;}.cls-88{fill:#fec77b;}.cls-89{fill:#d8fdde;}.cls-90{fill:#4f3c29;}.cls-91{fill:#3b211b;}.cls-92{fill:#fee08d;}.cls-93{fill:#6c746c;}.cls-94{fill:#aa9b85;}.cls-95{fill:#fed282;}.cls-96{fill:#6ba76d;}.cls-97{fill:#736872;}.cls-98{fill:#5e4c51;}.cls-99{fill:#7d6650;}.cls-100{fill:#f8c67c;}.cls-101{fill:#3c1e14;}.cls-102{fill:#fed483;}.cls-103{fill:#fede8c;}.cls-104{fill:#fdfde2;}.cls-105{fill:#70996f;}.cls-106{fill:#a4f6ab;}.cls-107{fill:#687968;}.cls-108{fill:#fee390;}.cls-109{fill:#91e696;}.cls-110{fill:#7f7380;}.cls-111{fill:#c9bc9f;}.cls-112{fill:#9c8261;}.cls-113{fill:#70a36e;}.cls-114{fill:#698f69;}.cls-115{fill:#381d13;}.cls-116{fill:#5d2e1b;}.cls-117{fill:#71b173;}.cls-118{fill:#5d484e;}.cls-119{fill:#93de93;}.cls-120{fill:#ace69a;}.cls-121{fill:#725443;}.cls-122{fill:#988572;}.cls-123{fill:#f7f3c3;}.cls-124{fill:#6a402a;}.cls-125{fill:#fef19f;}.cls-126{fill:#5e3422;}.cls-127{fill:#93e895;}.cls-128{fill:#d1c7ae;}.cls-129{fill:#ece8cb;}.cls-130{fill:#7e5739;}.cls-131{fill:#6dac6e;}.cls-132{fill:#3b1f16;}.cls-133{fill:#584144;}.cls-134{fill:#3d1f14;}.cls-135{fill:#442216;}.cls-136{fill:#92d292;}.cls-137{fill:#7f7b79;}.cls-138{fill:#c1b391;}.cls-139{fill:#fef4a3;}.cls-140{fill:#5c6f47;}.cls-141{fill:#fefee3;}.cls-142{fill:#726a71;}.cls-143{fill:#81d685;}.cls-144{fill:#6b786b;}.cls-145{fill:#84d986;}.cls-146{fill:#fefad2;}.cls-147{fill:#fefef7;}.cls-148{fill:#678067;}.cls-149{fill:#fef9c0;}.cls-150{fill:#74b975;}.cls-151{fill:#432218;}.cls-152{fill:#916440;}.cls-153{fill:#402115;}.cls-154{fill:#412f28;}.cls-155{fill:#fddb8b;}.cls-156{fill:#eaad6d;}.cls-157{fill:#462f2d;}.cls-158{fill:#6e6c6f;}.cls-159{fill:#351a12;}.cls-160{fill:#b4e9b4;}.cls-161{fill:#6ea16d;}.cls-162{fill:#fed787;}.cls-163{fill:#533c3a;}.cls-164{fill:#fed584;}.cls-165{fill:#d9a56f;}.cls-166{fill:#fee592;}.cls-167{fill:#43251a;}.cls-168{fill:#fefeec;}.cls-169{fill:#512819;}.cls-170{fill:#371c14;}.cls-171{fill:#f3c27a;}.cls-172{fill:#698469;}.cls-173{fill:#452215;}.cls-174{fill:#fef09e;}.cls-175{fill:#3d2016;}.cls-176{fill:#bba16c;}.cls-177{fill:#7dc77f;}.cls-178{fill:#6a7469;}.cls-179{fill:#714c32;}.cls-180{fill:#6b9a6b;}.cls-181{fill:#f3f0cc;}.cls-182{fill:#422419;}.cls-183{fill:#4c2f22;}.cls-184{fill:#4e2718;}.cls-185{fill:#fec67b;}.cls-186{fill:#4d2618;}.cls-187{fill:#6a9d6a;}.cls-188{fill:#6b736d;}.cls-189{fill:#fee794;}.cls-190{fill:#fecf80;}.cls-191{fill:#fefefe;}.cls-192{fill:#70616f;}.cls-193{fill:#c88f5c;}.cls-194{fill:#fefef0;}.cls-195{fill:#4c2618;}.cls-196{fill:#aa764c;}.cls-197{fill:#fefee7;}.cls-198{fill:#6f6b6e;}.cls-199{fill:#502819;}.cls-200{fill:#4c2517;}.cls-201{fill:#e09864;}.cls-202{fill:#c4f0c7;}.cls-203{fill:#fefaad;}.cls-204{fill:#4d4a31;}.cls-205{fill:#7e8a6a;}.cls-206{fill:#957b61;}.cls-207{fill:#668566;}.cls-208{fill:#3f2621;}.cls-209{fill:#fefeeb;}.cls-210{fill:#705847;}.cls-211{fill:#8b7456;}.cls-212{fill:#fef3a4;}.cls-213{fill:#af7f51;}.cls-214{fill:#fedd8a;}.cls-215{fill:#fdfefd;}.cls-216{fill:#372019;}.cls-217{fill:#b5bea7;}.cls-218{fill:#fec379;}.cls-219{fill:#746e77;}.cls-220{fill:#c2935e;}.cls-221{fill:#fefed8;}.cls-222{fill:#fefef6;}.cls-223{fill:#5d4235;}.cls-224{fill:#3e2014;}.cls-225{fill:#391e17;}.cls-226{fill:#573a2c;}.cls-227{fill:#6b6568;}.cls-228{fill:#fee795;}.cls-229{fill:#dbd3bb;}.cls-230{fill:#634434;}.cls-231{fill:#3e2117;}.cls-232{fill:#f6c57c;}.cls-233{fill:#fefab0;}.cls-234{fill:#4c3022;}.cls-235{fill:#fefcbc;}.cls-236{fill:#fec87c;}.cls-237{fill:#6d452e;}.cls-238{fill:#432b28;}.cls-239{fill:#fefdcc;}.cls-240{fill:#79c67c;}.cls-241{fill:#fefed3;}.cls-242{fill:#6c6c6c;}.cls-243{fill:#625058;}.cls-244{fill:#63545b;}.cls-245{fill:#9ff2a4;}.cls-246{fill:#654d3e;}.cls-247{fill:#f6f2dc;}.cls-248{fill:#fefdbb;}.cls-249{fill:#775236;}.cls-250{fill:#aaf5b0;}.cls-251{fill:#fef6a6;}.cls-252{fill:#fefee9;}.cls-253{fill:#709b64;}.cls-254{fill:#738474;}.cls-255{fill:#46291d;}.cls-256{fill:#b4a88d;}.cls-257{fill:#6d726e;}.cls-258{fill:#feeb99;}.cls-259{fill:#371b13;}.cls-260{fill:#fefed6;}.cls-261{fill:#fbc078;}.cls-262{fill:#301911;}.cls-263{fill:#8ae290;}.cls-264{fill:#fefece;}.cls-265{fill:#8ca88b;}.cls-266{fill:#e4dec4;}.cls-267{fill:#fefddc;}.cls-268{fill:#593120;}.cls-269{fill:#6e6e6f;}.cls-270{fill:#553426;}.cls-271{fill:#cd9b64;}.cls-272{fill:#443223;}.cls-273{fill:#fee997;}.cls-274{fill:#fef5a5;}</style><clipPath id="clippath"><polygon class="cls-82" points="70.99 16.64 92.65 12.5 96.79 18.55 113.03 10.9 134.05 7.4 182.15 141.81 161.13 149.46 135.97 157.74 98.7 55.49 44.55 116.33 22.26 122.06 5.37 96.26 70.99 16.64"/></clipPath><linearGradient id="linear-gradient" x1="93.62" y1="6.18" x2="93.62" y2="156.85" gradientUnits="userSpaceOnUse"><stop offset=".01" stop-color="#000"/><stop offset="1" stop-color="#f96b0d"/></linearGradient></defs><g id="Independent_Women"><polygon class="cls-276" points="70.99 16.64 92.65 12.5 96.79 18.55 113.03 10.9 134.05 7.4 182.15 141.81 161.13 149.46 135.97 157.74 98.7 55.49 44.55 116.33 22.26 122.06 5.37 96.26 70.99 16.64"/><g class="cls-275"><path class="cls-75" d="M-216.91,30.22v-127.26c.55-.3,1.15-.15,1.72-.15,202.53,0,405.06,0,607.59,0,2.2,0,1.96-.22,1.96,1.95,0,41.25,0,82.51,0,123.76,0,.58.08,1.17-.09,1.74-.59.73-1.42.63-2.2.63-4.56.02-9.12,0-13.68,0-18.3,0-36.59.12-54.89-.05-9.43-.09-18.86-.27-28.3-.29-2.33,0-3.11-.84-3.19-3.19-.01-.37-.03-.74-.02-1.11.03-1.2-.55-1.75-1.75-1.72-.74.01-1.48,0-2.23,0-46.19,0-92.38,0-138.57-.01-1.15,0-2.34.25-3.42-.4-1.07-1.02-.69-2.35-.73-3.57-.06-2.35-.05-2.35-2.38-2.4-1.18-.03-2.44.3-3.49-.59-.97-2.03-.41-4.17-.42-6.27-.12-1.25-.08-2.51-.09-3.77-.02-1.99-.09-2.06-2.02-2.09-1.26-.02-2.52.05-3.78-.1-2.06.16-4.12.17-6.18,0-1.36.15-2.73.14-4.1.08-1.32-.05-1.73.52-1.75,1.78-.02,1.38.42,2.86-.6,4.11-2.07.93-4.23.39-6.35.4-2.13.14-4.26.16-6.38,0-2.12.14-4.25.16-6.37,0-2.12.14-4.24.16-6.37,0-2.12.14-4.24.16-6.37,0-2.12.14-4.24.16-6.36,0-2.09.14-4.18.17-6.27,0-.95.1-1.9.1-2.85.1-2.97,0-2.96,0-2.99,3.06,0,.94.14,1.92-.54,2.74-.64.58-1.44.55-2.23.56-4.03.03-3.55-.36-3.6,3.68,0,.79,0,1.59-.62,2.21-2.1.93-4.28.41-6.44.35-1.06-.07-2.12-.03-3.18-.03-16.71,0-33.41-.13-50.12.03-34.25.33-68.51-.04-102.76.26-4.47.04-8.97.56-13.46.55-1.14,0-1.63.58-1.62,1.67,0,.32-.01.64-.02.95-.08,2.37-.62,2.89-2.95,2.9-23.91.08-47.83.27-71.74.19-8.43-.03-16.86,0-25.3-.01-.89,0-1.83.12-2.52-.66Z"/><path class="cls-101" d="M-216.91,144.76v-70.31c.65-.72,1.52-.65,2.37-.66,4.45-.01,8.9,0,13.36,0,2.17,0,2.34-.18,2.4-2.36.08-3.06.7-3.66,3.82-3.67,3.92-.01,7.85-.14,11.77.04,3.31.15,6.49-1.03,9.79-.66,5.55.61,11.12.18,16.67.29,2.28.04,2.45-.17,2.51-2.41.08-2.96.73-3.6,3.72-3.62,2.7-.02,5.41-.04,8.11,0,16.21.23,32.42-.45,48.64-.34,3.18.02,6.33.5,9.52.37,3.79-.62,7.6-.31,11.4-.33,11.77-.05,23.53,0,35.3-.01.53,0,1.06-.03,1.59,0,1.21.06,1.76-.48,1.72-1.7-.05-1.45.01-2.88,1.24-3.94.61-.42,1.31-.41,1.99-.4,10.28.22,20.55-.4,30.82-.34,9.59.05,19.19,0,28.78.02,1.05,0,2.15-.14,2.95.81.68,2.07.74,4.15.01,6.23-.57.59-1.31.58-2.06.63-6.75.44-13.52.3-20.28.32-.21,0,.05,0-.16,0-3.42,0-3.51.11-3.49,3.61,0,.77.28,1.6-.33,2.28-.57.49-1.27.47-1.96.47-15.53.01-31.05.02-46.58,0-.48,0-.96.01-1.42-.12-1.82-1.23-3.83-.9-5.82-.68-.82.09-1.03.61-1.03,1.33,0,1.73-.06,3.46.2,5.18-2.1,1.08-4.23.88-6.37.16-.42-1.56.07-3.12-.03-4.69-.12-1.89-.24-2.12-2.11-2.12-7.14-.02-14.28-.03-21.41,0-1.89,0-2.14.36-2.26,2.24-.1,1.51.39,3.05-.25,4.53-.71.63-1.58.53-2.42.53-6.36.01-12.73,0-19.09.01-2.3,0-2.38.11-2.42,2.45,0,.48.01.96-.04,1.43-.19,1.72-1.02,2.73-2.74,2.73-5.88.02-11.76.28-17.64-.16-3.54-.27-7.1-.11-10.65-.05-1.08.02-1.58.63-1.7,1.7-.41,3.78-.53,3.32-4.18,4.12-4.23.93-8.41.73-12.62.8-2.06.04-4.1-.42-6.18-.31-2.07.11-2.42.39-2.5,2.4-.11,2.84-.56,3.28-3.4,3.33-.91.02-1.78.09-2.63.47-1.5.67-3.13.44-4.71.5-1.65.06-1.9.33-1.98,1.98-.15,3.02-.44,3.3-3.47,3.42-2.13.08-2.84.79-2.9,2.91,0,.11,0,.21,0,.32-.04,2.95.07,3.06,2.96,3.09,2.82.03,3.28.49,3.4,3.33.08,1.96.48,2.31,2.54,2.39,6.31.22,12.6-.43,18.91-.35,2.86.04,5.7.43,8.57.4,1.61-.02,2.29.76,2.42,2.34.04.48.02.95.03,1.43.04,2.25.32,2.53,2.63,2.54,4.51.02,9.02.08,13.52-.03,2.22-.05,4.44-.46,6.66-.26,4.23.39,8.47.23,12.71.32,1.95.04,2.6.76,2.67,2.76q.13,3.57,3.67,3.58c4.08,0,8.17-.02,12.25,0,2.52.02,3.13.63,3.18,3.07q.06,3.28,3.43,3.29c4.24,0,8.48-.02,12.73,0,2.39.01,2.97.53,2.92,2.88-.03,1.44.45,2.98-.57,4.31-.53.43-1.17.46-1.81.47-5.25.02-10.49.01-15.74,0-.54,0-1.06-.07-1.56-.26-.2-.07-.38-.18-.53-.33-.54-.68-.49-1.49-.49-2.28-.02-3.62.28-3.5-3.61-3.5-16.32,0-32.64,0-48.97,0-4.4,0-8.8-.01-13.2,0-2.28.01-2.57.31-2.62,2.56-.08,3.64-.24,3.8-3.95,3.8-8.32,0-16.64,0-24.96,0-2.81,0-2.86.05-2.92,2.8-.07,2.65-.91,3.53-3.56,3.54-6.78.03-13.57.02-20.35,0-.8,0-1.6.01-2.21-.66Z"/><path class="cls-21" d="M-84.19,62.04c-8.42-.43-16.85-.51-25.26-.27-13.99.39-27.98.18-41.97.27-1.84.01-2.16.31-2.15,2.12.02,4.64.08,3.88-3.94,3.92-3.5.03-7,0-10.5.01-1.91.01-3.85-.42-5.69-.25-7.6.7-15.21.53-22.81.56-1.13,0-1.64.59-1.63,1.69,0,.69,0,1.38,0,2.07-.01,2.14-.15,2.28-2.23,2.28-5.52,0-11.03,0-16.55,0v-25.13c.65-.72,1.52-.65,2.37-.66,4.61-.01,9.23,0,13.84,0,1.12,0,2.21-.07,3.24-.61.87-.45,1.86-.34,2.82-.34,10.34,0,20.68,0,31.02,0,2.5,0,2.5-.01,2.74-2.5.18-1.82,1.14-2.76,2.97-2.88.74-.05,1.48-.02,2.23-.02,12.46,0,24.92,0,37.38,0,1.28,0,2.52-.06,3.72-.64.98-.48,2.08-.31,3.14-.31,16.12,0,32.24,0,48.36,0,.58,0,1.17,0,1.75,0,2.01-.03,2.16-.17,2.3-2.14.16-2.3,1.09-3.18,3.43-3.25.85-.02,1.7-.01,2.54-.01,26.93,0,53.87,0,80.8,0,1.44,0,2.86.03,4.19-.68.52-.27,1.13-.27,1.72-.27,4.72-.02,9.44-.02,14.16,0,1.23,0,2.32.29,2.98,1.45.5,2.17.65,4.33-.09,6.48-.89.91-2.05.67-3.13.68-2.79.04-2.78.02-2.81,2.75-.01,1.03.2,2.12-.52,3.04-.64.59-1.44.57-2.23.57-4.04.03-3.56-.36-3.61,3.69,0,.79,0,1.59-.64,2.21-2.14.68-4.28.92-6.37-.18-.63-.37-1.32-.32-2.01-.32-13.51,0-27.03-.22-40.53.09-7.25.17-14.5.07-21.75.23-.81.82-1.86.65-2.85.65-14.31,0-28.61,0-42.92,0-.26,0-.53,0-.79,0q-3.59,0-3.71,3.52c-.03.87-.08,1.71-.97,2.19Z"/><path class="cls-151" d="M50.48,36.59c-.86-.83-1.88-1-3.05-.99-3.92.06-7.85.01-11.77.03-1.62,0-3.25-.23-4.76.77-.5.33-1.34.17-2.02.17-28,0-55.99,0-83.99,0-3.05,0-3.27.23-3.29,3.24,0,2.16-.01,2.17-2.26,2.17-17.23,0-34.47,0-51.7,0-.96,0-1.89-.01-2.72.62-.63.48-1.42.34-2.16.34-13.36,0-26.72,0-40.09,0-2.55,0-2.92.38-2.93,2.96q0,2.45-2.46,2.45c-10.87,0-21.74,0-32.61,0-.86,0-1.68,0-2.41.57-.62.49-1.41.39-2.15.39-5.67,0-11.35,0-17.02,0v-11.45c.6-.6,1.37-.47,2.1-.47,6.19-.01,12.39-.02,18.58,0,1.13,0,2.21-.11,3.27-.51,1.42-.85,2.97-.98,4.59-.98,15.06.03,30.13.02,45.19,0,1.04,0,2.17.21,2.88-.89.37-.78.61-1.58.61-2.45,0-1.05.57-1.53,1.6-1.54.58,0,1.17-.01,1.75-.01,16.07,0,32.14,0,48.21.01,1.18,0,2.33-.1,3.43-.52,1.36-.85,2.86-.97,4.43-.96,24.86.02,49.72.01,74.58.01.74,0,1.48,0,2.23,0,3.04-.01,3.11-.08,3.31-3.05.12-1.71.55-2.17,2.23-2.17,17.76,0,35.52,0,53.27,0,.53,0,1.07-.05,1.53.3,1.11,1.76.47,3.69.52,5.55.15,1.57.08,3.15.08,4.72,0,.64-.09,1.26-.54,1.76-2.16.84-4.31.99-6.44-.08Z"/><path class="cls-151" d="M-139.57,35.63c-.81.78-1.76.98-2.89.98-15.15-.03-30.3-.02-45.45-.02-1.67,0-3.38-.18-4.82.96-.33.23-.71.16-1.08.16-7.35,0-14.69,0-22.04,0-.36,0-.74.08-1.08-.16v-7.32c33.09,0,66.17,0,99.26,0,2.55,0,2.59-.04,2.59-2.56,0-3.44-.27-3.09,3.18-3.18,56.23-1.39,112.47-.26,168.7-.63.25.32.28.64,0,.95-18.08,0-36.15,0-54.23,0q-2.1,0-2.1,2.07c0,3.1-.24,3.34-3.34,3.34-25.61,0-51.21,0-76.82,0-1.68,0-3.38-.18-4.82.96-.55.3-1.15.15-1.72.15-17.13,0-34.25,0-51.38,0-1.8,0-1.78,0-1.82,1.78-.02.84.18,1.69-.15,2.51Z"/><path class="cls-191" d="M394.15,30.22c.02-.53.05-1.06.05-1.59,0-41.31,0-82.61.04-123.92,0-1.45-.36-1.79-1.8-1.79-203.12.03-406.23.03-609.35.03.07-.1-.16-.33.16-.32.42.01.85,0,1.27,0,202.82,0,405.64,0,608.46-.03,1.24,0,1.57.18,1.57,1.52-.04,113.67-.04,227.34-.06,341.01,0,.47.37,1.08-.3,1.43-.71-.65-.66-1.52-.65-2.36,0-1.32-.07-2.65.09-3.96-.14-2.13-.16-4.25,0-6.38-.14-2.12-.16-4.24,0-6.36-.14-2.12-.16-4.24,0-6.36-.14-2.12-.16-4.24,0-6.36-.14-2.12-.16-4.24,0-6.36-.14-2.12-.16-4.24,0-6.36-.14-2.12-.16-4.24,0-6.36-.14-2.12-.16-4.24,0-6.36-.14-2.12-.16-4.24,0-6.36-.14-2.12-.16-4.24,0-6.36-.14-2.12-.16-4.25,0-6.37-.15-2.13-.15-4.27,0-6.4-.15-4.22-.16-8.43,0-12.65-.14-2.15-.15-4.3,0-6.46-.15-6.35-.16-12.71,0-19.06-.09-.85-.09-1.69-.09-2.54,0-19.61,0-39.22,0-58.83,0-.85,0-1.7.09-2.54-.2-5.54-.05-11.08-.08-16.63-.02-4.22-.01-8.45,0-12.67,0-.79-.03-1.6.61-2.22Z"/><path class="cls-8" d="M394.15,30.22c0,10.5,0,21,0,31.5-1.82,1.17-3.76.77-5.64.32-.86-.21-1.01-1.17-.99-1.99.13-4.49-1.14-3.64-3.94-3.71-1.06-.02-2.12,0-3.18,0-24.06.02-48.12-.54-72.19-.33-2.91.03-3.38-.47-3.48-3.41-.08-2.32-.37-2.6-2.75-2.62-.21,0,.05,0-.16,0-33.66.12-67.32-.64-100.98-.26-8.42.09-16.84.24-25.27.26-.64,0-1.27.02-1.91-.02-1.76-.12-2.6-.84-2.58-2.56.06-4.63-1.08-3.73-4.02-3.77-4.13-.05-8.27,0-12.41-.02-.79,0-1.6.08-2.3-.42-1.07-1.08-.66-2.46-.7-3.74-.07-2.13-.1-2.16-2.24-2.22-1.23-.04-2.54.33-3.63-.59-.97-2.06-.41-4.21-.42-6.33.03-2.09-.51-4.22.36-6.27.08-.06.17-.12.25-.18,48.06,0,96.11,0,144.17,0q2.52,0,2.52,2.56c0,3.49,0,3.48,3.49,3.49,22.27.09,44.53.47,66.8.33,10.4-.07,20.79-.01,31.19-.01Z"/><path class="cls-10" d="M120.49,11.07c0-1.53.05-3.06-.03-4.58-.07-1.26.29-1.84,1.66-1.74,1.57.11,3.16.04,4.74.04,1.06,2.1.84,4.24.16,6.39-2.09,1-4.22.81-6.35.16-.06-.09-.12-.17-.18-.26Z"/><path class="cls-121" d="M126.83,11.08c0-2.1.02-4.2.03-6.29,2.11,0,4.22,0,6.33,0,1.17,2,.71,4.1.34,6.19-.1.19-.25.34-.42.45-2.12.4-4.25.89-6.28-.36Z"/><path class="cls-230" d="M133.19,11.05c0-2.09,0-4.17,0-6.26,1.68,0,3.36.03,5.04-.04,1.04-.04,1.39.37,1.36,1.38-.06,1.68-.03,3.36-.04,5.03-1.55.95-5.08.88-6.35-.12Z"/><path class="cls-50" d="M69.5,17.43c.02-1.53.1-3.06.03-4.58-.07-1.27.31-1.83,1.67-1.74,1.57.11,3.16.03,4.74.04,1.06,2.08.83,4.2.17,6.33-2,1.15-4.1.69-6.2.39-.18-.11-.32-.25-.41-.44Z"/><path class="cls-49" d="M75.91,17.42c0-2.09.01-4.18.02-6.28,2.12,0,4.24.02,6.36.02,1.07,2.07.82,4.18.18,6.3-1.99,1.15-4.08.69-6.16.39-.18-.1-.32-.25-.41-.44Z"/><path class="cls-255" d="M56.81,24.81c0-.32,0-.64,0-.95,2.1,0,4.2,0,6.3-.01.09.06.17.12.26.18.68,2.12.84,4.24-.13,6.33-2.15.78-4.29.94-6.41-.09,0-1.82-.01-3.63-.02-5.45Z"/><path class="cls-270" d="M139.64,17.51c1.52,0,3.06.08,4.57-.04,1.45-.11,1.82.48,1.74,1.82-.09,1.52,0,3.05.02,4.57,0,0-.08.02-.08.02-2.07,1.07-4.18.82-6.31.18-1.16-1.98-.7-4.07-.39-6.15.1-.18.25-.31.44-.4Z"/><path class="cls-90" d="M63.11,23.84c.02-1.63.1-3.26.05-4.89-.03-1.08.32-1.52,1.44-1.48,1.63.06,3.26-.03,4.89-.05,0,0,.08.1.08.1,1.04,2.13.89,4.26.08,6.42-2.15.86-4.3.99-6.44-.06l-.1-.04Z"/><path class="cls-111" d="M133.19,11.05c2.12.04,4.23.08,6.35.12.03,2.11.06,4.22.1,6.34l-.07.04-.06-.05c-2.11,1.12-4.26.9-6.41.14-.81-2.16-.99-4.31.11-6.44v-.14Z"/><path class="cls-247" d="M114.13,11.18c2.12-.03,4.24-.07,6.36-.1l-.03.12c1.13,2.11.92,4.25.12,6.39-2.17.9-4.35.87-6.54.03-.87-2.16-1.04-4.31.09-6.44Z"/><path class="cls-176" d="M114.13,11.18c0,2.1-.01,4.21-.02,6.31-.07.08-.13.16-.2.24-2.12.59-4.23.82-6.31-.19-.73-2.15-1-4.29.18-6.39,2.12,0,4.23.01,6.35.02Z"/><path class="cls-78" d="M107.78,11.15c-.02,2.1-.04,4.21-.07,6.31-.06.08-.13.16-.19.25-2.12.62-4.22.84-6.29-.17-.73-2.15-.97-4.29.15-6.4l6.4.02Z"/><path class="cls-234" d="M101.38,11.14c0,2.11-.02,4.22-.02,6.32-.06.08-.13.16-.19.25-2.12.63-4.22.83-6.3-.16-.77-2.14-.92-4.28.1-6.4,2.14,0,4.27,0,6.41-.01Z"/><path class="cls-205" d="M94.97,11.15c.02,2.1.04,4.2.06,6.3-.06.08-.12.17-.18.25-2.13.65-4.24.82-6.33-.14-.76-2.14-.99-4.27.14-6.38,2.11-.01,4.21-.02,6.32-.03Z"/><path class="cls-45" d="M88.65,11.18c0,2.08-.02,4.16-.03,6.24-.05.08-.11.17-.16.25-2,.74-4,.71-6.01.02-.06-.08-.11-.16-.17-.24,0-2.09,0-4.19,0-6.28,2.12,0,4.24,0,6.36,0Z"/><path class="cls-170" d="M-45.04,68.4H5.25c.55-.61,1.28-.65,2.03-.66,5.27,0,10.54-.01,15.81,0,.69,0,1.38,0,1.95.48.99,2.13.78,4.3.17,6.48-.63.71-1.49.7-2.33.7-4.07.03-3.57-.34-3.62,3.68,0,.74,0,1.48-.52,2.1-.64.59-1.44.57-2.23.58-4.06.04-3.57-.36-3.62,3.68,0,.74,0,1.48-.52,2.1-1.15.92-2.51.52-3.79.57-1.94.08-2.03.13-2.05,2.06-.02,1.25.05,2.51-.1,3.76,0,2,.51,4.02-.35,5.97-.77.76-1.76.62-2.7.62-14.83.01-29.67,0-44.5,0-1.59,0-3.17-.03-4.67.67-.73.34-1.55.27-2.35.29-1.77.05-1.91.19-1.99,1.91-.02.37,0,.74-.04,1.11-.19,1.43-.95,2.43-2.36,2.3-3.08-.28-5.92,1.06-8.93,1.07-.62,0-1.34.18-1.29.89.19,2.64-1.34,5.01-1.09,7.65.09,1.01.13,1.99.67,2.9.56.94.66,2,.62,3.07-.04,1.1.4,1.61,1.57,1.68,3.57.21,4.6,1.23,4.78,4.71.06,1.11.45,1.59,1.6,1.65,2.67.15,5.21,1.24,7.96,1.05,1.14-.08,1.75.87,1.86,2,.09.84.08,1.7.04,2.54-.05,1.2.44,1.74,1.68,1.72,1.48-.03,2.97-.08,4.45.08,1.6-.18,3.21-.08,4.82-.08.58,0,1.13.12,1.59.52.84,2.18.81,4.37.03,6.55-.98.85-2.17.53-3.28.57-1.09.04-2.18.04-3.26-.08-5.86.19-11.71.06-17.57.07-.54,0-1.05-.09-1.47-.47-1.03-1.12-.64-2.5-.69-3.79-.07-1.93-.17-2.07-2.11-2.08-2.65-.02-5.3,0-7.95-.01-.74,0-1.5.04-2.03-.65,0-1.64-.05-3.29.02-4.93.05-1.13-.41-1.46-1.49-1.45-5.2.04-10.4-.03-15.59.05-1.49.02-2-.6-2.03-1.93,0-.21,0-.42,0-.64-.05-4.31.57-3.8-3.79-3.82-4.3-.02-8.59,0-12.89,0-1.96,0-2.39-.46-2.42-2.46-.05-4.41.6-3.97-3.88-3.87-4.77.1-9.54-.65-14.28-.29-5.72.43-11.44.13-17.15.25-2.59.06-2.87-.29-2.88-2.94-.01-3.78.37-3.23-3.41-3.45-4.66-.27-9.32-.46-13.97-.22-4.08.21-8.15.24-12.22.26-2.36,0-2.86-.52-2.87-2.91,0-.37-.03-.75,0-1.11.14-1.35-.51-1.8-1.79-1.72-.95.07-1.91,0-2.86.01-1.2.02-1.74-.58-1.72-1.76.02-1.06-.03-2.12.01-3.18.05-1.55,1.17-2.63,2.74-2.69,3.42-.15,3.45-.15,3.61-3.68.06-1.19.6-1.89,1.76-1.7,3.38.54,6.49-1.37,9.84-1.01.9.1,1.1-.57,1.15-1.36.28-4.34.3-4.51,4.72-4.3,4.13.2,8.25.25,12.38.28,1.13,0,2.19-.12,3.21-.68,1.08-.59,2.29-.26,3.44-.25,1.2,0,1.79-.36,1.71-1.64-.29-4.63.86-4.11,4.32-4.11,8.48,0,16.94.54,25.42.33,2.63-.06,3.02-.42,3.04-3.05.03-4.09-.47-3.62,3.66-3.63,6.95-.02,13.9,0,20.84,0,.32-.29.7-.43,1.13-.41,1.62.35,3.27.26,4.91.26,5.09,0,10.18,0,15.27,0,1.33,0,2.65,0,3.96-.21.32.02.61.1.83.36,2.12-.19,4.27.39,6.37-.32-.33-1.5-.13-3.03-.14-4.54-.01-1.28.91-1.7,1.98-1.78,1.52-.12,3.03-.08,4.53.28Z"/><path class="cls-132" d="M25,68.41c-6.58,0-13.17,0-19.75,0-.51-1.49-.35-3.04-.29-4.56.06-1.39,1.01-1.82,2.3-1.81,5.08.02,10.16.06,15.24-.01,2.95-.04,5.89-.45,8.85-.3.17.12.3.28.39.47.28,2.13.72,4.28-.33,6.34-2.15.76-4.29.97-6.4-.13Z"/><path class="cls-39" d="M31.37,62.07c0-.12,0-.23-.01-.35,0-2.01,0-4.03,0-6.04,2.11,0,4.22,0,6.33,0,.08.06.17.13.25.19.64,2.12.83,4.23-.16,6.32-2.15.77-4.29.94-6.41-.1Z"/><path class="cls-272" d="M37.68,55.66c.01-1.58.09-3.15.02-4.72-.05-1.2.29-1.73,1.59-1.65,1.57.1,3.15.01,4.73,0,.09.06.17.12.26.18.68,2.12.83,4.24-.13,6.33-2.14.78-4.28.96-6.4-.1l-.07-.03Z"/><path class="cls-204" d="M44.01,49.29c.02-1.52.13-3.05.04-4.56-.08-1.34.3-1.92,1.74-1.81,1.51.12,3.04.02,4.57,0,.09.06.17.11.26.17.7,2.12.84,4.24-.11,6.33-2.14.79-4.27.94-6.39-.1l-.11-.04Z"/><path class="cls-140" d="M50.48,36.59c2.09,0,4.18-.02,6.27-.03.09.06.17.12.26.17.68,2.12.83,4.23-.12,6.32-2.14.79-4.27.94-6.38-.1,0,0-.14-.04-.14-.04.04-2.11.07-4.22.11-6.33Z"/><path class="cls-253" d="M56.83,30.26c2.1-.02,4.19-.03,6.29-.05.08.06.17.12.26.18.67,2.12.82,4.23-.13,6.31-2.13.79-4.26.95-6.36-.1,0,0-.15-.03-.15-.03.03-2.1.06-4.21.09-6.31Z"/><path class="cls-184" d="M-70.18,163.85c0-2.12,0-4.24,0-6.36.39-.52.95-.64,1.55-.64,9.77,0,19.54-.13,29.32.07,2.75-.18,5.5-.08,8.25-.08,9.36-.01,18.72-.01,28.09,0,.89,0,1.82-.13,2.59.5.93,2.2.86,4.4.06,6.62-.45.42-1.02.54-1.61.54-5.98,0-11.96.13-17.94-.07-2.81.18-5.62.08-8.43.08-8.86.02-17.71,0-26.57,0-.85,0-1.7,0-2.54-.09-3.69.18-7.38.06-11.06.07-.64,0-1.27-.07-1.7-.64Z"/><path class="cls-85" d="M152.37,42.95c5.67,0,11.35,0,17.02,0,1.83,0,2.21.36,2.31,2.2.04.79.07,1.59,0,2.38-.13,1.49.72,1.79,1.96,1.78,5.46-.02,10.93.12,16.39-.03,22.26-.59,44.53-.45,66.78-.2,15.48.18,30.95.06,46.42.18,1.5.01,1.97.7,2.12,1.94.03.26.02.53.02.79.01,3.62-.39,3.34,3.32,3.34,4.83,0,9.65.04,14.48,0,20.83-.21,41.66.53,62.49.33,1.95-.02,2.4.46,2.47,2.45q.13,3.59,3.77,3.59c.74,0,1.48,0,2.23,0,.02,2.17.05,4.34.05,6.5,0,18.62,0,37.24,0,55.86,0,.53-.03,1.06-.05,1.58-.54.66-1.29.65-2.04.66-9.18.01-18.35.03-27.53-.01-2.14,0-2.83-.73-2.85-2.91-.04-3.55.22-3.44-3.52-3.44-20.58,0-41.16,0-61.74,0-.74,0-1.49.02-2.23-.02-1.77-.09-2.44-.77-2.53-2.57-.04-.79-.01-1.59-.04-2.39-.03-.91-.49-1.34-1.39-1.37-.69-.02-1.38-.02-2.07-.02-35.7,0-71.39,0-107.09-.01-1.1,0-2.24.23-3.26-.4-1.1-1.07-.68-2.46-.72-3.73-.07-2.14-.1-2.18-2.23-2.24-1.23-.04-2.54.33-3.64-.59-.96-2.04-.41-4.18-.42-6.28-.14-1.42-.11-2.84-.08-4.26.02-1.15-.47-1.56-1.61-1.61-1.44-.06-2.97.44-4.28-.6-.93-2.07-.39-4.22-.4-6.34-.13-2.1-.17-4.2,0-6.29-.15-1.41-.11-2.84-.09-4.26.02-1.16-.5-1.54-1.62-1.59-1.43-.06-2.97.44-4.27-.61-.93-2.07-.39-4.22-.4-6.34-.13-2.1-.17-4.2,0-6.29-.15-1.41-.11-2.83-.09-4.25.02-1.15-.48-1.55-1.6-1.6-1.43-.06-2.96.43-4.27-.59-.94-2.03-.4-4.16-.41-6.26-.03-2.04-.36-4.09.2-6.11.1-.18.25-.31.43-.39Z"/><path class="cls-153" d="M177.79,112.93c37.38,0,74.76,0,112.13.01,2.43,0,2.41,0,2.43,2.39.04,4.56-.6,3.97,3.95,3.97,21.31.02,42.63,0,63.94,0q2.12,0,2.12,2.05,0,4.31,4.26,4.31c9.17,0,18.34,0,27.52,0,0,6.36,0,12.73,0,19.09-.63.76-1.51.64-2.35.66-5.34.07-10.67-.04-16-.21-.33-.02-.61-.14-.85-.37-.76-1.04-.46-2.24-.49-3.39-.06-2.21-.18-2.38-2.35-2.38-6.2-.02-12.4-.03-18.59,0-7.41.04-14.82-.2-22.23-.27-.2-.05-.37-.15-.53-.28-.77-.97-.51-2.12-.53-3.21-.05-2.53-.11-2.62-2.57-2.63-2.7-.01-5.39,0-8.09,0-.74,0-1.49.03-2.17-.33-1.46-1.59-3.37-.96-5.09-.9-5.87.22-11.73.03-17.6.09-1.25.01-1.59-.82-1.7-1.87q-.37-3.35-3.7-3.36c-4.71,0-9.41,0-14.12,0-.79,0-1.59.07-2.34-.31-1.7-1.51-3.76-.78-5.63-.72-1.25.04-2.52.21-3.78.21-4.34.01-8.69.02-13.03,0-1.8-.01-2.21-.44-2.3-2.25-.02-.32,0-.64-.02-.95-.1-1.88-.52-2.32-2.43-2.32-17.69-.02-35.38-.02-53.07,0-1.88,0-2.27.45-2.37,2.38-.02.32,0,.64-.03.95-.13,1.61-.68,2.12-2.29,2.2-1.36.07-2.77-.27-4.03.55-2.07.32-4.14.67-6.16-.26-.88-1.03-.53-2.28-.58-3.44-.04-.98-.06-1.97.09-2.96.02-2.1-.5-4.23.34-6.28.08-.06.16-.12.24-.19Z"/><path class="cls-226" d="M146.01,36.6c1.53,0,3.06.08,4.58-.04,1.46-.12,1.82.49,1.74,1.82-.09,1.52.02,3.05.05,4.57,0,0-.11,0-.11,0-2.07,1.07-4.18.83-6.31.19-1.16-1.98-.7-4.07-.39-6.15.1-.18.25-.32.44-.41Z"/><path class="cls-128" d="M145.89,30.25c.04,2.11.07,4.23.11,6.34l-.13-.02c-2.12,1.11-4.25.93-6.4.1-.9-2.18-.84-4.36-.05-6.56,2.17-.81,4.34-1.03,6.47.13Z"/><path class="cls-30" d="M145.89,30.25l-6.29-.07c-1.17-2.01-.83-4.07-.23-6.15.08-.06.17-.12.25-.17,2.09,0,4.18,0,6.27.01,0,2.13,0,4.25,0,6.38Z"/><path class="cls-12" d="M120.47,17.5c0-2.1,0-4.21-.01-6.31,2.12-.04,4.25-.07,6.37-.11,2.13.04,4.25.08,6.38.11,0,2.09,0,4.18.01,6.27,1.11,2.02.68,4.11.33,6.2-.09.18-.22.33-.39.46-1.79.69-3.64.4-5.47.25-.82-.06-1.26-.69-1.42-1.5-.1-.52-.08-1.05-.08-1.58,0-3.42.07-3.14-3.25-3.16-.78,0-1.6.1-2.29-.41-.06-.08-.12-.15-.18-.23Z"/><path class="cls-160" d="M69.5,23.85c.02-2.11.05-4.21.07-6.32,2.11-.03,4.23-.07,6.34-.1,0,0,0,.14,0,.14,1.1,2.09.88,4.21.15,6.34-2.09,1.02-4.22.79-6.36.2-.07-.08-.13-.16-.2-.25Z"/><path class="cls-215" d="M75.91,23.86c0-2.1,0-4.2,0-6.3,2.13-.04,4.25-.07,6.38-.11,0,0-.03.11-.03.11,1.14,2.08.89,4.2.18,6.33-2.07,1.05-4.19.79-6.32.22-.07-.08-.13-.16-.2-.24Z"/><path class="cls-29" d="M63.21,23.88c2.1-.01,4.19-.02,6.29-.03,0,0,.14,0,.14,0,.89,2.14.84,4.29.02,6.44-2.14.88-4.27,1.02-6.39-.06l-.15-.02c.03-2.11.06-4.22.09-6.33Z"/><path class="cls-70" d="M133.21,23.86c0-2.13,0-4.26.01-6.39,2.1,0,4.19.02,6.29.03.04,2.13.08,4.25.12,6.38l-.06-.06-.08.04c-1.41.96-4.86.96-6.29.02Z"/><path class="cls-146" d="M114.11,17.49c2.12,0,4.24,0,6.36,0,0,0,0,0,0,0,1.1,2.14.9,4.3.13,6.48-2.19.87-4.39.84-6.6.03-.86-2.18-.95-4.36.06-6.53l.04.02Z"/><path class="cls-273" d="M114.07,17.47c.02,2.13.04,4.25.05,6.38,1.06,2.14.92,4.29.09,6.46-2.19.91-4.38.86-6.58.04-.46-.51-.53-1.13-.53-1.78-.02-3.06-.02-6.13,0-9.19,0-.71.09-1.37.66-1.88,0,0-.03-.04-.03-.04,2.12,0,4.24,0,6.36,0Z"/><path class="cls-162" d="M107.74,17.5c0,4.24,0,8.48,0,12.72.55.51.65,1.17.65,1.87.01,3.05.02,6.1,0,9.15,0,.64-.06,1.26-.49,1.79-2.18.93-4.37.85-6.57.06-.79-.83-.59-1.87-.61-2.86-.02-1.21-.06-2.43.08-3.64-.14-4.23-.16-8.46,0-12.69-.15-1.51-.08-3.02-.08-4.52,0-.7.09-1.35.67-1.84l-.04-.08c2.13.01,4.26.03,6.38.04Z"/><path class="cls-4" d="M101.4,17.54c-.01,2.1-.02,4.2-.03,6.31-2.11,1.13-4.26.91-6.42.14-.89-2.14-1.02-4.27.05-6.4,0,0,.04-.14.04-.14,2.12.03,4.24.06,6.36.09Z"/><path class="cls-120" d="M95,17.58c0,2.09,0,4.18,0,6.27-.07.08-.13.16-.2.24-2.11.61-4.22.79-6.29-.18-.75-2.14-.95-4.27.14-6.37,0,0-.02-.12-.02-.12,2.12.05,4.25.11,6.37.16Z"/><path class="cls-89" d="M88.64,17.54c0,2.11,0,4.22.01,6.33-.06.07-.13.15-.19.22-2.01.62-4.02.67-6.02-.04-.06-.08-.11-.16-.17-.24,0-2.09-.01-4.17-.02-6.26,2.13,0,4.26,0,6.39-.01Z"/><path class="cls-262" d="M-32.31,138.39h-6.36c-.97-.96-.62-2.19-.65-3.32-.06-2.26-.13-2.36-2.31-2.38-3.96-.05-4.06-.15-4.07-4.15,0-2.12-.01-4.24,0-6.36.02-2.79.72-3.5,3.47-3.53,2.38-.02,4.77.03,7.15-.02,1.72-.04,2.03-.37,2.1-2.06q.18-4.28,4.42-4.28c10.28,0,20.56,0,30.84,0,.74,0,1.49-.05,2.22.08,1.19.21,1.88.91,2,2.13.01.11.03.21.02.32-.24,3.86-.07,3.99,4.51,3.78.37-.02.73-.11,1.11-.05,1.47.18,2.94.08,4.41.11.74.01,1.48,0,2.1.49.74.77.61,1.75.61,2.68.02,3.38-.23,3.18,3.14,3.2.93,0,1.91-.13,2.7.57.92,1.81.69,3.71.25,5.55-.3,1.25-1.49,1.52-2.68,1.53-2.48.03-4.97,0-7.45.02-2.16.02-2.27.16-2.33,2.37-.03,1.14.26,2.34-.48,3.39-.23.23-.5.36-.82.4-4.03.38-8.07.2-12.11.11-4.13.2-8.27.07-12.4.09-5.67.02-11.35.01-17.02,0-.85,0-1.72.07-2.37-.66Z"/><path class="cls-86" d="M12.25,118.99c-1.55.51-3.15.33-4.73.28-1.12-.03-1.73-.66-1.64-1.87.05-.79.01-1.59,0-2.38-.01-1.86-.2-2.05-2.13-2.07-1.59-.01-3.18,0-4.77,0-9.81,0-19.62.03-29.42-.03-1.43,0-2.08.35-1.89,1.86.1.78.02,1.59.02,2.38-.02,1.71-.41,2.13-2.18,2.14-2.81.03-5.62,0-8.43.01-1.81,0-2.11.31-2.12,2.15-.01,2.97.06,5.94-.03,8.9-.04,1.35.45,1.79,1.74,1.68,1.05-.09,2.12.03,3.18-.03,1.09-.07,1.54.32,1.49,1.45-.07,1.64-.02,3.28-.02,4.93-1.75,0-3.5-.05-5.25.02-1.13.05-1.51-.4-1.45-1.49.06-1.06-.03-2.12.03-3.18.06-1.19-.36-1.93-1.62-1.69-3.12.58-5.93-1.35-9.02-1.01-.71.08-.81-.51-.83-1.09-.06-1.5.35-3.09-.92-4.35-1.27-1.26-2.87-.84-4.37-.88-.85-.02-1.1-.45-1.07-1.2.07-1.7-.2-3.24-.98-4.87-.77-1.62-.66-3.71-.01-5.43.53-1.4.75-2.74.66-4.17-.09-1.38.42-1.9,1.83-1.85,3.26.1,6.36-1.44,9.69-1,.94.12,1.2-.8,1.24-1.69.15-3.49.26-3.05,3.63-3.73,8.79-1.79,17.61-.56,26.41-.81,8.85-.25,17.71-.05,26.57-.05.17.09.3.22.39.39.39.8.28,1.65.29,2.49.02,3.4-.21,3.13,3.21,3.15.94,0,1.92-.12,2.69.64.89,2.07.37,4.23.38,6.36.15,1.45.09,2.91.08,4.37,0,.64-.07,1.26-.64,1.68Z"/><path class="cls-25" d="M-38.67,151.12c0-2.12,0-4.24,0-6.36h6.37c.43-.45.95-.64,1.57-.64,10.06.01,20.13-.13,30.19.07,1.79-.15,3.58-.08,5.37-.08.64,0,1.27.06,1.79.5.92,2.17.8,4.35.09,6.55-.23.25-.52.39-.85.43-.61.19-1.25.2-1.88.2-13.43,0-26.87,0-40.3,0-.83,0-1.72.14-2.34-.65Z"/><path class="cls-86" d="M-.48,144.76h-31.83c0-2.12,0-4.24,0-6.36H-.48c1.04,2.12,1.04,4.24,0,6.36Z"/><path class="cls-98" d="M5.91,100.19c-.01-.1-.03-.2-.06-.29.02-2.01.03-4.01.05-6.02,2.12-1.15,4.27-.94,6.44-.13.92,2.18.85,4.37.06,6.57-2.18.82-4.35,1.02-6.49-.12Z"/><path class="cls-32" d="M12.23,93.83c-2.11.02-4.22.03-6.33.05,0-1.53.07-3.07-.04-4.59-.09-1.35.31-1.93,1.76-1.82,1.52.11,3.06.02,4.59.01.08.06.16.12.24.17.7,2,.68,4,.01,6-.08.06-.16.12-.24.18Z"/><path class="cls-13" d="M12.22,87.48c.01-1.63.07-3.26.02-4.89-.04-1.07.31-1.53,1.44-1.48,1.63.07,3.26,0,4.89,0,.08.06.17.12.25.18.66,2.12.83,4.24-.14,6.33-2.14.77-4.28.96-6.4-.11l-.07-.03Z"/><path class="cls-27" d="M18.57,81.11c.02-1.63.09-3.26.03-4.89-.03-1.07.31-1.53,1.43-1.48,1.63.07,3.26,0,4.89,0,.09.06.17.12.26.18.67,2.12.83,4.24-.13,6.33-2.14.78-4.28.94-6.39-.1l-.09-.04Z"/><path class="cls-26" d="M25,68.41c2.1,0,4.19-.01,6.29-.02.08.06.17.12.26.18.67,2.13.8,4.25-.11,6.35-2.15.74-4.29.94-6.41-.13,0,0-.11-.04-.11-.04.03-2.11.05-4.23.08-6.34Z"/><path class="cls-36" d="M31.37,62.07c2.1-.01,4.2-.03,6.3-.04.08.06.17.12.25.18.65,2.12.82,4.23-.14,6.31-2.14.78-4.26.95-6.37-.11,0,0-.12-.03-.12-.03.02-2.11.05-4.21.07-6.32Z"/><path class="cls-48" d="M37.75,55.69c2.1,0,4.19-.02,6.29-.03.08.06.17.13.25.19.65,2.13.8,4.24-.12,6.34-2.15.72-4.29.95-6.4-.15,0,0-.1-.01-.1-.01.03-2.11.05-4.22.08-6.33Z"/><path class="cls-63" d="M44.13,49.33c2.1,0,4.19-.02,6.29-.03.08.06.16.13.25.19.63,2.12.82,4.23-.16,6.31-2.14.76-4.27.96-6.37-.13,0,0-.09,0-.09,0,.03-2.11.06-4.22.09-6.33Z"/><path class="cls-42" d="M50.51,42.97c2.1,0,4.2-.02,6.3-.02.08.07.16.13.24.2.6,2.13.8,4.24-.15,6.33-2.16.69-4.3.96-6.41-.17,0,0-.06,0-.06,0,.03-2.11.06-4.23.09-6.34Z"/><path class="cls-145" d="M56.89,36.6c2.1,0,4.2-.01,6.29-.02.08.07.16.13.24.2.57,2.12.82,4.23-.2,6.3-2.15.74-4.29.97-6.39-.15,0,0-.03,0-.03,0,.03-2.11.06-4.23.09-6.34Z"/><path class="cls-127" d="M63.28,30.23c2.09,0,4.18,0,6.28,0,.08.07.16.14.24.2.57,2.12.82,4.23-.2,6.3-2.15.73-4.29.97-6.4-.15,0,0,0,.01,0,.01.03-2.12.06-4.24.09-6.35Z"/><path class="cls-79" d="M-38.67,151.12c14.85,0,29.71,0,44.56,0,1.1,2.13.9,4.3.13,6.47-2.18.81-4.35.98-6.5-.11-12.94,0-25.89,0-38.83,0,0-2.12,0-4.24,0-6.36.21,0,.43,0,.64,0Z"/><path class="cls-199" d="M-.48,157.48c2.12,0,4.24,0,6.36,0,.55-.61,1.29-.65,2.04-.66,7.18,0,14.36-.01,21.55,0,.69,0,1.38.01,1.95.49.94,2.19.85,4.4.07,6.61-2.08.84-4.15.97-6.2-.08-8.59,0-17.19,0-25.78,0,0-2.12,0-4.24,0-6.36Z"/><path class="cls-210" d="M165.09,93.86c1.64,0,3.28.04,4.92-.02,1.01-.04,1.45.27,1.4,1.34-.08,1.69-.04,3.38-.05,5.08-2.08,1.04-4.2.8-6.33.18-1.13-1.99-.67-4.08-.38-6.16.1-.18.25-.32.44-.41Z"/><path class="cls-129" d="M164.99,87.51c.04,2.12.07,4.23.11,6.35l-.13-.02c-2.09,1.12-4.22.88-6.37.18-1.03-1.77-.52-3.66-.43-5.52.03-.43.11-.85.44-1.17,2.15-.69,4.29-.96,6.38.19Z"/><path class="cls-256" d="M165.07,100.19c2.1.02,4.19.04,6.29.07.04,2.11.08,4.23.11,6.34-.07.08-.14.16-.21.24-2.15.56-4.29.79-6.41-.18-.67-2.18-1-4.35.21-6.46Z"/><path class="cls-94" d="M164.99,87.51c-2.1-.02-4.2-.04-6.3-.06-.59-.41-.7-1.04-.66-1.68.11-1.59-.44-3.25.5-4.76,2.17-.79,4.34-1.03,6.47.15,0,2.12,0,4.23-.01,6.35Z"/><path class="cls-246" d="M165,81.16c-2.1-.02-4.19-.05-6.29-.07-1.24-1.9-.69-3.92-.41-5.93.1-.18.25-.31.43-.4,1.64,0,3.28.04,4.92-.02,1.01-.04,1.44.28,1.4,1.35-.07,1.69-.04,3.38-.05,5.07Z"/><path class="cls-266" d="M158.62,68.43c.04,2.11.07,4.23.11,6.34,0,0-.13-.02-.13-.02-2.11,1.12-4.25.93-6.39.11-.9-2.18-.84-4.36-.05-6.55,2.17-.81,4.33-1.03,6.47.13Z"/><path class="cls-167" d="M171.48,106.59c1.57,0,3.15.06,4.72-.04,1.3-.08,1.64.46,1.59,1.65-.07,1.57,0,3.15,0,4.72,0,0-.05.03-.05.03-2.13,1.05-4.27.9-6.43.08-.87-2.16-.95-4.32.03-6.47l.06.07.07-.05Z"/><path class="cls-28" d="M158.62,68.43c-2.1-.02-4.2-.04-6.29-.07-.48-.33-.68-.83-.65-1.36.1-1.7-.48-3.46.48-5.08,2.18-.79,4.34-1.02,6.47.15,0,2.12-.01,4.23-.02,6.35Z"/><path class="cls-223" d="M158.64,62.08l-6.29-.07c-1.24-1.9-.7-3.92-.41-5.93.1-.18.25-.31.43-.39,1.58,0,3.17.05,4.75-.03,1.15-.06,1.63.3,1.57,1.51-.09,1.63-.04,3.27-.05,4.91Z"/><path class="cls-229" d="M152.26,49.34c.04,2.11.07,4.23.11,6.34,0,0-.13-.02-.13-.02-2.11,1.11-4.25.93-6.4.1-.9-2.18-.84-4.36-.05-6.56,2.17-.81,4.33-1.03,6.47.13Z"/><path class="cls-122" d="M152.26,49.34c-2.1-.02-4.2-.04-6.29-.06-1.17-2.01-.83-4.07-.23-6.15.08-.06.17-.12.25-.18,2.09,0,4.18,0,6.27,0,0,2.13,0,4.25,0,6.38Z"/><path class="cls-135" d="M317.49,132.03c3.81,0,7.61.05,11.42-.03,1.47-.03,2.01.55,1.96,1.95-.05,1.48-.01,2.96-.01,4.44-.39.52-.95.64-1.55.64-8.4,0-16.79.13-25.18-.06-.95.1-1.9.09-2.85.09-12.69,0-25.39,0-38.08,0-.94,0-1.92.17-2.75-.49-.86-1-.54-2.22-.57-3.35-.06-2.4-.13-2.51-2.53-2.51-23.3,0-46.6,0-69.9-.02-1.14,0-2.35.28-3.38-.53-.92-2.18-.96-4.36.02-6.53.23-.15.47-.26.74-.24,2.71.18,5.38-.39,8.08-.38,17.55.02,35.11-.11,52.66.09,5.18.06,10.37.15,15.55.33.98.79,2.14.76,3.31.75,1.59-.01,2.16.46,2.13,2.06-.06,3.51.56,3.13,3.4,3.15,1.48.01,2.97.02,4.45,0,11.71-.13,23.42.27,35.13.2,1.8-.01,3.59-.24,5.39-.19.93.03,1.79.15,2.57.65Z"/><path class="cls-153" d="M261.16,125.67c-25.68,0-51.35,0-77.03,0-.11.11-.21.11-.32,0,.9-1.17,2.17-.56,3.26-.6,2.46-.09,2.46-.03,2.47-2.47,0-2.93.36-3.29,3.28-3.29,17.7,0,35.4,0,53.1,0,2.28,0,2.8.52,2.82,2.79.04,3.3-.45,2.92,2.99,2.93,4.24.02,8.48.03,12.72,0,2.16-.02,4.31-.45,6.49-.33.84.05,1.59.13,2,.97-.35.47-.85.6-1.4.63-3.08.18-6.14-.21-9.21-.18-.42,0-.83-.17-1.17-.45Z"/><path class="cls-99" d="M171.46,112.95c2.09,0,4.19,0,6.28.02,0,2.12,0,4.25-.01,6.37-2.08,1.04-4.2.8-6.33.19-1.13-1.99-.67-4.08-.38-6.16.1-.18.25-.32.44-.41Z"/><path class="cls-138" d="M171.44,119.27c2.1.02,4.19.04,6.29.07.04,2.11.08,4.23.11,6.34-.07.08-.14.16-.21.24-2.15.57-4.29.79-6.4-.18-.67-2.18-1-4.35.21-6.47Z"/><path class="cls-11" d="M183.81,125.66c.11,0,.21,0,.32,0,.01,2.12.02,4.23.03,6.35-.07.08-.13.16-.2.24-2.13.6-4.25.81-6.33-.18-.78-2.15-.91-4.29.08-6.42l.06.06.07-.04c1.99,0,3.98-.01,5.97-.02Z"/><path class="cls-104" d="M139.59,36.57c2.09,0,4.19,0,6.28.01.04,2.13.08,4.25.12,6.38l-.06-.07-.08.04c-2.08,1.14-4.21.87-6.34.19-.98-2.09-.78-4.22-.17-6.36.08-.06.17-.13.25-.19Z"/><path class="cls-197" d="M133.21,23.86c2.1,0,4.19-.01,6.29-.02.04,2.12.08,4.23.11,6.35,0,2.13,0,4.25-.01,6.38,0,0-.04.03-.04.03-2.14,1.06-4.29.93-6.45.07-.41-.46-.53-1.02-.54-1.61-.04-3.16-.02-6.32,0-9.48,0-.66.15-1.25.65-1.72h0Z"/><path class="cls-194" d="M133.2,23.86c0,4.24,0,8.48,0,12.72-.06.08-.13.16-.19.23-2.05.82-4.16.31-6.25.32-1.59.18-3.18.08-4.77.08-.6,0-1.16-.11-1.63-.51-.96-1.38-.4-2.95-.54-4.43-.06-.68,0-1.36.08-2.04-.15-1.56-.08-3.12-.08-4.68,0-.65.14-1.24.63-1.7,0-2.12.01-4.25.02-6.37,1.69,0,3.38.03,5.07-.01.95-.02,1.34.33,1.31,1.29-.05,1.26.03,2.53-.02,3.8-.04.96.36,1.32,1.31,1.29,1.69-.04,3.38,0,5.07,0Z"/><path class="cls-245" d="M69.55,30.22c.03-2.12.06-4.25.09-6.37,2.09,0,4.18,0,6.27.01l.02-.02c1.06,2.14.91,4.29.09,6.46-2.17.86-4.33,1.01-6.48-.09h0Z"/><path class="cls-202" d="M75.93,30.2c0-2.12,0-4.24,0-6.36,2.11,0,4.23-.02,6.34-.02,0,0,0,.08,0,.08,1.09,2.09.87,4.21.16,6.35-2.07,1.05-4.19.8-6.32.21-.07-.08-.13-.16-.19-.25Z"/><path class="cls-81" d="M120.46,23.87c0,2.12,0,4.24-.01,6.36-2.01,1.08-4.08.78-6.15.23-.07-.08-.13-.16-.19-.24,0-2.13.01-4.25.02-6.38,2.11,0,4.22.01,6.34.02Z"/><path class="cls-77" d="M107.74,42.95c0-4.24,0-8.49,0-12.73,2.12,0,4.24,0,6.36,0,0,0,0,0,0,0,.44.43.64.96.64,1.57-.01,3.7.13,7.41-.07,11.11.15,1.58.08,3.16.08,4.73,0,.64-.09,1.26-.55,1.77-2.18.9-4.37.85-6.56.05-.83-2.18-.99-4.35.1-6.5Z"/><path class="cls-88" d="M94.99,23.85c2.12,0,4.25,0,6.37-.01,0,4.25,0,8.5,0,12.74-2.12,1.1-4.27.9-6.42.13-.89-1.04-.53-2.3-.59-3.48-.05-1-.04-2,.08-2.99-.15-1.56-.08-3.12-.08-4.69,0-.65.16-1.24.65-1.7h-.02Z"/><path class="cls-190" d="M107.74,42.95c0,2.12,0,4.24,0,6.36,1.09,2.13.89,4.29.14,6.47-2.17.89-4.36.83-6.54.05-.79-.81-.6-1.84-.61-2.82-.01-1.2-.08-2.4.09-3.6.03-2.1-.5-4.23.34-6.28.08-.06.16-.12.24-.18h6.34Z"/><path class="cls-261" d="M95.03,36.59c2.11,0,4.23,0,6.34,0,0,2.12.02,4.24.03,6.36,0,0-.05.02-.05.02-2.1,1.07-4.22.86-6.36.15-1.05-2.08-.8-4.2-.2-6.33.08-.06.17-.13.25-.19Z"/><path class="cls-165" d="M95.01,23.85c-.01,2.13-.02,4.26-.03,6.39-2.13,1.05-4.27.91-6.43.08-.84-2.17-1-4.33.09-6.47,0,0,.01.02.01.02,2.12,0,4.24-.01,6.36-.02Z"/><path class="cls-59" d="M88.64,23.85l.06,6.39c-.07.07-.13.15-.19.22-2.02.62-4.03.62-6.05,0-.06-.07-.13-.15-.19-.23,0-2.12.01-4.23.02-6.35,2.12-.01,4.24-.03,6.36-.04Z"/><path class="cls-159" d="M12.26,138.39c0-1.48.08-2.96-.02-4.43-.11-1.57.55-2.01,2.03-1.96,2.85.09,5.7.03,8.55.02,1.89,0,2.16-.3,2.18-2.23,0-1.37,0-2.74,0-4.11.06-.08.12-.16.19-.23,2.01-.81,4.08-.35,6.13-.33,1.09-.14,2.19-.1,3.29-.1,2.46,0,2.43,0,2.48-2.42.03-1.17-.3-2.43.61-3.46,2.04-.91,4.16-.4,6.25-.4,1.37-.14,2.75-.14,4.12-.08,1.33.06,1.75-.52,1.76-1.79,0-1.34-.37-2.77.51-4.01,1.17-.9,2.54-.5,3.83-.56,1.85-.08,1.93-.15,2.01-2,.06-1.29-.35-2.66.56-3.84.75-.64,1.66-.52,2.54-.54,1.31-.03,2.62.05,3.92-.11,1.53.05,3.07.08,4.6.14,1.61.06,2.25.76,2.38,2.38q.3,3.71,3.92,3.96c1.7.12,2.35.76,2.44,2.49.05.9.05,1.8,0,2.7-.1,1.68-.78,2.34-2.5,2.44-.74.05-1.48,0-2.23.05-1.02.06-1.54.59-1.59,1.61-.04.79.01,1.59-.05,2.38-.12,1.53-.76,2.18-2.29,2.31-.63.06-1.27.01-1.91.04-1.77.07-2.08.38-2.14,2.2-.02.53,0,1.06-.02,1.59-.1,1.81-.74,2.5-2.55,2.54-2.7.07-5.41.03-8.11.02-4.19-.01-8.37.03-12.56.02-1.91,0-2.14.3-2.24,2.24-.06,1.24.35,2.57-.61,3.66-.44.34-.96.44-1.49.44-3.65-.01-7.3.12-10.94-.07-3.79.19-7.57.06-11.36.07-.64,0-1.27-.07-1.7-.64Z"/><path class="cls-259" d="M12.26,138.39h13.05c1.1,2.14.91,4.3.13,6.48-.55.5-1.24.53-1.93.53-3.47.02-6.95.02-10.42,0-.64,0-1.27-.03-1.8-.45-1.06-1.78-.88-5.13.34-6.57h.64Z"/><path class="cls-159" d="M11.62,138.39c-.5,2.1-.27,4.24-.32,6.36-1.59,1.05-3.18.94-4.77,0H-.48v-6.36h12.09Z"/><path class="cls-216" d="M12.25,118.99c0-2.02,0-4.05.01-6.07,2.11-1.04,4.24-.86,6.38-.13,1.03,2.09.82,4.21.18,6.35-.08.06-.17.12-.26.18-2.1-.22-4.24.39-6.32-.33Z"/><path class="cls-154" d="M24.99,125.68c-1.69,0-3.38-.04-5.07,0-.95.02-1.33-.33-1.31-1.29.04-1.69-.02-3.38-.04-5.07,0,0,.09-.03.09-.03,2.13-1.06,4.27-.9,6.42-.08.84,2.16,1,4.32-.09,6.45v.02Z"/><path class="cls-157" d="M5.91,100.19c2.11.02,4.21.03,6.32.05,1.21,1.91.69,3.94.39,5.95-.1.18-.25.31-.43.4-1.58,0-3.16-.06-4.74.01-1.14.05-1.64-.29-1.58-1.51.09-1.63.03-3.27.04-4.9Z"/><path class="cls-71" d="M18.57,112.95c-2.1-.01-4.2-.02-6.3-.03-.03-2.11-.05-4.22-.08-6.33,0,0,.13-.01.13-.01,2.09-1.08,4.22-.85,6.37-.17.97,2.1.8,4.22.15,6.36-.08.06-.17.12-.26.18Z"/><path class="cls-134" d="M6.53,144.76h4.77c4.67,0,9.34,0,14,0,.56-.61,1.3-.65,2.05-.65,7.69,0,15.38-.03,23.06.02,1.43,0,2.84.32,4.27.36,1.14.03,1.82.76,2.05,1.88.06.26.08.52.07.79-.06,3.56-.02,3.29,3.46,3.32,4.29.03,8.58-.13,12.86.31,1.99.2,2.74.83,2.76,2.89.03,3.31-.07,3.26,3.3,3.13,2.57-.1,5,.8,7.56.78,1.32-.01,1.8,1.09,1.89,2.34.23,3.27.24,3.27,3.48,3.28.37,0,.74,0,1.11.01,2,.08,3.03.94,3.01,2.91-.04,3.78.07,3.42,3.68,3.44,1.96.01,3.92-.03,5.88.02,1.96.05,2.58.63,2.54,2.61-.03,1.5.44,3.09-.53,4.49-1.26.94-2.72.45-4.09.55-.78.06-1.56.02-2.34-.08-2.13-.02-4.29.5-6.37-.36-1.04-1.11-.62-2.5-.66-3.78-.08-2.04-.11-2.12-2.18-2.13-1.21-.01-2.43.05-3.64-.1-2.09.01-4.21.5-6.26-.36-.93-.96-.64-2.18-.66-3.31-.04-2.59-.02-2.59-2.67-2.6-1.06,0-2.11.02-3.17-.09-2.12,0-4.26.53-6.33-.38-.73-.79-.57-1.78-.58-2.72-.04-3.17-.03-3.17-3.26-3.17-4.29,0-8.59,0-12.88,0-.74,0-1.49.07-2.17-.33-.18-.11-.33-.25-.44-.42-.57-1.1-.31-2.28-.34-3.43-.06-1.98-.2-2.16-2.21-2.17-12.69-.01-25.39,0-38.08-.02-1.02,0-2.15.31-2.98-.65,0-2.12,0-4.24,0-6.36Z"/><path class="cls-173" d="M6.53,151.12c13.99,0,27.99.02,41.98-.03,1.51,0,2.11.38,1.97,1.95-.13,1.47-.03,2.96-.03,4.45-.47.64-1.17.65-1.86.65-5.12.02-10.24.02-15.36,0-.71,0-1.37-.1-1.88-.65-8.49,0-16.98,0-25.46,0,0-2.12,0-4.24,0-6.36.21,0,.42,0,.64,0Z"/><path class="cls-142" d="M18.61,106.58c-2.1,0-4.2,0-6.29-.01-.03-2.11-.06-4.22-.09-6.33,0-2.14,0-4.27,0-6.41,0,0,.02.02.02.02,1.99-1.14,4.08-.68,6.15-.36.18.09.33.21.45.37.69,1.29.38,2.69.38,4.04,0,1.23.5,1.65,1.7,1.69,1.43.05,2.98-.47,4.27.63.62,2.17.76,4.32-.1,6.47-2.18.81-4.36.98-6.51-.11Z"/><path class="cls-84" d="M18.62,93.85c-2.12,0-4.24,0-6.36,0,.01-2.11.02-4.23.03-6.34,2.1-.01,4.2-.03,6.3-.04.08.06.16.13.25.19.57,2.09.92,4.17-.22,6.19Z"/><path class="cls-66" d="M18.66,81.15c2.1-.01,4.2-.02,6.31-.04.08.07.16.13.24.19.62,2.13.8,4.25-.14,6.34-2.16.72-4.3.94-6.42-.15,0,0-.06-.03-.06-.03.02-2.11.05-4.21.07-6.32Z"/><path class="cls-60" d="M25.04,74.78c2.1,0,4.2-.02,6.3-.03,2.14-1.08,4.3-.92,6.47-.1.91,2.19.86,4.38.05,6.58-.46.41-1.02.52-1.62.53-3.17.03-6.34.02-9.51,0-.66,0-1.26-.14-1.72-.64,0,0-.03-.02-.03-.02.02-2.11.05-4.22.07-6.33Z"/><path class="cls-148" d="M37.72,74.76c-2.13,0-4.25,0-6.38,0,.02-2.11.05-4.23.07-6.34,2.1,0,4.2-.01,6.3-.02.08.06.15.12.23.18.66,2,.65,4,0,6-.08.06-.15.12-.23.18Z"/><path class="cls-207" d="M37.77,62.04c2.1,0,4.21,0,6.31,0,2.14-1.1,4.3-.9,6.48-.13.41.46.53,1.02.53,1.61.03,5.58.04,11.16,0,16.75,0,.26-.08.52-.12.78-.04.43-.1.86-.43,1.19-2.18.8-4.35.8-6.53,0-.47-.5-.56-1.12-.56-1.77.01-1.85-.11-3.7.08-5.54-.13-1.42-.11-2.85-.08-4.28.03-1.15-.46-1.57-1.6-1.62-1.38-.06-2.88.47-4.12-.63,0,0,0,0,0,0,.02-2.12.04-4.24.05-6.36Z"/><path class="cls-187" d="M50.45,62.04c-2.12,0-4.24,0-6.37,0,.02-2.12.04-4.24.05-6.37,2.11,0,4.21,0,6.32,0,.08.07.16.13.24.2.53,2.08.9,4.15-.24,6.17Z"/><path class="cls-131" d="M50.48,49.3c2.11,0,4.22,0,6.33,0,2.14-1.09,4.31-.91,6.49-.12.46.51.52,1.13.53,1.78.02,3.12.02,6.23,0,9.35,0,.64-.05,1.27-.48,1.8-2.14.98-4.31.76-6.5.18-1.03-1.04-.64-2.38-.67-3.6-.07-2.33-.05-2.32-2.42-2.37-1.13-.02-2.35.31-3.3-.64,0,0,0,0,0,0,.01-2.12.02-4.25.03-6.37Z"/><path class="cls-150" d="M63.18,49.31c-2.12,0-4.24,0-6.37,0,0-2.12.01-4.25.02-6.37,2.12,0,4.23,0,6.35,0,.08.07.16.13.24.2.53,2.08.9,4.16-.24,6.17Z"/><path class="cls-240" d="M63.19,36.57c2.12,0,4.24,0,6.36,0,.08.07.16.13.24.2.59,2.13.8,4.25-.17,6.33-2.16.7-4.32.94-6.44-.16,0,0,0-.01,0-.01,0-2.12,0-4.25,0-6.37Z"/><path class="cls-143" d="M69.55,30.21c2.13,0,4.25,0,6.38,0,0,0-.02.02-.02.02,1.11,2.13.9,4.29.14,6.47-2.18.81-4.35.98-6.5-.1,0,0,0-.01,0-.01,0-2.12,0-4.24,0-6.37Z"/><path class="cls-200" d="M44.08,163.85c-4.24,0-8.49,0-12.73,0,0-2.12,0-4.24,0-6.36,6.37,0,12.73,0,19.1,0,1.1,2.13.9,4.3.13,6.47-2.18.81-4.35.98-6.5-.11Z"/><path class="cls-141" d="M165.07,100.19c0,2.12-.01,4.24-.02,6.36.72.71.63,1.63.63,2.52,0,1.31.05,2.63-.08,3.94.19,7.92.08,15.84.06,23.75,0,1.61-.63,2.27-2.2,2.27-1.61,0-3.28.44-4.81-.45-.73-.71-.63-1.64-.64-2.53,0-1.32-.07-2.64.09-3.96-.14-2.16-.14-4.32,0-6.48-.21-3.55-.07-7.1-.09-10.65-.02-6.25-.02-12.51,0-18.76,0-.83-.14-1.73.66-2.35h6.29c.04,2.11.08,4.22.11,6.34Z"/><path class="cls-209" d="M158.67,93.85c0,10.61,0,21.22,0,31.82-2.12,1.1-4.27.9-6.42.13-.9-1.03-.53-2.29-.59-3.47-.05-.99-.05-1.99.08-2.98-.14-2.13-.16-4.27,0-6.4-.15-2.14-.15-4.29,0-6.43-.2-5.56-.07-11.12-.07-16.69,0-.54.13-1.05.48-1.48,2.18-.85,4.35-1,6.51.09,0,1.8.01,3.6.02,5.4Z"/><path class="cls-12" d="M158.65,88.44c-2.12,0-4.24,0-6.35,0-.52-.39-.63-.95-.64-1.55-.04-3.54-.03-7.07,0-10.61,0-.48.1-.94.4-1.34.08-.07.16-.13.25-.2,2.1,0,4.19,0,6.29,0,.04,2.12.07,4.23.11,6.35,0,2.12-.01,4.24-.02,6.35-.01.33-.03.66-.04,1Z"/><path class="cls-181" d="M165.04,112.94c0-2.13.01-4.26.02-6.4,2.1.01,4.19.02,6.29.03.04,2.12.08,4.25.12,6.37l-.06-.06-.08.04c-2.09,1.07-4.19,1.04-6.29.01Z"/><path class="cls-252" d="M145.95,55.66c2.1,0,4.19,0,6.29,0,.04,2.12.07,4.23.11,6.35,0,2.12,0,4.23-.01,6.35,0,2.13-.01,4.26-.02,6.39,0,0-.02.02-.02.02-2.12,1.09-4.28.88-6.44.15-.87-1.05-.5-2.31-.56-3.49-.05-1-.05-2,.08-2.99-.19-3.69-.06-7.39-.08-11.08,0-.54.06-1.06.41-1.5.08-.07.16-.13.25-.19Z"/><path class="cls-168" d="M139.57,42.95c2.09,0,4.19-.01,6.28-.02.04,2.12.08,4.23.11,6.35,0,2.13-.01,4.26-.02,6.39,0,0-.03.02-.03.02-2.12,1.09-4.28.87-6.44.14-.87-1.05-.5-2.31-.56-3.5-.05-1-.04-2,.08-3-.15-1.56-.09-3.13-.08-4.7,0-.64.07-1.26.64-1.69Z"/><path class="cls-73" d="M184.16,132.02c24.7,0,49.4,0,74.1.01q2.26,0,2.26,2.23c0,1.38,0,2.75,0,4.13-.39.52-.95.64-1.54.64-3.95,0-7.9.12-11.84-.07-.74.08-1.48.09-2.22.09-19.25,0-38.49,0-57.74-.01-1.04,0-2.14.22-3.07-.5-.96-2.16-1.01-4.33,0-6.49l.06-.03Z"/><path class="cls-221" d="M165.04,112.94c2.1,0,4.19,0,6.29-.01.04,2.12.08,4.23.11,6.35l-.02,6.36c.71.7.64,1.6.63,2.48,0,1.29.07,2.59-.09,3.88.14,2.14.15,4.27,0,6.41.16,1.61.09,3.22.07,4.83,0,.59-.12,1.14-.52,1.6-1.15.92-2.51.49-3.79.57-.89.06-1.78.03-2.66-.08-1.61.16-3.21.08-4.82.08-.58,0-1.13-.12-1.61-.49-1.02-2.08-.81-4.2-.18-6.33.08-.06.17-.13.25-.19,1.32,0,2.65,0,3.97,0q2.36,0,2.36-2.29c0-7.72,0-15.45,0-23.17Z"/><path class="cls-9" d="M171.4,132.03c0-2.13.01-4.26.02-6.4,2.1,0,4.19.02,6.29.03.04,2.13.08,4.25.12,6.38-.07.08-.13.16-.2.24-2.1.55-4.19.85-6.22-.25Z"/><path class="cls-211" d="M184.1,132.05c.03,2.12.06,4.24.09,6.36-.06.07-.13.15-.19.23-2.03.66-4.08.57-6.12.06-.18-.11-.32-.26-.43-.43-.41-2.1-.77-4.21.24-6.25l.08-.04.06.07c2.09,0,4.18,0,6.28.01Z"/><path class="cls-194" d="M139.57,42.95c0,2.12,0,4.24,0,6.36-2.14,1.08-4.29.93-6.46.09-.37-.41-.52-.91-.53-1.45-.05-3.27-.04-6.54,0-9.81,0-.61.2-1.13.64-1.56,0,0,0,0,0,0,2.12,0,4.23,0,6.35.01,0,2.12.01,4.23.02,6.35Z"/><path class="cls-274" d="M114.11,42.94c0-4.24,0-8.49,0-12.73,2.11,0,4.22,0,6.33.01.02,2.11.04,4.23.05,6.34,1.04,2.14.9,4.29.08,6.46-2.17.86-4.33,1.01-6.47-.08Z"/><path class="cls-147" d="M133.2,36.58c0,4.24,0,8.48,0,12.73-.07.08-.13.16-.2.24-2.11.61-4.22.77-6.29-.17-.94-1.43-.39-3.03-.53-4.56-.06-.62.02-1.25.08-1.87-.16-1.56-.08-3.12-.08-4.67,0-.65.16-1.23.65-1.69,2.12,0,4.24,0,6.36,0Z"/><path class="cls-22" d="M126.84,36.58c0,2.12,0,4.25-.01,6.37-2.02,1.07-4.08.79-6.16.23-.07-.08-.13-.16-.19-.24.01-2.13.02-4.25.03-6.38,2.11,0,4.23,0,6.34.01Z"/><path class="cls-263" d="M75.91,36.59c0-2.12,0-4.24,0-6.36,2.12,0,4.24.01,6.36.02,0,0,0-.02,0-.02.62.55.67,1.29.67,2.04-.02,1.43.08,2.86-.09,4.29.14,2.14.15,4.27,0,6.41.16,1.57.08,3.14.08,4.7,0,.64-.1,1.25-.56,1.75-2.18.87-4.37.86-6.57.02-.46-.51-.53-1.13-.53-1.78-.02-3.06-.02-6.13,0-9.19,0-.71.09-1.37.65-1.88Z"/><path class="cls-55" d="M107.74,55.68c0-2.12,0-4.25,0-6.37,2.12,0,4.24,0,6.36,0,.08.07.16.14.24.2.42.54.41,1.18.41,1.82.01,2.9.01,5.81,0,8.71,0,.74,0,1.49-.55,2.09-2.17.89-4.35.87-6.54.02-.88-2.17-1.01-4.33.07-6.48Z"/><path class="cls-125" d="M114.11,42.94c2.12,0,4.24,0,6.36,0,0,0,.02-.01.02-.01,1.07,2.13.91,4.29.1,6.45-2.17.86-4.33,1.01-6.47-.08,0,0,0,0,0,0,0-2.12,0-4.24,0-6.37Z"/><path class="cls-23" d="M88.7,30.24c2.09,0,4.18,0,6.28,0,.02,2.11.03,4.23.05,6.34,0,0-.06-.02-.06-.02-2.12,1.13-4.26.93-6.41.12-.86-2.16-.96-4.32.05-6.48l.1.03Z"/><path class="cls-100" d="M107.74,55.68c.01,2.12.03,4.23.04,6.35-.06.08-.13.16-.19.24-2.09.67-4.17.7-6.24-.07-1.07-1.98-.68-4.05-.33-6.11.11-.18.25-.31.44-.4,2.09,0,4.19,0,6.28,0Z"/><path class="cls-35" d="M101.34,49.34c.04,2.11.08,4.23.12,6.34h-.14c-2.12,1.09-4.27.89-6.43.12-.86-2.18-.85-4.37,0-6.56,2.16-.87,4.32-1.05,6.45.1Z"/><path class="cls-271" d="M101.34,49.34c-2.1,0-4.2,0-6.3-.01-.08-.06-.16-.12-.24-.18-.68-2.02-.7-4.04,0-6.05.08-.06.16-.11.25-.17,2.1.01,4.2.02,6.3.03,0,2.13,0,4.26-.01,6.38Z"/><path class="cls-217" d="M88.68,36.59c2.1,0,4.2-.01,6.29-.02.03,2.12.06,4.24.09,6.36,0,0-.09.04-.09.04-1.98,1.12-4.05.67-6.12.33-.19-.09-.34-.22-.46-.39-.58-2.05-.67-4.1.05-6.14.08-.06.16-.12.24-.18Z"/><path class="cls-56" d="M88.6,30.21c.02,2.13.05,4.25.07,6.38,0,0-.09-.03-.09-.03-1.43.97-4.83.97-6.28,0-.01-2.11-.03-4.22-.04-6.33,2.11,0,4.22,0,6.34-.01Z"/><path class="cls-115" d="M107.74,176.57c0-1.64-.05-3.29.02-4.93.05-1.13-.4-1.47-1.49-1.45-3.02.05-6.04-.02-9.07.04-1.15.02-1.62-.31-1.58-1.52.19-5.8-.3-4.79-4.92-4.86-.42,0-.85-.04-1.27,0-1.14.12-1.45-.41-1.46-1.48-.01-1.3.56-2.86-.32-3.85-.87-.97-2.48-.06-3.64-.44-2.53-.83-5.11-.54-7.68-.59-.86-.02-1.08-.46-1.07-1.21.02-1.06,0-2.12,0-3.18.01-1.19-.52-1.6-1.74-1.69-5.18-.39-10.37-.32-15.56-.25-1.55.02-1.89-.55-1.83-1.94.05-1.2.44-2.56-.26-3.58-.82-1.18-2.26-.37-3.41-.57-3.68-.66-7.4-.24-11.1-.29-5.35-.08-10.71-.02-16.06-.02v-6.36h12.41c.56-.61,1.3-.65,2.05-.65,5.14,0,10.31-.36,15.41.12,4.07.38,8.12.41,12.18.54,1.71.05,2.5.83,2.47,2.64-.04,3.39.61,3.05,3.34,3.05,4.29.01,8.59.02,12.88,0,1.96-.01,2.23-.27,2.24-2.2.01-2.54.43-5.06.37-7.61-.04-1.6.64-2.3,2.24-2.23,3.45.15,4.32-.43,4.14-4.19-.08-1.7.81-2.53,2.6-2.5,3.5.05,2.8-.8,3.12-3.33.78-6.12.53-12.25.59-18.37.01-1.23-.07-2.42-.55-3.58-.47-1.15-.44-2.39-.41-3.61.03-1.1-.39-1.68-1.57-1.66-2.81.04-5.59-.39-8.4-.36-2.26.03-4.47-.72-6.77-.7-1.21.01-1.73-.99-1.68-2.11.18-3.52-.3-3.16-3.61-3.2-1.28-.02-1.87.51-1.8,1.79.27,5-1.3,4.21-4.6,4.25-.89.01-1.82.1-2.56-.6-.82-2.11-.74-4.24-.07-6.37.64-.7,1.49-.68,2.34-.68,4.06-.03,3.55.32,3.6-3.69,0-.74,0-1.48.52-2.09.64-.59,1.44-.57,2.23-.58,4.07-.03,3.57.35,3.61-3.69,0-.74.01-1.48.53-2.1,1.15-.91,2.52-.52,3.79-.57,1.93-.08,1.98-.13,2.05-2.08.05-1.28-.35-2.64.6-3.79,2.05-.95,4.2-.41,6.31-.41,2.1-.03,4.21-.39,6.29.22.18.1.33.23.46.4.7,2.05.32,4.15.27,6.23.12.94.1,1.88.1,2.83,0,2.94,0,2.93,3.04,2.96.98.01,2.02-.16,2.84.62.92,2.06.39,4.22.4,6.34.13,2.1.17,4.2,0,6.29.15,1.41.11,2.84.09,4.26-.02,1.16.5,1.54,1.62,1.59,1.43.06,2.97-.44,4.27.61.93,2.07.39,4.22.4,6.34.13,2.1.17,4.2,0,6.29.15,1.41.11,2.84.09,4.26-.02,1.16.5,1.54,1.62,1.59,1.43.06,2.97-.44,4.27.61.93,2.07.39,4.23.4,6.35.14,2.12.16,4.23,0,6.35.16,1.48.12,2.96.07,4.44-.06,1.74-.79,2.47-2.55,2.6-.74.06-1.48.04-2.22.04-1.05,0-1.56.47-1.56,1.54-.01,4.87,0,9.75,0,14.62,0,1.15.53,1.64,1.65,1.61.69-.02,1.38-.02,2.07.02,1.85.11,2.58.82,2.62,2.67.06,2.7,0,5.4.03,8.1.02,1.74.19,1.89,1.93,1.93.79.02,1.59-.01,2.38.03,1.26.06,1.94.74,2.02,2,.05.79.02,1.59.03,2.38.04,1.75.19,1.91,1.91,1.95.69.02,1.38,0,2.07.02.7.02,1.38.09,1.91.63.87,1.88.55,3.84.28,5.75-.13.97-1.06,1.25-1.97,1.25-3.71,0-7.41.13-11.12-.06-2.14-.02-4.3.47-6.4-.33-1.08-1.1-.65-2.49-.7-3.78-.07-2.08-.1-2.12-2.15-2.19-1.14-.03-2.34.27-3.41-.41-.06-.07-.11-.15-.17-.22Z"/><path class="cls-259" d="M69.53,93.84c1.7,0,3.4-.03,5.09.02.97.03,1.34-.35,1.3-1.31-.05-1.11.02-2.23-.01-3.34-.03-1.02.45-1.46,1.44-1.41.26.02.53,0,.8,0,4.22-.01,4.25-.01,4.43,4.13.04.96.38,1.25,1.32,1.3,5.32.3,10.62.95,15.95.93.75,0,1.09.23,1.22,1.07,1.19,7.28,1.11,14.63.83,21.95-.1,2.49-.5,5.01-.57,7.53-.02.89-.69,1.2-1.54,1.28-1.29.12-2.88-.59-3.81.48-.87,1.01-.23,2.55-.34,3.85-.11,1.34-.98,2.25-2.31,2.33-.11,0-.21,0-.32,0q-3.74.09-3.74,3.78c0,2.28-.49,4.52-.35,6.81.06,1.05-.62,1.51-1.63,1.51-5.46,0-10.93,0-16.39,0-1.22,0-1.66-.63-1.7-1.79-.15-3.94-.17-3.93-4.07-3.93-1.38,0-2.77.14-4.13-.02-7.75-.92-15.52-.54-23.29-.61,0-1.38-.02-2.76,0-4.13.03-1.85.42-2.23,2.26-2.23,7.04,0,14.09,0,21.13,0,2.01,0,2.09-.05,2.06-2.05-.05-4.44-.08-4.43,4.38-4.29,1.52.05,2.06-.45,2.01-2-.14-4.54-.15-4.5,4.43-4.37,1.45.04,1.95-.45,1.94-1.91-.03-4.3.02-4.33-4.29-4.46-1.46-.05-2.08-.69-2.12-2.14-.12-4.16-.14-4.15-4.32-4.24-.68-.02-1.35-.2-2.03-.31-1.15-1.95-.78-3.96-.24-5.97.99-1.02,2.27-.68,3.46-.7,2.49-.05,2.46-.02,2.51-2.47.02-1.04-.23-2.13.4-3.1.07-.06.15-.12.22-.18Z"/><path class="cls-91" d="M63.2,100.23c0,2.01-.01,4.02-.02,6.03-2.08.72-4.23.11-6.33.34-.08-.06-.16-.12-.25-.19-.68-2.1-.75-4.19.1-6.27,2.08-.91,4.18-.79,6.3-.15.07.08.13.16.19.24Z"/><path class="cls-208" d="M56.85,106.6c-.01,1.68-.06,3.37-.02,5.05.02.94-.32,1.33-1.28,1.31-1.68-.04-3.37,0-5.05.01-.08-.06-.17-.12-.25-.19-.64-2.12-.82-4.24.15-6.33,2.14-.77,4.28-.96,6.4.1l.06.04Z"/><path class="cls-244" d="M44.05,119.28c-2.12.03-4.23.06-6.35.09-.08-.07-.15-.14-.23-.2-.61-2.11-.71-4.21.12-6.29,2.06-1,4.19-.67,6.31-.27.19.1.34.24.47.41.43,2.11.88,4.23-.32,6.27Z"/><path class="cls-238" d="M44.05,119.28c.01-2.1.03-4.2.04-6.3,1.33-.96,4.83-1,6.32-.07,0,0,.08.05.08.05-.01,1.59-.11,3.18-.02,4.76.08,1.3-.44,1.67-1.66,1.6-1.58-.09-3.17-.03-4.76-.04Z"/><path class="cls-69" d="M24.98,125.66c0-2.1.01-4.2.02-6.3.06-.08.11-.16.17-.24,2.01-.76,4.04-.6,6.08-.11.18.11.32.26.42.44.37,2.1.83,4.21-.33,6.22-2.12,0-4.24,0-6.36,0Z"/><path class="cls-259" d="M31.35,125.66v-6.3c.22-.4.61-.64,1.03-.63,1.8.04,3.66-.58,5.35.52,0,0-.03.12-.03.12,0,1.58-.06,3.16.04,4.73.09,1.31-.47,1.64-1.66,1.58-1.57-.08-3.16-.02-4.73-.02Z"/><path class="cls-227" d="M25,119.36c-2.11-.02-4.23-.05-6.34-.07-.03-2.11-.06-4.22-.09-6.33,0,0,.11,0,.11,0,2.12-1.1,4.26-.9,6.42-.13.79,2.16,1,4.32-.13,6.45l.03.1Z"/><path class="cls-198" d="M24.99,112.94c-2.1,0-4.2,0-6.31,0-.02-2.12-.05-4.24-.07-6.36,2.13,0,4.25,0,6.38,0,1.99-1.16,4.07-.68,6.14-.36.19.09.34.22.47.38.65,2.06.57,4.14.07,6.21-.11.18-.25.32-.43.44-2.11.39-4.22.83-6.25-.32Z"/><path class="cls-173" d="M50.45,163.85c0-2.12,0-4.24,0-6.36,5.83,0,11.65.03,17.48-.02,1.24-.01,1.72.35,1.64,1.62-.09,1.58-.02,3.17-.02,4.76-.43.57-1.05.64-1.69.64-1.57,0-3.14.08-4.7-.07-3.72.19-7.45.07-11.17.07-.59,0-1.15-.12-1.54-.64Z"/><path class="cls-97" d="M31.35,106.58h-6.37v-6.36c-1.02-1.07-.59-2.41-.64-3.64-.08-1.97-.11-2.01-2.09-2.09-1.23-.05-2.57.38-3.64-.64,0,0,0,0,0,0,0-2.12.02-4.23.03-6.35,2.11,0,4.23-.01,6.34-.02,1.92-1.17,3.96-.74,5.95-.37.79.14,1.03,1.01,1.04,1.79.06,5.43.06,10.86,0,16.29,0,.54-.16,1.04-.63,1.38Z"/><path class="cls-74" d="M18.62,93.85c1.69,0,3.38.03,5.07-.01.96-.03,1.33.35,1.3,1.3-.04,1.69-.01,3.38-.01,5.07-1.69,0-3.38-.03-5.07.01-.96.03-1.33-.34-1.3-1.3.05-1.69.01-3.38.01-5.07Z"/><path class="cls-18" d="M31.35,106.58c0-5.82-.03-11.65.02-17.47.01-1.24-.35-1.72-1.62-1.64-1.58.09-3.18.02-4.77.02,0-2.12,0-4.24.02-6.35,4.24,0,8.48,0,12.72,0,.52.39.64.95.64,1.55,0,3.7.13,7.41-.07,11.11.19,3.78.06,7.57.07,11.36,0,.43-.07.84-.28,1.22-.09.19-.23.35-.4.48-2.13.51-4.26.86-6.32-.26h0Z"/><path class="cls-178" d="M37.72,93.85c0-4.24,0-8.48,0-12.73v-6.36h0c2.12-1.04,4.24-1.04,6.36,0,0,2.44,0,4.88,0,7.32.49.47.64,1.06.65,1.72.02,2.84.02,5.68,0,8.52,0,.59-.1,1.15-.49,1.63-2.18.84-4.36,1-6.52-.09Z"/><path class="cls-107" d="M44.08,74.76c-2.12,0-4.24,0-6.36,0,0-2.12,0-4.24,0-6.36,1.69,0,3.38.03,5.07-.01.96-.03,1.33.35,1.3,1.3-.05,1.69-.01,3.38-.01,5.07Z"/><path class="cls-17" d="M50.45,55.67c1.69,0,3.38.03,5.08-.01.96-.03,1.33.34,1.3,1.3-.04,1.69,0,3.38,0,5.07.44.43.64.96.64,1.57-.01,3.71.12,7.41-.07,11.12.15,1.58.08,3.16.08,4.74,0,.64-.08,1.26-.52,1.78-2.18.79-4.34.98-6.49-.12,0-6.36,0-12.73,0-19.09,0-2.12,0-4.24,0-6.36Z"/><path class="cls-172" d="M44.08,93.85c0-3.92,0-7.85,0-11.77h6.36c.97.86.58,2.01.65,3.06.05.77.02,1.55-.09,2.32.14,2.11.17,4.22,0,6.33.03,2.1.4,4.21-.23,6.29-.1.19-.25.34-.42.45-2.16.46-4.31.74-6.42-.22-.72-2.17-.95-4.33.15-6.45Z"/><path class="cls-180" d="M50.45,87.49c0-1.8,0-3.6,0-5.41,0-.32,0-.63,0-.95,2.12,0,4.24,0,6.36,0,2.1-1.09,4.23-.86,6.37-.17,1.11,2.06.7,4.2.34,6.34-.1.19-.23.34-.4.47-2.09.71-4.23.31-6.36.29-1.53.17-3.06.08-4.59.09-.66,0-1.26-.15-1.72-.65Z"/><path class="cls-61" d="M63.18,42.95c2.12,0,4.24,0,6.36,0,.53.39.64.95.64,1.55,0,5.83.13,11.65-.07,17.48.14,1.58.08,3.16.08,4.74,0,.64-.09,1.26-.55,1.77-2.18.9-4.37.85-6.56.05-.83-2.18-.99-4.35.1-6.5,0-4.24,0-8.48,0-12.72,0-2.12,0-4.24,0-6.36Z"/><path class="cls-96" d="M63.18,62.04c0,2.12,0,4.24.01,6.37,1.08,2.13.91,4.28.1,6.44-2.16.86-4.32,1-6.47-.08,0-4.24,0-8.49,0-12.73,2.12,0,4.24,0,6.36,0Z"/><path class="cls-31" d="M69.55,62.04c0-6.36,0-12.73-.01-19.09,0-2.12,0-4.24,0-6.36,2.12,0,4.24,0,6.37,0,0,4.24,0,8.49.01,12.73.65.59.65,1.37.65,2.16-.01,1.4.07,2.8-.09,4.2.16,1.57.08,3.14.08,4.71,0,.64-.09,1.25-.55,1.76-2.16.83-4.32.99-6.45-.09Z"/><path class="cls-53" d="M152.34,125.67c2.11,0,4.22,0,6.32,0,0,2.12,0,4.25,0,6.37-2.1,1.07-4.23.87-6.38.15-1.04-2.08-.82-4.2-.19-6.34.08-.06.17-.12.25-.19Z"/><path class="cls-51" d="M152.32,132.03c2.11,0,4.22,0,6.33.01.01,2.12.03,4.24.04,6.36,0,0-.07,0-.07,0-2.09,1.09-4.22.87-6.36.16-1.04-2.08-.8-4.2-.2-6.33.08-.06.17-.13.25-.19Z"/><path class="cls-65" d="M145.94,74.76c2.12,0,4.24,0,6.36,0,0,4.56,0,9.12,0,13.67v18.14c-2.12,1.1-4.27.9-6.42.13-.9-1.03-.53-2.29-.59-3.47-.05-.99-.05-1.99.08-2.98-.14-2.13-.16-4.27,0-6.4-.15-2.14-.15-4.28,0-6.42-.2-3.71-.07-7.42-.07-11.12,0-.6.11-1.16.64-1.55Z"/><path class="cls-267" d="M145.97,106.58c2.11,0,4.22,0,6.33,0,0,2.12,0,4.25,0,6.37-2.1,1.07-4.23.87-6.38.15-1.05-2.08-.81-4.2-.2-6.33.08-.06.17-.13.25-.19Z"/><path class="cls-149" d="M145.96,112.94c2.11,0,4.22,0,6.34.01,0,2.12,0,4.25-.01,6.37-2.1,1.07-4.23.86-6.37.15-1.05-2.08-.8-4.2-.2-6.33.08-.06.17-.13.25-.19Z"/><path class="cls-212" d="M145.94,119.3c2.11,0,4.22.01,6.34.02.02,2.12.04,4.23.06,6.35,0,0-.08,0-.08,0-2.09,1.1-4.21.87-6.35.16-1.05-2.08-.79-4.2-.21-6.33.08-.07.16-.13.25-.2Z"/><path class="cls-222" d="M145.94,74.76v12.73c-2.12,1.1-4.26.9-6.42.13-.9-1.03-.54-2.29-.59-3.46-.05-.99-.05-1.99.08-2.98-.13-2.12-.17-4.23,0-6.35-.03-2.1-.4-4.21.23-6.28.1-.19.24-.34.42-.45,2.12-.42,4.23-.85,6.28.3v6.36Z"/><path class="cls-65" d="M145.94,68.4c-2.12,0-4.24,0-6.37,0-.64-.47-.64-1.17-.65-1.86-.02-3-.02-6.01,0-9.01,0-.69.02-1.38.65-1.86,2.12,0,4.24,0,6.35.01,0,4.24,0,8.48.01,12.72Z"/><path class="cls-222" d="M139.57,55.67v12.73c-2.12,1.1-4.27.9-6.42.13-.9-1.03-.53-2.29-.59-3.47-.05-.99-.05-1.99.08-2.98-.14-2.14-.15-4.28,0-6.42-.16-1.55-.08-3.11-.08-4.66,0-.65.16-1.23.65-1.69h0c2.12,0,4.24,0,6.36,0,0,2.12,0,4.24,0,6.36Z"/><path class="cls-186" d="M247.15,138.39v6.36c-.07.08-.14.16-.21.25-.59.47-1.3.41-1.98.41-19.6.01-39.19.01-58.79,0-.74,0-1.49.03-2.12-.49-.9-2.18-.95-4.36.02-6.54,0,0,.12.03.12.03,20.99,0,41.97-.01,62.96-.02Z"/><path class="cls-206" d="M165.07,144.79c2.11-.04,4.23-.08,6.34-.12.08.06.15.13.23.19.67,2.04.58,4.09.07,6.14-.11.18-.26.32-.44.43-2.15.43-4.29.73-6.38-.24-.7-2.16-.99-4.31.19-6.41Z"/><path class="cls-24" d="M165.07,144.79c-.02,2.09-.04,4.19-.06,6.28-.36.55-.94.7-1.53.67-1.61-.09-3.29.43-4.83-.46-1.06-2.08-.8-4.21-.21-6.34.08-.07.16-.13.25-.2l6.39.05Z"/><path class="cls-264" d="M177.69,132.01c.01,2.13.02,4.26.03,6.4-2.11,1.01-4.21,1.01-6.32-.01,0-2.12,0-4.25,0-6.37,2.1,0,4.19-.01,6.29-.02Z"/><path class="cls-123" d="M171.4,138.4h6.32s.1-.03.1-.03c1.03,2.03.66,4.12.28,6.22-.1.19-.24.34-.41.46-2.11.45-4.23.81-6.29-.23l.05-.07-.04-.07c0-2.09,0-4.19,0-6.28Z"/><path class="cls-228" d="M152.31,138.39c2.11,0,4.22,0,6.32,0,.02,2.12.03,4.23.05,6.35,0,0-.01.04-.01.04-2.11,1.04-4.24.86-6.38.14-1.06-2.08-.8-4.2-.22-6.33.08-.07.16-.13.24-.2Z"/><path class="cls-112" d="M177.73,144.72c.03-2.12.06-4.23.09-6.35,2.08,0,4.17,0,6.25.01,0,2.12.01,4.24.02,6.36-1.42.97-4.99.96-6.36-.02Z"/><path class="cls-40" d="M133.2,49.31c0,2.12,0,4.25,0,6.37-2.1,1.08-4.23.87-6.38.16-1.05-2.08-.81-4.2-.2-6.33.08-.06.17-.13.25-.19,2.11,0,4.22,0,6.33,0Z"/><path class="cls-235" d="M120.47,49.31c0-2.12,0-4.25.01-6.37,2.11,0,4.23.01,6.34.02.02,2.12.03,4.24.05,6.36,0,0-.07-.01-.07-.01-2.01,1.1-4.07.79-6.14.24-.07-.08-.13-.16-.19-.24Z"/><path class="cls-109" d="M75.92,55.67c0-2.12,0-4.24,0-6.36,2.12,0,4.24,0,6.36,0,.08.07.16.13.24.2.57,2.12.82,4.23-.2,6.31-2.15.74-4.29.97-6.4-.14Z"/><path class="cls-106" d="M82.28,49.31c0-2.12,0-4.24,0-6.36,2.11-1.02,4.21-1.03,6.31,0h.07c1.08,2.02.67,4.11.29,6.2-.1.19-.24.34-.42.46-2.12.42-4.23.85-6.28-.3h0Z"/><path class="cls-250" d="M88.61,42.95c-2.11,0-4.21,0-6.32,0,0-2.13,0-4.26.01-6.39,2.09,0,4.19,0,6.28,0,0,2.13.01,4.26.02,6.39Z"/><path class="cls-33" d="M114.11,49.31c2.12,0,4.24,0,6.36,0,0,0,0,0,0,0,.64.59.66,1.37.65,2.16-.01,1.4.07,2.8-.09,4.19-.03,2.15.53,4.34-.38,6.43-2.09.99-4.21.77-6.35.19-.07-.08-.13-.16-.2-.24,0-4.24,0-8.49,0-12.73Z"/><path class="cls-19" d="M107.78,62.03c2.11,0,4.22,0,6.33.01,0,0,0,0,0,0,.5.47.64,1.06.65,1.72.02,3.11.02,6.22,0,9.34,0,.59-.08,1.16-.45,1.65-2.06,1.17-4.21.72-6.36.37-.19-.09-.35-.23-.47-.4-.71-2.09-.31-4.23-.29-6.35-.17-1.58-.08-3.15-.08-4.73,0-.61.17-1.14.61-1.57l.07-.03Z"/><path class="cls-220" d="M107.71,62.05c0,2.13,0,4.25,0,6.38-2.11.96-4.2,1.04-6.29-.06l-.05.04c-1.11-1.93-.67-3.95-.35-5.97.1-.18.25-.31.43-.4,2.09,0,4.18,0,6.27.01Z"/><path class="cls-183" d="M95.04,55.7c2.09,0,4.19-.02,6.28-.03.04,2.12.08,4.25.12,6.37l-.14-.02c-2.11,1.13-4.24.93-6.39.11-.81-2.16-1.04-4.31.12-6.43Z"/><path class="cls-137" d="M95.04,55.7c-.01,2.11-.03,4.22-.04,6.33-.07.08-.13.16-.2.24-2.11.62-4.21.78-6.28-.17-.94-1.43-.38-3.03-.52-4.56-.06-.62.02-1.25.08-1.87-.16-1.56-.08-3.12-.08-4.67,0-.65.16-1.23.63-1.7l.03.02c2.11-1.07,4.22-1.02,6.34-.04,0,0,.04.05.04.05,0,2.12,0,4.25,0,6.37Z"/><path class="cls-265" d="M95,49.28c-2.11.01-4.23.03-6.34.04,0-2.13.01-4.25.02-6.38,2.1,0,4.19.01,6.29.02.01,2.1.02,4.21.03,6.31Z"/><path class="cls-224" d="M133.2,176.57c-1.64,0-3.29-.05-4.93.02-1.13.05-1.51-.4-1.45-1.49.07-1.16-.03-2.33.03-3.5.05-1.01-.3-1.46-1.36-1.41-1.22.06-2.44-.03-3.66.03-1.05.05-1.39-.38-1.38-1.4.04-3.18-.03-6.36.04-9.54.03-1.33-.53-1.83-1.78-1.81-1.11.02-2.23,0-3.34,0-.86,0-1.26-.4-1.26-1.26,0-5.51,0-11.02,0-16.53,0-.96.49-1.31,1.39-1.3,1.01.02,2.02-.03,3.02.01,1.38.06,2.07-.44,1.97-1.94-.09-1.48-.02-2.97-.01-4.45,2.12-1.07,4.26-.89,6.42-.11.89,1.04.53,2.29.59,3.47.05.99.05,1.99-.08,2.98.14,2.13.16,4.26,0,6.39.14,2.11.16,4.22,0,6.33.21,3.37.04,6.75.1,10.13.03,1.82.18,1.92,2.01,2.01,1.29.06,2.66-.35,3.82.58.4.47.51,1.03.51,1.62.03,3.16.02,6.32,0,9.47,0,.53-.06,1.05-.4,1.5-.08.07-.16.13-.24.2Z"/><path class="cls-14" d="M114.14,106.54c-.04-2.11-.08-4.23-.11-6.34.07-.08.14-.16.21-.24,2.14-.56,4.27-.8,6.36.19.83,2.17.85,4.34-.01,6.5-2.16.85-4.31,1.04-6.44-.11Z"/><path class="cls-231" d="M114.03,100.2c-1.58,0-3.16-.04-4.74.03-1.14.05-1.63-.31-1.57-1.51.08-1.63.03-3.26.03-4.89,2.13-1.04,4.28-.9,6.44-.08.88,2.16.95,4.32-.03,6.47l-.13-.02Z"/><path class="cls-249" d="M114.05,93.84c-2.1,0-4.2-.01-6.29-.02,0-2.12.02-4.25.03-6.37,2.08-1.04,4.18-.81,6.31-.17,1.16,1.98.71,4.07.4,6.14-.1.18-.25.32-.44.41Z"/><path class="cls-243" d="M69.59,87.52c-.02,2.11-.04,4.21-.06,6.32,0,0,0,0,0,0-2,1.17-4.1.71-6.19.35-.19-.1-.34-.24-.46-.42-.43-2.12-.85-4.23.3-6.28h0c1.93-1.15,3.97-.66,5.99-.39.18.1.32.24.42.42Z"/><path class="cls-38" d="M114.05,87.49c-2.09-.01-4.18-.02-6.27-.03-.04-2.11-.08-4.23-.11-6.34.07-.08.14-.16.2-.23,2.12-.61,4.22-.72,6.31.13.94,2.08.79,4.18.13,6.3-.08.06-.17.12-.26.18Z"/><path class="cls-118" d="M75.96,81.16c-.02,1.68-.07,3.37-.03,5.05.02.95-.31,1.32-1.28,1.29-1.68-.05-3.37,0-5.05.01,0,0-.1-.06-.1-.06-1-2.08-.81-4.2-.15-6.32,1.99-1.16,4.09-.67,6.18-.41.18.1.33.24.43.42Z"/><path class="cls-182" d="M107.67,81.11c-1.58,0-3.16-.04-4.74.03-1.14.05-1.63-.31-1.57-1.51.08-1.63.03-3.26.03-4.9,2.11-.96,4.22-1.04,6.31.05l.07-.04c1,2.12.97,4.25.03,6.38l-.13-.02Z"/><path class="cls-133" d="M82.33,74.8c-.02,1.68-.07,3.36-.04,5.05.02.95-.32,1.32-1.28,1.3-1.68-.04-3.37,0-5.05.02,0,0-.1-.06-.1-.06-1-2.08-.81-4.19-.14-6.32,1.99-1.15,4.09-.67,6.18-.41.18.1.33.24.43.43Z"/><path class="cls-179" d="M114.14,106.54c2.1.02,4.19.04,6.29.06.08.06.17.12.25.19.63,2.12.84,4.22-.17,6.29-2.15.73-4.29.98-6.4-.17,0-2.12.02-4.25.03-6.37Z"/><path class="cls-130" d="M107.7,74.79c-2.1-.02-4.21-.04-6.31-.05,0-2.12.02-4.24.02-6.37,2.1.02,4.19.04,6.29.06,0,2.12,0,4.24,0,6.36Z"/><path class="cls-163" d="M88.7,68.44c-.02,1.68-.08,3.36-.04,5.04.02.94-.32,1.32-1.28,1.3-1.68-.04-3.36,0-5.05.02,0,0-.1-.07-.1-.07-1.01-2.08-.81-4.19-.14-6.32,1.99-1.15,4.1-.67,6.19-.4.18.1.33.24.43.43Z"/><path class="cls-85" d="M95,62.03c2.1,0,4.2,0,6.3,0,.02,2.13.04,4.26.06,6.39-2.12,0-4.24,0-6.36-.01-1.03-2.13-1.01-4.25,0-6.38h0Z"/><path class="cls-54" d="M94.99,62.02c0,2.13,0,4.25,0,6.38-2.1.01-4.2.03-6.3.04,0,0-.1-.07-.1-.07-1.01-2.01-.77-4.06-.18-6.12.08-.06.16-.13.24-.19,2.11-.01,4.22-.03,6.33-.04Z"/><path class="cls-175" d="M114.12,112.92c2.1.02,4.21.03,6.31.05.08.05.15.11.23.16.74,1.91.55,3.85.15,5.8-.1.17-.24.29-.42.37-1.58,0-3.16-.04-4.74.03-1.14.05-1.63-.31-1.57-1.51.08-1.63.03-3.26.03-4.89Z"/><path class="cls-213" d="M120.51,125.63c-.04-2.11-.07-4.23-.11-6.34l.13.02c2.12-1.11,4.25-.92,6.4-.1.9,2.17.87,4.35.03,6.54-2.16.86-4.32,1.05-6.45-.11Z"/><path class="cls-237" d="M120.51,125.63c2.1.02,4.19.04,6.29.06.08.05.15.11.23.16.74,1.91.55,3.85.16,5.79-.1.17-.24.29-.42.38-2.1,0-4.2,0-6.29,0,0-2.13.02-4.25.03-6.38Z"/><path class="cls-225" d="M63.22,93.88c2.1-.01,4.21-.03,6.31-.04,0,1.64-.04,3.28.03,4.91.04,1.08-.32,1.53-1.45,1.49-1.64-.07-3.28,0-4.91,0,0,0-.05-.04-.05-.04-.94-1.5-.9-4.99.07-6.32Z"/><path class="cls-2" d="M56.78,106.55c-2.1.02-4.2.03-6.31.05-.08-.06-.16-.13-.24-.19-.6-2.09-.87-4.17.22-6.2h0c2.03-1.08,4.12-.81,6.21-.22.06.08.13.16.19.25-.02,2.11-.04,4.21-.07,6.32Z"/><path class="cls-6" d="M63.22,93.88c-.02,2.11-.04,4.21-.07,6.32-2.1.01-4.2.03-6.31.04,0,0-.07-.04-.07-.04-1.08-2.01-.66-4.1-.29-6.18.1-.19.24-.34.41-.46,2.1-.43,4.2-.86,6.24.27l.09.05Z"/><path class="cls-192" d="M50.41,112.91c-2.11.02-4.21.04-6.32.07,0,0-.01-.08-.01-.08-1.15-2-.69-4.08-.33-6.16.1-.19.24-.34.42-.46,2.11-.42,4.22-.85,6.25.28,0,0,.05.04.05.04-.02,2.1-.04,4.21-.06,6.31Z"/><path class="cls-158" d="M44.08,106.58c0,2.11,0,4.22,0,6.32-2.12.01-4.24.03-6.36.04-.08-.07-.16-.13-.24-.2-.57-2.08-.85-4.15.23-6.17,2.12-1.02,4.24-1.06,6.37,0Z"/><path class="cls-242" d="M37.73,119.25c-2.13.04-4.26.07-6.39.11,0,0,.03-.12.03-.12-1.07-2.1-1.04-4.2-.02-6.3,2.12-1.04,4.24-1.03,6.36,0,0,0,0,0,0,0,0,2.1,0,4.2,0,6.31Z"/><path class="cls-93" d="M31.35,112.94c0,2.1.01,4.2.02,6.3-2.13,0-4.26.01-6.4.02,0-2.1,0-4.21.01-6.31,2.12,0,4.24,0,6.37,0Z"/><path class="cls-257" d="M37.72,112.94c-2.12,0-4.24,0-6.36,0,0-2.12,0-4.24,0-6.36h6.36c0,2.12,0,4.24,0,6.36Z"/><path class="cls-144" d="M44.08,106.58h-6.37c0-4.24,0-8.48,0-12.73,2.12,0,4.24,0,6.36,0,0,2.12,0,4.24,0,6.36,1.04,2.12,1.04,4.24,0,6.36Z"/><path class="cls-117" d="M56.82,74.77c2.12,0,4.24,0,6.36,0,.07.06.15.13.23.19.64,2,.64,4,0,6-.08.06-.15.12-.23.19-2.12,0-4.24,0-6.37,0,0-2.12,0-4.24,0-6.36Z"/><path class="cls-269" d="M44.08,106.58v-6.36c2.12,0,4.24,0,6.37,0,0,2.12-.02,4.23-.02,6.35-2.11,0-4.23.01-6.34.02Z"/><path class="cls-188" d="M56.82,93.85c-.01,2.12-.02,4.23-.04,6.35-2.11,0-4.22.01-6.33.02,0-2.12,0-4.24,0-6.36,2.12-1.03,4.24-1.06,6.37,0Z"/><path class="cls-114" d="M56.82,93.85c-2.12,0-4.24,0-6.37,0,0-2.12,0-4.25,0-6.37,2.12,0,4.25,0,6.37,0,1.03,2.12,1.03,4.24,0,6.36Z"/><path class="cls-188" d="M56.82,93.85c0-2.12,0-4.24,0-6.36,2.12,0,4.24,0,6.36,0-.02,2.11-.03,4.23-.05,6.34-2.11,0-4.21.01-6.32.02Z"/><path class="cls-72" d="M69.57,81.15c-.03,2.1-.05,4.21-.08,6.31-2.11,0-4.21.02-6.32.03,0-2.12,0-4.24,0-6.36,0,0,0,0,0,0,2.03-1.09,4.11-.82,6.21-.22.06.08.12.16.19.25Z"/><path class="cls-177" d="M63.19,74.76c0-2.12,0-4.24,0-6.36,2.12,0,4.24,0,6.37-.01.08.06.15.13.23.19.67,2.02.58,4.05.06,6.08-.11.18-.26.31-.44.42-2.1.37-4.21.83-6.23-.33h0Z"/><path class="cls-44" d="M69.55,62.04c2.12,0,4.24,0,6.36-.01.08.06.15.13.23.19.68,2.02.58,4.05.07,6.08-.11.18-.26.32-.44.42-2.1.37-4.21.83-6.23-.33,0,0,0,0,0,0,0-2.12,0-4.24,0-6.35Z"/><path class="cls-119" d="M75.92,55.67c2.11,0,4.22,0,6.33-.01.08.06.16.12.24.18.73,2.02.59,4.05.09,6.09-.11.18-.26.32-.44.43-2.1.38-4.21.83-6.23-.32,0,0,0-.01,0-.01,0-2.12,0-4.24,0-6.36Z"/><path class="cls-258" d="M145.94,125.67c2.11,0,4.22,0,6.33,0,.02,2.12.04,4.24.06,6.36,0,0-.05,0-.05,0-2.09,1.09-4.22.87-6.36.16-1.06-2.07-.79-4.2-.22-6.33.08-.07.16-.13.24-.2Z"/><path class="cls-46" d="M145.94,132.03c2.11,0,4.23,0,6.34,0,0,2.12.02,4.24.03,6.36,0,0-.01,0-.01,0-2.1,1.08-4.23.87-6.38.16-1.06-2.07-.79-4.2-.22-6.33.08-.07.16-.13.24-.2Z"/><path class="cls-239" d="M145.93,93.86c0,2.12,0,4.25-.01,6.37-2.13,1.07-4.27.91-6.43.09-.91-2.18-.88-4.36-.03-6.54,2.17-.87,4.33-1.02,6.48.08Z"/><path class="cls-233" d="M139.58,100.21c2.11,0,4.23.01,6.34.02.02,2.12.04,4.24.05,6.35,0,0-.07,0-.07,0-2.09,1.1-4.22.87-6.35.16-1.05-2.08-.79-4.2-.21-6.33.08-.07.16-.13.25-.2Z"/><path class="cls-12" d="M145.93,93.86c-2.12,0-4.23-.01-6.35-.02-.08-.06-.15-.12-.23-.18-.66-2-.68-4,.01-6,.08-.06.16-.12.24-.17,2.11,0,4.22,0,6.33,0,0,2.12,0,4.25,0,6.37Z"/><path class="cls-7" d="M139.57,106.58c2.11,0,4.22,0,6.33,0,.02,2.12.04,4.24.06,6.37,0,0-.05,0-.05,0-2.09,1.09-4.22.87-6.36.16-1.06-2.07-.79-4.2-.22-6.33.08-.07.16-.13.24-.2Z"/><path class="cls-67" d="M139.57,112.94c2.11,0,4.23,0,6.34,0,.01,2.12.02,4.24.03,6.36,0,0-.02,0-.02,0-2.1,1.09-4.23.87-6.37.16-1.06-2.07-.79-4.2-.22-6.33.08-.07.16-.13.24-.2Z"/><path class="cls-189" d="M139.57,119.3c2.12,0,4.24,0,6.35,0,0,2.12,0,4.24.01,6.36,0,0,0,0,0,0-2.1,1.09-4.23.87-6.38.16-1.07-2.07-.79-4.2-.22-6.33.08-.07.16-.13.24-.2Z"/><path class="cls-76" d="M139.55,81.14c.02,2.12.03,4.24.05,6.36,0,0-.07,0-.07,0-2.12,1.1-4.26.92-6.42.11-.91-2.17-.87-4.35-.03-6.54,2.17-.87,4.33-1.02,6.47.08Z"/><path class="cls-241" d="M139.55,81.14c-2.11,0-4.23-.01-6.34-.02-.08-.07-.16-.13-.24-.2-.59-2.13-.8-4.24.17-6.33,2.16-.69,4.31-.95,6.43.17v6.37Z"/><path class="cls-209" d="M139.57,74.77c-2.11,0-4.23-.01-6.34-.02-1.15-2.01-.8-4.08-.23-6.16.08-.06.16-.12.25-.18,2.11,0,4.22,0,6.33,0,0,2.12,0,4.25,0,6.37Z"/><path class="cls-248" d="M133.19,62.05c.02,2.12.03,4.24.05,6.36,0,0-.07,0-.07,0-2.12,1.1-4.27.92-6.42.1-.91-2.18-.85-4.37-.05-6.56,2.18-.82,4.35-1.01,6.49.11Z"/><path class="cls-260" d="M133.19,62.05c-2.11,0-4.23-.01-6.34-.02-1.14-2.02-.8-4.09-.23-6.17.08-.06.16-.12.25-.19,2.11,0,4.22,0,6.33,0,0,2.12,0,4.25-.01,6.37Z"/><path class="cls-64" d="M177.73,144.72c2.12,0,4.24.01,6.36.02,21.02,0,42.04,0,63.06.01v6.36c-.62.79-1.52.65-2.35.65-6.14.02-12.29,0-18.43,0-14.78,0-29.56,0-44.33,0-.58,0-1.17.02-1.75,0-1.07,0-1.54.52-1.54,1.56,0,.79.03,1.59-.05,2.38-.15,1.56-.88,2.37-2.43,2.36-1.66,0-3.39.47-4.97-.46-.84-2.19-.98-4.37.09-6.53h-.02c1.08-.99,2.42-.57,3.65-.62,1.98-.08,2.02-.11,2.1-2.08.05-1.23-.39-2.57.64-3.64l-.03-.04Z"/><path class="cls-80" d="M171.4,157.48c1.54,0,3.07,0,4.61,0,1.86,0,2.05-.2,2.07-2.12.01-1.01.03-2.01,0-3.02-.03-.87.32-1.28,1.21-1.23.42.03.85,0,1.27,0,22.2,0,44.4,0,66.59,0h1.27v6.36c-.67.84-1.63.65-2.51.65-7.58.02-15.15.01-22.73.01-11.71,0-23.42,0-35.12,0-.53,0-1.06.02-1.59,0-1.23-.04-1.66.58-1.7,1.75-.04,1.3.31,2.66-.42,3.89-.64.71-1.5.69-2.35.7-2.7.02-5.4-.02-8.1.02-1.63.02-1.78.22-1.86,1.84-.06,1.21.21,2.44-.27,3.61-.08.17-.2.32-.34.45-1.28.73-2.69.43-4.03.41-1.32-.01-1.76.5-1.75,1.78.02,1.3.27,2.64-.34,3.9-.12.17-.26.3-.44.4-2.14.39-4.29.73-6.37-.27-.39-.48-.47-1.05-.48-1.64-.03-3.17-.02-6.34,0-9.51,0-.59.09-1.16.46-1.65,1.07-.99,2.39-.6,3.62-.65,2.13-.07,2.24-.14,2.27-2.24.05-4.06.15-4.16,4.2-4.13.98,0,2.03-.2,2.83.65Z"/><path class="cls-116" d="M184.13,163.85c0-1.64.05-3.29-.02-4.93-.05-1.13.4-1.48,1.49-1.45,2.44.06,4.88.02,7.32.02,18.5,0,37,0,55.51,0h4.77v6.36c-.39.52-.95.64-1.54.64-3.31,0-6.62.12-9.93-.07-.84.1-1.69.09-2.54.09-13.23,0-26.47,0-39.7,0-.85,0-1.69.02-2.54-.09-3.7.18-7.41.06-11.12.07-.54,0-1.06-.06-1.51-.4-.07-.08-.13-.16-.2-.24Z"/><path class="cls-169" d="M171.4,157.48c-1.69,0-3.38.03-5.07-.01-.95-.02-1.34.33-1.31,1.29.05,1.27-.03,2.53.02,3.8.04.96-.36,1.32-1.31,1.29-1.69-.04-3.38-.01-5.07-.01-.08-.06-.15-.13-.23-.19-.81-2.02-.33-4.11-.32-6.18,0-2.08-.48-4.17.3-6.21.08-.07.15-.13.23-.2,2.12,0,4.24,0,6.35,0,2.13,0,4.26.02,6.39.03,0,2.13,0,4.25,0,6.38Z"/><path class="cls-268" d="M177.77,144.76c0,1.64-.06,3.28.01,4.92.05,1.13-.4,1.5-1.49,1.45-1.64-.07-3.28-.03-4.92-.03,0-2.1.02-4.19.02-6.29,2.12-.02,4.25-.03,6.37-.05Z"/><path class="cls-155" d="M152.3,144.75c2.12,0,4.24.02,6.36.03,0,2.1-.01,4.19-.02,6.29l.03.09c-2.11,1.01-4.25.84-6.4.12-1.07-2.07-.79-4.2-.23-6.33.08-.07.16-.13.24-.2Z"/><path class="cls-37" d="M145.94,138.39c2.12,0,4.24,0,6.36,0,0,2.12,0,4.24,0,6.36,0,0,0,0,0,0-2.1,1.09-4.23.87-6.38.16-1.07-2.07-.8-4.2-.22-6.33.08-.07.16-.13.24-.2Z"/><path class="cls-203" d="M120.48,55.67c0-2.12,0-4.24,0-6.36,2.11,0,4.22,0,6.33,0,.02,2.12.04,4.25.06,6.37,0,0-.06,0-.06,0-2.11,1.05-4.22,1.04-6.33,0Z"/><path class="cls-136" d="M88.63,49.3c0,2.12,0,4.23,0,6.35-2.1,1.09-4.21,1.04-6.33.05,0,0-.06-.03-.06-.03,0-2.12.02-4.24.03-6.36,2.12,0,4.23,0,6.35,0Z"/><path class="cls-251" d="M120.48,55.67c2.11,0,4.22,0,6.33,0,.01,2.12.03,4.24.04,6.36,0,2.12,0,4.25,0,6.37-.07.08-.13.16-.2.24-2.13.59-4.25.8-6.34-.17-.69-2.16-.94-4.32.17-6.43,0-2.12,0-4.24,0-6.37Z"/><path class="cls-166" d="M120.47,62.04c0,2.12,0,4.24,0,6.36,1.08,2.1.87,4.23.16,6.38-2.07,1.07-4.2.79-6.33.23-.07-.08-.13-.16-.2-.24,0-4.24,0-8.49,0-12.73,2.12,0,4.24,0,6.36,0Z"/><path class="cls-232" d="M107.8,81.13c0-2.13-.02-4.26-.03-6.38,2.11,0,4.22.01,6.33.02,0,0,0,0,0,0,1.07,2.03.82,4.11.21,6.2-.08.06-.17.12-.25.18-2.09,0-4.18,0-6.27,0Z"/><path class="cls-254" d="M82.31,55.69c2.11-.02,4.22-.03,6.33-.05,0,2.14.02,4.27.03,6.41,0,0,0,0,0,0-2.13.99-4.27,1.06-6.39-.02.01-2.11.02-4.23.03-6.34Z"/><path class="cls-79" d="M133.2,163.85c-1.64,0-3.29-.05-4.93.02-1.12.05-1.47-.39-1.46-1.48.05-3.76.02-7.52.02-11.28,2.12-1.07,4.27-.89,6.42-.11.89,1.04.53,2.3.58,3.48.05,1,.04,2-.08,2.99.15,1.56.08,3.12.08,4.68,0,.65-.16,1.24-.65,1.7h0Z"/><path class="cls-124" d="M133.14,151.11c-2.1,0-4.19,0-6.29,0,0-2.13.02-4.26.03-6.38,2.08-1.03,4.19-.81,6.31-.16,1.16,1.98.69,4.07.39,6.15-.1.18-.25.32-.44.41Z"/><path class="cls-156" d="M126.88,138.37c-.04-2.12-.07-4.23-.11-6.35l.13.02c2.11-1.12,4.24-.93,6.39-.11.9,2.17.87,4.35.03,6.53-2.16.87-4.31,1.04-6.44-.1Z"/><path class="cls-196" d="M126.88,138.37c2.1.02,4.2.03,6.3.05.08.06.16.12.23.18.67,2,.7,4-.02,5.99-.08.06-.16.11-.25.16-2.09-.01-4.18-.02-6.28-.03,0-2.12,0-4.24.01-6.35Z"/><path class="cls-83" d="M133.2,163.85c0-2.13.01-4.27.02-6.4.77-.79,1.76-.6,2.7-.61,1.22-.02,2.44-.06,3.65.08,1.57-.16,3.15-.08,4.72-.08.64,0,1.26.1,1.75.56.41.46.53,1.02.53,1.61-.01,5.84.13,11.69-.07,17.53.18,3.68.06,7.36.08,11.04,0,.66-.15,1.25-.65,1.71-2.12,0-4.24,0-6.37,0,0-4.24,0-8.48,0-12.72,0-3.76-.03-7.51.02-11.27.01-1.1-.35-1.52-1.46-1.47-1.64.07-3.28.02-4.92.02Z"/><path class="cls-164" d="M120.43,106.61c0-2.13,0-4.25,0-6.38.07-.08.13-.16.2-.24,2.13-.6,4.25-.81,6.34.17.82,2.17.85,4.33-.02,6.5-2.16.86-4.32,1.02-6.46-.09l-.06.04Z"/><path class="cls-171" d="M114.16,100.22l-.12-6.38.13.02c2.11-1.13,4.24-.93,6.38-.12.85,2.16.96,4.31-.05,6.45,0,0-.09.02-.09.02-2.09,0-4.18,0-6.27,0Z"/><path class="cls-95" d="M120.46,93.85c-2.09,0-4.19,0-6.28.01l-.13-6.38.14.02c2.07-1.13,4.19-.89,6.31-.17,1.03,2.07.79,4.19.2,6.32-.08.07-.16.13-.24.2Z"/><path class="cls-5" d="M120.47,87.49c-2.09,0-4.18.01-6.27.02-.04-2.12-.08-4.25-.13-6.37,0,0,.08-.02.08-.02,2.09-1.08,4.21-.87,6.35-.15,1.05,2.07.79,4.19.21,6.32-.08.07-.16.13-.24.2Z"/><path class="cls-41" d="M75.94,74.79c-.03,2.1-.05,4.2-.08,6.3-2.1.02-4.19.04-6.29.06,0,0-.05-.05-.05-.05-1-2.12-1.02-4.23.03-6.34h0c2.03-1.09,4.12-.82,6.21-.22.06.08.12.16.19.25Z"/><path class="cls-219" d="M82.3,68.43c-.02,2.1-.04,4.2-.07,6.3-2.1.02-4.19.04-6.29.06,0,0-.05-.06-.05-.06-1-2.12-1.01-4.23.02-6.34h0c2.03-1.07,4.11-.81,6.2-.21.06.08.12.16.19.25Z"/><path class="cls-47" d="M120.49,106.57c2.12,0,4.23,0,6.35,0,.08.07.16.13.24.2.58,2.12.81,4.23-.19,6.3-2.15.74-4.28.97-6.38-.15l-.07.04c.02-2.13.04-4.26.06-6.39Z"/><path class="cls-110" d="M82.27,62.03c2.13,0,4.26.01,6.39.02-.02,2.11-.04,4.21-.07,6.32-2.1.02-4.2.04-6.3.06,0,0-.03-.06-.03-.06-1.03-2.12-1.01-4.23,0-6.35h0Z"/><path class="cls-58" d="M120.51,112.93c2.11,0,4.22.01,6.33.02.08.06.15.12.23.19.64,2.01.68,4.01-.03,6.02-.08.06-.16.11-.24.17-2.09,0-4.18,0-6.27,0,0-2.13-.01-4.25-.02-6.38Z"/><path class="cls-20" d="M126.8,125.69c0-2.13,0-4.25,0-6.38,0,0,.09-.02.09-.02,2-1.15,4.08-.68,6.17-.32.19.1.34.25.45.42.46,2.15.76,4.29-.24,6.39-2.15.77-4.29.99-6.41-.14l-.06.04Z"/><path class="cls-185" d="M126.86,125.66c2.11,0,4.23,0,6.34.01.08.06.15.12.23.19.65,2,.66,4,0,6-.08.06-.15.12-.23.18-2.1,0-4.19,0-6.29,0-.02-2.13-.03-4.26-.05-6.39Z"/><path class="cls-161" d="M69.55,74.76c0,2.11-.02,4.23-.03,6.34-2.11,0-4.23.02-6.34.03,0-2.12,0-4.25,0-6.37,2.12,0,4.24,0,6.37,0Z"/><path class="cls-113" d="M75.91,68.39c0,2.11-.01,4.23-.02,6.34-2.11,0-4.23.02-6.34.03,0-2.12,0-4.25,0-6.37,2.12,0,4.24,0,6.36,0Z"/><path class="cls-105" d="M82.26,62.02c0,2.12,0,4.24,0,6.35-2.12.01-4.24.02-6.36.03,0-2.12,0-4.24,0-6.36,2.12,0,4.23-.02,6.35-.02Z"/><path class="cls-92" d="M139.57,125.67c2.12,0,4.24,0,6.36,0,0,2.12,0,4.24,0,6.36,0,0,0,0,0,0-1.99,1.16-4.07.68-6.14.35-.19-.09-.34-.22-.47-.38-.61-2.05-.66-4.1.02-6.15.08-.06.16-.13.24-.19Z"/><path class="cls-3" d="M139.57,132.03c2.12,0,4.24,0,6.36,0,0,2.12,0,4.24,0,6.36h0c-2.13,1.09-4.28.92-6.45.11-.85-2.17-1.01-4.33.09-6.47Z"/><path class="cls-274" d="M139.58,93.84c0,2.12,0,4.25,0,6.37,0,0-.02,0-.02,0-2.01,1.13-4.1.7-6.2.33-.19-.1-.34-.24-.46-.42-.47-2.15-.77-4.3.24-6.4,2.15-.77,4.3-.98,6.42.13,0,0,.02-.01.02-.01Z"/><path class="cls-174" d="M133.21,100.21c2.12,0,4.24,0,6.35,0,0,2.12,0,4.24.01,6.36,0,0,0,0,0,0-2.13,1.09-4.28.92-6.45.1-.84-2.17-1.02-4.33.09-6.47Z"/><path class="cls-68" d="M139.56,93.86c-2.12,0-4.24,0-6.35,0-.08-.06-.15-.12-.23-.19-.65-2-.65-4,0-5.99.08-.06.15-.12.23-.18,2.11,0,4.22,0,6.33,0,0,2.12.02,4.25.02,6.37Z"/><path class="cls-273" d="M133.21,106.58c2.12,0,4.24,0,6.36,0,0,2.12,0,4.24,0,6.36,0,0,0,0,0,0-2.1,1.09-4.23.87-6.38.16-1.07-2.07-.79-4.2-.22-6.33.08-.07.16-.13.24-.2Z"/><path class="cls-108" d="M133.21,112.94c2.12,0,4.24,0,6.36,0,0,2.12,0,4.24,0,6.36,0,0,0,0,0,0-2.12,1.04-4.24,1.04-6.36,0h0c-1.08-2.02-.8-4.09-.24-6.17.08-.07.16-.13.24-.19Z"/><path class="cls-37" d="M133.21,119.3c2.12,0,4.24,0,6.36,0,0,2.12,0,4.24,0,6.36,0,0,0,0,0,0-2.12,1.04-4.24,1.04-6.36,0h0c0-2.12,0-4.24,0-6.36Z"/><path class="cls-139" d="M133.21,81.12c0,2.12,0,4.25,0,6.37,0,0,0,0,0,0-2.01,1.14-4.11.7-6.2.33-.19-.1-.34-.24-.46-.42-.47-2.15-.77-4.3.24-6.4,2.16-.77,4.31-.97,6.43.13h0Z"/><path class="cls-68" d="M133.2,81.13c-2.12,0-4.24,0-6.36,0-.08-.06-.16-.13-.23-.19-.82-2.04-.32-4.15-.33-6.24-.18-1.52-.08-3.05-.09-4.57,0-.66.15-1.25.64-1.72,0,0,0,0,0,0,2.11,0,4.22,0,6.33,0,.02,2.12.03,4.24.05,6.36,0,2.12-.01,4.25-.02,6.37Z"/><path class="cls-195" d="M158.67,163.85c-1.64,0-3.28.05-4.92-.02-1.11-.05-1.49.36-1.47,1.46.05,3.28-.02,6.55.04,9.83.02,1.1-.36,1.51-1.47,1.47-1.64-.07-3.28-.02-4.92-.02,0-6.36,0-12.71.01-19.07.06-.08.12-.16.19-.24,2.04-.85,4.15-.32,6.24-.34,1.52-.18,3.05-.08,4.57-.09.66,0,1.25.15,1.72.64v6.36Z"/><path class="cls-126" d="M158.67,157.48c-2.13,0-4.26-.01-6.39-.02-1.05-2.02-.76-4.1-.22-6.18.08-.07.16-.13.24-.2,2.13.02,4.26.05,6.4.07,0,2.11-.01,4.21-.02,6.32Z"/><path class="cls-102" d="M145.94,144.76c2.12,0,4.24,0,6.36,0,0,2.11,0,4.22-.01,6.33l.04.08c-2.01,1.06-4.09.66-6.17.31-.19-.09-.34-.22-.47-.38-.61-2.05-.66-4.1.01-6.15.08-.06.16-.13.23-.19Z"/><path class="cls-87" d="M139.57,138.39c2.12,0,4.24,0,6.36,0,0,2.12,0,4.24,0,6.36,0,0,0,0,0,0-1.99,1.15-4.07.68-6.14.35-.19-.09-.34-.22-.47-.38-.61-2.05-.66-4.1.02-6.15.08-.06.16-.13.24-.19Z"/><path class="cls-125" d="M126.83,68.4c0,2.12,0,4.24,0,6.36-2.02,1.09-4.09.8-6.17.24-.07-.08-.13-.16-.19-.24,0-2.12,0-4.24,0-6.37,2.12,0,4.24,0,6.36,0Z"/><path class="cls-103" d="M120.47,81.13c-2.11,0-4.22,0-6.32,0-.01-2.12-.02-4.24-.04-6.36,2.12,0,4.24,0,6.36,0h0c1.08,2.02.8,4.09.23,6.17-.08.07-.16.13-.24.19Z"/><path class="cls-201" d="M139.56,157.43c-2.11,0-4.23,0-6.34.01-.03-2.11-.05-4.22-.08-6.33l.14.02c2.11-1.12,4.24-.92,6.38-.12.84,2.15,1.02,4.29-.09,6.42Z"/><path class="cls-15" d="M139.59,151.15c-2.1,0-4.21-.01-6.31-.02-.04-2.13-.08-4.25-.13-6.38l.14.02c1.4-.95,4.8-.96,6.28-.02h0c1.09,2.02.79,4.1.25,6.19-.08.07-.16.13-.24.2Z"/><path class="cls-43" d="M139.57,132.03c0,2.12,0,4.24,0,6.36,0,0,0,0,0,0-2.12,1.04-4.24,1.03-6.37,0,0,0-.02.02-.02.02,0-2.13,0-4.26.01-6.38,0,0,.02,0,.02,0,2.12-1.03,4.24-1.03,6.36,0h0Z"/><path class="cls-218" d="M133.2,138.4c2.12,0,4.24,0,6.37,0,0,2.12,0,4.24,0,6.36-2.09,0-4.19.01-6.28.02-.03-2.13-.06-4.25-.09-6.38Z"/><path class="cls-193" d="M139.56,157.43c0-2.09.02-4.19.02-6.28,0,0-.02-.05-.02-.05,2.12-1.03,4.26-.95,6.4-.06l-.02.13c.95,1.46.94,4.85-.03,6.27l.04.07c-2.13-.02-4.26-.05-6.39-.07Z"/><path class="cls-37" d="M120.52,100.21c-.02-2.12-.04-4.24-.05-6.35,0,0,.02,0,.02,0,2.1-1.09,4.23-.87,6.37-.16,1.06,2.07.79,4.2.22,6.33-.08.07-.16.13-.24.2-2.11,0-4.21,0-6.32,0Z"/><path class="cls-57" d="M133.21,100.21c0,2.12,0,4.24,0,6.36,0,0,0,0,0,0-2.12,1.04-4.24,1.04-6.36,0,0,0,0,0,0,0,0-2.12,0-4.24,0-6.36,0,0,0,0,0,0,2.12-1.04,4.24-1.04,6.36,0h0Z"/><path class="cls-62" d="M126.84,93.85c-2.12,0-4.24,0-6.35,0,0-2.12,0-4.24-.01-6.36,0,0,0,0,0,0,2.12-1.04,4.24-1.04,6.36,0h0c1.08,2.02.8,4.09.24,6.17-.08.07-.16.13-.24.19Z"/><path class="cls-228" d="M126.84,87.49c-2.12,0-4.24,0-6.36,0,0-2.12,0-4.24,0-6.36,0,0,0,0,0,0,2.12-1.04,4.24-1.04,6.36,0,0,0,0,0,0,0,0,2.12,0,4.24,0,6.37Z"/><path class="cls-214" d="M126.84,106.58c2.12,0,4.24,0,6.36,0,0,2.12,0,4.24,0,6.36,0,0,0,0,0,0-2.12,1.04-4.24,1.04-6.36,0,0,0,0,0,0,0,0-2.12,0-4.25,0-6.37Z"/><path class="cls-1" d="M126.84,112.94c2.12,0,4.24,0,6.36,0,0,2.12,0,4.24,0,6.36-2.1,0-4.21,0-6.31,0-.02-2.12-.03-4.24-.05-6.36Z"/><path class="cls-34" d="M139.57,132.03c-2.12,0-4.24,0-6.36,0,0-2.12,0-4.24,0-6.36,2.12,0,4.24,0,6.36,0,0,2.12,0,4.24,0,6.36Z"/><path class="cls-273" d="M133.2,100.22c-2.12,0-4.24,0-6.36,0,0-2.12,0-4.24,0-6.36,0,0,0,0,0,0,2.12-1.04,4.24-1.04,6.36,0,0,0,0,0,0,0,0,2.12,0,4.24,0,6.37Z"/><path class="cls-16" d="M133.2,93.85c-2.12,0-4.24,0-6.36,0,0-2.12,0-4.24,0-6.36,2.12,0,4.24,0,6.36,0,0,2.12,0,4.24,0,6.36Z"/><path class="cls-258" d="M126.84,81.13c-2.12,0-4.24,0-6.36,0,0-2.12,0-4.24,0-6.36,2.12,0,4.24,0,6.36,0,0,2.12,0,4.24,0,6.36Z"/><path class="cls-152" d="M145.9,157.44c.01-2.09.02-4.18.03-6.27,2.13,0,4.26,0,6.39,0-.02,2.1-.04,4.2-.06,6.3-2.12,0-4.25-.02-6.37-.03Z"/><path class="cls-236" d="M145.96,151.04c-2.13.02-4.26.04-6.4.06,0-2.11,0-4.23,0-6.34,2.12,0,4.24,0,6.36,0,0,2.09.02,4.19.03,6.28Z"/></g><path class="cls-52" d="M132.78,7.72l46.74,130.64-20.43,7.43-24.46,8.05-36.22-99.37-52.63,59.13-21.67,5.57-16.41-25.07L71.49,16.69l21.05-4.02,4.02,5.88,15.79-7.43,20.43-3.41M132.79,0c-.42,0-.85.03-1.27.11l-20.43,3.41c-.7.12-1.38.33-2.02.63l-9.84,4.63-.31-.46c-1.46-2.13-3.85-3.36-6.37-3.36-.48,0-.97.04-1.45.14l-21.05,4.02c-1.77.34-3.36,1.28-4.51,2.67L1.76,89.18c-2.15,2.61-2.35,6.31-.5,9.13l16.41,25.07c1.45,2.21,3.9,3.49,6.46,3.49.64,0,1.28-.08,1.92-.24l21.67-5.57c1.48-.38,2.82-1.2,3.84-2.34l44.04-49.48,31.79,87.23c1.14,3.12,4.09,5.08,7.25,5.08.8,0,1.61-.12,2.41-.39l24.46-8.05c.08-.02.15-.05.23-.08l20.43-7.43c3.99-1.45,6.06-5.85,4.63-9.85L140.05,5.12c-1.11-3.11-4.05-5.12-7.26-5.12h0Z"/></g></svg>